G75*
G70*
%OFA0B0*%
%FSLAX24Y24*%
%IPPOS*%
%LPD*%
%AMOC8*
5,1,8,0,0,1.08239X$1,22.5*
%
%ADD10C,0.1190*%
%ADD11C,0.0665*%
%ADD12R,0.0910X0.0280*%
%ADD13R,0.1575X0.1575*%
%ADD14R,0.1300X0.1300*%
%ADD15R,0.0355X0.0512*%
%ADD16R,0.0552X0.0788*%
%ADD17R,0.0540X0.0260*%
%ADD18R,0.0260X0.0540*%
%ADD19R,0.0512X0.0355*%
%ADD20R,0.0780X0.0780*%
%ADD21C,0.0780*%
%ADD22R,0.0257X0.0512*%
%ADD23R,0.0591X0.0670*%
%ADD24R,0.0355X0.0394*%
%ADD25C,0.1740*%
%ADD26C,0.0820*%
D10*
X005148Y001570D03*
X016554Y011101D03*
D11*
X016554Y001570D03*
X005148Y011101D03*
D12*
X012024Y011351D03*
X012024Y011851D03*
X012024Y012351D03*
X012024Y012851D03*
X014084Y012851D03*
X014084Y012351D03*
X014084Y011851D03*
X014084Y011351D03*
D13*
X017354Y005951D03*
D14*
X017354Y009179D03*
X017354Y002722D03*
D15*
X012309Y010601D03*
X011600Y010601D03*
X009909Y011601D03*
X009200Y011601D03*
X009200Y012601D03*
X009909Y012601D03*
X008909Y007101D03*
X008200Y007101D03*
X003909Y007601D03*
X003200Y007601D03*
X003200Y008601D03*
X003909Y008601D03*
X003909Y009601D03*
X003200Y009601D03*
X003200Y010601D03*
X003909Y010601D03*
X002709Y014401D03*
X002000Y014401D03*
X003200Y006601D03*
X003909Y006601D03*
X003909Y005601D03*
X003200Y005601D03*
X003200Y004601D03*
X003909Y004601D03*
X017200Y013101D03*
X017909Y013101D03*
X017909Y016101D03*
X017200Y016101D03*
D16*
X016472Y015231D03*
X016472Y013971D03*
X018637Y013971D03*
X018637Y015231D03*
D17*
X013244Y008203D03*
X013244Y007888D03*
X013244Y007573D03*
X013244Y007258D03*
X013244Y006943D03*
X013244Y006628D03*
X013244Y006313D03*
X013244Y005998D03*
X009864Y005998D03*
X009864Y006313D03*
X009864Y006628D03*
X009864Y006943D03*
X009864Y007258D03*
X009864Y007573D03*
X009864Y007888D03*
X009864Y008203D03*
D18*
X010452Y008791D03*
X010767Y008791D03*
X011082Y008791D03*
X011397Y008791D03*
X011712Y008791D03*
X012027Y008791D03*
X012342Y008791D03*
X012657Y008791D03*
X012657Y005411D03*
X012342Y005411D03*
X012027Y005411D03*
X011712Y005411D03*
X011397Y005411D03*
X011082Y005411D03*
X010767Y005411D03*
X010452Y005411D03*
D19*
X013054Y002455D03*
X013054Y001746D03*
X014154Y006996D03*
X014154Y007705D03*
X006554Y016246D03*
X006554Y016955D03*
D20*
X009554Y001601D03*
D21*
X001554Y002601D03*
X001554Y003601D03*
X001554Y004601D03*
X001554Y005601D03*
X001554Y006601D03*
X001554Y007601D03*
X001554Y008601D03*
X001554Y009601D03*
X001554Y010601D03*
X001554Y011601D03*
X007854Y016101D03*
X007854Y017101D03*
X014054Y016601D03*
X015054Y016601D03*
X016054Y016601D03*
X011554Y002601D03*
X010554Y002601D03*
X009554Y002601D03*
X010554Y001601D03*
X011554Y001601D03*
D22*
X005628Y015789D03*
X005254Y015789D03*
X004880Y015789D03*
X004880Y016813D03*
X005628Y016813D03*
D23*
X003806Y015901D03*
X002703Y015901D03*
D24*
X003180Y012494D03*
X003928Y012494D03*
X003554Y011668D03*
X006180Y010994D03*
X006928Y010994D03*
X006554Y010168D03*
X006180Y009494D03*
X006928Y009494D03*
X006554Y008668D03*
X006180Y007994D03*
X006928Y007994D03*
X006554Y007168D03*
X006180Y006494D03*
X006928Y006494D03*
X006554Y005668D03*
X006180Y004994D03*
X006928Y004994D03*
X006554Y004168D03*
D25*
X010554Y014207D03*
X012405Y015388D03*
X010554Y016569D03*
D26*
X008054Y014101D03*
X004054Y014101D03*
M02*
