G75*
G70*
%OFA0B0*%
%FSLAX24Y24*%
%IPPOS*%
%LPD*%
%AMOC8*
5,1,8,0,0,1.08239X$1,22.5*
%
%ADD10C,0.0000*%
%ADD11R,0.0870X0.0240*%
%ADD12R,0.1535X0.1535*%
%ADD13R,0.1260X0.1260*%
%ADD14R,0.0315X0.0472*%
%ADD15R,0.0512X0.0748*%
%ADD16R,0.0500X0.0220*%
%ADD17R,0.0220X0.0500*%
%ADD18R,0.0472X0.0315*%
%ADD19R,0.0740X0.0740*%
%ADD20C,0.0740*%
%ADD21R,0.0217X0.0472*%
%ADD22R,0.0551X0.0630*%
%ADD23R,0.0315X0.0354*%
%ADD24C,0.1700*%
%ADD25C,0.0780*%
%ADD26C,0.0100*%
%ADD27C,0.0320*%
%ADD28C,0.0080*%
D10*
X000554Y000101D02*
X020054Y000101D01*
X020054Y016101D01*
X015979Y011101D02*
X015981Y011148D01*
X015987Y011196D01*
X015997Y011242D01*
X016010Y011288D01*
X016027Y011332D01*
X016048Y011375D01*
X016073Y011415D01*
X016100Y011454D01*
X016131Y011490D01*
X016165Y011524D01*
X016201Y011555D01*
X016240Y011582D01*
X016280Y011607D01*
X016323Y011628D01*
X016367Y011645D01*
X016413Y011658D01*
X016459Y011668D01*
X016507Y011674D01*
X016554Y011676D01*
X016601Y011674D01*
X016649Y011668D01*
X016695Y011658D01*
X016741Y011645D01*
X016785Y011628D01*
X016828Y011607D01*
X016868Y011582D01*
X016907Y011555D01*
X016943Y011524D01*
X016977Y011490D01*
X017008Y011454D01*
X017035Y011415D01*
X017060Y011375D01*
X017081Y011332D01*
X017098Y011288D01*
X017111Y011242D01*
X017121Y011196D01*
X017127Y011148D01*
X017129Y011101D01*
X017127Y011054D01*
X017121Y011006D01*
X017111Y010960D01*
X017098Y010914D01*
X017081Y010870D01*
X017060Y010827D01*
X017035Y010787D01*
X017008Y010748D01*
X016977Y010712D01*
X016943Y010678D01*
X016907Y010647D01*
X016868Y010620D01*
X016828Y010595D01*
X016785Y010574D01*
X016741Y010557D01*
X016695Y010544D01*
X016649Y010534D01*
X016601Y010528D01*
X016554Y010526D01*
X016507Y010528D01*
X016459Y010534D01*
X016413Y010544D01*
X016367Y010557D01*
X016323Y010574D01*
X016280Y010595D01*
X016240Y010620D01*
X016201Y010647D01*
X016165Y010678D01*
X016131Y010712D01*
X016100Y010748D01*
X016073Y010787D01*
X016048Y010827D01*
X016027Y010870D01*
X016010Y010914D01*
X015997Y010960D01*
X015987Y011006D01*
X015981Y011054D01*
X015979Y011101D01*
X016242Y001570D02*
X016244Y001605D01*
X016250Y001639D01*
X016260Y001673D01*
X016273Y001705D01*
X016290Y001736D01*
X016310Y001765D01*
X016333Y001791D01*
X016359Y001814D01*
X016388Y001834D01*
X016419Y001851D01*
X016451Y001864D01*
X016485Y001874D01*
X016519Y001880D01*
X016554Y001882D01*
X016589Y001880D01*
X016623Y001874D01*
X016657Y001864D01*
X016689Y001851D01*
X016720Y001834D01*
X016749Y001814D01*
X016775Y001791D01*
X016798Y001765D01*
X016818Y001736D01*
X016835Y001705D01*
X016848Y001673D01*
X016858Y001639D01*
X016864Y001605D01*
X016866Y001570D01*
X016864Y001535D01*
X016858Y001501D01*
X016848Y001467D01*
X016835Y001435D01*
X016818Y001404D01*
X016798Y001375D01*
X016775Y001349D01*
X016749Y001326D01*
X016720Y001306D01*
X016689Y001289D01*
X016657Y001276D01*
X016623Y001266D01*
X016589Y001260D01*
X016554Y001258D01*
X016519Y001260D01*
X016485Y001266D01*
X016451Y001276D01*
X016419Y001289D01*
X016388Y001306D01*
X016359Y001326D01*
X016333Y001349D01*
X016310Y001375D01*
X016290Y001404D01*
X016273Y001435D01*
X016260Y001467D01*
X016250Y001501D01*
X016244Y001535D01*
X016242Y001570D01*
X020054Y016101D02*
X019238Y016540D01*
X018402Y016940D01*
X017549Y017301D01*
X016679Y017621D01*
X015795Y017900D01*
X014899Y018137D01*
X013993Y018331D01*
X013079Y018483D01*
X012159Y018592D01*
X011234Y018657D01*
X010308Y018679D01*
X009382Y018657D01*
X008457Y018592D01*
X007537Y018483D01*
X006623Y018331D01*
X005717Y018137D01*
X004821Y017900D01*
X003937Y017621D01*
X003067Y017301D01*
X002214Y016940D01*
X001378Y016540D01*
X000562Y016101D01*
X000554Y000101D01*
X004573Y001570D02*
X004575Y001617D01*
X004581Y001665D01*
X004591Y001711D01*
X004604Y001757D01*
X004621Y001801D01*
X004642Y001844D01*
X004667Y001884D01*
X004694Y001923D01*
X004725Y001959D01*
X004759Y001993D01*
X004795Y002024D01*
X004834Y002051D01*
X004874Y002076D01*
X004917Y002097D01*
X004961Y002114D01*
X005007Y002127D01*
X005053Y002137D01*
X005101Y002143D01*
X005148Y002145D01*
X005195Y002143D01*
X005243Y002137D01*
X005289Y002127D01*
X005335Y002114D01*
X005379Y002097D01*
X005422Y002076D01*
X005462Y002051D01*
X005501Y002024D01*
X005537Y001993D01*
X005571Y001959D01*
X005602Y001923D01*
X005629Y001884D01*
X005654Y001844D01*
X005675Y001801D01*
X005692Y001757D01*
X005705Y001711D01*
X005715Y001665D01*
X005721Y001617D01*
X005723Y001570D01*
X005721Y001523D01*
X005715Y001475D01*
X005705Y001429D01*
X005692Y001383D01*
X005675Y001339D01*
X005654Y001296D01*
X005629Y001256D01*
X005602Y001217D01*
X005571Y001181D01*
X005537Y001147D01*
X005501Y001116D01*
X005462Y001089D01*
X005422Y001064D01*
X005379Y001043D01*
X005335Y001026D01*
X005289Y001013D01*
X005243Y001003D01*
X005195Y000997D01*
X005148Y000995D01*
X005101Y000997D01*
X005053Y001003D01*
X005007Y001013D01*
X004961Y001026D01*
X004917Y001043D01*
X004874Y001064D01*
X004834Y001089D01*
X004795Y001116D01*
X004759Y001147D01*
X004725Y001181D01*
X004694Y001217D01*
X004667Y001256D01*
X004642Y001296D01*
X004621Y001339D01*
X004604Y001383D01*
X004591Y001429D01*
X004581Y001475D01*
X004575Y001523D01*
X004573Y001570D01*
X004836Y011101D02*
X004838Y011136D01*
X004844Y011170D01*
X004854Y011204D01*
X004867Y011236D01*
X004884Y011267D01*
X004904Y011296D01*
X004927Y011322D01*
X004953Y011345D01*
X004982Y011365D01*
X005013Y011382D01*
X005045Y011395D01*
X005079Y011405D01*
X005113Y011411D01*
X005148Y011413D01*
X005183Y011411D01*
X005217Y011405D01*
X005251Y011395D01*
X005283Y011382D01*
X005314Y011365D01*
X005343Y011345D01*
X005369Y011322D01*
X005392Y011296D01*
X005412Y011267D01*
X005429Y011236D01*
X005442Y011204D01*
X005452Y011170D01*
X005458Y011136D01*
X005460Y011101D01*
X005458Y011066D01*
X005452Y011032D01*
X005442Y010998D01*
X005429Y010966D01*
X005412Y010935D01*
X005392Y010906D01*
X005369Y010880D01*
X005343Y010857D01*
X005314Y010837D01*
X005283Y010820D01*
X005251Y010807D01*
X005217Y010797D01*
X005183Y010791D01*
X005148Y010789D01*
X005113Y010791D01*
X005079Y010797D01*
X005045Y010807D01*
X005013Y010820D01*
X004982Y010837D01*
X004953Y010857D01*
X004927Y010880D01*
X004904Y010906D01*
X004884Y010935D01*
X004867Y010966D01*
X004854Y010998D01*
X004844Y011032D01*
X004838Y011066D01*
X004836Y011101D01*
D11*
X012024Y011351D03*
X012024Y011851D03*
X012024Y012351D03*
X012024Y012851D03*
X014084Y012851D03*
X014084Y012351D03*
X014084Y011851D03*
X014084Y011351D03*
D12*
X017354Y005951D03*
D13*
X017354Y009179D03*
X017354Y002722D03*
D14*
X012309Y010601D03*
X011600Y010601D03*
X009909Y011601D03*
X009200Y011601D03*
X009200Y012601D03*
X009909Y012601D03*
X008909Y007101D03*
X008200Y007101D03*
X003909Y007601D03*
X003200Y007601D03*
X003200Y008601D03*
X003909Y008601D03*
X003909Y009601D03*
X003200Y009601D03*
X003200Y010601D03*
X003909Y010601D03*
X002709Y014401D03*
X002000Y014401D03*
X003200Y006601D03*
X003909Y006601D03*
X003909Y005601D03*
X003200Y005601D03*
X003200Y004601D03*
X003909Y004601D03*
X017200Y013101D03*
X017909Y013101D03*
X017909Y016101D03*
X017200Y016101D03*
D15*
X016472Y015231D03*
X016472Y013971D03*
X018637Y013971D03*
X018637Y015231D03*
D16*
X013244Y008203D03*
X013244Y007888D03*
X013244Y007573D03*
X013244Y007258D03*
X013244Y006943D03*
X013244Y006628D03*
X013244Y006313D03*
X013244Y005998D03*
X009864Y005998D03*
X009864Y006313D03*
X009864Y006628D03*
X009864Y006943D03*
X009864Y007258D03*
X009864Y007573D03*
X009864Y007888D03*
X009864Y008203D03*
D17*
X010452Y008791D03*
X010767Y008791D03*
X011082Y008791D03*
X011397Y008791D03*
X011712Y008791D03*
X012027Y008791D03*
X012342Y008791D03*
X012657Y008791D03*
X012657Y005411D03*
X012342Y005411D03*
X012027Y005411D03*
X011712Y005411D03*
X011397Y005411D03*
X011082Y005411D03*
X010767Y005411D03*
X010452Y005411D03*
D18*
X013054Y002455D03*
X013054Y001746D03*
X014154Y006996D03*
X014154Y007705D03*
X006554Y016246D03*
X006554Y016955D03*
D19*
X009554Y001601D03*
D20*
X009554Y002601D03*
X010554Y002601D03*
X010554Y001601D03*
X011554Y001601D03*
X011554Y002601D03*
X001554Y002601D03*
X001554Y003601D03*
X001554Y004601D03*
X001554Y005601D03*
X001554Y006601D03*
X001554Y007601D03*
X001554Y008601D03*
X001554Y009601D03*
X001554Y010601D03*
X001554Y011601D03*
X007854Y016101D03*
X007854Y017101D03*
X014054Y016601D03*
X015054Y016601D03*
X016054Y016601D03*
D21*
X005628Y016813D03*
X004880Y016813D03*
X004880Y015789D03*
X005254Y015789D03*
X005628Y015789D03*
D22*
X003806Y015901D03*
X002703Y015901D03*
D23*
X003180Y012494D03*
X003928Y012494D03*
X003554Y011668D03*
X006180Y010994D03*
X006928Y010994D03*
X006554Y010168D03*
X006180Y009494D03*
X006928Y009494D03*
X006554Y008668D03*
X006180Y007994D03*
X006928Y007994D03*
X006554Y007168D03*
X006180Y006494D03*
X006928Y006494D03*
X006554Y005668D03*
X006180Y004994D03*
X006928Y004994D03*
X006554Y004168D03*
D24*
X010554Y014207D03*
X012405Y015388D03*
X010554Y016569D03*
D25*
X008054Y014101D03*
X004054Y014101D03*
D26*
X003592Y014291D02*
X003016Y014291D01*
X003016Y014372D02*
X002738Y014372D01*
X002738Y014430D01*
X003016Y014430D01*
X003016Y014657D01*
X003006Y014695D01*
X002986Y014729D01*
X002958Y014757D01*
X002924Y014777D01*
X002886Y014787D01*
X002737Y014787D01*
X002737Y014430D01*
X002680Y014430D01*
X002680Y014787D01*
X002531Y014787D01*
X002493Y014777D01*
X002459Y014757D01*
X002431Y014729D01*
X002411Y014695D01*
X002401Y014657D01*
X002401Y014430D01*
X002680Y014430D01*
X002680Y014372D01*
X002737Y014372D01*
X002737Y014015D01*
X002886Y014015D01*
X002924Y014025D01*
X002958Y014045D01*
X002986Y014072D01*
X003006Y014107D01*
X003016Y014145D01*
X003016Y014372D01*
X003016Y014488D02*
X003735Y014488D01*
X003771Y014525D02*
X003630Y014384D01*
X003554Y014200D01*
X003554Y014001D01*
X003630Y013818D01*
X003771Y013677D01*
X003955Y013601D01*
X004154Y013601D01*
X004338Y013677D01*
X004478Y013818D01*
X004533Y013951D01*
X005116Y013951D01*
X005204Y014039D01*
X005778Y014613D01*
X005778Y014737D01*
X005778Y015443D01*
X005782Y015443D01*
X005847Y015507D01*
X005847Y016071D01*
X005782Y016135D01*
X005474Y016135D01*
X005470Y016130D01*
X005455Y016145D01*
X005420Y016165D01*
X005382Y016175D01*
X005258Y016175D01*
X005258Y015793D01*
X005250Y015793D01*
X005250Y016175D01*
X005126Y016175D01*
X005088Y016165D01*
X005054Y016145D01*
X005039Y016130D01*
X005034Y016135D01*
X004726Y016135D01*
X004662Y016071D01*
X004662Y015507D01*
X004726Y015443D01*
X004730Y015443D01*
X004730Y014989D01*
X004287Y014546D01*
X004154Y014601D01*
X003955Y014601D01*
X003771Y014525D01*
X003921Y014587D02*
X003016Y014587D01*
X003009Y014685D02*
X004427Y014685D01*
X004525Y014784D02*
X002898Y014784D01*
X002737Y014784D02*
X002680Y014784D01*
X002680Y014685D02*
X002737Y014685D01*
X002737Y014587D02*
X002680Y014587D01*
X002680Y014488D02*
X002737Y014488D01*
X002738Y014390D02*
X003636Y014390D01*
X003554Y014192D02*
X003016Y014192D01*
X002999Y014094D02*
X003554Y014094D01*
X003557Y013995D02*
X001807Y013995D01*
X001866Y014055D02*
X001704Y013893D01*
X001704Y013163D01*
X002183Y012684D01*
X002913Y012684D01*
X002913Y012717D01*
X002977Y012782D01*
X003030Y012782D01*
X003030Y012789D01*
X003404Y013163D01*
X003492Y013251D01*
X007492Y013251D01*
X007616Y013251D01*
X008498Y012370D01*
X008501Y012371D01*
X008608Y012371D01*
X008707Y012330D01*
X008783Y012254D01*
X008824Y012154D01*
X008824Y012047D01*
X008823Y012044D01*
X008959Y011909D01*
X008997Y011947D01*
X009050Y011947D01*
X009050Y012255D01*
X008997Y012255D01*
X008933Y012319D01*
X008933Y012883D01*
X008997Y012947D01*
X009403Y012947D01*
X009467Y012883D01*
X009467Y012319D01*
X009403Y012255D01*
X009350Y012255D01*
X009350Y011947D01*
X009403Y011947D01*
X009467Y011883D01*
X009467Y011319D01*
X009403Y011255D01*
X008997Y011255D01*
X008933Y011319D01*
X008933Y011510D01*
X008611Y011832D01*
X008608Y011831D01*
X008501Y011831D01*
X008401Y011872D01*
X008325Y011948D01*
X008284Y012047D01*
X008284Y012154D01*
X008286Y012157D01*
X007492Y012951D01*
X003616Y012951D01*
X003415Y012750D01*
X003448Y012717D01*
X003448Y012272D01*
X003383Y012207D01*
X002977Y012207D01*
X002913Y012272D01*
X002913Y012384D01*
X002183Y012384D01*
X002059Y012384D01*
X001704Y012739D01*
X001704Y012058D01*
X001826Y012008D01*
X001961Y011873D01*
X002034Y011696D01*
X002034Y011505D01*
X001961Y011329D01*
X001826Y011194D01*
X001650Y011121D01*
X001459Y011121D01*
X001282Y011194D01*
X001147Y011329D01*
X001074Y011505D01*
X001074Y011696D01*
X001147Y011873D01*
X001282Y012008D01*
X001404Y012058D01*
X001404Y013039D01*
X001404Y013163D01*
X001404Y013893D01*
X001404Y014017D01*
X001733Y014345D01*
X001733Y014683D01*
X001797Y014747D01*
X001904Y014747D01*
X001904Y015163D01*
X001992Y015251D01*
X002318Y015576D01*
X002318Y016261D01*
X002338Y016282D01*
X002192Y016216D01*
X001054Y015601D01*
X001054Y002745D01*
X001072Y002800D01*
X001110Y002873D01*
X001158Y002940D01*
X001216Y002997D01*
X001282Y003046D01*
X001355Y003083D01*
X001433Y003108D01*
X001504Y003119D01*
X001504Y002651D01*
X001604Y002651D01*
X001604Y003119D01*
X001676Y003108D01*
X001754Y003083D01*
X001827Y003046D01*
X001893Y002997D01*
X001951Y002940D01*
X001999Y002873D01*
X002036Y002800D01*
X002061Y002723D01*
X002073Y002651D01*
X001604Y002651D01*
X001604Y002551D01*
X001604Y002082D01*
X001676Y002094D01*
X001754Y002119D01*
X001827Y002156D01*
X001893Y002204D01*
X001951Y002262D01*
X001999Y002328D01*
X002036Y002401D01*
X002061Y002479D01*
X002073Y002551D01*
X001604Y002551D01*
X001504Y002551D01*
X001504Y002082D01*
X001433Y002094D01*
X001355Y002119D01*
X001282Y002156D01*
X001216Y002204D01*
X001158Y002262D01*
X001110Y002328D01*
X001072Y002401D01*
X001054Y002457D01*
X001054Y000601D01*
X008842Y000601D01*
X008404Y001039D01*
X008404Y001163D01*
X008404Y002163D01*
X008492Y002251D01*
X008992Y002751D01*
X009097Y002751D01*
X009147Y002873D01*
X009282Y003008D01*
X009459Y003081D01*
X009650Y003081D01*
X009826Y003008D01*
X009904Y002930D01*
X009904Y003371D01*
X009901Y003372D01*
X009825Y003448D01*
X009784Y003547D01*
X009784Y003654D01*
X009825Y003754D01*
X009901Y003830D01*
X009952Y003851D01*
X007916Y003851D01*
X007216Y003151D01*
X007092Y003151D01*
X003792Y003151D01*
X003704Y003239D01*
X003492Y003451D01*
X002012Y003451D01*
X001961Y003329D01*
X001826Y003194D01*
X001650Y003121D01*
X001459Y003121D01*
X001282Y003194D01*
X001147Y003329D01*
X001074Y003505D01*
X001074Y003696D01*
X001147Y003873D01*
X001282Y004008D01*
X001459Y004081D01*
X001650Y004081D01*
X001826Y004008D01*
X001961Y003873D01*
X002012Y003751D01*
X003492Y003751D01*
X003616Y003751D01*
X003916Y003451D01*
X003992Y003451D01*
X007092Y003451D01*
X003916Y003451D01*
X003992Y003451D02*
X003904Y003539D01*
X003188Y004255D01*
X002997Y004255D01*
X002946Y004305D01*
X001937Y004305D01*
X001826Y004194D01*
X001650Y004121D01*
X001459Y004121D01*
X001282Y004194D01*
X001147Y004329D01*
X001074Y004505D01*
X001074Y004696D01*
X001147Y004873D01*
X001282Y005008D01*
X001459Y005081D01*
X001650Y005081D01*
X001826Y005008D01*
X001961Y004873D01*
X002034Y004696D01*
X002034Y004605D01*
X002933Y004605D01*
X002933Y004883D01*
X002997Y004947D01*
X003403Y004947D01*
X003467Y004883D01*
X003467Y004400D01*
X004116Y003751D01*
X006992Y003751D01*
X007592Y004351D01*
X007484Y004351D01*
X007360Y004351D01*
X007003Y004707D01*
X006725Y004707D01*
X006661Y004772D01*
X006661Y005217D01*
X006725Y005282D01*
X007131Y005282D01*
X007196Y005217D01*
X007196Y004939D01*
X007484Y004651D01*
X008242Y004651D01*
X007761Y005132D01*
X007758Y005131D01*
X007651Y005131D01*
X007551Y005172D01*
X007475Y005248D01*
X007434Y005347D01*
X007434Y005454D01*
X007475Y005554D01*
X007551Y005630D01*
X007651Y005671D01*
X007758Y005671D01*
X007857Y005630D01*
X007933Y005554D01*
X007974Y005454D01*
X007974Y005347D01*
X007973Y005344D01*
X008416Y004901D01*
X009373Y004901D01*
X009325Y004948D01*
X009284Y005047D01*
X009284Y005154D01*
X009325Y005254D01*
X009401Y005330D01*
X009501Y005371D01*
X009608Y005371D01*
X009707Y005330D01*
X009783Y005254D01*
X009784Y005251D01*
X010232Y005251D01*
X010232Y005706D01*
X010296Y005771D01*
X010608Y005771D01*
X010609Y005769D01*
X010611Y005771D01*
X010922Y005771D01*
X010924Y005769D01*
X010926Y005771D01*
X011237Y005771D01*
X011239Y005769D01*
X011241Y005771D01*
X011552Y005771D01*
X011554Y005769D01*
X011556Y005771D01*
X011867Y005771D01*
X011869Y005769D01*
X011871Y005771D01*
X012182Y005771D01*
X012184Y005769D01*
X012186Y005771D01*
X012497Y005771D01*
X012499Y005769D01*
X012501Y005771D01*
X012812Y005771D01*
X012877Y005706D01*
X012877Y005451D01*
X013024Y005451D01*
X013025Y005454D01*
X013101Y005530D01*
X013201Y005571D01*
X013308Y005571D01*
X013407Y005530D01*
X013483Y005454D01*
X013524Y005354D01*
X013524Y005247D01*
X013483Y005148D01*
X013407Y005072D01*
X013308Y005031D01*
X013201Y005031D01*
X013101Y005072D01*
X013025Y005148D01*
X013024Y005151D01*
X012877Y005151D01*
X012877Y005115D01*
X012812Y005051D01*
X012501Y005051D01*
X012499Y005053D01*
X012497Y005051D01*
X012492Y005051D01*
X012492Y004950D01*
X012492Y004826D01*
X010718Y003052D01*
X010826Y003008D01*
X010904Y002930D01*
X010904Y003039D01*
X010904Y003163D01*
X012492Y004751D01*
X012616Y004751D01*
X013492Y004751D01*
X013904Y005163D01*
X013904Y005539D01*
X013602Y005841D01*
X013540Y005778D01*
X012949Y005778D01*
X012884Y005843D01*
X012884Y006154D01*
X012886Y006156D01*
X012884Y006158D01*
X012884Y006163D01*
X012746Y006163D01*
X012622Y006163D01*
X011992Y006793D01*
X010759Y006793D01*
X010704Y006739D01*
X010704Y006739D01*
X010444Y006478D01*
X010320Y006478D01*
X010224Y006478D01*
X010224Y006473D01*
X010222Y006471D01*
X010224Y006469D01*
X010224Y006158D01*
X010222Y006156D01*
X010224Y006154D01*
X010224Y005843D01*
X010160Y005778D01*
X009569Y005778D01*
X009504Y005843D01*
X009504Y006154D01*
X009506Y006156D01*
X009504Y006158D01*
X009504Y006469D01*
X009506Y006471D01*
X009504Y006473D01*
X009504Y006731D01*
X009494Y006741D01*
X009475Y006775D01*
X009464Y006814D01*
X009464Y006938D01*
X009859Y006938D01*
X009859Y006948D01*
X009464Y006948D01*
X009464Y007073D01*
X009474Y007108D01*
X009176Y007108D01*
X009176Y006819D01*
X009112Y006755D01*
X009059Y006755D01*
X009059Y006517D01*
X009059Y006393D01*
X008823Y006157D01*
X008824Y006154D01*
X008824Y006047D01*
X008783Y005948D01*
X008707Y005872D01*
X008608Y005831D01*
X008501Y005831D01*
X008401Y005872D01*
X008325Y005948D01*
X008284Y006047D01*
X008284Y006154D01*
X008325Y006254D01*
X008401Y006330D01*
X008501Y006371D01*
X008608Y006371D01*
X008611Y006370D01*
X008759Y006517D01*
X008759Y006755D01*
X008706Y006755D01*
X008641Y006819D01*
X008641Y007383D01*
X008706Y007447D01*
X009112Y007447D01*
X009150Y007408D01*
X009474Y007408D01*
X009464Y007443D01*
X009464Y007568D01*
X009859Y007568D01*
X009859Y007578D01*
X009464Y007578D01*
X009464Y007703D01*
X009474Y007738D01*
X009329Y007738D01*
X009205Y007738D01*
X007598Y009344D01*
X007196Y009344D01*
X007196Y009272D01*
X007131Y009207D01*
X006725Y009207D01*
X006661Y009272D01*
X006661Y009717D01*
X006725Y009782D01*
X007131Y009782D01*
X007196Y009717D01*
X007196Y009644D01*
X007598Y009644D01*
X007723Y009644D01*
X009329Y008038D01*
X009504Y008038D01*
X009504Y008044D01*
X009506Y008046D01*
X009504Y008048D01*
X009504Y008053D01*
X009390Y008053D01*
X007404Y010039D01*
X007404Y010163D01*
X007404Y010539D01*
X007184Y010759D01*
X007131Y010707D01*
X006725Y010707D01*
X006661Y010772D01*
X006661Y011217D01*
X006725Y011282D01*
X007131Y011282D01*
X007196Y011217D01*
X007196Y011144D01*
X007223Y011144D01*
X007704Y010663D01*
X007704Y010539D01*
X007704Y010163D01*
X009506Y008361D01*
X009569Y008423D01*
X010020Y008423D01*
X009992Y008451D01*
X009492Y008451D01*
X009404Y008539D01*
X007904Y010039D01*
X007904Y010163D01*
X007904Y010371D01*
X007901Y010372D01*
X007825Y010448D01*
X007704Y010448D01*
X007704Y010546D02*
X007785Y010546D01*
X007784Y010547D02*
X007825Y010448D01*
X007784Y010547D02*
X007784Y010654D01*
X007786Y010657D01*
X006992Y011451D01*
X006616Y011451D01*
X006415Y011250D01*
X006448Y011217D01*
X006448Y010772D01*
X006383Y010707D01*
X005977Y010707D01*
X005913Y010772D01*
X005913Y011217D01*
X005977Y011282D01*
X006030Y011282D01*
X006030Y011289D01*
X006404Y011663D01*
X006492Y011751D01*
X006992Y011751D01*
X007116Y011751D01*
X007998Y010870D01*
X008001Y010871D01*
X008108Y010871D01*
X008207Y010830D01*
X008283Y010754D01*
X008324Y010654D01*
X008324Y010547D01*
X008283Y010448D01*
X008404Y010448D01*
X008404Y010546D02*
X008324Y010546D01*
X008324Y010645D02*
X008404Y010645D01*
X008404Y010743D02*
X008287Y010743D01*
X008177Y010842D02*
X008404Y010842D01*
X008404Y010941D02*
X007927Y010941D01*
X007828Y011039D02*
X008404Y011039D01*
X008404Y010039D01*
X008492Y009951D01*
X009692Y008751D01*
X009616Y008751D01*
X008204Y010163D01*
X008204Y010371D01*
X008207Y010372D01*
X008283Y010448D01*
X008204Y010349D02*
X008404Y010349D01*
X008404Y010251D02*
X008204Y010251D01*
X008215Y010152D02*
X008404Y010152D01*
X008404Y010054D02*
X008314Y010054D01*
X008412Y009955D02*
X008488Y009955D01*
X008511Y009857D02*
X008586Y009857D01*
X008609Y009758D02*
X008685Y009758D01*
X008708Y009659D02*
X008783Y009659D01*
X008806Y009561D02*
X008882Y009561D01*
X008905Y009462D02*
X008981Y009462D01*
X009003Y009364D02*
X009079Y009364D01*
X009102Y009265D02*
X009178Y009265D01*
X009200Y009167D02*
X009276Y009167D01*
X009299Y009068D02*
X009375Y009068D01*
X009398Y008970D02*
X009473Y008970D01*
X009496Y008871D02*
X009572Y008871D01*
X009595Y008773D02*
X009670Y008773D01*
X009898Y008970D02*
X010232Y008970D01*
X010232Y008941D02*
X009926Y008941D01*
X008704Y010163D01*
X008704Y011039D01*
X009904Y011039D01*
X010002Y010941D02*
X008704Y010941D01*
X008704Y011039D02*
X008704Y011163D01*
X007223Y012644D01*
X007098Y012644D01*
X004196Y012644D01*
X004196Y012717D01*
X004131Y012782D01*
X003725Y012782D01*
X003661Y012717D01*
X003661Y012272D01*
X003725Y012207D01*
X004131Y012207D01*
X004196Y012272D01*
X004196Y012344D01*
X007098Y012344D01*
X008404Y011039D01*
X008305Y011138D02*
X007730Y011138D01*
X007631Y011236D02*
X008207Y011236D01*
X008108Y011335D02*
X007532Y011335D01*
X007434Y011433D02*
X008010Y011433D01*
X007911Y011532D02*
X007335Y011532D01*
X007237Y011630D02*
X007813Y011630D01*
X007714Y011729D02*
X007138Y011729D01*
X007010Y011433D02*
X006599Y011433D01*
X006500Y011335D02*
X007108Y011335D01*
X007177Y011236D02*
X007207Y011236D01*
X007230Y011138D02*
X007305Y011138D01*
X007328Y011039D02*
X007404Y011039D01*
X007427Y010941D02*
X007502Y010941D01*
X007525Y010842D02*
X007601Y010842D01*
X007624Y010743D02*
X007699Y010743D01*
X007704Y010645D02*
X007784Y010645D01*
X007704Y010349D02*
X007904Y010349D01*
X007904Y010251D02*
X007704Y010251D01*
X007715Y010152D02*
X007904Y010152D01*
X007904Y010054D02*
X007814Y010054D01*
X007912Y009955D02*
X007988Y009955D01*
X008011Y009857D02*
X008086Y009857D01*
X008109Y009758D02*
X008185Y009758D01*
X008208Y009659D02*
X008283Y009659D01*
X008306Y009561D02*
X008382Y009561D01*
X008405Y009462D02*
X008481Y009462D01*
X008503Y009364D02*
X008579Y009364D01*
X008602Y009265D02*
X008678Y009265D01*
X008700Y009167D02*
X008776Y009167D01*
X008799Y009068D02*
X008875Y009068D01*
X008898Y008970D02*
X008973Y008970D01*
X008996Y008871D02*
X009072Y008871D01*
X009095Y008773D02*
X009170Y008773D01*
X009193Y008674D02*
X009269Y008674D01*
X009292Y008576D02*
X009367Y008576D01*
X009390Y008477D02*
X009466Y008477D01*
X009489Y008378D02*
X009524Y008378D01*
X009262Y008181D02*
X009186Y008181D01*
X009163Y008280D02*
X009087Y008280D01*
X009065Y008378D02*
X008989Y008378D01*
X008966Y008477D02*
X008890Y008477D01*
X008867Y008576D02*
X008792Y008576D01*
X008769Y008674D02*
X008693Y008674D01*
X008670Y008773D02*
X008595Y008773D01*
X008572Y008871D02*
X008496Y008871D01*
X008473Y008970D02*
X008398Y008970D01*
X008375Y009068D02*
X008299Y009068D01*
X008276Y009167D02*
X008200Y009167D01*
X008178Y009265D02*
X008102Y009265D01*
X008079Y009364D02*
X008003Y009364D01*
X007981Y009462D02*
X007905Y009462D01*
X007882Y009561D02*
X007806Y009561D01*
X007783Y009659D02*
X007196Y009659D01*
X007155Y009758D02*
X007685Y009758D01*
X007586Y009857D02*
X005642Y009857D01*
X005608Y009871D02*
X005501Y009871D01*
X005401Y009830D01*
X005325Y009754D01*
X005284Y009654D01*
X005284Y009547D01*
X005325Y009448D01*
X005401Y009372D01*
X005501Y009331D01*
X005608Y009331D01*
X005641Y009344D01*
X005723Y009344D01*
X005913Y009344D01*
X005913Y009272D01*
X005977Y009207D01*
X006383Y009207D01*
X006448Y009272D01*
X006448Y009717D01*
X006383Y009782D01*
X005977Y009782D01*
X005913Y009717D01*
X005913Y009644D01*
X005824Y009644D01*
X005824Y009654D01*
X005783Y009754D01*
X005707Y009830D01*
X005608Y009871D01*
X005466Y009857D02*
X004377Y009857D01*
X004475Y009955D02*
X006287Y009955D01*
X006287Y009945D02*
X006351Y009881D01*
X006757Y009881D01*
X006822Y009945D01*
X006822Y010390D01*
X006757Y010455D01*
X006351Y010455D01*
X006287Y010390D01*
X006287Y010318D01*
X004538Y010318D01*
X004413Y010318D01*
X004043Y009947D01*
X003706Y009947D01*
X003641Y009883D01*
X003641Y009319D01*
X003706Y009255D01*
X004112Y009255D01*
X004176Y009319D01*
X004176Y009656D01*
X004538Y010018D01*
X006287Y010018D01*
X006287Y009945D01*
X006407Y009758D02*
X006702Y009758D01*
X006661Y009659D02*
X006448Y009659D01*
X006448Y009561D02*
X006661Y009561D01*
X006661Y009462D02*
X006448Y009462D01*
X006448Y009364D02*
X006661Y009364D01*
X006667Y009265D02*
X006441Y009265D01*
X006351Y008955D02*
X006287Y008890D01*
X006287Y008818D01*
X004176Y008818D01*
X004176Y008883D01*
X004112Y008947D01*
X003706Y008947D01*
X003641Y008883D01*
X003641Y008319D01*
X003706Y008255D01*
X004112Y008255D01*
X004176Y008319D01*
X004176Y008518D01*
X006287Y008518D01*
X006287Y008445D01*
X006351Y008381D01*
X006757Y008381D01*
X006822Y008445D01*
X006822Y008890D01*
X006757Y008955D01*
X006351Y008955D01*
X006287Y008871D02*
X004176Y008871D01*
X004176Y008477D02*
X006287Y008477D01*
X006383Y008282D02*
X005977Y008282D01*
X005913Y008217D01*
X005913Y008144D01*
X005824Y008144D01*
X005824Y008154D01*
X005783Y008254D01*
X005707Y008330D01*
X005608Y008371D01*
X005501Y008371D01*
X005401Y008330D01*
X005325Y008254D01*
X005284Y008154D01*
X005284Y008047D01*
X005325Y007948D01*
X005401Y007872D01*
X005501Y007831D01*
X005608Y007831D01*
X005641Y007844D01*
X005723Y007844D01*
X005913Y007844D01*
X005913Y007772D01*
X005977Y007707D01*
X006383Y007707D01*
X006448Y007772D01*
X006448Y008217D01*
X006383Y008282D01*
X006385Y008280D02*
X006724Y008280D01*
X006725Y008282D02*
X006661Y008217D01*
X006661Y007772D01*
X006725Y007707D01*
X007131Y007707D01*
X007196Y007772D01*
X007196Y007844D01*
X007556Y007844D01*
X007575Y007798D01*
X007651Y007722D01*
X007751Y007681D01*
X007858Y007681D01*
X007957Y007722D01*
X008033Y007798D01*
X008074Y007897D01*
X008074Y008004D01*
X008033Y008104D01*
X007957Y008180D01*
X007858Y008221D01*
X007751Y008221D01*
X007651Y008180D01*
X007616Y008144D01*
X007196Y008144D01*
X007196Y008217D01*
X007131Y008282D01*
X006725Y008282D01*
X006661Y008181D02*
X006448Y008181D01*
X006448Y008083D02*
X006661Y008083D01*
X006661Y007984D02*
X006448Y007984D01*
X006448Y007886D02*
X006661Y007886D01*
X006661Y007787D02*
X006448Y007787D01*
X006351Y007455D02*
X006287Y007390D01*
X006287Y007318D01*
X004404Y007318D01*
X004176Y007545D01*
X004176Y007883D01*
X004112Y007947D01*
X003706Y007947D01*
X003641Y007883D01*
X003641Y007319D01*
X003706Y007255D01*
X004043Y007255D01*
X004280Y007018D01*
X004404Y007018D01*
X006287Y007018D01*
X006287Y006945D01*
X006351Y006881D01*
X006757Y006881D01*
X006822Y006945D01*
X006822Y007390D01*
X006757Y007455D01*
X006351Y007455D01*
X006289Y007393D02*
X004329Y007393D01*
X004230Y007492D02*
X009464Y007492D01*
X009464Y007590D02*
X004176Y007590D01*
X004176Y007689D02*
X007732Y007689D01*
X007877Y007689D02*
X009464Y007689D01*
X009156Y007787D02*
X008023Y007787D01*
X008070Y007886D02*
X009057Y007886D01*
X008959Y007984D02*
X008074Y007984D01*
X008042Y008083D02*
X008860Y008083D01*
X008762Y008181D02*
X007953Y008181D01*
X007655Y008181D02*
X007196Y008181D01*
X007133Y008280D02*
X008663Y008280D01*
X008565Y008378D02*
X004176Y008378D01*
X004137Y008280D02*
X005352Y008280D01*
X005295Y008181D02*
X001796Y008181D01*
X001826Y008194D02*
X001961Y008329D01*
X002012Y008451D01*
X002933Y008451D01*
X002933Y008319D01*
X002997Y008255D01*
X003403Y008255D01*
X003467Y008319D01*
X003467Y008883D01*
X003403Y008947D01*
X002997Y008947D01*
X002933Y008883D01*
X002933Y008751D01*
X002012Y008751D01*
X001961Y008873D01*
X001826Y009008D01*
X001650Y009081D01*
X001459Y009081D01*
X001282Y009008D01*
X001147Y008873D01*
X001074Y008696D01*
X001074Y008505D01*
X001147Y008329D01*
X001282Y008194D01*
X001459Y008121D01*
X001650Y008121D01*
X001826Y008194D01*
X001912Y008280D02*
X002972Y008280D01*
X002933Y008378D02*
X001982Y008378D01*
X001826Y008008D02*
X001650Y008081D01*
X001459Y008081D01*
X001282Y008008D01*
X001147Y007873D01*
X001074Y007696D01*
X001074Y007505D01*
X001147Y007329D01*
X001282Y007194D01*
X001459Y007121D01*
X001650Y007121D01*
X001826Y007194D01*
X001961Y007329D01*
X002012Y007451D01*
X002933Y007451D01*
X002933Y007319D01*
X002997Y007255D01*
X003403Y007255D01*
X003467Y007319D01*
X003467Y007883D01*
X003403Y007947D01*
X002997Y007947D01*
X002933Y007883D01*
X002933Y007751D01*
X002012Y007751D01*
X001961Y007873D01*
X001826Y008008D01*
X001850Y007984D02*
X005310Y007984D01*
X005284Y008083D02*
X001054Y008083D01*
X001054Y008181D02*
X001313Y008181D01*
X001196Y008280D02*
X001054Y008280D01*
X001054Y008378D02*
X001127Y008378D01*
X001086Y008477D02*
X001054Y008477D01*
X001054Y008576D02*
X001074Y008576D01*
X001074Y008674D02*
X001054Y008674D01*
X001054Y008773D02*
X001106Y008773D01*
X001147Y008871D02*
X001054Y008871D01*
X001054Y008970D02*
X001244Y008970D01*
X001429Y009068D02*
X001054Y009068D01*
X001054Y009167D02*
X001348Y009167D01*
X001282Y009194D02*
X001459Y009121D01*
X001650Y009121D01*
X001826Y009194D01*
X001961Y009329D01*
X002012Y009451D01*
X002933Y009451D01*
X002933Y009319D01*
X002997Y009255D01*
X003403Y009255D01*
X003467Y009319D01*
X003467Y009883D01*
X003403Y009947D01*
X002997Y009947D01*
X002933Y009883D01*
X002933Y009751D01*
X002012Y009751D01*
X001961Y009873D01*
X001826Y010008D01*
X001650Y010081D01*
X001459Y010081D01*
X001282Y010008D01*
X001147Y009873D01*
X001074Y009696D01*
X001074Y009505D01*
X001147Y009329D01*
X001282Y009194D01*
X001211Y009265D02*
X001054Y009265D01*
X001054Y009364D02*
X001133Y009364D01*
X001092Y009462D02*
X001054Y009462D01*
X001054Y009561D02*
X001074Y009561D01*
X001074Y009659D02*
X001054Y009659D01*
X001054Y009758D02*
X001100Y009758D01*
X001141Y009857D02*
X001054Y009857D01*
X001054Y009955D02*
X001230Y009955D01*
X001393Y010054D02*
X001054Y010054D01*
X001054Y010152D02*
X001383Y010152D01*
X001459Y010121D02*
X001282Y010194D01*
X001147Y010329D01*
X001074Y010505D01*
X001074Y010696D01*
X001147Y010873D01*
X001282Y011008D01*
X001459Y011081D01*
X001650Y011081D01*
X001826Y011008D01*
X001961Y010873D01*
X002012Y010751D01*
X002933Y010751D01*
X002933Y010883D01*
X002997Y010947D01*
X003403Y010947D01*
X003404Y010946D01*
X003404Y011017D01*
X003404Y011381D01*
X003351Y011381D01*
X003287Y011445D01*
X003287Y011890D01*
X003351Y011955D01*
X003757Y011955D01*
X003822Y011890D01*
X003822Y011445D01*
X003757Y011381D01*
X003704Y011381D01*
X003704Y011017D01*
X003775Y010947D01*
X004112Y010947D01*
X004176Y010883D01*
X004176Y010319D01*
X004112Y010255D01*
X003706Y010255D01*
X003641Y010319D01*
X003641Y010656D01*
X003467Y010830D01*
X003467Y010319D01*
X003403Y010255D01*
X002997Y010255D01*
X002933Y010319D01*
X002933Y010451D01*
X002012Y010451D01*
X001961Y010329D01*
X001826Y010194D01*
X001650Y010121D01*
X001459Y010121D01*
X001715Y010054D02*
X004149Y010054D01*
X004051Y009955D02*
X001879Y009955D01*
X001968Y009857D02*
X002933Y009857D01*
X002933Y009758D02*
X002009Y009758D01*
X001976Y009364D02*
X002933Y009364D01*
X002986Y009265D02*
X001898Y009265D01*
X001761Y009167D02*
X007776Y009167D01*
X007678Y009265D02*
X007189Y009265D01*
X006822Y008871D02*
X008072Y008871D01*
X008170Y008773D02*
X006822Y008773D01*
X006822Y008674D02*
X008269Y008674D01*
X008367Y008576D02*
X006822Y008576D01*
X006822Y008477D02*
X008466Y008477D01*
X007973Y008970D02*
X001864Y008970D01*
X001962Y008871D02*
X002933Y008871D01*
X002933Y008773D02*
X002003Y008773D01*
X001680Y009068D02*
X007875Y009068D01*
X007488Y009955D02*
X006822Y009955D01*
X006822Y010054D02*
X007404Y010054D01*
X007404Y010152D02*
X006822Y010152D01*
X006822Y010251D02*
X007404Y010251D01*
X007404Y010349D02*
X006822Y010349D01*
X006764Y010448D02*
X007404Y010448D01*
X007397Y010546D02*
X004176Y010546D01*
X004176Y010448D02*
X006344Y010448D01*
X006287Y010349D02*
X004176Y010349D01*
X004347Y010251D02*
X001883Y010251D01*
X001970Y010349D02*
X002933Y010349D01*
X002933Y010448D02*
X002010Y010448D01*
X001726Y010152D02*
X004248Y010152D01*
X004278Y009758D02*
X005330Y009758D01*
X005286Y009659D02*
X004179Y009659D01*
X004176Y009561D02*
X005284Y009561D01*
X005319Y009462D02*
X004176Y009462D01*
X004176Y009364D02*
X005421Y009364D01*
X005822Y009659D02*
X005913Y009659D01*
X005954Y009758D02*
X005779Y009758D01*
X005919Y009265D02*
X004122Y009265D01*
X003695Y009265D02*
X003414Y009265D01*
X003467Y009364D02*
X003641Y009364D01*
X003641Y009462D02*
X003467Y009462D01*
X003467Y009561D02*
X003641Y009561D01*
X003641Y009659D02*
X003467Y009659D01*
X003467Y009758D02*
X003641Y009758D01*
X003641Y009857D02*
X003467Y009857D01*
X003467Y010349D02*
X003641Y010349D01*
X003641Y010448D02*
X003467Y010448D01*
X003467Y010546D02*
X003641Y010546D01*
X003641Y010645D02*
X003467Y010645D01*
X003467Y010743D02*
X003554Y010743D01*
X003404Y011039D02*
X001750Y011039D01*
X001690Y011138D02*
X003404Y011138D01*
X003404Y011236D02*
X001869Y011236D01*
X001964Y011335D02*
X003404Y011335D01*
X003299Y011433D02*
X002004Y011433D01*
X002034Y011532D02*
X003287Y011532D01*
X003287Y011630D02*
X002034Y011630D01*
X002021Y011729D02*
X003287Y011729D01*
X003287Y011827D02*
X001980Y011827D01*
X001908Y011926D02*
X003322Y011926D01*
X003398Y012222D02*
X003711Y012222D01*
X003661Y012320D02*
X003448Y012320D01*
X003448Y012419D02*
X003661Y012419D01*
X003661Y012517D02*
X003448Y012517D01*
X003448Y012616D02*
X003661Y012616D01*
X003661Y012714D02*
X003448Y012714D01*
X003479Y012813D02*
X007630Y012813D01*
X007532Y012911D02*
X003577Y012911D01*
X003350Y013109D02*
X001759Y013109D01*
X001704Y013207D02*
X003448Y013207D01*
X003251Y013010D02*
X001857Y013010D01*
X001956Y012911D02*
X003153Y012911D01*
X003054Y012813D02*
X002054Y012813D01*
X002153Y012714D02*
X002913Y012714D01*
X002913Y012320D02*
X001704Y012320D01*
X001704Y012222D02*
X002963Y012222D01*
X003786Y011926D02*
X007517Y011926D01*
X007616Y011827D02*
X003822Y011827D01*
X003822Y011729D02*
X006470Y011729D01*
X006372Y011630D02*
X003822Y011630D01*
X003822Y011532D02*
X004980Y011532D01*
X005056Y011563D02*
X004886Y011493D01*
X004756Y011363D01*
X004686Y011193D01*
X004686Y011009D01*
X004756Y010839D01*
X004886Y010709D01*
X005056Y010638D01*
X005240Y010638D01*
X005410Y010709D01*
X005540Y010839D01*
X005611Y011009D01*
X005611Y011193D01*
X005540Y011363D01*
X005410Y011493D01*
X005240Y011563D01*
X005056Y011563D01*
X005316Y011532D02*
X006273Y011532D01*
X006175Y011433D02*
X005470Y011433D01*
X005552Y011335D02*
X006076Y011335D01*
X005932Y011236D02*
X005593Y011236D01*
X005611Y011138D02*
X005913Y011138D01*
X005913Y011039D02*
X005611Y011039D01*
X005582Y010941D02*
X005913Y010941D01*
X005913Y010842D02*
X005541Y010842D01*
X005445Y010743D02*
X005941Y010743D01*
X006419Y010743D02*
X006689Y010743D01*
X006661Y010842D02*
X006448Y010842D01*
X006448Y010941D02*
X006661Y010941D01*
X006661Y011039D02*
X006448Y011039D01*
X006448Y011138D02*
X006661Y011138D01*
X006680Y011236D02*
X006429Y011236D01*
X007167Y010743D02*
X007199Y010743D01*
X007298Y010645D02*
X005256Y010645D01*
X005040Y010645D02*
X004176Y010645D01*
X004176Y010743D02*
X004851Y010743D01*
X004755Y010842D02*
X004176Y010842D01*
X004118Y010941D02*
X004714Y010941D01*
X004686Y011039D02*
X003704Y011039D01*
X003704Y011138D02*
X004686Y011138D01*
X004704Y011236D02*
X003704Y011236D01*
X003704Y011335D02*
X004744Y011335D01*
X004826Y011433D02*
X003810Y011433D01*
X004146Y012222D02*
X007221Y012222D01*
X007123Y012320D02*
X004196Y012320D01*
X004196Y012714D02*
X007729Y012714D01*
X007827Y012616D02*
X007251Y012616D01*
X007350Y012517D02*
X007926Y012517D01*
X008024Y012419D02*
X007449Y012419D01*
X007547Y012320D02*
X008123Y012320D01*
X008221Y012222D02*
X007646Y012222D01*
X007744Y012123D02*
X008284Y012123D01*
X008294Y012025D02*
X007843Y012025D01*
X007941Y011926D02*
X008347Y011926D01*
X008616Y011827D02*
X008040Y011827D01*
X008138Y011729D02*
X008714Y011729D01*
X008813Y011630D02*
X008237Y011630D01*
X008335Y011532D02*
X008911Y011532D01*
X008933Y011433D02*
X008434Y011433D01*
X008532Y011335D02*
X008933Y011335D01*
X008704Y011138D02*
X009805Y011138D01*
X009759Y011184D02*
X011562Y009381D01*
X011562Y009151D01*
X011556Y009151D01*
X011554Y009149D01*
X011552Y009151D01*
X011241Y009151D01*
X011239Y009149D01*
X011237Y009151D01*
X011232Y009151D01*
X011232Y009311D01*
X011232Y009435D01*
X010854Y009813D01*
X010766Y009901D01*
X010466Y009901D01*
X010323Y010044D01*
X010324Y010047D01*
X010324Y010154D01*
X010283Y010254D01*
X010207Y010330D01*
X010108Y010371D01*
X010001Y010371D01*
X009901Y010330D01*
X009825Y010254D01*
X009804Y010203D01*
X009783Y010254D01*
X009707Y010330D01*
X009608Y010371D01*
X009501Y010371D01*
X009401Y010330D01*
X009325Y010254D01*
X009284Y010154D01*
X009284Y010047D01*
X009325Y009948D01*
X009401Y009872D01*
X009404Y009871D01*
X009404Y009539D01*
X009492Y009451D01*
X009692Y009251D01*
X009816Y009251D01*
X010542Y009251D01*
X010617Y009176D01*
X010617Y009151D01*
X010611Y009151D01*
X010609Y009149D01*
X010608Y009151D01*
X010296Y009151D01*
X010232Y009086D01*
X010232Y008941D01*
X010232Y009068D02*
X009799Y009068D01*
X009700Y009167D02*
X010617Y009167D01*
X011232Y009167D02*
X011562Y009167D01*
X011562Y009265D02*
X011232Y009265D01*
X011232Y009364D02*
X011562Y009364D01*
X011481Y009462D02*
X011205Y009462D01*
X011106Y009561D02*
X011382Y009561D01*
X011283Y009659D02*
X011008Y009659D01*
X010909Y009758D02*
X011185Y009758D01*
X011086Y009857D02*
X010811Y009857D01*
X010988Y009955D02*
X010412Y009955D01*
X010324Y010054D02*
X010889Y010054D01*
X010791Y010152D02*
X010324Y010152D01*
X010284Y010251D02*
X010692Y010251D01*
X010594Y010349D02*
X010160Y010349D01*
X009949Y010349D02*
X009660Y010349D01*
X009784Y010251D02*
X009824Y010251D01*
X009449Y010349D02*
X008704Y010349D01*
X008704Y010251D02*
X009324Y010251D01*
X009284Y010152D02*
X008715Y010152D01*
X008814Y010054D02*
X009284Y010054D01*
X009322Y009955D02*
X008912Y009955D01*
X009011Y009857D02*
X009404Y009857D01*
X009404Y009758D02*
X009109Y009758D01*
X009208Y009659D02*
X009404Y009659D01*
X009404Y009561D02*
X009306Y009561D01*
X009405Y009462D02*
X009481Y009462D01*
X009503Y009364D02*
X009579Y009364D01*
X009602Y009265D02*
X009678Y009265D01*
X010436Y008431D02*
X010608Y008431D01*
X010609Y008433D01*
X010611Y008431D01*
X010922Y008431D01*
X010924Y008433D01*
X010926Y008431D01*
X011237Y008431D01*
X011239Y008433D01*
X011241Y008431D01*
X011247Y008431D01*
X011247Y008320D01*
X011247Y008196D01*
X011404Y008039D01*
X011492Y007951D01*
X012492Y007951D01*
X012616Y007951D01*
X012884Y008219D01*
X012884Y008048D01*
X012886Y008046D01*
X012884Y008044D01*
X012884Y007733D01*
X012886Y007731D01*
X012884Y007729D01*
X012884Y007470D01*
X012874Y007460D01*
X012855Y007426D01*
X012844Y007388D01*
X012844Y007263D01*
X013239Y007263D01*
X013239Y007253D01*
X012844Y007253D01*
X012844Y007129D01*
X012854Y007093D01*
X012116Y007093D01*
X011992Y007093D01*
X010759Y007093D01*
X010704Y007093D01*
X010704Y007163D01*
X010704Y008039D01*
X010704Y008163D01*
X010436Y008431D01*
X010489Y008378D02*
X011247Y008378D01*
X011247Y008280D02*
X010587Y008280D01*
X010686Y008181D02*
X011262Y008181D01*
X011360Y008083D02*
X010704Y008083D01*
X010704Y007984D02*
X011459Y007984D01*
X010704Y007886D02*
X012884Y007886D01*
X012884Y007984D02*
X012650Y007984D01*
X012748Y008083D02*
X012884Y008083D01*
X012884Y008181D02*
X012847Y008181D01*
X013089Y008423D02*
X013116Y008451D01*
X014992Y008451D01*
X015404Y008039D01*
X015404Y004163D01*
X013992Y002751D01*
X013262Y002751D01*
X013138Y002751D01*
X013110Y002723D01*
X012773Y002723D01*
X012708Y002658D01*
X012708Y002605D01*
X012471Y002605D01*
X012346Y002605D01*
X011772Y002030D01*
X011650Y002081D01*
X011459Y002081D01*
X011282Y002008D01*
X011147Y001873D01*
X011074Y001696D01*
X011074Y001505D01*
X011147Y001329D01*
X011282Y001194D01*
X011459Y001121D01*
X011650Y001121D01*
X011826Y001194D01*
X011961Y001329D01*
X012034Y001505D01*
X012034Y001696D01*
X011984Y001818D01*
X012471Y002305D01*
X012708Y002305D01*
X012708Y002252D01*
X012773Y002188D01*
X013336Y002188D01*
X013401Y002252D01*
X013401Y002451D01*
X014116Y002451D01*
X014204Y002539D01*
X015704Y004039D01*
X015704Y004163D01*
X015704Y008163D01*
X015616Y008251D01*
X015116Y008751D01*
X014992Y008751D01*
X012992Y008751D01*
X012904Y008663D01*
X012877Y008635D01*
X012877Y009086D01*
X012812Y009151D01*
X012501Y009151D01*
X012499Y009149D01*
X012497Y009151D01*
X012186Y009151D01*
X012184Y009149D01*
X012182Y009151D01*
X012177Y009151D01*
X012177Y009511D01*
X012416Y009751D01*
X012592Y009751D01*
X012716Y009751D01*
X012916Y009951D01*
X013004Y010039D01*
X013004Y012663D01*
X012916Y012751D01*
X012666Y013001D01*
X012569Y013001D01*
X012569Y013016D01*
X012505Y013081D01*
X011544Y013081D01*
X011479Y013016D01*
X011479Y013001D01*
X010221Y013001D01*
X010096Y013001D01*
X010043Y012947D01*
X009706Y012947D01*
X009641Y012883D01*
X009641Y012319D01*
X009706Y012255D01*
X010112Y012255D01*
X010176Y012319D01*
X010176Y012656D01*
X010221Y012701D01*
X011479Y012701D01*
X011479Y012685D01*
X011544Y012621D01*
X012505Y012621D01*
X012564Y012679D01*
X012704Y012539D01*
X012704Y010163D01*
X012592Y010051D01*
X012292Y010051D01*
X012204Y009963D01*
X011877Y009635D01*
X011877Y009511D01*
X011877Y009151D01*
X011871Y009151D01*
X011869Y009149D01*
X011867Y009151D01*
X011862Y009151D01*
X011862Y009381D01*
X011862Y009505D01*
X010112Y011255D01*
X010176Y011319D01*
X010176Y011656D01*
X010721Y012201D01*
X011479Y012201D01*
X011479Y012185D01*
X011544Y012121D01*
X012505Y012121D01*
X012569Y012185D01*
X012569Y012516D01*
X012505Y012581D01*
X011544Y012581D01*
X011479Y012516D01*
X011479Y012501D01*
X010721Y012501D01*
X010596Y012501D01*
X010043Y011947D01*
X009706Y011947D01*
X009641Y011883D01*
X009641Y011319D01*
X009706Y011255D01*
X009759Y011255D01*
X009759Y011184D01*
X009759Y011236D02*
X008631Y011236D01*
X008704Y010842D02*
X010101Y010842D01*
X010199Y010743D02*
X008704Y010743D01*
X008704Y010645D02*
X010298Y010645D01*
X010397Y010546D02*
X008704Y010546D01*
X008704Y010448D02*
X010495Y010448D01*
X010722Y010645D02*
X011293Y010645D01*
X011293Y010630D02*
X011571Y010630D01*
X011571Y010987D01*
X011423Y010987D01*
X011385Y010977D01*
X011350Y010957D01*
X011322Y010929D01*
X011303Y010895D01*
X011293Y010857D01*
X011293Y010630D01*
X011293Y010572D02*
X011293Y010345D01*
X011303Y010307D01*
X011322Y010272D01*
X011350Y010245D01*
X011385Y010225D01*
X011423Y010215D01*
X011571Y010215D01*
X011571Y010572D01*
X011293Y010572D01*
X011293Y010546D02*
X010821Y010546D01*
X010919Y010448D02*
X011293Y010448D01*
X011293Y010349D02*
X011018Y010349D01*
X011116Y010251D02*
X011344Y010251D01*
X011215Y010152D02*
X012694Y010152D01*
X012704Y010251D02*
X011856Y010251D01*
X011850Y010245D02*
X011877Y010272D01*
X011897Y010307D01*
X011907Y010345D01*
X011907Y010572D01*
X011629Y010572D01*
X011629Y010630D01*
X011571Y010630D01*
X011571Y010572D01*
X011629Y010572D01*
X011629Y010215D01*
X011777Y010215D01*
X011815Y010225D01*
X011850Y010245D01*
X011907Y010349D02*
X012041Y010349D01*
X012041Y010319D02*
X012106Y010255D01*
X012512Y010255D01*
X012576Y010319D01*
X012576Y010883D01*
X012512Y010947D01*
X012459Y010947D01*
X012459Y011004D01*
X012459Y011121D01*
X012505Y011121D01*
X012569Y011185D01*
X012569Y011516D01*
X012505Y011581D01*
X011544Y011581D01*
X011479Y011516D01*
X011479Y011501D01*
X011016Y011501D01*
X010873Y011644D01*
X010874Y011647D01*
X010874Y011754D01*
X010833Y011854D01*
X010757Y011930D01*
X010658Y011971D01*
X010551Y011971D01*
X010451Y011930D01*
X010375Y011854D01*
X010334Y011754D01*
X010334Y011647D01*
X010375Y011548D01*
X010451Y011472D01*
X010551Y011431D01*
X010658Y011431D01*
X010661Y011432D01*
X010892Y011201D01*
X011016Y011201D01*
X011479Y011201D01*
X011479Y011185D01*
X011544Y011121D01*
X012042Y011121D01*
X012159Y011004D01*
X012159Y010947D01*
X012106Y010947D01*
X012041Y010883D01*
X012041Y010319D01*
X012041Y010448D02*
X011907Y010448D01*
X011907Y010546D02*
X012041Y010546D01*
X012041Y010645D02*
X011907Y010645D01*
X011907Y010630D02*
X011907Y010857D01*
X011897Y010895D01*
X011877Y010929D01*
X011850Y010957D01*
X011815Y010977D01*
X011777Y010987D01*
X011629Y010987D01*
X011629Y010630D01*
X011907Y010630D01*
X011907Y010743D02*
X012041Y010743D01*
X012041Y010842D02*
X011907Y010842D01*
X011866Y010941D02*
X012099Y010941D01*
X012124Y011039D02*
X010328Y011039D01*
X010230Y011138D02*
X011527Y011138D01*
X011571Y010941D02*
X011629Y010941D01*
X011629Y010842D02*
X011571Y010842D01*
X011571Y010743D02*
X011629Y010743D01*
X011629Y010645D02*
X011571Y010645D01*
X011571Y010546D02*
X011629Y010546D01*
X011629Y010448D02*
X011571Y010448D01*
X011571Y010349D02*
X011629Y010349D01*
X011629Y010251D02*
X011571Y010251D01*
X011314Y010054D02*
X012595Y010054D01*
X012576Y010349D02*
X012704Y010349D01*
X012704Y010448D02*
X012576Y010448D01*
X012576Y010546D02*
X012704Y010546D01*
X012704Y010645D02*
X012576Y010645D01*
X012576Y010743D02*
X012704Y010743D01*
X012704Y010842D02*
X012576Y010842D01*
X012518Y010941D02*
X012704Y010941D01*
X012704Y011039D02*
X012459Y011039D01*
X012522Y011138D02*
X012704Y011138D01*
X012704Y011236D02*
X012569Y011236D01*
X012569Y011335D02*
X012704Y011335D01*
X012704Y011433D02*
X012569Y011433D01*
X012554Y011532D02*
X012704Y011532D01*
X012704Y011630D02*
X012514Y011630D01*
X012505Y011621D02*
X012569Y011685D01*
X012569Y012016D01*
X012505Y012081D01*
X011544Y012081D01*
X011479Y012016D01*
X011479Y011685D01*
X011544Y011621D01*
X012505Y011621D01*
X012569Y011729D02*
X012704Y011729D01*
X012704Y011827D02*
X012569Y011827D01*
X012569Y011926D02*
X012704Y011926D01*
X012704Y012025D02*
X012561Y012025D01*
X012507Y012123D02*
X012704Y012123D01*
X012704Y012222D02*
X012569Y012222D01*
X012569Y012320D02*
X012704Y012320D01*
X012704Y012419D02*
X012569Y012419D01*
X012568Y012517D02*
X012704Y012517D01*
X012627Y012616D02*
X010176Y012616D01*
X010176Y012517D02*
X011480Y012517D01*
X011541Y012123D02*
X010643Y012123D01*
X010544Y012025D02*
X011488Y012025D01*
X011479Y011926D02*
X010761Y011926D01*
X010844Y011827D02*
X011479Y011827D01*
X011479Y011729D02*
X010874Y011729D01*
X010887Y011630D02*
X011534Y011630D01*
X011495Y011532D02*
X010985Y011532D01*
X010758Y011335D02*
X010176Y011335D01*
X010176Y011433D02*
X010545Y011433D01*
X010391Y011532D02*
X010176Y011532D01*
X010176Y011630D02*
X010341Y011630D01*
X010334Y011729D02*
X010249Y011729D01*
X010347Y011827D02*
X010365Y011827D01*
X010446Y011926D02*
X010448Y011926D01*
X010219Y012123D02*
X009350Y012123D01*
X009350Y012025D02*
X010120Y012025D01*
X010317Y012222D02*
X009350Y012222D01*
X009467Y012320D02*
X009641Y012320D01*
X009641Y012419D02*
X009467Y012419D01*
X009467Y012517D02*
X009641Y012517D01*
X009641Y012616D02*
X009467Y012616D01*
X009467Y012714D02*
X009641Y012714D01*
X009641Y012813D02*
X009467Y012813D01*
X009439Y012911D02*
X009670Y012911D01*
X010011Y013393D02*
X010363Y013247D01*
X010745Y013247D01*
X011098Y013393D01*
X011368Y013663D01*
X011514Y014016D01*
X011514Y014398D01*
X011368Y014751D01*
X011098Y015021D01*
X010745Y015167D01*
X010363Y015167D01*
X010011Y015021D01*
X009928Y014939D01*
X009204Y015663D01*
X009204Y016539D01*
X009204Y016663D01*
X008704Y017163D01*
X008616Y017251D01*
X008312Y017251D01*
X008261Y017373D01*
X008126Y017508D01*
X007950Y017581D01*
X007759Y017581D01*
X007582Y017508D01*
X007447Y017373D01*
X007374Y017196D01*
X007374Y017005D01*
X007447Y016829D01*
X007582Y016694D01*
X007759Y016621D01*
X007950Y016621D01*
X008126Y016694D01*
X008261Y016829D01*
X008312Y016951D01*
X008492Y016951D01*
X008904Y016539D01*
X008904Y015539D01*
X008992Y015451D01*
X009726Y014717D01*
X009594Y014398D01*
X009594Y014016D01*
X009740Y013663D01*
X010011Y013393D01*
X010000Y013404D02*
X001704Y013404D01*
X001704Y013306D02*
X010222Y013306D01*
X009901Y013503D02*
X001704Y013503D01*
X001704Y013601D02*
X003954Y013601D01*
X004155Y013601D02*
X007954Y013601D01*
X007955Y013601D02*
X008154Y013601D01*
X008338Y013677D01*
X008478Y013818D01*
X008554Y014001D01*
X008554Y014200D01*
X008478Y014384D01*
X008338Y014525D01*
X008204Y014580D01*
X008204Y015772D01*
X008261Y015829D01*
X008334Y016005D01*
X008334Y016196D01*
X008261Y016373D01*
X008126Y016508D01*
X007950Y016581D01*
X007759Y016581D01*
X007582Y016508D01*
X007447Y016373D01*
X007374Y016196D01*
X007374Y016005D01*
X007447Y015829D01*
X007582Y015694D01*
X007759Y015621D01*
X007904Y015621D01*
X007904Y014580D01*
X007771Y014525D01*
X007630Y014384D01*
X007554Y014200D01*
X007554Y014001D01*
X007630Y013818D01*
X007771Y013677D01*
X007955Y013601D01*
X008155Y013601D02*
X009803Y013601D01*
X009725Y013700D02*
X008360Y013700D01*
X008459Y013798D02*
X009685Y013798D01*
X009644Y013897D02*
X008511Y013897D01*
X008552Y013995D02*
X009603Y013995D01*
X009594Y014094D02*
X008554Y014094D01*
X008554Y014192D02*
X009594Y014192D01*
X009594Y014291D02*
X008517Y014291D01*
X008473Y014390D02*
X009594Y014390D01*
X009632Y014488D02*
X008374Y014488D01*
X008204Y014587D02*
X009672Y014587D01*
X009713Y014685D02*
X008204Y014685D01*
X008204Y014784D02*
X009659Y014784D01*
X009561Y014882D02*
X008204Y014882D01*
X008204Y014981D02*
X009462Y014981D01*
X009364Y015079D02*
X008204Y015079D01*
X008204Y015178D02*
X009265Y015178D01*
X009166Y015276D02*
X008204Y015276D01*
X008204Y015375D02*
X009068Y015375D01*
X008969Y015474D02*
X008204Y015474D01*
X008204Y015572D02*
X008904Y015572D01*
X008904Y015671D02*
X008204Y015671D01*
X008204Y015769D02*
X008904Y015769D01*
X008904Y015868D02*
X008277Y015868D01*
X008318Y015966D02*
X008904Y015966D01*
X008904Y016065D02*
X008334Y016065D01*
X008334Y016163D02*
X008904Y016163D01*
X008904Y016262D02*
X008307Y016262D01*
X008266Y016360D02*
X008904Y016360D01*
X008904Y016459D02*
X008175Y016459D01*
X008006Y016558D02*
X008885Y016558D01*
X008787Y016656D02*
X008035Y016656D01*
X008187Y016755D02*
X008688Y016755D01*
X008590Y016853D02*
X008271Y016853D01*
X008620Y017247D02*
X009818Y017247D01*
X009808Y017237D02*
X009737Y017149D01*
X008718Y017149D01*
X008817Y017050D02*
X009676Y017050D01*
X009678Y017054D02*
X009629Y016953D01*
X009592Y016847D01*
X009567Y016737D01*
X009554Y016625D01*
X009554Y016619D01*
X010504Y016619D01*
X010504Y016519D01*
X009554Y016519D01*
X009554Y016513D01*
X009567Y016401D01*
X009592Y016292D01*
X009629Y016186D01*
X009678Y016085D01*
X009737Y015990D01*
X009808Y015902D01*
X009887Y015822D01*
X009975Y015752D01*
X010070Y015693D01*
X010171Y015644D01*
X010277Y015607D01*
X010387Y015582D01*
X010498Y015569D01*
X010504Y015569D01*
X010504Y016519D01*
X010604Y016519D01*
X010604Y015569D01*
X010610Y015569D01*
X010722Y015582D01*
X010832Y015607D01*
X010938Y015644D01*
X011039Y015693D01*
X011134Y015752D01*
X011222Y015822D01*
X011301Y015902D01*
X011371Y015990D01*
X011431Y016085D01*
X011480Y016186D01*
X011517Y016292D01*
X011542Y016401D01*
X011554Y016513D01*
X011554Y016519D01*
X010604Y016519D01*
X010604Y016619D01*
X010504Y016619D01*
X010504Y017569D01*
X010498Y017569D01*
X010387Y017557D01*
X010277Y017532D01*
X010171Y017495D01*
X010070Y017446D01*
X009975Y017386D01*
X009887Y017316D01*
X009808Y017237D01*
X009737Y017149D02*
X009678Y017054D01*
X009629Y016952D02*
X008916Y016952D01*
X009014Y016853D02*
X009594Y016853D01*
X009571Y016755D02*
X009113Y016755D01*
X009204Y016656D02*
X009558Y016656D01*
X009560Y016459D02*
X009204Y016459D01*
X009204Y016558D02*
X010504Y016558D01*
X010504Y016656D02*
X010604Y016656D01*
X010604Y016619D02*
X010604Y017569D01*
X010610Y017569D01*
X010722Y017557D01*
X010832Y017532D01*
X010938Y017495D01*
X011039Y017446D01*
X011134Y017386D01*
X011222Y017316D01*
X011301Y017237D01*
X011371Y017149D01*
X011431Y017054D01*
X011480Y016953D01*
X011517Y016847D01*
X011542Y016737D01*
X011554Y016625D01*
X011554Y016619D01*
X010604Y016619D01*
X010604Y016558D02*
X014004Y016558D01*
X014004Y016551D02*
X013536Y016551D01*
X013547Y016479D01*
X013572Y016401D01*
X013610Y016328D01*
X013658Y016262D01*
X012894Y016262D01*
X012889Y016265D02*
X012788Y016314D01*
X012682Y016351D01*
X012572Y016376D01*
X012461Y016388D01*
X012455Y016388D01*
X012455Y015438D01*
X013405Y015438D01*
X013405Y015444D01*
X013392Y015556D01*
X013367Y015665D01*
X013330Y015771D01*
X013281Y015873D01*
X013222Y015968D01*
X013151Y016056D01*
X013072Y016135D01*
X012984Y016205D01*
X012889Y016265D01*
X013037Y016163D02*
X013772Y016163D01*
X013782Y016156D02*
X013855Y016119D01*
X013933Y016094D01*
X014004Y016082D01*
X014004Y016551D01*
X014004Y016651D01*
X013536Y016651D01*
X013547Y016723D01*
X013572Y016800D01*
X013610Y016873D01*
X013658Y016940D01*
X013716Y016997D01*
X013782Y017046D01*
X013855Y017083D01*
X013933Y017108D01*
X014004Y017119D01*
X014004Y016651D01*
X014104Y016651D01*
X014104Y017119D01*
X014176Y017108D01*
X014254Y017083D01*
X014327Y017046D01*
X014393Y016997D01*
X014451Y016940D01*
X014499Y016873D01*
X014536Y016800D01*
X014561Y016723D01*
X014573Y016651D01*
X014104Y016651D01*
X014104Y016551D01*
X014104Y016082D01*
X014176Y016094D01*
X014254Y016119D01*
X014327Y016156D01*
X014393Y016204D01*
X014451Y016262D01*
X014499Y016328D01*
X014536Y016401D01*
X014561Y016479D01*
X014573Y016551D01*
X014104Y016551D01*
X014004Y016551D01*
X014004Y016459D02*
X014104Y016459D01*
X014104Y016558D02*
X014574Y016558D01*
X014574Y016505D02*
X014647Y016329D01*
X014782Y016194D01*
X014904Y016143D01*
X014904Y015663D01*
X013111Y013870D01*
X013108Y013871D01*
X013001Y013871D01*
X012901Y013830D01*
X012825Y013754D01*
X012784Y013654D01*
X012784Y013547D01*
X012825Y013448D01*
X012901Y013372D01*
X013001Y013331D01*
X013108Y013331D01*
X013207Y013372D01*
X013283Y013448D01*
X013304Y013499D01*
X013325Y013448D01*
X013401Y013372D01*
X013501Y013331D01*
X013608Y013331D01*
X013707Y013372D01*
X013783Y013448D01*
X013824Y013547D01*
X013824Y013654D01*
X013823Y013657D01*
X016204Y016039D01*
X016204Y016143D01*
X016326Y016194D01*
X016461Y016329D01*
X016534Y016505D01*
X016534Y016696D01*
X016461Y016873D01*
X016326Y017008D01*
X016150Y017081D01*
X015959Y017081D01*
X015782Y017008D01*
X015647Y016873D01*
X015574Y016696D01*
X015574Y016505D01*
X015647Y016329D01*
X015782Y016194D01*
X015891Y016149D01*
X013611Y013870D01*
X013608Y013871D01*
X013536Y013871D01*
X015204Y015539D01*
X015204Y015663D01*
X015204Y016143D01*
X015326Y016194D01*
X015461Y016329D01*
X015534Y016505D01*
X015534Y016696D01*
X015461Y016873D01*
X015326Y017008D01*
X015150Y017081D01*
X014959Y017081D01*
X014782Y017008D01*
X014647Y016873D01*
X014574Y016696D01*
X014574Y016505D01*
X014555Y016459D02*
X014594Y016459D01*
X014634Y016360D02*
X014515Y016360D01*
X014451Y016262D02*
X014714Y016262D01*
X014856Y016163D02*
X014337Y016163D01*
X014104Y016163D02*
X014004Y016163D01*
X014004Y016262D02*
X014104Y016262D01*
X014104Y016360D02*
X014004Y016360D01*
X014004Y016656D02*
X014104Y016656D01*
X014104Y016755D02*
X014004Y016755D01*
X014004Y016853D02*
X014104Y016853D01*
X014104Y016952D02*
X014004Y016952D01*
X014004Y017050D02*
X014104Y017050D01*
X014318Y017050D02*
X014885Y017050D01*
X014726Y016952D02*
X014439Y016952D01*
X014509Y016853D02*
X014639Y016853D01*
X014599Y016755D02*
X014551Y016755D01*
X014572Y016656D02*
X014574Y016656D01*
X014904Y016065D02*
X013142Y016065D01*
X013222Y015966D02*
X014904Y015966D01*
X014904Y015868D02*
X013284Y015868D01*
X013331Y015769D02*
X014904Y015769D01*
X014904Y015671D02*
X013365Y015671D01*
X013388Y015572D02*
X014814Y015572D01*
X014715Y015474D02*
X013401Y015474D01*
X013405Y015338D02*
X012455Y015338D01*
X012455Y015438D01*
X012355Y015438D01*
X012355Y016388D01*
X012349Y016388D01*
X012237Y016376D01*
X012127Y016351D01*
X012021Y016314D01*
X011920Y016265D01*
X011825Y016205D01*
X011737Y016135D01*
X011658Y016056D01*
X011588Y015968D01*
X011528Y015873D01*
X011479Y015771D01*
X011442Y015665D01*
X011417Y015556D01*
X011405Y015444D01*
X011405Y015438D01*
X012355Y015438D01*
X012355Y015338D01*
X012455Y015338D01*
X012455Y014388D01*
X012461Y014388D01*
X012572Y014401D01*
X012682Y014426D01*
X012788Y014463D01*
X012889Y014512D01*
X012984Y014571D01*
X013072Y014641D01*
X013151Y014721D01*
X013222Y014809D01*
X013281Y014904D01*
X013330Y015005D01*
X013367Y015111D01*
X013392Y015220D01*
X013405Y015332D01*
X013405Y015338D01*
X013398Y015276D02*
X014518Y015276D01*
X014419Y015178D02*
X013382Y015178D01*
X013356Y015079D02*
X014321Y015079D01*
X014222Y014981D02*
X013318Y014981D01*
X013268Y014882D02*
X014124Y014882D01*
X014025Y014784D02*
X013202Y014784D01*
X013116Y014685D02*
X013927Y014685D01*
X013828Y014587D02*
X013003Y014587D01*
X012840Y014488D02*
X013730Y014488D01*
X013631Y014390D02*
X012473Y014390D01*
X012455Y014390D02*
X012355Y014390D01*
X012355Y014388D02*
X012355Y015338D01*
X011405Y015338D01*
X011405Y015332D01*
X011417Y015220D01*
X011442Y015111D01*
X011479Y015005D01*
X011528Y014904D01*
X011588Y014809D01*
X011658Y014721D01*
X011737Y014641D01*
X011825Y014571D01*
X011920Y014512D01*
X012021Y014463D01*
X012127Y014426D01*
X012237Y014401D01*
X012349Y014388D01*
X012355Y014388D01*
X012336Y014390D02*
X011514Y014390D01*
X011514Y014291D02*
X013532Y014291D01*
X013434Y014192D02*
X011514Y014192D01*
X011514Y014094D02*
X013335Y014094D01*
X013237Y013995D02*
X011506Y013995D01*
X011465Y013897D02*
X013138Y013897D01*
X012870Y013798D02*
X011424Y013798D01*
X011383Y013700D02*
X012803Y013700D01*
X012784Y013601D02*
X011306Y013601D01*
X011208Y013503D02*
X012803Y013503D01*
X012869Y013404D02*
X011109Y013404D01*
X010886Y013306D02*
X015704Y013306D01*
X015704Y013404D02*
X013739Y013404D01*
X013806Y013503D02*
X015704Y013503D01*
X015704Y013601D02*
X013824Y013601D01*
X013865Y013700D02*
X015704Y013700D01*
X015704Y013798D02*
X013964Y013798D01*
X014063Y013897D02*
X015704Y013897D01*
X015704Y013995D02*
X014161Y013995D01*
X014260Y014094D02*
X015704Y014094D01*
X015704Y014192D02*
X014358Y014192D01*
X014457Y014291D02*
X015704Y014291D01*
X015704Y014390D02*
X014555Y014390D01*
X014654Y014488D02*
X015704Y014488D01*
X015704Y014551D02*
X015704Y013163D01*
X014804Y012263D01*
X014594Y012052D01*
X014565Y012081D01*
X013604Y012081D01*
X013539Y012016D01*
X013539Y011685D01*
X013604Y011621D01*
X014565Y011621D01*
X014629Y011685D01*
X014629Y011701D01*
X014666Y011701D01*
X015016Y012051D01*
X015916Y012951D01*
X016004Y013039D01*
X016004Y014551D01*
X016200Y014747D01*
X016773Y014747D01*
X016838Y014811D01*
X016838Y015384D01*
X017208Y015755D01*
X017403Y015755D01*
X017467Y015819D01*
X017467Y016383D01*
X017403Y016447D01*
X016997Y016447D01*
X016933Y016383D01*
X016933Y015904D01*
X016744Y015715D01*
X016170Y015715D01*
X016106Y015650D01*
X016106Y015077D01*
X015704Y014676D01*
X015704Y014551D01*
X015704Y014587D02*
X014752Y014587D01*
X014851Y014685D02*
X015714Y014685D01*
X015813Y014784D02*
X014949Y014784D01*
X015048Y014882D02*
X015911Y014882D01*
X016010Y014981D02*
X015146Y014981D01*
X015245Y015079D02*
X016106Y015079D01*
X016106Y015178D02*
X015344Y015178D01*
X015442Y015276D02*
X016106Y015276D01*
X016106Y015375D02*
X015541Y015375D01*
X015639Y015474D02*
X016106Y015474D01*
X016106Y015572D02*
X015738Y015572D01*
X015836Y015671D02*
X016126Y015671D01*
X015935Y015769D02*
X016798Y015769D01*
X016897Y015868D02*
X016033Y015868D01*
X016132Y015966D02*
X016933Y015966D01*
X016933Y016065D02*
X016204Y016065D01*
X016252Y016163D02*
X016933Y016163D01*
X016933Y016262D02*
X016394Y016262D01*
X016474Y016360D02*
X016933Y016360D01*
X017200Y016101D02*
X017200Y015959D01*
X017418Y015769D02*
X017634Y015769D01*
X017631Y015772D02*
X017659Y015745D01*
X017693Y015725D01*
X017731Y015715D01*
X017880Y015715D01*
X017880Y016072D01*
X017937Y016072D01*
X017937Y015715D01*
X018086Y015715D01*
X018124Y015725D01*
X018158Y015745D01*
X018186Y015772D01*
X018206Y015807D01*
X018216Y015845D01*
X018216Y016072D01*
X017938Y016072D01*
X017938Y016130D01*
X018216Y016130D01*
X018216Y016307D01*
X018417Y016216D01*
X019554Y015601D01*
X019554Y000601D01*
X012766Y000601D01*
X013116Y000951D01*
X013204Y001039D01*
X013204Y001479D01*
X013336Y001479D01*
X013401Y001543D01*
X013401Y001949D01*
X013336Y002014D01*
X012773Y002014D01*
X012708Y001949D01*
X012708Y001543D01*
X012773Y001479D01*
X012904Y001479D01*
X012904Y001163D01*
X012492Y000751D01*
X009116Y000751D01*
X008704Y001163D01*
X008704Y002039D01*
X009103Y002437D01*
X009147Y002329D01*
X009282Y002194D01*
X009459Y002121D01*
X009650Y002121D01*
X009826Y002194D01*
X009904Y002272D01*
X009904Y002163D01*
X009822Y002081D01*
X009139Y002081D01*
X009074Y002016D01*
X009074Y001185D01*
X009139Y001121D01*
X009970Y001121D01*
X010034Y001185D01*
X010304Y001185D01*
X010282Y001194D02*
X010459Y001121D01*
X010650Y001121D01*
X010826Y001194D01*
X010961Y001329D01*
X011034Y001505D01*
X011034Y001696D01*
X010984Y001818D01*
X011116Y001951D01*
X011204Y002039D01*
X011204Y002215D01*
X011216Y002204D01*
X011282Y002156D01*
X011355Y002119D01*
X011433Y002094D01*
X011504Y002082D01*
X011504Y002551D01*
X011604Y002551D01*
X011604Y002082D01*
X011676Y002094D01*
X011754Y002119D01*
X011827Y002156D01*
X011893Y002204D01*
X011951Y002262D01*
X011999Y002328D01*
X012036Y002401D01*
X012061Y002479D01*
X012073Y002551D01*
X011604Y002551D01*
X011604Y002651D01*
X011504Y002651D01*
X011504Y003119D01*
X011433Y003108D01*
X011355Y003083D01*
X011282Y003046D01*
X011216Y002997D01*
X011204Y002986D01*
X011204Y003039D01*
X012616Y004451D01*
X013616Y004451D01*
X013704Y004539D01*
X014204Y005039D01*
X014204Y005163D01*
X014204Y005663D01*
X014116Y005751D01*
X013807Y006061D01*
X013719Y006148D01*
X013604Y006148D01*
X013604Y006154D01*
X013602Y006156D01*
X013604Y006158D01*
X013604Y006469D01*
X013602Y006471D01*
X013604Y006473D01*
X013604Y006783D01*
X013818Y006783D01*
X013873Y006729D01*
X014436Y006729D01*
X014501Y006793D01*
X014501Y007199D01*
X014436Y007264D01*
X013873Y007264D01*
X013808Y007199D01*
X013808Y007103D01*
X013638Y007103D01*
X013644Y007129D01*
X013644Y007253D01*
X013250Y007253D01*
X013250Y007263D01*
X013644Y007263D01*
X013644Y007388D01*
X013634Y007426D01*
X013614Y007460D01*
X013604Y007470D01*
X013604Y007729D01*
X013602Y007731D01*
X013604Y007733D01*
X013604Y008044D01*
X013602Y008046D01*
X013604Y008048D01*
X013604Y008359D01*
X013540Y008423D01*
X013089Y008423D01*
X012915Y008674D02*
X012877Y008674D01*
X012877Y008773D02*
X016614Y008773D01*
X016614Y008871D02*
X012877Y008871D01*
X012877Y008970D02*
X013959Y008970D01*
X013988Y008941D02*
X013894Y009034D01*
X013894Y009049D01*
X013104Y009839D01*
X013104Y009963D01*
X013104Y012163D01*
X013192Y012251D01*
X013442Y012501D01*
X013539Y012501D01*
X013539Y012516D01*
X013604Y012581D01*
X014565Y012581D01*
X014629Y012516D01*
X014629Y012185D01*
X014565Y012121D01*
X013604Y012121D01*
X013545Y012179D01*
X013404Y012039D01*
X013404Y009963D01*
X014106Y009261D01*
X016614Y009261D01*
X016614Y009855D01*
X016679Y009919D01*
X018030Y009919D01*
X018094Y009855D01*
X018094Y009244D01*
X018105Y009243D01*
X018182Y009145D01*
X018168Y009022D01*
X018094Y008964D01*
X018094Y008504D01*
X018030Y008439D01*
X016679Y008439D01*
X016614Y008504D01*
X016614Y008941D01*
X013988Y008941D01*
X013875Y009068D02*
X012877Y009068D01*
X013382Y009561D02*
X012227Y009561D01*
X012177Y009462D02*
X013481Y009462D01*
X013579Y009364D02*
X012177Y009364D01*
X012177Y009265D02*
X013678Y009265D01*
X013776Y009167D02*
X012177Y009167D01*
X011877Y009167D02*
X011862Y009167D01*
X011862Y009265D02*
X011877Y009265D01*
X011877Y009364D02*
X011862Y009364D01*
X011862Y009462D02*
X011877Y009462D01*
X011877Y009561D02*
X011806Y009561D01*
X011901Y009659D02*
X011708Y009659D01*
X011609Y009758D02*
X011999Y009758D01*
X012098Y009857D02*
X011511Y009857D01*
X011412Y009955D02*
X012197Y009955D01*
X012325Y009659D02*
X013283Y009659D01*
X013185Y009758D02*
X012724Y009758D01*
X012822Y009857D02*
X013104Y009857D01*
X013104Y009955D02*
X012921Y009955D01*
X013004Y010054D02*
X013104Y010054D01*
X013104Y010152D02*
X013004Y010152D01*
X013004Y010251D02*
X013104Y010251D01*
X013104Y010349D02*
X013004Y010349D01*
X013004Y010448D02*
X013104Y010448D01*
X013104Y010546D02*
X013004Y010546D01*
X013004Y010645D02*
X013104Y010645D01*
X013104Y010743D02*
X013004Y010743D01*
X013004Y010842D02*
X013104Y010842D01*
X013104Y010941D02*
X013004Y010941D01*
X013004Y011039D02*
X013104Y011039D01*
X013104Y011138D02*
X013004Y011138D01*
X013004Y011236D02*
X013104Y011236D01*
X013104Y011335D02*
X013004Y011335D01*
X013004Y011433D02*
X013104Y011433D01*
X013104Y011532D02*
X013004Y011532D01*
X013004Y011630D02*
X013104Y011630D01*
X013104Y011729D02*
X013004Y011729D01*
X013004Y011827D02*
X013104Y011827D01*
X013104Y011926D02*
X013004Y011926D01*
X013004Y012025D02*
X013104Y012025D01*
X013104Y012123D02*
X013004Y012123D01*
X013004Y012222D02*
X013163Y012222D01*
X013262Y012320D02*
X013004Y012320D01*
X013004Y012419D02*
X013360Y012419D01*
X013540Y012517D02*
X013004Y012517D01*
X013004Y012616D02*
X013552Y012616D01*
X013557Y012611D02*
X013591Y012591D01*
X013630Y012581D01*
X014074Y012581D01*
X014074Y012841D01*
X013499Y012841D01*
X013499Y012711D01*
X013510Y012673D01*
X013529Y012639D01*
X013557Y012611D01*
X013499Y012714D02*
X012953Y012714D01*
X012854Y012813D02*
X013499Y012813D01*
X013499Y012861D02*
X013499Y012991D01*
X013510Y013029D01*
X013529Y013063D01*
X013557Y013091D01*
X013591Y013111D01*
X013630Y013121D01*
X014074Y013121D01*
X014074Y012861D01*
X014074Y012841D01*
X014094Y012841D01*
X014094Y012581D01*
X014539Y012581D01*
X014577Y012591D01*
X014611Y012611D01*
X014639Y012639D01*
X014659Y012673D01*
X014669Y012711D01*
X014669Y012841D01*
X014095Y012841D01*
X014095Y012861D01*
X014669Y012861D01*
X014669Y012991D01*
X014659Y013029D01*
X014639Y013063D01*
X014611Y013091D01*
X014577Y013111D01*
X014539Y013121D01*
X014094Y013121D01*
X014094Y012861D01*
X014074Y012861D01*
X013499Y012861D01*
X013499Y012911D02*
X012756Y012911D01*
X012569Y013010D02*
X013505Y013010D01*
X013588Y013109D02*
X007759Y013109D01*
X007660Y013207D02*
X015704Y013207D01*
X015650Y013109D02*
X014581Y013109D01*
X014664Y013010D02*
X015551Y013010D01*
X015453Y012911D02*
X014669Y012911D01*
X014669Y012813D02*
X015354Y012813D01*
X015256Y012714D02*
X014669Y012714D01*
X014616Y012616D02*
X015157Y012616D01*
X015059Y012517D02*
X014628Y012517D01*
X014629Y012419D02*
X014960Y012419D01*
X014862Y012320D02*
X014629Y012320D01*
X014629Y012222D02*
X014763Y012222D01*
X014664Y012123D02*
X014567Y012123D01*
X014793Y011827D02*
X014869Y011827D01*
X014892Y011926D02*
X014967Y011926D01*
X014990Y012025D02*
X015066Y012025D01*
X015089Y012123D02*
X015164Y012123D01*
X015187Y012222D02*
X015263Y012222D01*
X015286Y012320D02*
X015362Y012320D01*
X015384Y012419D02*
X015460Y012419D01*
X015483Y012517D02*
X015559Y012517D01*
X015581Y012616D02*
X015657Y012616D01*
X015680Y012714D02*
X015756Y012714D01*
X015779Y012813D02*
X015854Y012813D01*
X015877Y012911D02*
X015953Y012911D01*
X015976Y013010D02*
X016051Y013010D01*
X016034Y012993D02*
X014594Y011552D01*
X014565Y011581D01*
X013604Y011581D01*
X013539Y011516D01*
X013539Y011185D01*
X013604Y011121D01*
X014565Y011121D01*
X014629Y011185D01*
X014629Y011201D01*
X014666Y011201D01*
X016246Y012781D01*
X016622Y013156D01*
X016622Y013239D01*
X016909Y012951D01*
X016933Y012951D01*
X016933Y012819D01*
X016997Y012755D01*
X017403Y012755D01*
X017467Y012819D01*
X017467Y013383D01*
X017403Y013447D01*
X016997Y013447D01*
X016933Y013383D01*
X016933Y013352D01*
X016785Y013499D01*
X016838Y013551D01*
X016838Y014390D01*
X018271Y014390D01*
X018336Y014455D01*
X018938Y014455D01*
X019003Y014390D01*
X019554Y014390D01*
X019554Y014488D02*
X016004Y014488D01*
X016004Y014390D02*
X016106Y014390D01*
X016170Y014455D01*
X016773Y014455D01*
X016838Y014390D01*
X016838Y014291D02*
X018271Y014291D01*
X018271Y014192D02*
X016838Y014192D01*
X016838Y014094D02*
X018271Y014094D01*
X018271Y013995D02*
X016838Y013995D01*
X016838Y013897D02*
X018271Y013897D01*
X018271Y013798D02*
X016838Y013798D01*
X016838Y013700D02*
X018271Y013700D01*
X018271Y013601D02*
X016838Y013601D01*
X016789Y013503D02*
X018320Y013503D01*
X018336Y013487D02*
X018938Y013487D01*
X019003Y013551D01*
X019003Y014390D01*
X019003Y014291D02*
X019554Y014291D01*
X019554Y014192D02*
X019003Y014192D01*
X019003Y014094D02*
X019554Y014094D01*
X019554Y013995D02*
X019003Y013995D01*
X019003Y013897D02*
X019554Y013897D01*
X019554Y013798D02*
X019003Y013798D01*
X019003Y013700D02*
X019554Y013700D01*
X019554Y013601D02*
X019003Y013601D01*
X018954Y013503D02*
X019554Y013503D01*
X019554Y013404D02*
X018201Y013404D01*
X018206Y013395D02*
X018186Y013429D01*
X018158Y013457D01*
X018124Y013477D01*
X018086Y013487D01*
X017937Y013487D01*
X017937Y013130D01*
X017880Y013130D01*
X017880Y013487D01*
X017731Y013487D01*
X017693Y013477D01*
X017659Y013457D01*
X017631Y013429D01*
X017611Y013395D01*
X017601Y013357D01*
X017601Y013130D01*
X017880Y013130D01*
X017880Y013072D01*
X017937Y013072D01*
X017937Y012715D01*
X018086Y012715D01*
X018124Y012725D01*
X018158Y012745D01*
X018186Y012772D01*
X018206Y012807D01*
X018216Y012845D01*
X018216Y013072D01*
X017938Y013072D01*
X017938Y013130D01*
X018216Y013130D01*
X018216Y013357D01*
X018206Y013395D01*
X018216Y013306D02*
X019554Y013306D01*
X019554Y013207D02*
X018216Y013207D01*
X018216Y013010D02*
X019554Y013010D01*
X019554Y013109D02*
X017938Y013109D01*
X017880Y013109D02*
X017467Y013109D01*
X017467Y013207D02*
X017601Y013207D01*
X017601Y013306D02*
X017467Y013306D01*
X017446Y013404D02*
X017617Y013404D01*
X017601Y013072D02*
X017601Y012845D01*
X017611Y012807D01*
X017631Y012772D01*
X017659Y012745D01*
X017693Y012725D01*
X017731Y012715D01*
X017880Y012715D01*
X017880Y013072D01*
X017601Y013072D01*
X017601Y013010D02*
X017467Y013010D01*
X017467Y012911D02*
X017601Y012911D01*
X017610Y012813D02*
X017461Y012813D01*
X016939Y012813D02*
X016279Y012813D01*
X016377Y012911D02*
X016933Y012911D01*
X016850Y013010D02*
X016476Y013010D01*
X016574Y013109D02*
X016752Y013109D01*
X016653Y013207D02*
X016622Y013207D01*
X016322Y013280D02*
X016034Y012993D01*
X016004Y013109D02*
X016150Y013109D01*
X016248Y013207D02*
X016004Y013207D01*
X016004Y013306D02*
X016322Y013306D01*
X016322Y013280D02*
X016322Y013487D01*
X016170Y013487D01*
X016106Y013551D01*
X016106Y014390D01*
X016106Y014291D02*
X016004Y014291D01*
X016004Y014192D02*
X016106Y014192D01*
X016106Y014094D02*
X016004Y014094D01*
X016004Y013995D02*
X016106Y013995D01*
X016106Y013897D02*
X016004Y013897D01*
X016004Y013798D02*
X016106Y013798D01*
X016106Y013700D02*
X016004Y013700D01*
X016004Y013601D02*
X016106Y013601D01*
X016154Y013503D02*
X016004Y013503D01*
X016004Y013404D02*
X016322Y013404D01*
X016472Y013601D02*
X016472Y013971D01*
X016880Y013404D02*
X016954Y013404D01*
X016180Y012714D02*
X019554Y012714D01*
X019554Y012616D02*
X016081Y012616D01*
X015983Y012517D02*
X019554Y012517D01*
X019554Y012419D02*
X015884Y012419D01*
X015786Y012320D02*
X019554Y012320D01*
X019554Y012222D02*
X015687Y012222D01*
X015589Y012123D02*
X019554Y012123D01*
X019554Y012025D02*
X015490Y012025D01*
X015392Y011926D02*
X019554Y011926D01*
X019554Y011827D02*
X015293Y011827D01*
X015195Y011729D02*
X016177Y011729D01*
X016144Y011715D02*
X015940Y011511D01*
X015830Y011245D01*
X015830Y010957D01*
X015940Y010690D01*
X016144Y010486D01*
X016410Y010376D01*
X016699Y010376D01*
X016965Y010486D01*
X017169Y010690D01*
X017279Y010957D01*
X017279Y011245D01*
X017169Y011511D01*
X016965Y011715D01*
X016699Y011826D01*
X016410Y011826D01*
X016144Y011715D01*
X016059Y011630D02*
X015096Y011630D01*
X014997Y011532D02*
X015960Y011532D01*
X015908Y011433D02*
X014899Y011433D01*
X014800Y011335D02*
X015867Y011335D01*
X015830Y011236D02*
X014702Y011236D01*
X014582Y011138D02*
X015830Y011138D01*
X015830Y011039D02*
X013404Y011039D01*
X013404Y010941D02*
X015836Y010941D01*
X015877Y010842D02*
X013404Y010842D01*
X013404Y010743D02*
X015918Y010743D01*
X015985Y010645D02*
X013404Y010645D01*
X013404Y010546D02*
X016084Y010546D01*
X016237Y010448D02*
X013404Y010448D01*
X013404Y010349D02*
X019554Y010349D01*
X019554Y010251D02*
X013404Y010251D01*
X013404Y010152D02*
X019554Y010152D01*
X019554Y010054D02*
X013404Y010054D01*
X013412Y009955D02*
X019554Y009955D01*
X019554Y009857D02*
X018092Y009857D01*
X018094Y009758D02*
X019554Y009758D01*
X019554Y009659D02*
X018094Y009659D01*
X018094Y009561D02*
X019554Y009561D01*
X019554Y009462D02*
X018094Y009462D01*
X018094Y009364D02*
X019554Y009364D01*
X019554Y009265D02*
X018094Y009265D01*
X018165Y009167D02*
X019554Y009167D01*
X019554Y009068D02*
X018173Y009068D01*
X018102Y008970D02*
X019554Y008970D01*
X019554Y008871D02*
X018094Y008871D01*
X018094Y008773D02*
X019554Y008773D01*
X019554Y008674D02*
X018094Y008674D01*
X018094Y008576D02*
X019554Y008576D01*
X019554Y008477D02*
X018068Y008477D01*
X017354Y009179D02*
X017276Y009101D01*
X014054Y009101D01*
X014102Y009265D02*
X016614Y009265D01*
X016614Y009364D02*
X014003Y009364D01*
X013905Y009462D02*
X016614Y009462D01*
X016614Y009561D02*
X013806Y009561D01*
X013708Y009659D02*
X016614Y009659D01*
X016614Y009758D02*
X013609Y009758D01*
X013511Y009857D02*
X016616Y009857D01*
X016872Y010448D02*
X019554Y010448D01*
X019554Y010546D02*
X017025Y010546D01*
X017123Y010645D02*
X019554Y010645D01*
X019554Y010743D02*
X017191Y010743D01*
X017232Y010842D02*
X019554Y010842D01*
X019554Y010941D02*
X017272Y010941D01*
X017279Y011039D02*
X019554Y011039D01*
X019554Y011138D02*
X017279Y011138D01*
X017279Y011236D02*
X019554Y011236D01*
X019554Y011335D02*
X017242Y011335D01*
X017201Y011433D02*
X019554Y011433D01*
X019554Y011532D02*
X017148Y011532D01*
X017050Y011630D02*
X019554Y011630D01*
X019554Y011729D02*
X016932Y011729D01*
X017880Y012813D02*
X017937Y012813D01*
X017937Y012911D02*
X017880Y012911D01*
X017880Y013010D02*
X017937Y013010D01*
X017937Y013207D02*
X017880Y013207D01*
X017880Y013306D02*
X017937Y013306D01*
X017937Y013404D02*
X017880Y013404D01*
X018271Y013551D02*
X018336Y013487D01*
X018271Y013551D02*
X018271Y014390D01*
X018336Y014747D02*
X018271Y014811D01*
X018271Y015650D01*
X018336Y015715D01*
X018938Y015715D01*
X019003Y015650D01*
X019003Y014811D01*
X018938Y014747D01*
X018336Y014747D01*
X018298Y014784D02*
X016810Y014784D01*
X016838Y014882D02*
X018271Y014882D01*
X018271Y014981D02*
X016838Y014981D01*
X016838Y015079D02*
X018271Y015079D01*
X018271Y015178D02*
X016838Y015178D01*
X016838Y015276D02*
X018271Y015276D01*
X018271Y015375D02*
X016838Y015375D01*
X016927Y015474D02*
X018271Y015474D01*
X018271Y015572D02*
X017025Y015572D01*
X017124Y015671D02*
X018291Y015671D01*
X018183Y015769D02*
X019243Y015769D01*
X019425Y015671D02*
X018983Y015671D01*
X019003Y015572D02*
X019554Y015572D01*
X019554Y015474D02*
X019003Y015474D01*
X019003Y015375D02*
X019554Y015375D01*
X019554Y015276D02*
X019003Y015276D01*
X019003Y015178D02*
X019554Y015178D01*
X019554Y015079D02*
X019003Y015079D01*
X019003Y014981D02*
X019554Y014981D01*
X019554Y014882D02*
X019003Y014882D01*
X018976Y014784D02*
X019554Y014784D01*
X019554Y014685D02*
X016138Y014685D01*
X016040Y014587D02*
X019554Y014587D01*
X019061Y015868D02*
X018216Y015868D01*
X018216Y015966D02*
X018878Y015966D01*
X018696Y016065D02*
X018216Y016065D01*
X018216Y016163D02*
X018514Y016163D01*
X018315Y016262D02*
X018216Y016262D01*
X017937Y016065D02*
X017880Y016065D01*
X017880Y016072D02*
X017601Y016072D01*
X017601Y015845D01*
X017611Y015807D01*
X017631Y015772D01*
X017601Y015868D02*
X017467Y015868D01*
X017467Y015966D02*
X017601Y015966D01*
X017601Y016065D02*
X017467Y016065D01*
X017467Y016163D02*
X017601Y016163D01*
X017601Y016130D02*
X017880Y016130D01*
X017880Y016072D01*
X017880Y015966D02*
X017937Y015966D01*
X017937Y015868D02*
X017880Y015868D01*
X017880Y015769D02*
X017937Y015769D01*
X017601Y016130D02*
X017601Y016357D01*
X017611Y016395D01*
X017631Y016429D01*
X017659Y016457D01*
X017693Y016477D01*
X017731Y016487D01*
X017817Y016487D01*
X017239Y016749D01*
X016026Y017197D01*
X014785Y017558D01*
X013521Y017831D01*
X012241Y018013D01*
X010951Y018105D01*
X009658Y018105D01*
X008368Y018013D01*
X007088Y017831D01*
X005824Y017558D01*
X004583Y017197D01*
X003949Y016963D01*
X004662Y016963D01*
X004662Y017094D01*
X004726Y017159D01*
X005034Y017159D01*
X005099Y017094D01*
X005099Y016531D01*
X005034Y016466D01*
X004726Y016466D01*
X004662Y016531D01*
X004662Y016663D01*
X003677Y016663D01*
X003089Y016074D01*
X003089Y015540D01*
X003024Y015476D01*
X002641Y015476D01*
X002204Y015039D01*
X002204Y014746D01*
X002267Y014683D01*
X002267Y014119D01*
X002203Y014055D01*
X001866Y014055D01*
X001708Y013897D02*
X003598Y013897D01*
X003650Y013798D02*
X001704Y013798D01*
X001704Y013700D02*
X003748Y013700D01*
X004360Y013700D02*
X007748Y013700D01*
X007650Y013798D02*
X004459Y013798D01*
X004511Y013897D02*
X007598Y013897D01*
X007557Y013995D02*
X005161Y013995D01*
X005260Y014094D02*
X007554Y014094D01*
X007554Y014192D02*
X005358Y014192D01*
X005457Y014291D02*
X007592Y014291D01*
X007636Y014390D02*
X005555Y014390D01*
X005654Y014488D02*
X007735Y014488D01*
X007904Y014587D02*
X005752Y014587D01*
X005778Y014685D02*
X007904Y014685D01*
X007904Y014784D02*
X005778Y014784D01*
X005778Y014882D02*
X007904Y014882D01*
X007904Y014981D02*
X005778Y014981D01*
X005778Y015079D02*
X007904Y015079D01*
X007904Y015178D02*
X005778Y015178D01*
X005778Y015276D02*
X007904Y015276D01*
X007904Y015375D02*
X005778Y015375D01*
X005813Y015474D02*
X007904Y015474D01*
X007904Y015572D02*
X005847Y015572D01*
X005847Y015671D02*
X007638Y015671D01*
X007507Y015769D02*
X005847Y015769D01*
X005847Y015868D02*
X007431Y015868D01*
X007390Y015966D02*
X006878Y015966D01*
X006883Y015969D02*
X006911Y015997D01*
X006930Y016031D01*
X006941Y016069D01*
X006941Y016218D01*
X006583Y016218D01*
X006583Y016275D01*
X006941Y016275D01*
X006941Y016424D01*
X006930Y016462D01*
X006911Y016496D01*
X006883Y016524D01*
X006848Y016544D01*
X006810Y016554D01*
X006583Y016554D01*
X006583Y016275D01*
X006526Y016275D01*
X006526Y016554D01*
X006298Y016554D01*
X006260Y016544D01*
X006226Y016524D01*
X006198Y016496D01*
X006178Y016462D01*
X006168Y016424D01*
X006168Y016275D01*
X006525Y016275D01*
X006525Y016218D01*
X006168Y016218D01*
X006168Y016069D01*
X006178Y016031D01*
X006198Y015997D01*
X006226Y015969D01*
X006260Y015949D01*
X006298Y015939D01*
X006526Y015939D01*
X006526Y016217D01*
X006583Y016217D01*
X006583Y015939D01*
X006810Y015939D01*
X006848Y015949D01*
X006883Y015969D01*
X006939Y016065D02*
X007374Y016065D01*
X007374Y016163D02*
X006941Y016163D01*
X006941Y016360D02*
X007442Y016360D01*
X007402Y016262D02*
X006583Y016262D01*
X006525Y016262D02*
X004224Y016262D01*
X004221Y016274D02*
X004201Y016308D01*
X004173Y016336D01*
X004139Y016355D01*
X004101Y016366D01*
X003855Y016366D01*
X003855Y015951D01*
X003756Y015951D01*
X003756Y016366D01*
X003510Y016366D01*
X003472Y016355D01*
X003438Y016336D01*
X003410Y016308D01*
X003390Y016274D01*
X003380Y016235D01*
X003380Y015951D01*
X003755Y015951D01*
X003755Y015851D01*
X003380Y015851D01*
X003380Y015566D01*
X003390Y015528D01*
X003410Y015494D01*
X003438Y015466D01*
X003472Y015446D01*
X003510Y015436D01*
X003756Y015436D01*
X003756Y015851D01*
X003855Y015851D01*
X003855Y015436D01*
X004101Y015436D01*
X004139Y015446D01*
X004173Y015466D01*
X004201Y015494D01*
X004221Y015528D01*
X004231Y015566D01*
X004231Y015851D01*
X003856Y015851D01*
X003856Y015951D01*
X004231Y015951D01*
X004231Y016235D01*
X004221Y016274D01*
X004231Y016163D02*
X005086Y016163D01*
X005250Y016163D02*
X005258Y016163D01*
X005250Y016065D02*
X005258Y016065D01*
X005250Y015966D02*
X005258Y015966D01*
X005250Y015868D02*
X005258Y015868D01*
X005258Y015785D02*
X005258Y015403D01*
X005382Y015403D01*
X005420Y015413D01*
X005455Y015433D01*
X005470Y015448D01*
X005474Y015443D01*
X005478Y015443D01*
X005478Y014737D01*
X004992Y014251D01*
X004533Y014251D01*
X004499Y014333D01*
X005030Y014865D01*
X005030Y014989D01*
X005030Y015443D01*
X005034Y015443D01*
X005039Y015448D01*
X005054Y015433D01*
X005088Y015413D01*
X005126Y015403D01*
X005250Y015403D01*
X005250Y015785D01*
X005258Y015785D01*
X005258Y015769D02*
X005250Y015769D01*
X005250Y015671D02*
X005258Y015671D01*
X005250Y015572D02*
X005258Y015572D01*
X005250Y015474D02*
X005258Y015474D01*
X005478Y015375D02*
X005030Y015375D01*
X005030Y015276D02*
X005478Y015276D01*
X005478Y015178D02*
X005030Y015178D01*
X005030Y015079D02*
X005478Y015079D01*
X005478Y014981D02*
X005030Y014981D01*
X005030Y014882D02*
X005478Y014882D01*
X005478Y014784D02*
X004949Y014784D01*
X004851Y014685D02*
X005427Y014685D01*
X005328Y014587D02*
X004752Y014587D01*
X004654Y014488D02*
X005230Y014488D01*
X005131Y014390D02*
X004555Y014390D01*
X004517Y014291D02*
X005032Y014291D01*
X004624Y014882D02*
X002204Y014882D01*
X002204Y014784D02*
X002519Y014784D01*
X002409Y014685D02*
X002265Y014685D01*
X002267Y014587D02*
X002401Y014587D01*
X002401Y014488D02*
X002267Y014488D01*
X002267Y014390D02*
X002680Y014390D01*
X002680Y014372D02*
X002401Y014372D01*
X002401Y014145D01*
X002411Y014107D01*
X002431Y014072D01*
X002459Y014045D01*
X002493Y014025D01*
X002531Y014015D01*
X002680Y014015D01*
X002680Y014372D01*
X002680Y014291D02*
X002737Y014291D01*
X002737Y014192D02*
X002680Y014192D01*
X002680Y014094D02*
X002737Y014094D01*
X002419Y014094D02*
X002242Y014094D01*
X002267Y014192D02*
X002401Y014192D01*
X002401Y014291D02*
X002267Y014291D01*
X001904Y014784D02*
X001054Y014784D01*
X001054Y014882D02*
X001904Y014882D01*
X001904Y014981D02*
X001054Y014981D01*
X001054Y015079D02*
X001904Y015079D01*
X001919Y015178D02*
X001054Y015178D01*
X001054Y015276D02*
X002018Y015276D01*
X002116Y015375D02*
X001054Y015375D01*
X001054Y015474D02*
X002215Y015474D01*
X002314Y015572D02*
X001054Y015572D01*
X001184Y015671D02*
X002318Y015671D01*
X002318Y015769D02*
X001366Y015769D01*
X001548Y015868D02*
X002318Y015868D01*
X002318Y015966D02*
X001730Y015966D01*
X001913Y016065D02*
X002318Y016065D01*
X002318Y016163D02*
X002095Y016163D01*
X002294Y016262D02*
X002318Y016262D01*
X003089Y016065D02*
X003380Y016065D01*
X003380Y016163D02*
X003178Y016163D01*
X003276Y016262D02*
X003387Y016262D01*
X003375Y016360D02*
X003491Y016360D01*
X003473Y016459D02*
X006178Y016459D01*
X006168Y016360D02*
X004121Y016360D01*
X003855Y016360D02*
X003756Y016360D01*
X003756Y016262D02*
X003855Y016262D01*
X003855Y016163D02*
X003756Y016163D01*
X003756Y016065D02*
X003855Y016065D01*
X003855Y015966D02*
X003756Y015966D01*
X003755Y015868D02*
X003089Y015868D01*
X003089Y015966D02*
X003380Y015966D01*
X003380Y015769D02*
X003089Y015769D01*
X003089Y015671D02*
X003380Y015671D01*
X003380Y015572D02*
X003089Y015572D01*
X003430Y015474D02*
X002639Y015474D01*
X002541Y015375D02*
X004730Y015375D01*
X004730Y015276D02*
X002442Y015276D01*
X002344Y015178D02*
X004730Y015178D01*
X004730Y015079D02*
X002245Y015079D01*
X002204Y014981D02*
X004722Y014981D01*
X004696Y015474D02*
X004181Y015474D01*
X004231Y015572D02*
X004662Y015572D01*
X004662Y015671D02*
X004231Y015671D01*
X004231Y015769D02*
X004662Y015769D01*
X004662Y015868D02*
X003856Y015868D01*
X003855Y015769D02*
X003756Y015769D01*
X003756Y015671D02*
X003855Y015671D01*
X003855Y015572D02*
X003756Y015572D01*
X003756Y015474D02*
X003855Y015474D01*
X004231Y015966D02*
X004662Y015966D01*
X004662Y016065D02*
X004231Y016065D01*
X004662Y016558D02*
X003572Y016558D01*
X003671Y016656D02*
X004662Y016656D01*
X004662Y017050D02*
X004186Y017050D01*
X004453Y017149D02*
X004716Y017149D01*
X004756Y017247D02*
X007396Y017247D01*
X007374Y017149D02*
X006901Y017149D01*
X006901Y017158D02*
X006836Y017223D01*
X006273Y017223D01*
X006208Y017158D01*
X006208Y016963D01*
X005847Y016963D01*
X005847Y017094D01*
X005782Y017159D01*
X005474Y017159D01*
X005410Y017094D01*
X005410Y016531D01*
X005474Y016466D01*
X005782Y016466D01*
X005847Y016531D01*
X005847Y016663D01*
X006350Y016663D01*
X006474Y016663D01*
X006499Y016688D01*
X006836Y016688D01*
X006901Y016752D01*
X006901Y017158D01*
X006901Y017050D02*
X007374Y017050D01*
X007396Y016952D02*
X006901Y016952D01*
X006901Y016853D02*
X007437Y016853D01*
X007522Y016755D02*
X006901Y016755D01*
X006931Y016459D02*
X007534Y016459D01*
X007703Y016558D02*
X005847Y016558D01*
X005847Y016656D02*
X007674Y016656D01*
X007436Y017346D02*
X005095Y017346D01*
X005044Y017149D02*
X005464Y017149D01*
X005410Y017050D02*
X005099Y017050D01*
X005099Y016952D02*
X005410Y016952D01*
X005410Y016853D02*
X005099Y016853D01*
X005099Y016755D02*
X005410Y016755D01*
X005410Y016656D02*
X005099Y016656D01*
X005099Y016558D02*
X005410Y016558D01*
X005423Y016163D02*
X006168Y016163D01*
X006169Y016065D02*
X005847Y016065D01*
X005847Y015966D02*
X006231Y015966D01*
X006526Y015966D02*
X006583Y015966D01*
X006583Y016065D02*
X006526Y016065D01*
X006526Y016163D02*
X006583Y016163D01*
X006583Y016360D02*
X006526Y016360D01*
X006526Y016459D02*
X006583Y016459D01*
X006208Y017050D02*
X005847Y017050D01*
X005792Y017149D02*
X006208Y017149D01*
X006210Y017641D02*
X014398Y017641D01*
X014837Y017543D02*
X010782Y017543D01*
X010604Y017543D02*
X010504Y017543D01*
X010504Y017444D02*
X010604Y017444D01*
X010604Y017346D02*
X010504Y017346D01*
X010504Y017247D02*
X010604Y017247D01*
X010604Y017149D02*
X010504Y017149D01*
X010504Y017050D02*
X010604Y017050D01*
X010604Y016952D02*
X010504Y016952D01*
X010504Y016853D02*
X010604Y016853D01*
X010604Y016755D02*
X010504Y016755D01*
X010504Y016459D02*
X010604Y016459D01*
X010604Y016360D02*
X010504Y016360D01*
X010504Y016262D02*
X010604Y016262D01*
X010604Y016163D02*
X010504Y016163D01*
X010504Y016065D02*
X010604Y016065D01*
X010604Y015966D02*
X010504Y015966D01*
X010504Y015868D02*
X010604Y015868D01*
X010604Y015769D02*
X010504Y015769D01*
X010504Y015671D02*
X010604Y015671D01*
X010604Y015572D02*
X010504Y015572D01*
X010473Y015572D02*
X009295Y015572D01*
X009204Y015671D02*
X010116Y015671D01*
X009954Y015769D02*
X009204Y015769D01*
X009204Y015868D02*
X009842Y015868D01*
X009756Y015966D02*
X009204Y015966D01*
X009204Y016065D02*
X009690Y016065D01*
X009640Y016163D02*
X009204Y016163D01*
X009204Y016262D02*
X009602Y016262D01*
X009576Y016360D02*
X009204Y016360D01*
X009394Y015474D02*
X011408Y015474D01*
X011421Y015572D02*
X010635Y015572D01*
X010993Y015671D02*
X011444Y015671D01*
X011479Y015769D02*
X011155Y015769D01*
X011267Y015868D02*
X011526Y015868D01*
X011587Y015966D02*
X011352Y015966D01*
X011418Y016065D02*
X011667Y016065D01*
X011773Y016163D02*
X011469Y016163D01*
X011506Y016262D02*
X011916Y016262D01*
X012171Y016360D02*
X011532Y016360D01*
X011548Y016459D02*
X013554Y016459D01*
X013593Y016360D02*
X012639Y016360D01*
X012455Y016360D02*
X012355Y016360D01*
X012355Y016262D02*
X012455Y016262D01*
X012455Y016163D02*
X012355Y016163D01*
X012355Y016065D02*
X012455Y016065D01*
X012455Y015966D02*
X012355Y015966D01*
X012355Y015868D02*
X012455Y015868D01*
X012455Y015769D02*
X012355Y015769D01*
X012355Y015671D02*
X012455Y015671D01*
X012455Y015572D02*
X012355Y015572D01*
X012355Y015474D02*
X012455Y015474D01*
X012455Y015375D02*
X014616Y015375D01*
X014844Y015178D02*
X014919Y015178D01*
X014942Y015276D02*
X015018Y015276D01*
X015041Y015375D02*
X015116Y015375D01*
X015139Y015474D02*
X015215Y015474D01*
X015204Y015572D02*
X015314Y015572D01*
X015412Y015671D02*
X015204Y015671D01*
X015204Y015769D02*
X015511Y015769D01*
X015609Y015868D02*
X015204Y015868D01*
X015204Y015966D02*
X015708Y015966D01*
X015806Y016065D02*
X015204Y016065D01*
X015252Y016163D02*
X015856Y016163D01*
X015714Y016262D02*
X015394Y016262D01*
X015474Y016360D02*
X015634Y016360D01*
X015594Y016459D02*
X015515Y016459D01*
X015534Y016558D02*
X015574Y016558D01*
X015574Y016656D02*
X015534Y016656D01*
X015510Y016755D02*
X015599Y016755D01*
X015639Y016853D02*
X015469Y016853D01*
X015382Y016952D02*
X015726Y016952D01*
X015885Y017050D02*
X015224Y017050D01*
X015175Y017444D02*
X011041Y017444D01*
X011184Y017346D02*
X015514Y017346D01*
X015853Y017247D02*
X011290Y017247D01*
X011371Y017149D02*
X016156Y017149D01*
X016224Y017050D02*
X016423Y017050D01*
X016382Y016952D02*
X016689Y016952D01*
X016469Y016853D02*
X016956Y016853D01*
X017223Y016755D02*
X016510Y016755D01*
X016534Y016656D02*
X017443Y016656D01*
X017661Y016558D02*
X016534Y016558D01*
X016515Y016459D02*
X017662Y016459D01*
X017602Y016360D02*
X017467Y016360D01*
X017467Y016262D02*
X017601Y016262D01*
X014821Y015079D02*
X014745Y015079D01*
X014722Y014981D02*
X014646Y014981D01*
X014624Y014882D02*
X014548Y014882D01*
X014525Y014784D02*
X014449Y014784D01*
X014427Y014685D02*
X014351Y014685D01*
X014328Y014587D02*
X014252Y014587D01*
X014230Y014488D02*
X014154Y014488D01*
X014131Y014390D02*
X014055Y014390D01*
X014032Y014291D02*
X013957Y014291D01*
X013934Y014192D02*
X013858Y014192D01*
X013835Y014094D02*
X013760Y014094D01*
X013737Y013995D02*
X013661Y013995D01*
X013638Y013897D02*
X013562Y013897D01*
X013369Y013404D02*
X013239Y013404D01*
X014074Y013109D02*
X014094Y013109D01*
X014094Y013010D02*
X014074Y013010D01*
X014074Y012911D02*
X014094Y012911D01*
X014094Y012813D02*
X014074Y012813D01*
X014074Y012714D02*
X014094Y012714D01*
X014094Y012616D02*
X014074Y012616D01*
X013601Y012123D02*
X013489Y012123D01*
X013548Y012025D02*
X013404Y012025D01*
X013404Y011926D02*
X013539Y011926D01*
X013539Y011827D02*
X013404Y011827D01*
X013404Y011729D02*
X013539Y011729D01*
X013594Y011630D02*
X013404Y011630D01*
X013404Y011532D02*
X013555Y011532D01*
X013539Y011433D02*
X013404Y011433D01*
X013404Y011335D02*
X013539Y011335D01*
X013539Y011236D02*
X013404Y011236D01*
X013404Y011138D02*
X013587Y011138D01*
X014574Y011630D02*
X014672Y011630D01*
X014695Y011729D02*
X014770Y011729D01*
X012455Y014488D02*
X012355Y014488D01*
X012355Y014587D02*
X012455Y014587D01*
X012455Y014685D02*
X012355Y014685D01*
X012355Y014784D02*
X012455Y014784D01*
X012455Y014882D02*
X012355Y014882D01*
X012355Y014981D02*
X012455Y014981D01*
X012455Y015079D02*
X012355Y015079D01*
X012355Y015178D02*
X012455Y015178D01*
X012455Y015276D02*
X012355Y015276D01*
X012355Y015375D02*
X009492Y015375D01*
X009591Y015276D02*
X011411Y015276D01*
X011427Y015178D02*
X009689Y015178D01*
X009788Y015079D02*
X010152Y015079D01*
X009970Y014981D02*
X009886Y014981D01*
X010957Y015079D02*
X011453Y015079D01*
X011491Y014981D02*
X011138Y014981D01*
X011237Y014882D02*
X011542Y014882D01*
X011608Y014784D02*
X011335Y014784D01*
X011395Y014685D02*
X011694Y014685D01*
X011806Y014587D02*
X011436Y014587D01*
X011477Y014488D02*
X011969Y014488D01*
X011479Y013010D02*
X007857Y013010D01*
X007956Y012911D02*
X008961Y012911D01*
X008933Y012813D02*
X008054Y012813D01*
X008153Y012714D02*
X008933Y012714D01*
X008933Y012616D02*
X008251Y012616D01*
X008350Y012517D02*
X008933Y012517D01*
X008933Y012419D02*
X008449Y012419D01*
X008717Y012320D02*
X008933Y012320D01*
X009050Y012222D02*
X008796Y012222D01*
X008824Y012123D02*
X009050Y012123D01*
X009050Y012025D02*
X008843Y012025D01*
X008941Y011926D02*
X008976Y011926D01*
X009424Y011926D02*
X009685Y011926D01*
X009641Y011827D02*
X009467Y011827D01*
X009467Y011729D02*
X009641Y011729D01*
X009641Y011630D02*
X009467Y011630D01*
X009467Y011532D02*
X009641Y011532D01*
X009641Y011433D02*
X009467Y011433D01*
X009467Y011335D02*
X009641Y011335D01*
X010131Y011236D02*
X010857Y011236D01*
X010525Y010842D02*
X011293Y010842D01*
X011293Y010743D02*
X010624Y010743D01*
X010427Y010941D02*
X011334Y010941D01*
X010416Y012320D02*
X010176Y012320D01*
X010176Y012419D02*
X010514Y012419D01*
X007418Y012025D02*
X001786Y012025D01*
X001704Y012123D02*
X007320Y012123D01*
X004328Y014587D02*
X004188Y014587D01*
X002024Y012419D02*
X001704Y012419D01*
X001704Y012517D02*
X001926Y012517D01*
X001827Y012616D02*
X001704Y012616D01*
X001704Y012714D02*
X001729Y012714D01*
X001404Y012714D02*
X001054Y012714D01*
X001054Y012616D02*
X001404Y012616D01*
X001404Y012517D02*
X001054Y012517D01*
X001054Y012419D02*
X001404Y012419D01*
X001404Y012320D02*
X001054Y012320D01*
X001054Y012222D02*
X001404Y012222D01*
X001404Y012123D02*
X001054Y012123D01*
X001054Y012025D02*
X001323Y012025D01*
X001201Y011926D02*
X001054Y011926D01*
X001054Y011827D02*
X001129Y011827D01*
X001088Y011729D02*
X001054Y011729D01*
X001054Y011630D02*
X001074Y011630D01*
X001074Y011532D02*
X001054Y011532D01*
X001054Y011433D02*
X001104Y011433D01*
X001145Y011335D02*
X001054Y011335D01*
X001054Y011236D02*
X001240Y011236D01*
X001418Y011138D02*
X001054Y011138D01*
X001054Y011039D02*
X001358Y011039D01*
X001215Y010941D02*
X001054Y010941D01*
X001054Y010842D02*
X001135Y010842D01*
X001094Y010743D02*
X001054Y010743D01*
X001054Y010645D02*
X001074Y010645D01*
X001074Y010546D02*
X001054Y010546D01*
X001054Y010448D02*
X001098Y010448D01*
X001139Y010349D02*
X001054Y010349D01*
X001054Y010251D02*
X001226Y010251D01*
X001974Y010842D02*
X002933Y010842D01*
X002991Y010941D02*
X001893Y010941D01*
X001404Y012813D02*
X001054Y012813D01*
X001054Y012911D02*
X001404Y012911D01*
X001404Y013010D02*
X001054Y013010D01*
X001054Y013109D02*
X001404Y013109D01*
X001404Y013207D02*
X001054Y013207D01*
X001054Y013306D02*
X001404Y013306D01*
X001404Y013404D02*
X001054Y013404D01*
X001054Y013503D02*
X001404Y013503D01*
X001404Y013601D02*
X001054Y013601D01*
X001054Y013700D02*
X001404Y013700D01*
X001404Y013798D02*
X001054Y013798D01*
X001054Y013897D02*
X001404Y013897D01*
X001404Y013995D02*
X001054Y013995D01*
X001054Y014094D02*
X001481Y014094D01*
X001580Y014192D02*
X001054Y014192D01*
X001054Y014291D02*
X001678Y014291D01*
X001733Y014390D02*
X001054Y014390D01*
X001054Y014488D02*
X001733Y014488D01*
X001733Y014587D02*
X001054Y014587D01*
X001054Y014685D02*
X001735Y014685D01*
X005433Y017444D02*
X007519Y017444D01*
X007668Y017543D02*
X005772Y017543D01*
X006667Y017740D02*
X013941Y017740D01*
X013466Y017839D02*
X007143Y017839D01*
X007834Y017937D02*
X012775Y017937D01*
X011925Y018036D02*
X008684Y018036D01*
X008189Y017444D02*
X010068Y017444D01*
X009924Y017346D02*
X008272Y017346D01*
X008041Y017543D02*
X010326Y017543D01*
X011433Y017050D02*
X013791Y017050D01*
X013670Y016952D02*
X011480Y016952D01*
X011514Y016853D02*
X013599Y016853D01*
X013558Y016755D02*
X011538Y016755D01*
X011551Y016656D02*
X013537Y016656D01*
X013658Y016262D02*
X013716Y016204D01*
X013782Y016156D01*
X018216Y012911D02*
X019554Y012911D01*
X019554Y012813D02*
X018208Y012813D01*
X016614Y008674D02*
X015193Y008674D01*
X015292Y008576D02*
X016614Y008576D01*
X016641Y008477D02*
X015390Y008477D01*
X015489Y008378D02*
X019554Y008378D01*
X019554Y008280D02*
X015587Y008280D01*
X015686Y008181D02*
X019554Y008181D01*
X019554Y008083D02*
X015704Y008083D01*
X015704Y007984D02*
X019554Y007984D01*
X019554Y007886D02*
X015704Y007886D01*
X015704Y007787D02*
X019554Y007787D01*
X019554Y007689D02*
X015704Y007689D01*
X015704Y007590D02*
X019554Y007590D01*
X019554Y007492D02*
X015704Y007492D01*
X015704Y007393D02*
X019554Y007393D01*
X019554Y007294D02*
X015704Y007294D01*
X015704Y007196D02*
X019554Y007196D01*
X019554Y007097D02*
X015704Y007097D01*
X015704Y006999D02*
X019554Y006999D01*
X019554Y006900D02*
X015704Y006900D01*
X015704Y006802D02*
X016461Y006802D01*
X016467Y006811D02*
X016447Y006776D01*
X016437Y006738D01*
X016437Y006001D01*
X017304Y006001D01*
X017304Y005901D01*
X016437Y005901D01*
X016437Y005163D01*
X016447Y005125D01*
X016467Y005091D01*
X016494Y005063D01*
X016529Y005043D01*
X016567Y005033D01*
X017304Y005033D01*
X017304Y005901D01*
X017404Y005901D01*
X017404Y005033D01*
X018142Y005033D01*
X018180Y005043D01*
X018214Y005063D01*
X018242Y005091D01*
X018262Y005125D01*
X018272Y005163D01*
X018272Y005901D01*
X017404Y005901D01*
X017404Y006001D01*
X017304Y006001D01*
X017304Y006868D01*
X016567Y006868D01*
X016529Y006858D01*
X016494Y006839D01*
X016467Y006811D01*
X016437Y006703D02*
X015704Y006703D01*
X015704Y006605D02*
X016437Y006605D01*
X016437Y006506D02*
X015704Y006506D01*
X015704Y006408D02*
X016437Y006408D01*
X016437Y006309D02*
X015704Y006309D01*
X015704Y006210D02*
X016437Y006210D01*
X016437Y006112D02*
X015704Y006112D01*
X015704Y006013D02*
X016437Y006013D01*
X016437Y005816D02*
X015704Y005816D01*
X015704Y005718D02*
X016437Y005718D01*
X016437Y005619D02*
X015704Y005619D01*
X015704Y005521D02*
X016437Y005521D01*
X016437Y005422D02*
X015704Y005422D01*
X015704Y005324D02*
X016437Y005324D01*
X016437Y005225D02*
X015704Y005225D01*
X015704Y005126D02*
X016446Y005126D01*
X015704Y005028D02*
X019554Y005028D01*
X019554Y005126D02*
X018262Y005126D01*
X018272Y005225D02*
X019554Y005225D01*
X019554Y005324D02*
X018272Y005324D01*
X018272Y005422D02*
X019554Y005422D01*
X019554Y005521D02*
X018272Y005521D01*
X018272Y005619D02*
X019554Y005619D01*
X019554Y005718D02*
X018272Y005718D01*
X018272Y005816D02*
X019554Y005816D01*
X019554Y005915D02*
X017404Y005915D01*
X017404Y006001D02*
X018272Y006001D01*
X018272Y006738D01*
X018262Y006776D01*
X018242Y006811D01*
X018214Y006839D01*
X018180Y006858D01*
X018142Y006868D01*
X017404Y006868D01*
X017404Y006001D01*
X017404Y006013D02*
X017304Y006013D01*
X017304Y005915D02*
X015704Y005915D01*
X015404Y005915D02*
X013952Y005915D01*
X013854Y006013D02*
X015404Y006013D01*
X015404Y006112D02*
X013755Y006112D01*
X013807Y006061D02*
X013807Y006061D01*
X013604Y006210D02*
X015404Y006210D01*
X015404Y006309D02*
X013604Y006309D01*
X013604Y006408D02*
X015404Y006408D01*
X015404Y006506D02*
X013604Y006506D01*
X013604Y006605D02*
X015404Y006605D01*
X015404Y006703D02*
X013604Y006703D01*
X013244Y006943D02*
X014101Y006943D01*
X014154Y006996D01*
X013808Y007196D02*
X013644Y007196D01*
X013644Y007294D02*
X015404Y007294D01*
X015404Y007196D02*
X014501Y007196D01*
X014501Y007097D02*
X015404Y007097D01*
X015404Y006999D02*
X014501Y006999D01*
X014501Y006900D02*
X015404Y006900D01*
X015404Y006802D02*
X014501Y006802D01*
X014410Y007398D02*
X014183Y007398D01*
X014183Y007676D01*
X014126Y007676D01*
X014126Y007398D01*
X013898Y007398D01*
X013860Y007408D01*
X013826Y007428D01*
X013798Y007456D01*
X013778Y007490D01*
X013768Y007528D01*
X013768Y007676D01*
X014125Y007676D01*
X014125Y007734D01*
X013768Y007734D01*
X013768Y007882D01*
X013778Y007920D01*
X013798Y007955D01*
X013826Y007983D01*
X013860Y008002D01*
X013898Y008013D01*
X014126Y008013D01*
X014126Y007734D01*
X014183Y007734D01*
X014183Y008013D01*
X014410Y008013D01*
X014448Y008002D01*
X014483Y007983D01*
X014511Y007955D01*
X014530Y007920D01*
X014541Y007882D01*
X014541Y007734D01*
X014183Y007734D01*
X014183Y007676D01*
X014541Y007676D01*
X014541Y007528D01*
X014530Y007490D01*
X014511Y007456D01*
X014483Y007428D01*
X014448Y007408D01*
X014410Y007398D01*
X014531Y007492D02*
X015404Y007492D01*
X015404Y007590D02*
X014541Y007590D01*
X014541Y007787D02*
X015404Y007787D01*
X015404Y007689D02*
X014183Y007689D01*
X014125Y007689D02*
X013604Y007689D01*
X013604Y007787D02*
X013768Y007787D01*
X013769Y007886D02*
X013604Y007886D01*
X013604Y007984D02*
X013829Y007984D01*
X013604Y008083D02*
X015360Y008083D01*
X015404Y007984D02*
X014480Y007984D01*
X014540Y007886D02*
X015404Y007886D01*
X015262Y008181D02*
X013604Y008181D01*
X013604Y008280D02*
X015163Y008280D01*
X015065Y008378D02*
X013585Y008378D01*
X014126Y007984D02*
X014183Y007984D01*
X014183Y007886D02*
X014126Y007886D01*
X014126Y007787D02*
X014183Y007787D01*
X014183Y007590D02*
X014126Y007590D01*
X014126Y007492D02*
X014183Y007492D01*
X013778Y007492D02*
X013604Y007492D01*
X013604Y007590D02*
X013768Y007590D01*
X013643Y007393D02*
X015404Y007393D01*
X015404Y005816D02*
X014051Y005816D01*
X014116Y005751D02*
X014116Y005751D01*
X014149Y005718D02*
X015404Y005718D01*
X015404Y005619D02*
X014204Y005619D01*
X014204Y005521D02*
X015404Y005521D01*
X015404Y005422D02*
X014204Y005422D01*
X014204Y005324D02*
X015404Y005324D01*
X015404Y005225D02*
X014204Y005225D01*
X014204Y005126D02*
X015404Y005126D01*
X015404Y005028D02*
X014194Y005028D01*
X014095Y004929D02*
X015404Y004929D01*
X015404Y004831D02*
X013997Y004831D01*
X013898Y004732D02*
X015404Y004732D01*
X015404Y004634D02*
X013799Y004634D01*
X013701Y004535D02*
X015404Y004535D01*
X015404Y004437D02*
X012602Y004437D01*
X012504Y004338D02*
X015404Y004338D01*
X015404Y004240D02*
X012405Y004240D01*
X012307Y004141D02*
X015382Y004141D01*
X015284Y004043D02*
X012208Y004043D01*
X012110Y003944D02*
X015185Y003944D01*
X015087Y003845D02*
X012011Y003845D01*
X011913Y003747D02*
X014988Y003747D01*
X014890Y003648D02*
X011814Y003648D01*
X011715Y003550D02*
X014791Y003550D01*
X014693Y003451D02*
X011617Y003451D01*
X011518Y003353D02*
X014594Y003353D01*
X014496Y003254D02*
X011420Y003254D01*
X011321Y003156D02*
X014397Y003156D01*
X014299Y003057D02*
X011804Y003057D01*
X011827Y003046D02*
X011754Y003083D01*
X011676Y003108D01*
X011604Y003119D01*
X011604Y002651D01*
X012073Y002651D01*
X012061Y002723D01*
X012036Y002800D01*
X011999Y002873D01*
X011951Y002940D01*
X011893Y002997D01*
X011827Y003046D01*
X011932Y002959D02*
X014200Y002959D01*
X014101Y002860D02*
X012006Y002860D01*
X012049Y002761D02*
X014003Y002761D01*
X014230Y002564D02*
X016614Y002564D01*
X016614Y002466D02*
X014131Y002466D01*
X014329Y002663D02*
X016614Y002663D01*
X016614Y002761D02*
X014427Y002761D01*
X014526Y002860D02*
X016614Y002860D01*
X016614Y002959D02*
X014624Y002959D01*
X014723Y003057D02*
X016614Y003057D01*
X016614Y003156D02*
X014821Y003156D01*
X014920Y003254D02*
X016614Y003254D01*
X016614Y003353D02*
X015018Y003353D01*
X015117Y003451D02*
X016668Y003451D01*
X016679Y003462D02*
X016614Y003398D01*
X016614Y002047D01*
X016629Y002032D01*
X016462Y002032D01*
X016292Y001962D01*
X016162Y001831D01*
X016092Y001661D01*
X016092Y001478D01*
X016162Y001308D01*
X016292Y001177D01*
X016462Y001107D01*
X016646Y001107D01*
X016816Y001177D01*
X016946Y001308D01*
X017017Y001478D01*
X017017Y001661D01*
X016946Y001831D01*
X016816Y001962D01*
X016766Y001983D01*
X018030Y001983D01*
X018094Y002047D01*
X018094Y003398D01*
X018030Y003462D01*
X016679Y003462D01*
X015704Y004043D02*
X019554Y004043D01*
X019554Y004141D02*
X015704Y004141D01*
X015704Y004240D02*
X019554Y004240D01*
X019554Y004338D02*
X015704Y004338D01*
X015704Y004437D02*
X019554Y004437D01*
X019554Y004535D02*
X015704Y004535D01*
X015704Y004634D02*
X019554Y004634D01*
X019554Y004732D02*
X015704Y004732D01*
X015704Y004831D02*
X019554Y004831D01*
X019554Y004929D02*
X015704Y004929D01*
X015610Y003944D02*
X019554Y003944D01*
X019554Y003845D02*
X015511Y003845D01*
X015413Y003747D02*
X019554Y003747D01*
X019554Y003648D02*
X015314Y003648D01*
X015215Y003550D02*
X019554Y003550D01*
X019554Y003451D02*
X018041Y003451D01*
X018094Y003353D02*
X019554Y003353D01*
X019554Y003254D02*
X018094Y003254D01*
X018094Y003156D02*
X019554Y003156D01*
X019554Y003057D02*
X018094Y003057D01*
X018094Y002959D02*
X019554Y002959D01*
X019554Y002860D02*
X018094Y002860D01*
X018094Y002761D02*
X019554Y002761D01*
X019554Y002663D02*
X018094Y002663D01*
X018094Y002564D02*
X019554Y002564D01*
X019554Y002466D02*
X018094Y002466D01*
X018094Y002367D02*
X019554Y002367D01*
X019554Y002269D02*
X018094Y002269D01*
X018094Y002170D02*
X019554Y002170D01*
X019554Y002072D02*
X018094Y002072D01*
X017010Y001677D02*
X019554Y001677D01*
X019554Y001579D02*
X017017Y001579D01*
X017017Y001480D02*
X019554Y001480D01*
X019554Y001382D02*
X016977Y001382D01*
X016922Y001283D02*
X019554Y001283D01*
X019554Y001185D02*
X016824Y001185D01*
X016285Y001185D02*
X013204Y001185D01*
X013204Y001283D02*
X016186Y001283D01*
X016131Y001382D02*
X013204Y001382D01*
X013338Y001480D02*
X016092Y001480D01*
X016092Y001579D02*
X013401Y001579D01*
X013401Y001677D02*
X016099Y001677D01*
X016139Y001776D02*
X013401Y001776D01*
X013401Y001875D02*
X016205Y001875D01*
X016320Y001973D02*
X013377Y001973D01*
X013401Y002269D02*
X016614Y002269D01*
X016614Y002367D02*
X013401Y002367D01*
X012708Y002269D02*
X012434Y002269D01*
X012336Y002170D02*
X016614Y002170D01*
X016614Y002072D02*
X012237Y002072D01*
X012139Y001973D02*
X012732Y001973D01*
X012708Y001875D02*
X012040Y001875D01*
X012001Y001776D02*
X012708Y001776D01*
X012708Y001677D02*
X012034Y001677D01*
X012034Y001579D02*
X012708Y001579D01*
X012771Y001480D02*
X012024Y001480D01*
X011983Y001382D02*
X012904Y001382D01*
X012904Y001283D02*
X011916Y001283D01*
X011804Y001185D02*
X012904Y001185D01*
X012828Y001086D02*
X008781Y001086D01*
X008704Y001185D02*
X009075Y001185D01*
X009074Y001283D02*
X008704Y001283D01*
X008704Y001382D02*
X009074Y001382D01*
X009074Y001480D02*
X008704Y001480D01*
X008704Y001579D02*
X009074Y001579D01*
X009074Y001677D02*
X008704Y001677D01*
X008704Y001776D02*
X009074Y001776D01*
X009074Y001875D02*
X008704Y001875D01*
X008704Y001973D02*
X009074Y001973D01*
X009130Y002072D02*
X008737Y002072D01*
X008836Y002170D02*
X009340Y002170D01*
X009208Y002269D02*
X008934Y002269D01*
X009033Y002367D02*
X009131Y002367D01*
X008904Y002663D02*
X002071Y002663D01*
X002049Y002761D02*
X009101Y002761D01*
X009142Y002860D02*
X002006Y002860D01*
X001932Y002959D02*
X009233Y002959D01*
X009402Y003057D02*
X001804Y003057D01*
X001734Y003156D02*
X003787Y003156D01*
X003689Y003254D02*
X001887Y003254D01*
X001971Y003353D02*
X003590Y003353D01*
X003817Y003550D02*
X003893Y003550D01*
X003795Y003648D02*
X003719Y003648D01*
X003696Y003747D02*
X003620Y003747D01*
X003598Y003845D02*
X001973Y003845D01*
X001890Y003944D02*
X003499Y003944D01*
X003400Y004043D02*
X001742Y004043D01*
X001699Y004141D02*
X003302Y004141D01*
X003203Y004240D02*
X001872Y004240D01*
X002034Y004634D02*
X002933Y004634D01*
X002933Y004732D02*
X002019Y004732D01*
X001979Y004831D02*
X002933Y004831D01*
X002979Y004929D02*
X001904Y004929D01*
X001777Y005028D02*
X004715Y005028D01*
X004616Y005126D02*
X001664Y005126D01*
X001650Y005121D02*
X001826Y005194D01*
X001961Y005329D01*
X002012Y005451D01*
X002933Y005451D01*
X002933Y005319D01*
X002997Y005255D01*
X003403Y005255D01*
X003467Y005319D01*
X003467Y005883D01*
X003403Y005947D01*
X002997Y005947D01*
X002933Y005883D01*
X002933Y005751D01*
X002012Y005751D01*
X001961Y005873D01*
X001826Y006008D01*
X001650Y006081D01*
X001459Y006081D01*
X001282Y006008D01*
X001147Y005873D01*
X001074Y005696D01*
X001074Y005505D01*
X001147Y005329D01*
X001282Y005194D01*
X001459Y005121D01*
X001650Y005121D01*
X001445Y005126D02*
X001054Y005126D01*
X001054Y005028D02*
X001331Y005028D01*
X001204Y004929D02*
X001054Y004929D01*
X001054Y004831D02*
X001130Y004831D01*
X001089Y004732D02*
X001054Y004732D01*
X001054Y004634D02*
X001074Y004634D01*
X001074Y004535D02*
X001054Y004535D01*
X001054Y004437D02*
X001103Y004437D01*
X001144Y004338D02*
X001054Y004338D01*
X001054Y004240D02*
X001237Y004240D01*
X001410Y004141D02*
X001054Y004141D01*
X001054Y004043D02*
X001367Y004043D01*
X001219Y003944D02*
X001054Y003944D01*
X001054Y003845D02*
X001136Y003845D01*
X001095Y003747D02*
X001054Y003747D01*
X001054Y003648D02*
X001074Y003648D01*
X001074Y003550D02*
X001054Y003550D01*
X001054Y003451D02*
X001097Y003451D01*
X001137Y003353D02*
X001054Y003353D01*
X001054Y003254D02*
X001222Y003254D01*
X001375Y003156D02*
X001054Y003156D01*
X001054Y003057D02*
X001305Y003057D01*
X001177Y002959D02*
X001054Y002959D01*
X001054Y002860D02*
X001103Y002860D01*
X001060Y002761D02*
X001054Y002761D01*
X001054Y002367D02*
X001090Y002367D01*
X001054Y002269D02*
X001153Y002269D01*
X001054Y002170D02*
X001262Y002170D01*
X001054Y002072D02*
X004625Y002072D01*
X004534Y001980D02*
X004423Y001714D01*
X004423Y001425D01*
X004534Y001159D01*
X004737Y000955D01*
X005004Y000845D01*
X005292Y000845D01*
X005559Y000955D01*
X005762Y001159D01*
X005873Y001425D01*
X005873Y001714D01*
X005762Y001980D01*
X005559Y002184D01*
X005292Y002294D01*
X005004Y002294D01*
X004737Y002184D01*
X004534Y001980D01*
X004531Y001973D02*
X001054Y001973D01*
X001054Y001875D02*
X004490Y001875D01*
X004449Y001776D02*
X001054Y001776D01*
X001054Y001677D02*
X004423Y001677D01*
X004423Y001579D02*
X001054Y001579D01*
X001054Y001480D02*
X004423Y001480D01*
X004441Y001382D02*
X001054Y001382D01*
X001054Y001283D02*
X004482Y001283D01*
X004523Y001185D02*
X001054Y001185D01*
X001054Y001086D02*
X004606Y001086D01*
X004705Y000988D02*
X001054Y000988D01*
X001054Y000889D02*
X004897Y000889D01*
X005399Y000889D02*
X008554Y000889D01*
X008652Y000791D02*
X001054Y000791D01*
X001054Y000692D02*
X008751Y000692D01*
X008978Y000889D02*
X012631Y000889D01*
X012729Y000988D02*
X008880Y000988D01*
X009077Y000791D02*
X012532Y000791D01*
X012858Y000692D02*
X019554Y000692D01*
X019554Y000791D02*
X012956Y000791D01*
X013055Y000889D02*
X019554Y000889D01*
X019554Y000988D02*
X013153Y000988D01*
X013204Y001086D02*
X019554Y001086D01*
X019554Y001776D02*
X016969Y001776D01*
X016903Y001875D02*
X019554Y001875D01*
X019554Y001973D02*
X016788Y001973D01*
X013671Y004929D02*
X012492Y004929D01*
X012492Y004831D02*
X013572Y004831D01*
X013769Y005028D02*
X012492Y005028D01*
X012474Y004732D02*
X012398Y004732D01*
X012375Y004634D02*
X012299Y004634D01*
X012277Y004535D02*
X012201Y004535D01*
X012178Y004437D02*
X012102Y004437D01*
X012080Y004338D02*
X012004Y004338D01*
X011981Y004240D02*
X011905Y004240D01*
X011882Y004141D02*
X011807Y004141D01*
X011784Y004043D02*
X011708Y004043D01*
X011685Y003944D02*
X011610Y003944D01*
X011587Y003845D02*
X011511Y003845D01*
X011488Y003747D02*
X011413Y003747D01*
X011390Y003648D02*
X011314Y003648D01*
X011291Y003550D02*
X011215Y003550D01*
X011193Y003451D02*
X011117Y003451D01*
X011094Y003353D02*
X011018Y003353D01*
X010996Y003254D02*
X010920Y003254D01*
X010904Y003156D02*
X010821Y003156D01*
X010904Y003057D02*
X010723Y003057D01*
X010875Y002959D02*
X010904Y002959D01*
X011223Y003057D02*
X011305Y003057D01*
X011504Y003057D02*
X011604Y003057D01*
X011604Y002959D02*
X011504Y002959D01*
X011504Y002860D02*
X011604Y002860D01*
X011604Y002761D02*
X011504Y002761D01*
X011504Y002663D02*
X011604Y002663D01*
X011604Y002564D02*
X012306Y002564D01*
X012207Y002466D02*
X012057Y002466D01*
X012019Y002367D02*
X012109Y002367D01*
X012010Y002269D02*
X011956Y002269D01*
X011912Y002170D02*
X011846Y002170D01*
X011813Y002072D02*
X011672Y002072D01*
X011604Y002170D02*
X011504Y002170D01*
X011504Y002269D02*
X011604Y002269D01*
X011604Y002367D02*
X011504Y002367D01*
X011504Y002466D02*
X011604Y002466D01*
X011437Y002072D02*
X011204Y002072D01*
X011204Y002170D02*
X011262Y002170D01*
X011248Y001973D02*
X011139Y001973D01*
X011149Y001875D02*
X011040Y001875D01*
X011001Y001776D02*
X011107Y001776D01*
X011074Y001677D02*
X011034Y001677D01*
X011034Y001579D02*
X011074Y001579D01*
X011085Y001480D02*
X011024Y001480D01*
X010983Y001382D02*
X011125Y001382D01*
X011193Y001283D02*
X010916Y001283D01*
X010804Y001185D02*
X011304Y001185D01*
X010772Y002030D02*
X010650Y002081D01*
X010459Y002081D01*
X010282Y002008D01*
X010147Y001873D01*
X010074Y001696D01*
X010074Y001505D01*
X010147Y001329D01*
X010282Y001194D01*
X010193Y001283D02*
X010034Y001283D01*
X010034Y001185D02*
X010034Y001869D01*
X010116Y001951D01*
X010204Y002039D01*
X010204Y002272D01*
X010282Y002194D01*
X010459Y002121D01*
X010650Y002121D01*
X010826Y002194D01*
X010904Y002272D01*
X010904Y002163D01*
X010772Y002030D01*
X010813Y002072D02*
X010672Y002072D01*
X010769Y002170D02*
X010904Y002170D01*
X010901Y002269D02*
X010904Y002269D01*
X010437Y002072D02*
X010204Y002072D01*
X010204Y002170D02*
X010340Y002170D01*
X010208Y002269D02*
X010204Y002269D01*
X009904Y002269D02*
X009901Y002269D01*
X009904Y002170D02*
X009769Y002170D01*
X010040Y001875D02*
X010149Y001875D01*
X010139Y001973D02*
X010248Y001973D01*
X010107Y001776D02*
X010034Y001776D01*
X010034Y001677D02*
X010074Y001677D01*
X010074Y001579D02*
X010034Y001579D01*
X010034Y001480D02*
X010085Y001480D01*
X010125Y001382D02*
X010034Y001382D01*
X008806Y002564D02*
X001604Y002564D01*
X001604Y002466D02*
X001504Y002466D01*
X001504Y002367D02*
X001604Y002367D01*
X001604Y002269D02*
X001504Y002269D01*
X001504Y002170D02*
X001604Y002170D01*
X001846Y002170D02*
X004724Y002170D01*
X004942Y002269D02*
X001956Y002269D01*
X002019Y002367D02*
X008609Y002367D01*
X008707Y002466D02*
X002057Y002466D01*
X001604Y002663D02*
X001504Y002663D01*
X001504Y002761D02*
X001604Y002761D01*
X001604Y002860D02*
X001504Y002860D01*
X001504Y002959D02*
X001604Y002959D01*
X001604Y003057D02*
X001504Y003057D01*
X003467Y004437D02*
X003641Y004437D01*
X003641Y004535D02*
X003467Y004535D01*
X003467Y004634D02*
X003641Y004634D01*
X003641Y004732D02*
X003467Y004732D01*
X003467Y004831D02*
X003641Y004831D01*
X003641Y004883D02*
X003641Y004319D01*
X003706Y004255D01*
X004112Y004255D01*
X004150Y004293D01*
X004286Y004157D01*
X004284Y004154D01*
X004284Y004047D01*
X004325Y003948D01*
X004401Y003872D01*
X004501Y003831D01*
X004608Y003831D01*
X004707Y003872D01*
X004783Y003948D01*
X004824Y004047D01*
X004824Y004154D01*
X004783Y004254D01*
X004707Y004330D01*
X004608Y004371D01*
X004501Y004371D01*
X004498Y004369D01*
X004176Y004691D01*
X004176Y004883D01*
X004112Y004947D01*
X003706Y004947D01*
X003641Y004883D01*
X003688Y004929D02*
X003421Y004929D01*
X003467Y005324D02*
X003641Y005324D01*
X003641Y005319D02*
X003706Y005255D01*
X004112Y005255D01*
X004176Y005319D01*
X004176Y005451D01*
X004292Y005451D01*
X005725Y004018D01*
X005850Y004018D01*
X006287Y004018D01*
X006287Y003945D01*
X006351Y003881D01*
X006757Y003881D01*
X006822Y003945D01*
X006822Y004390D01*
X006757Y004455D01*
X006351Y004455D01*
X006287Y004390D01*
X006287Y004318D01*
X005850Y004318D01*
X004504Y005663D01*
X004416Y005751D01*
X004176Y005751D01*
X004176Y005883D01*
X004112Y005947D01*
X003706Y005947D01*
X003641Y005883D01*
X003641Y005319D01*
X003641Y005422D02*
X003467Y005422D01*
X003467Y005521D02*
X003641Y005521D01*
X003641Y005619D02*
X003467Y005619D01*
X003467Y005718D02*
X003641Y005718D01*
X003641Y005816D02*
X003467Y005816D01*
X003435Y005915D02*
X003673Y005915D01*
X003706Y006255D02*
X003641Y006319D01*
X003641Y006883D01*
X003706Y006947D01*
X004112Y006947D01*
X004176Y006883D01*
X004176Y006751D01*
X004616Y006751D01*
X004704Y006663D01*
X005550Y005818D01*
X006287Y005818D01*
X006287Y005890D01*
X006351Y005955D01*
X006757Y005955D01*
X006822Y005890D01*
X006822Y005445D01*
X006757Y005381D01*
X006351Y005381D01*
X006287Y005445D01*
X006287Y005518D01*
X005550Y005518D01*
X005425Y005518D01*
X004492Y006451D01*
X004176Y006451D01*
X004176Y006319D01*
X004112Y006255D01*
X003706Y006255D01*
X003651Y006309D02*
X003457Y006309D01*
X003467Y006319D02*
X003403Y006255D01*
X002997Y006255D01*
X002933Y006319D01*
X002933Y006451D01*
X002012Y006451D01*
X001961Y006329D01*
X001826Y006194D01*
X001650Y006121D01*
X001459Y006121D01*
X001282Y006194D01*
X001147Y006329D01*
X001074Y006505D01*
X001074Y006696D01*
X001147Y006873D01*
X001282Y007008D01*
X001459Y007081D01*
X001650Y007081D01*
X001826Y007008D01*
X001961Y006873D01*
X002012Y006751D01*
X002933Y006751D01*
X002933Y006883D01*
X002997Y006947D01*
X003403Y006947D01*
X003467Y006883D01*
X003467Y006319D01*
X003467Y006408D02*
X003641Y006408D01*
X003641Y006506D02*
X003467Y006506D01*
X003467Y006605D02*
X003641Y006605D01*
X003641Y006703D02*
X003467Y006703D01*
X003467Y006802D02*
X003641Y006802D01*
X003659Y006900D02*
X003450Y006900D01*
X003443Y007294D02*
X003666Y007294D01*
X003641Y007393D02*
X003467Y007393D01*
X003467Y007492D02*
X003641Y007492D01*
X003641Y007590D02*
X003467Y007590D01*
X003467Y007689D02*
X003641Y007689D01*
X003641Y007787D02*
X003467Y007787D01*
X003464Y007886D02*
X003644Y007886D01*
X003680Y008280D02*
X003428Y008280D01*
X003467Y008378D02*
X003641Y008378D01*
X003641Y008477D02*
X003467Y008477D01*
X003467Y008576D02*
X003641Y008576D01*
X003641Y008674D02*
X003467Y008674D01*
X003467Y008773D02*
X003641Y008773D01*
X003641Y008871D02*
X003467Y008871D01*
X002936Y007886D02*
X001948Y007886D01*
X001997Y007787D02*
X002933Y007787D01*
X002933Y007393D02*
X001988Y007393D01*
X001927Y007294D02*
X002957Y007294D01*
X002950Y006900D02*
X001934Y006900D01*
X001991Y006802D02*
X002933Y006802D01*
X002933Y006408D02*
X001994Y006408D01*
X001941Y006309D02*
X002942Y006309D01*
X002965Y005915D02*
X001919Y005915D01*
X001985Y005816D02*
X002933Y005816D01*
X002933Y005422D02*
X002000Y005422D01*
X001956Y005324D02*
X002933Y005324D01*
X001857Y005225D02*
X004518Y005225D01*
X004419Y005324D02*
X004176Y005324D01*
X004176Y005422D02*
X004321Y005422D01*
X004548Y005619D02*
X005324Y005619D01*
X005422Y005521D02*
X004647Y005521D01*
X004745Y005422D02*
X006310Y005422D01*
X006383Y005282D02*
X006448Y005217D01*
X006448Y004772D01*
X006383Y004707D01*
X005977Y004707D01*
X005913Y004772D01*
X005913Y004844D01*
X005723Y004844D01*
X005641Y004844D01*
X005608Y004831D01*
X005913Y004831D01*
X005952Y004732D02*
X005435Y004732D01*
X005500Y004831D02*
X005336Y004831D01*
X005401Y004872D02*
X005325Y004948D01*
X005284Y005047D01*
X005284Y005154D01*
X005325Y005254D01*
X005401Y005330D01*
X005501Y005371D01*
X005608Y005371D01*
X005707Y005330D01*
X005783Y005254D01*
X005824Y005154D01*
X005824Y005144D01*
X005913Y005144D01*
X005913Y005217D01*
X005977Y005282D01*
X006383Y005282D01*
X006440Y005225D02*
X006669Y005225D01*
X006661Y005126D02*
X006448Y005126D01*
X006448Y005028D02*
X006661Y005028D01*
X006661Y004929D02*
X006448Y004929D01*
X006448Y004831D02*
X006661Y004831D01*
X006700Y004732D02*
X006408Y004732D01*
X006333Y004437D02*
X005731Y004437D01*
X005829Y004338D02*
X006287Y004338D01*
X006288Y003944D02*
X004779Y003944D01*
X004822Y004043D02*
X005700Y004043D01*
X005602Y004141D02*
X004824Y004141D01*
X004789Y004240D02*
X005503Y004240D01*
X005405Y004338D02*
X004687Y004338D01*
X004431Y004437D02*
X005306Y004437D01*
X005208Y004535D02*
X004332Y004535D01*
X004233Y004634D02*
X005109Y004634D01*
X005011Y004732D02*
X004176Y004732D01*
X004176Y004831D02*
X004912Y004831D01*
X004814Y004929D02*
X004129Y004929D01*
X004203Y004240D02*
X003628Y004240D01*
X003641Y004338D02*
X003529Y004338D01*
X003726Y004141D02*
X004284Y004141D01*
X004286Y004043D02*
X003825Y004043D01*
X003923Y003944D02*
X004329Y003944D01*
X004465Y003845D02*
X004022Y003845D01*
X004643Y003845D02*
X007087Y003845D01*
X007185Y003944D02*
X006821Y003944D01*
X006822Y004043D02*
X007284Y004043D01*
X007383Y004141D02*
X006822Y004141D01*
X006822Y004240D02*
X007481Y004240D01*
X007580Y004338D02*
X006822Y004338D01*
X006776Y004437D02*
X007274Y004437D01*
X007175Y004535D02*
X005632Y004535D01*
X005533Y004634D02*
X007077Y004634D01*
X007304Y004831D02*
X008062Y004831D01*
X007964Y004929D02*
X007206Y004929D01*
X007196Y005028D02*
X007865Y005028D01*
X007766Y005126D02*
X007196Y005126D01*
X007188Y005225D02*
X007498Y005225D01*
X007444Y005324D02*
X005713Y005324D01*
X005795Y005225D02*
X005921Y005225D01*
X005608Y004831D02*
X005501Y004831D01*
X005401Y004872D01*
X005344Y004929D02*
X005238Y004929D01*
X005292Y005028D02*
X005139Y005028D01*
X005041Y005126D02*
X005284Y005126D01*
X005314Y005225D02*
X004942Y005225D01*
X004844Y005324D02*
X005395Y005324D01*
X005225Y005718D02*
X004449Y005718D01*
X004176Y005816D02*
X005127Y005816D01*
X005028Y005915D02*
X004144Y005915D01*
X004166Y006309D02*
X004634Y006309D01*
X004732Y006210D02*
X001843Y006210D01*
X001812Y006013D02*
X004930Y006013D01*
X004831Y006112D02*
X001054Y006112D01*
X001054Y006210D02*
X001266Y006210D01*
X001167Y006309D02*
X001054Y006309D01*
X001054Y006408D02*
X001115Y006408D01*
X001074Y006506D02*
X001054Y006506D01*
X001054Y006605D02*
X001074Y006605D01*
X001077Y006703D02*
X001054Y006703D01*
X001054Y006802D02*
X001118Y006802D01*
X001175Y006900D02*
X001054Y006900D01*
X001054Y006999D02*
X001274Y006999D01*
X001280Y007196D02*
X001054Y007196D01*
X001054Y007294D02*
X001182Y007294D01*
X001121Y007393D02*
X001054Y007393D01*
X001054Y007492D02*
X001080Y007492D01*
X001074Y007590D02*
X001054Y007590D01*
X001054Y007689D02*
X001074Y007689D01*
X001054Y007787D02*
X001112Y007787D01*
X001160Y007886D02*
X001054Y007886D01*
X001054Y007984D02*
X001259Y007984D01*
X001054Y007097D02*
X004200Y007097D01*
X004101Y007196D02*
X001828Y007196D01*
X001835Y006999D02*
X006287Y006999D01*
X006332Y006900D02*
X004158Y006900D01*
X004176Y006802D02*
X005373Y006802D01*
X005401Y006830D02*
X005325Y006754D01*
X005284Y006654D01*
X005284Y006547D01*
X005325Y006448D01*
X005401Y006372D01*
X005501Y006331D01*
X005608Y006331D01*
X005641Y006344D01*
X005723Y006344D01*
X005913Y006344D01*
X005913Y006272D01*
X005977Y006207D01*
X006383Y006207D01*
X006448Y006272D01*
X006448Y006717D01*
X006383Y006782D01*
X005977Y006782D01*
X005913Y006717D01*
X005913Y006644D01*
X005824Y006644D01*
X005824Y006654D01*
X005783Y006754D01*
X005707Y006830D01*
X005608Y006871D01*
X005501Y006871D01*
X005401Y006830D01*
X005305Y006703D02*
X004664Y006703D01*
X004763Y006605D02*
X005284Y006605D01*
X005301Y006506D02*
X004861Y006506D01*
X004960Y006408D02*
X005366Y006408D01*
X005157Y006210D02*
X005974Y006210D01*
X005913Y006309D02*
X005058Y006309D01*
X005255Y006112D02*
X008284Y006112D01*
X008298Y006013D02*
X005354Y006013D01*
X005452Y005915D02*
X006311Y005915D01*
X006386Y006210D02*
X006722Y006210D01*
X006725Y006207D02*
X007131Y006207D01*
X007196Y006272D01*
X007196Y006344D01*
X007456Y006344D01*
X007475Y006298D01*
X007551Y006222D01*
X007651Y006181D01*
X007758Y006181D01*
X007857Y006222D01*
X007933Y006298D01*
X007974Y006397D01*
X007974Y006504D01*
X007933Y006604D01*
X007857Y006680D01*
X007758Y006721D01*
X007651Y006721D01*
X007551Y006680D01*
X007516Y006644D01*
X007196Y006644D01*
X007196Y006717D01*
X007131Y006782D01*
X006725Y006782D01*
X006661Y006717D01*
X006661Y006272D01*
X006725Y006207D01*
X006661Y006309D02*
X006448Y006309D01*
X006448Y006408D02*
X006661Y006408D01*
X006661Y006506D02*
X006448Y006506D01*
X006448Y006605D02*
X006661Y006605D01*
X006661Y006703D02*
X006448Y006703D01*
X006777Y006900D02*
X007893Y006900D01*
X007893Y006845D02*
X007903Y006807D01*
X007922Y006772D01*
X007950Y006745D01*
X007985Y006725D01*
X008023Y006715D01*
X008171Y006715D01*
X008171Y007072D01*
X007893Y007072D01*
X007893Y006845D01*
X007906Y006802D02*
X005735Y006802D01*
X005804Y006703D02*
X005913Y006703D01*
X006822Y006999D02*
X007893Y006999D01*
X007893Y007130D02*
X008171Y007130D01*
X008171Y007487D01*
X008023Y007487D01*
X007985Y007477D01*
X007950Y007457D01*
X007922Y007429D01*
X007903Y007395D01*
X007893Y007357D01*
X007893Y007130D01*
X007893Y007196D02*
X006822Y007196D01*
X006822Y007294D02*
X007893Y007294D01*
X007902Y007393D02*
X006819Y007393D01*
X006822Y007097D02*
X008171Y007097D01*
X008171Y007072D02*
X008171Y007130D01*
X008229Y007130D01*
X008229Y007487D01*
X008377Y007487D01*
X008415Y007477D01*
X008450Y007457D01*
X008477Y007429D01*
X008497Y007395D01*
X008507Y007357D01*
X008507Y007130D01*
X008229Y007130D01*
X008229Y007072D01*
X008507Y007072D01*
X008507Y006845D01*
X008497Y006807D01*
X008477Y006772D01*
X008450Y006745D01*
X008415Y006725D01*
X008377Y006715D01*
X008229Y006715D01*
X008229Y007072D01*
X008171Y007072D01*
X008229Y007097D02*
X008641Y007097D01*
X008641Y006999D02*
X008507Y006999D01*
X008507Y006900D02*
X008641Y006900D01*
X008658Y006802D02*
X008494Y006802D01*
X008229Y006802D02*
X008171Y006802D01*
X008171Y006900D02*
X008229Y006900D01*
X008229Y006999D02*
X008171Y006999D01*
X008171Y007196D02*
X008229Y007196D01*
X008229Y007294D02*
X008171Y007294D01*
X008171Y007393D02*
X008229Y007393D01*
X008498Y007393D02*
X008652Y007393D01*
X008641Y007294D02*
X008507Y007294D01*
X008507Y007196D02*
X008641Y007196D01*
X008759Y006703D02*
X007800Y006703D01*
X007932Y006605D02*
X008759Y006605D01*
X008748Y006506D02*
X007974Y006506D01*
X007974Y006408D02*
X008649Y006408D01*
X008876Y006210D02*
X009504Y006210D01*
X009504Y006112D02*
X008824Y006112D01*
X008810Y006013D02*
X009504Y006013D01*
X009504Y005915D02*
X008750Y005915D01*
X008358Y005915D02*
X006797Y005915D01*
X006822Y005816D02*
X009531Y005816D01*
X009395Y005324D02*
X007994Y005324D01*
X007974Y005422D02*
X010232Y005422D01*
X010232Y005324D02*
X009713Y005324D01*
X009314Y005225D02*
X008092Y005225D01*
X008191Y005126D02*
X009284Y005126D01*
X009292Y005028D02*
X008289Y005028D01*
X008388Y004929D02*
X009344Y004929D01*
X010232Y005521D02*
X007947Y005521D01*
X007868Y005619D02*
X010232Y005619D01*
X010243Y005718D02*
X006822Y005718D01*
X006822Y005619D02*
X007541Y005619D01*
X007462Y005521D02*
X006822Y005521D01*
X006799Y005422D02*
X007434Y005422D01*
X007403Y004732D02*
X008161Y004732D01*
X007911Y003845D02*
X009940Y003845D01*
X009823Y003747D02*
X007813Y003747D01*
X007714Y003648D02*
X009784Y003648D01*
X009784Y003550D02*
X007615Y003550D01*
X007517Y003451D02*
X009824Y003451D01*
X009904Y003353D02*
X007418Y003353D01*
X007320Y003254D02*
X009904Y003254D01*
X009904Y003156D02*
X007221Y003156D01*
X007092Y003451D02*
X007092Y003451D01*
X008412Y002170D02*
X005572Y002170D01*
X005671Y002072D02*
X008404Y002072D01*
X008404Y001973D02*
X005765Y001973D01*
X005806Y001875D02*
X008404Y001875D01*
X008404Y001776D02*
X005847Y001776D01*
X005873Y001677D02*
X008404Y001677D01*
X008404Y001579D02*
X005873Y001579D01*
X005873Y001480D02*
X008404Y001480D01*
X008404Y001382D02*
X005855Y001382D01*
X005814Y001283D02*
X008404Y001283D01*
X008404Y001185D02*
X005773Y001185D01*
X005690Y001086D02*
X008404Y001086D01*
X008455Y000988D02*
X005591Y000988D01*
X005354Y002269D02*
X008510Y002269D01*
X009707Y003057D02*
X009904Y003057D01*
X009904Y002959D02*
X009875Y002959D01*
X012071Y002663D02*
X012713Y002663D01*
X012877Y005126D02*
X013047Y005126D01*
X013092Y005521D02*
X012877Y005521D01*
X012877Y005619D02*
X013824Y005619D01*
X013904Y005521D02*
X013416Y005521D01*
X013496Y005422D02*
X013904Y005422D01*
X013904Y005324D02*
X013524Y005324D01*
X013515Y005225D02*
X013904Y005225D01*
X013868Y005126D02*
X013462Y005126D01*
X013725Y005718D02*
X012865Y005718D01*
X012911Y005816D02*
X010198Y005816D01*
X010224Y005915D02*
X012884Y005915D01*
X012884Y006013D02*
X010224Y006013D01*
X010224Y006112D02*
X012884Y006112D01*
X012575Y006210D02*
X010224Y006210D01*
X010224Y006309D02*
X012476Y006309D01*
X012378Y006408D02*
X010224Y006408D01*
X010472Y006506D02*
X012279Y006506D01*
X012181Y006605D02*
X010570Y006605D01*
X010669Y006703D02*
X012082Y006703D01*
X012853Y007097D02*
X010704Y007097D01*
X010704Y007196D02*
X012844Y007196D01*
X012844Y007294D02*
X010704Y007294D01*
X010704Y007393D02*
X012846Y007393D01*
X012884Y007492D02*
X010704Y007492D01*
X010704Y007590D02*
X012884Y007590D01*
X012884Y007689D02*
X010704Y007689D01*
X010704Y007787D02*
X012884Y007787D01*
X013578Y005816D02*
X013627Y005816D01*
X010404Y006863D02*
X010320Y006778D01*
X010255Y006778D01*
X010264Y006814D01*
X010264Y006938D01*
X009870Y006938D01*
X009870Y006948D01*
X010264Y006948D01*
X010264Y007073D01*
X010255Y007108D01*
X010335Y007108D01*
X010404Y007039D01*
X010404Y006863D01*
X010404Y006900D02*
X010264Y006900D01*
X010261Y006802D02*
X010343Y006802D01*
X010404Y006999D02*
X010264Y006999D01*
X010258Y007097D02*
X010346Y007097D01*
X010335Y007408D02*
X010255Y007408D01*
X010264Y007443D01*
X010264Y007568D01*
X009870Y007568D01*
X009870Y007578D01*
X010264Y007578D01*
X010264Y007703D01*
X010254Y007741D01*
X010234Y007775D01*
X010224Y007785D01*
X010224Y008044D01*
X010222Y008046D01*
X010224Y008048D01*
X010224Y008219D01*
X010404Y008039D01*
X010404Y007408D01*
X010335Y007408D01*
X010404Y007492D02*
X010264Y007492D01*
X010264Y007590D02*
X010404Y007590D01*
X010404Y007689D02*
X010264Y007689D01*
X010224Y007787D02*
X010404Y007787D01*
X010404Y007886D02*
X010224Y007886D01*
X010224Y007984D02*
X010404Y007984D01*
X010360Y008083D02*
X010224Y008083D01*
X010224Y008181D02*
X010262Y008181D01*
X009360Y008083D02*
X009284Y008083D01*
X009176Y007097D02*
X009471Y007097D01*
X009464Y006999D02*
X009176Y006999D01*
X009176Y006900D02*
X009464Y006900D01*
X009467Y006802D02*
X009159Y006802D01*
X009059Y006703D02*
X009504Y006703D01*
X009504Y006605D02*
X009059Y006605D01*
X009059Y006506D02*
X009504Y006506D01*
X009504Y006408D02*
X009059Y006408D01*
X008975Y006309D02*
X009504Y006309D01*
X008381Y006309D02*
X007938Y006309D01*
X007830Y006210D02*
X008308Y006210D01*
X007608Y006703D02*
X007196Y006703D01*
X007196Y006309D02*
X007471Y006309D01*
X007579Y006210D02*
X007135Y006210D01*
X007196Y007787D02*
X007586Y007787D01*
X005976Y008280D02*
X005757Y008280D01*
X005813Y008181D02*
X005913Y008181D01*
X005913Y007787D02*
X004176Y007787D01*
X004173Y007886D02*
X005388Y007886D01*
X004535Y006408D02*
X004176Y006408D01*
X001296Y006013D02*
X001054Y006013D01*
X001054Y005915D02*
X001190Y005915D01*
X001124Y005816D02*
X001054Y005816D01*
X001054Y005718D02*
X001083Y005718D01*
X001074Y005619D02*
X001054Y005619D01*
X001054Y005521D02*
X001074Y005521D01*
X001054Y005422D02*
X001109Y005422D01*
X001153Y005324D02*
X001054Y005324D01*
X001054Y005225D02*
X001251Y005225D01*
X017304Y005225D02*
X017404Y005225D01*
X017404Y005126D02*
X017304Y005126D01*
X017304Y005324D02*
X017404Y005324D01*
X017404Y005422D02*
X017304Y005422D01*
X017304Y005521D02*
X017404Y005521D01*
X017404Y005619D02*
X017304Y005619D01*
X017304Y005718D02*
X017404Y005718D01*
X017404Y005816D02*
X017304Y005816D01*
X017304Y006112D02*
X017404Y006112D01*
X017404Y006210D02*
X017304Y006210D01*
X017304Y006309D02*
X017404Y006309D01*
X017404Y006408D02*
X017304Y006408D01*
X017304Y006506D02*
X017404Y006506D01*
X017404Y006605D02*
X017304Y006605D01*
X017304Y006703D02*
X017404Y006703D01*
X017404Y006802D02*
X017304Y006802D01*
X018247Y006802D02*
X019554Y006802D01*
X019554Y006703D02*
X018272Y006703D01*
X018272Y006605D02*
X019554Y006605D01*
X019554Y006506D02*
X018272Y006506D01*
X018272Y006408D02*
X019554Y006408D01*
X019554Y006309D02*
X018272Y006309D01*
X018272Y006210D02*
X019554Y006210D01*
X019554Y006112D02*
X018272Y006112D01*
X018272Y006013D02*
X019554Y006013D01*
D27*
X015554Y002601D03*
X014054Y004101D03*
X013254Y005301D03*
X010054Y003601D03*
X009554Y005101D03*
X009154Y005901D03*
X008554Y006101D03*
X007704Y006451D03*
X007704Y005401D03*
X005554Y005101D03*
X004554Y004101D03*
X003054Y002601D03*
X005554Y006601D03*
X005554Y008101D03*
X004554Y008101D03*
X005554Y009601D03*
X007554Y008601D03*
X007804Y007951D03*
X009554Y010101D03*
X010054Y010101D03*
X010604Y011701D03*
X008554Y012101D03*
X008054Y010601D03*
X005254Y015001D03*
X002554Y013601D03*
X013054Y013601D03*
X013554Y013601D03*
X018554Y012101D03*
X007554Y002101D03*
D28*
X008554Y002101D02*
X008554Y001101D01*
X009054Y000601D01*
X012554Y000601D01*
X013054Y001101D01*
X013054Y001746D01*
X013054Y002455D02*
X012409Y002455D01*
X011554Y001601D01*
X011054Y002101D02*
X011054Y003101D01*
X012554Y004601D01*
X013554Y004601D01*
X014054Y005101D01*
X014054Y005601D01*
X013657Y005998D01*
X013244Y005998D01*
X013244Y006313D02*
X012684Y006313D01*
X012054Y006943D01*
X013244Y006943D01*
X012054Y006943D02*
X010697Y006943D01*
X010554Y006801D01*
X010554Y007101D01*
X010554Y008101D01*
X010054Y008601D01*
X009554Y008601D01*
X008054Y010101D01*
X008054Y010601D01*
X007054Y011601D01*
X006554Y011601D01*
X006180Y011227D01*
X006180Y010994D01*
X006928Y010994D02*
X007161Y010994D01*
X007554Y010601D01*
X007554Y010101D01*
X009452Y008203D01*
X009864Y008203D01*
X009864Y007888D02*
X009267Y007888D01*
X007661Y009494D01*
X006928Y009494D01*
X006180Y009494D02*
X005661Y009494D01*
X005554Y009601D01*
X006554Y010168D02*
X004476Y010168D01*
X003909Y009601D01*
X003200Y009601D02*
X001554Y009601D01*
X001554Y010601D02*
X003200Y010601D01*
X003554Y010955D02*
X003909Y010601D01*
X003554Y010955D02*
X003554Y011668D01*
X003180Y012494D02*
X003180Y012727D01*
X003554Y013101D01*
X007554Y013101D01*
X008554Y012101D01*
X009054Y011601D01*
X009200Y011601D01*
X009200Y012601D01*
X009909Y012601D02*
X010159Y012851D01*
X012024Y012851D01*
X012604Y012851D01*
X012854Y012601D01*
X012854Y010101D01*
X012654Y009901D01*
X012354Y009901D01*
X012027Y009573D01*
X012027Y008791D01*
X011712Y008791D02*
X011712Y009443D01*
X009909Y011246D01*
X009909Y011601D01*
X010659Y012351D01*
X012024Y012351D01*
X012024Y011351D02*
X010954Y011351D01*
X010604Y011701D01*
X012024Y011351D02*
X012309Y011066D01*
X012309Y010601D01*
X013254Y009901D02*
X014054Y009101D01*
X013254Y009901D02*
X013254Y012101D01*
X013504Y012351D01*
X014084Y012351D01*
X014084Y011851D02*
X014604Y011851D01*
X014954Y012201D01*
X015854Y013101D01*
X015854Y014613D01*
X016472Y015231D01*
X017200Y015959D01*
X016054Y016101D02*
X013554Y013601D01*
X013054Y013601D02*
X015054Y015601D01*
X015054Y016601D01*
X016054Y016601D02*
X016054Y016101D01*
X016472Y013601D02*
X016972Y013101D01*
X017200Y013101D01*
X016472Y013218D02*
X016184Y012931D01*
X014604Y011351D01*
X014084Y011351D01*
X016472Y013218D02*
X016472Y013601D01*
X017354Y009179D02*
X018026Y009101D01*
X015554Y008101D02*
X015554Y004101D01*
X014054Y002601D01*
X013200Y002601D01*
X013054Y002455D01*
X011054Y002101D02*
X010554Y001601D01*
X010054Y002101D02*
X010054Y003601D01*
X010554Y003101D02*
X012342Y004888D01*
X012342Y005411D01*
X012657Y005411D02*
X012767Y005301D01*
X013254Y005301D01*
X011712Y005411D02*
X011712Y004758D01*
X010954Y004001D01*
X007854Y004001D01*
X007154Y003301D01*
X003854Y003301D01*
X003554Y003601D01*
X001554Y003601D01*
X001700Y004455D02*
X001554Y004601D01*
X001700Y004455D02*
X003200Y004455D01*
X004054Y003601D01*
X007054Y003601D01*
X007704Y004251D01*
X010804Y004251D01*
X011397Y004843D01*
X011397Y005411D01*
X011082Y005411D02*
X011082Y004878D01*
X010704Y004501D01*
X007422Y004501D01*
X006928Y004994D01*
X006180Y004994D02*
X005661Y004994D01*
X005554Y005101D01*
X005487Y005668D02*
X004554Y006601D01*
X003909Y006601D01*
X004015Y006494D01*
X004342Y007168D02*
X003909Y007601D01*
X004342Y007168D02*
X006554Y007168D01*
X006180Y006494D02*
X005661Y006494D01*
X005554Y006601D01*
X005487Y005668D02*
X006554Y005668D01*
X006928Y006494D02*
X007661Y006494D01*
X007704Y006451D01*
X008554Y006101D02*
X008909Y006455D01*
X008909Y007101D01*
X009066Y007258D01*
X009864Y007258D01*
X010397Y007258D01*
X010554Y007101D01*
X010554Y006801D02*
X010382Y006628D01*
X009864Y006628D01*
X010452Y005411D02*
X010452Y005248D01*
X010304Y005101D01*
X009554Y005101D01*
X010604Y004751D02*
X008354Y004751D01*
X007704Y005401D01*
X006554Y004168D02*
X005787Y004168D01*
X004354Y005601D01*
X003909Y005601D01*
X003200Y005601D02*
X001554Y005601D01*
X001554Y006601D02*
X003200Y006601D01*
X003200Y007601D02*
X001554Y007601D01*
X001554Y008601D02*
X003200Y008601D01*
X003909Y008601D02*
X003976Y008668D01*
X006554Y008668D01*
X006180Y007994D02*
X005661Y007994D01*
X005554Y008101D01*
X006928Y007994D02*
X007761Y007994D01*
X007804Y007951D01*
X009554Y009601D02*
X009554Y010101D01*
X010054Y010101D02*
X010404Y009751D01*
X010704Y009751D01*
X011082Y009373D01*
X011082Y008791D01*
X010767Y008791D02*
X010767Y009238D01*
X010604Y009401D01*
X009754Y009401D01*
X009554Y009601D01*
X009864Y008791D02*
X008554Y010101D01*
X008554Y011101D01*
X007161Y012494D01*
X003928Y012494D01*
X003180Y012494D02*
X003141Y012534D01*
X002121Y012534D01*
X001554Y013101D01*
X001554Y013955D01*
X002000Y014401D01*
X002054Y014455D01*
X002054Y015101D01*
X002703Y015750D01*
X002703Y015901D01*
X003615Y016813D01*
X004880Y016813D01*
X005628Y016813D02*
X006412Y016813D01*
X006554Y016955D01*
X005628Y015789D02*
X005628Y014675D01*
X005054Y014101D01*
X004054Y014101D01*
X004880Y014927D01*
X004880Y015789D01*
X007854Y016101D02*
X008054Y015901D01*
X008054Y014101D01*
X009054Y015601D02*
X009054Y016601D01*
X008554Y017101D01*
X007854Y017101D01*
X009054Y015601D02*
X010448Y014207D01*
X010554Y014207D01*
X010452Y008791D02*
X009864Y008791D01*
X011397Y008791D02*
X011397Y008258D01*
X011554Y008101D01*
X012554Y008101D01*
X013054Y008601D01*
X015054Y008601D01*
X015554Y008101D01*
X010767Y005411D02*
X010767Y004913D01*
X010604Y004751D01*
X010554Y003101D02*
X010554Y002601D01*
X010054Y002101D02*
X009554Y001601D01*
X009554Y002601D02*
X009054Y002601D01*
X008554Y002101D01*
X004554Y004101D02*
X004054Y004601D01*
X003909Y004601D01*
X003200Y004601D02*
X003200Y004455D01*
X001554Y011601D02*
X001554Y013101D01*
M02*
