%
M48
M72
T01C0.0200
T02C0.0394
T03C0.0400
T04C0.0625
T05C0.1150
T06C0.1180
%
T01
X3054Y2601
X4554Y4101
X5554Y5101
X5554Y6601
X5554Y8101
X4554Y8101
X5554Y9601
X7554Y8601
X7804Y7951
X7704Y6451
X8554Y6101
X9154Y5901
X9554Y5101
X10054Y3601
X7704Y5401
X7554Y2101
X13254Y5301
X14054Y4101
X15554Y2601
X10054Y10101
X9554Y10101
X8054Y10601
X8554Y12101
X10604Y11701
X13054Y13601
X13554Y13601
X18554Y12101
X5254Y15001
X2554Y13601
T02
X4054Y14101
X8054Y14101
T03
X1554Y2601
X1554Y3601
X1554Y4601
X1554Y5601
X1554Y6601
X1554Y7601
X1554Y8601
X1554Y9601
X1554Y10601
X1554Y11601
X7854Y16101
X7854Y17101
X14054Y16601
X15054Y16601
X16054Y16601
X11554Y2601
X10554Y2601
X9554Y2601
X9554Y1601
X10554Y1601
X11554Y1601
T04
X16554Y1570
X5148Y11101
T05
X5148Y1570
X16554Y11101
T06
X12405Y15388
X10554Y14207
X10554Y16569
M30
