G75*
G70*
%OFA0B0*%
%FSLAX24Y24*%
%IPPOS*%
%LPD*%
%AMOC8*
5,1,8,0,0,1.08239X$1,22.5*
%
%ADD10C,0.0600*%
%ADD11R,0.0740X0.0740*%
%ADD12C,0.0740*%
%ADD13R,0.0650X0.0650*%
%ADD14C,0.0650*%
%ADD15C,0.0100*%
%ADD16C,0.0400*%
D10*
X002401Y008519D03*
X002401Y009307D03*
X002401Y010094D03*
X002401Y010881D03*
X002401Y011669D03*
X002401Y012456D03*
X002401Y013244D03*
X002401Y014031D03*
X002401Y014818D03*
X002401Y015606D03*
X011063Y015606D03*
X011063Y014818D03*
X011063Y014031D03*
X011063Y013244D03*
X011063Y012456D03*
X011063Y011669D03*
X011063Y010881D03*
X011063Y010094D03*
X011063Y009307D03*
X011063Y008519D03*
D11*
X012732Y005732D03*
D12*
X012732Y004732D03*
X012732Y003732D03*
X013732Y003732D03*
X013732Y004732D03*
X013732Y005732D03*
X011232Y004732D03*
X011232Y003732D03*
X010232Y003732D03*
X010232Y004732D03*
X009232Y004732D03*
X009232Y003732D03*
X008232Y003732D03*
X008232Y004732D03*
X007232Y004732D03*
X007232Y003732D03*
X006232Y003732D03*
X006232Y004732D03*
X005232Y004732D03*
X005232Y003732D03*
D13*
X003582Y002882D03*
D14*
X002582Y002882D03*
D15*
X000958Y002006D02*
X000732Y002232D01*
X000732Y015232D01*
X000958Y015458D01*
X001069Y015412D01*
X001195Y015412D01*
X001232Y015412D01*
X001395Y015412D01*
X001696Y015537D01*
X001696Y015537D01*
X001927Y015767D01*
X001927Y015767D01*
X002052Y016069D01*
X002052Y016395D01*
X002006Y016506D01*
X002232Y016732D01*
X013232Y016732D01*
X013458Y016506D01*
X013412Y016395D01*
X013412Y016069D01*
X013412Y016069D01*
X013537Y015767D01*
X013767Y015537D01*
X013767Y015537D01*
X014069Y015412D01*
X014232Y015412D01*
X014269Y015412D01*
X014395Y015412D01*
X014506Y015458D01*
X014732Y015232D01*
X014732Y001891D01*
X014696Y001927D01*
X014395Y002052D01*
X014269Y002052D01*
X014232Y002052D01*
X014232Y002052D01*
X014195Y002052D01*
X014069Y002052D01*
X014069Y002052D01*
X013767Y001927D01*
X013537Y001696D01*
X013537Y001696D01*
X013412Y001395D01*
X013412Y001069D01*
X013412Y001069D01*
X013537Y000767D01*
X013572Y000732D01*
X002232Y000732D01*
X002006Y000958D01*
X002052Y001069D01*
X002052Y001395D01*
X001927Y001696D01*
X001927Y001696D01*
X001696Y001927D01*
X001395Y002052D01*
X001269Y002052D01*
X001232Y002052D01*
X001215Y002052D01*
X001195Y002052D01*
X001069Y002052D01*
X000958Y002006D01*
X001069Y002052D02*
X001069Y002052D01*
X000859Y002104D02*
X006552Y002104D01*
X006552Y002006D02*
X001506Y002006D01*
X001395Y002052D02*
X001395Y002052D01*
X001696Y001927D02*
X001696Y001927D01*
X001716Y001907D02*
X006552Y001907D01*
X006552Y001809D02*
X001815Y001809D01*
X001913Y001710D02*
X006552Y001710D01*
X006552Y001611D02*
X001962Y001611D01*
X002003Y001513D02*
X006552Y001513D01*
X006552Y001414D02*
X002044Y001414D01*
X002052Y001395D02*
X002052Y001395D01*
X002052Y001316D02*
X005999Y001316D01*
X006045Y001362D02*
X005952Y001269D01*
X005902Y001147D01*
X005902Y001016D01*
X005952Y000895D01*
X006045Y000802D01*
X006166Y000752D01*
X006297Y000752D01*
X006419Y000802D01*
X006512Y000895D01*
X006514Y000902D01*
X006656Y000902D01*
X006902Y001147D01*
X006902Y001016D01*
X006952Y000895D01*
X007045Y000802D01*
X007166Y000752D01*
X007297Y000752D01*
X007419Y000802D01*
X007512Y000895D01*
X007514Y000902D01*
X007656Y000902D01*
X007912Y001157D01*
X007912Y001306D01*
X007912Y003345D01*
X007949Y003308D01*
X008132Y003232D01*
X008331Y003232D01*
X008515Y003308D01*
X008656Y003449D01*
X008732Y003632D01*
X008808Y003449D01*
X008949Y003308D01*
X009132Y003232D01*
X009331Y003232D01*
X009515Y003308D01*
X009656Y003449D01*
X009732Y003632D01*
X009808Y003449D01*
X009949Y003308D01*
X010132Y003232D01*
X010331Y003232D01*
X010515Y003308D01*
X010656Y003449D01*
X010732Y003632D01*
X010808Y003449D01*
X010949Y003308D01*
X011132Y003232D01*
X011331Y003232D01*
X011515Y003308D01*
X011656Y003449D01*
X011732Y003632D01*
X011732Y003831D01*
X011656Y004015D01*
X011515Y004156D01*
X011331Y004232D01*
X011515Y004308D01*
X011656Y004449D01*
X011732Y004632D01*
X011732Y004831D01*
X011656Y005015D01*
X011515Y005156D01*
X011331Y005232D01*
X011132Y005232D01*
X010949Y005156D01*
X010808Y005015D01*
X010732Y004831D01*
X010732Y004632D01*
X010808Y004449D01*
X010949Y004308D01*
X011132Y004232D01*
X011331Y004232D01*
X011132Y004232D01*
X010949Y004156D01*
X010808Y004015D01*
X010732Y003831D01*
X010732Y003632D01*
X010732Y003831D01*
X010656Y004015D01*
X010515Y004156D01*
X010331Y004232D01*
X010515Y004308D01*
X010656Y004449D01*
X010732Y004632D01*
X010732Y004831D01*
X010656Y005015D01*
X010515Y005156D01*
X010331Y005232D01*
X010132Y005232D01*
X009949Y005156D01*
X009808Y005015D01*
X009732Y004831D01*
X009732Y004632D01*
X009808Y004449D01*
X009949Y004308D01*
X010132Y004232D01*
X010331Y004232D01*
X010132Y004232D01*
X009949Y004156D01*
X009808Y004015D01*
X009732Y003831D01*
X009732Y003632D01*
X009732Y003831D01*
X009656Y004015D01*
X009515Y004156D01*
X009331Y004232D01*
X009515Y004308D01*
X009656Y004449D01*
X009732Y004632D01*
X009732Y004831D01*
X009656Y005015D01*
X009515Y005156D01*
X009331Y005232D01*
X009132Y005232D01*
X008949Y005156D01*
X008808Y005015D01*
X008732Y004831D01*
X008732Y004632D01*
X008808Y004449D01*
X008949Y004308D01*
X009132Y004232D01*
X009331Y004232D01*
X009132Y004232D01*
X008949Y004156D01*
X008808Y004015D01*
X008732Y003831D01*
X008732Y003632D01*
X008732Y003831D01*
X008656Y004015D01*
X008515Y004156D01*
X008331Y004232D01*
X008515Y004308D01*
X008656Y004449D01*
X008732Y004632D01*
X008732Y004831D01*
X008656Y005015D01*
X008515Y005156D01*
X008331Y005232D01*
X008132Y005232D01*
X007949Y005156D01*
X007912Y005119D01*
X007912Y007657D01*
X009659Y009405D01*
X009666Y009402D01*
X009797Y009402D01*
X009919Y009452D01*
X010012Y009545D01*
X010062Y009666D01*
X010062Y009797D01*
X010012Y009919D01*
X009919Y010012D01*
X009797Y010062D01*
X009666Y010062D01*
X009545Y010012D01*
X009482Y009948D01*
X009419Y010012D01*
X009297Y010062D01*
X009166Y010062D01*
X009045Y010012D01*
X008952Y009919D01*
X008902Y009797D01*
X008902Y009666D01*
X008905Y009659D01*
X006657Y007412D01*
X006552Y007306D01*
X006552Y005119D01*
X006515Y005156D01*
X006331Y005232D01*
X006132Y005232D01*
X005949Y005156D01*
X005808Y005015D01*
X005732Y004831D01*
X005732Y004632D01*
X005808Y004449D01*
X005949Y004308D01*
X006132Y004232D01*
X006331Y004232D01*
X006515Y004308D01*
X006552Y004345D01*
X006552Y004119D01*
X006515Y004156D01*
X006331Y004232D01*
X006132Y004232D01*
X005949Y004156D01*
X005808Y004015D01*
X005740Y003850D01*
X005739Y003854D01*
X005714Y003931D01*
X005677Y004004D01*
X005628Y004071D01*
X005571Y004128D01*
X005504Y004177D01*
X005431Y004214D01*
X005354Y004239D01*
X005350Y004240D01*
X005515Y004308D01*
X005656Y004449D01*
X005732Y004632D01*
X005732Y004831D01*
X005656Y005015D01*
X005515Y005156D01*
X005331Y005232D01*
X005132Y005232D01*
X004949Y005156D01*
X004808Y005015D01*
X004732Y004831D01*
X004732Y004632D01*
X004808Y004449D01*
X004949Y004308D01*
X005114Y004240D01*
X005110Y004239D01*
X005032Y004214D01*
X004959Y004177D01*
X004893Y004128D01*
X004835Y004071D01*
X004787Y004004D01*
X004750Y003931D01*
X004725Y003854D01*
X004713Y003782D01*
X005182Y003782D01*
X005182Y003682D01*
X005282Y003682D01*
X005282Y003213D01*
X005354Y003225D01*
X005431Y003250D01*
X005504Y003287D01*
X005571Y003335D01*
X005628Y003393D01*
X005677Y003459D01*
X005714Y003532D01*
X005739Y003610D01*
X005740Y003614D01*
X005808Y003449D01*
X005949Y003308D01*
X006132Y003232D01*
X006331Y003232D01*
X006515Y003308D01*
X006552Y003345D01*
X006552Y001306D01*
X006512Y001267D01*
X006512Y001269D01*
X006419Y001362D01*
X006297Y001412D01*
X006166Y001412D01*
X006045Y001362D01*
X005931Y001217D02*
X002052Y001217D01*
X002052Y001119D02*
X005902Y001119D01*
X005902Y001020D02*
X002032Y001020D01*
X002052Y001069D02*
X002052Y001069D01*
X002042Y000922D02*
X005941Y000922D01*
X006024Y000823D02*
X002141Y000823D01*
X002471Y002419D02*
X002544Y002407D01*
X002563Y002407D01*
X002563Y002863D01*
X002601Y002863D01*
X002601Y002901D01*
X003057Y002901D01*
X003057Y002919D01*
X003045Y002993D01*
X003022Y003064D01*
X002988Y003131D01*
X002944Y003191D01*
X002891Y003244D01*
X002831Y003288D01*
X002764Y003322D01*
X002693Y003345D01*
X002619Y003357D01*
X002601Y003357D01*
X002601Y002901D01*
X002563Y002901D01*
X002563Y003357D01*
X002544Y003357D01*
X002471Y003345D01*
X002399Y003322D01*
X002333Y003288D01*
X002272Y003244D01*
X002219Y003191D01*
X002176Y003131D01*
X002142Y003064D01*
X002119Y002993D01*
X002107Y002919D01*
X002107Y002901D01*
X002563Y002901D01*
X002563Y002863D01*
X002107Y002863D01*
X002107Y002844D01*
X002119Y002771D01*
X002142Y002699D01*
X002176Y002633D01*
X002219Y002572D01*
X002272Y002519D01*
X002333Y002476D01*
X002399Y002442D01*
X002471Y002419D01*
X002563Y002498D02*
X002601Y002498D01*
X002601Y002407D02*
X002619Y002407D01*
X002693Y002419D01*
X002764Y002442D01*
X002831Y002476D01*
X002891Y002519D01*
X002944Y002572D01*
X002988Y002633D01*
X003022Y002699D01*
X003045Y002771D01*
X003057Y002844D01*
X003057Y002863D01*
X002601Y002863D01*
X002601Y002407D01*
X002601Y002597D02*
X002563Y002597D01*
X002563Y002695D02*
X002601Y002695D01*
X002601Y002794D02*
X002563Y002794D01*
X002563Y002892D02*
X000732Y002892D01*
X000732Y002794D02*
X002115Y002794D01*
X002144Y002695D02*
X000732Y002695D01*
X000732Y002597D02*
X002202Y002597D01*
X002301Y002498D02*
X000732Y002498D01*
X000732Y002400D02*
X006552Y002400D01*
X006552Y002498D02*
X004032Y002498D01*
X004037Y002503D02*
X003961Y002427D01*
X003203Y002427D01*
X003127Y002503D01*
X003127Y003261D01*
X003203Y003337D01*
X003961Y003337D01*
X004037Y003261D01*
X004037Y002503D01*
X004037Y002597D02*
X006552Y002597D01*
X006552Y002695D02*
X004037Y002695D01*
X004037Y002794D02*
X006552Y002794D01*
X006552Y002892D02*
X004037Y002892D01*
X004037Y002991D02*
X006552Y002991D01*
X006552Y003090D02*
X004037Y003090D01*
X004037Y003188D02*
X006552Y003188D01*
X006552Y003287D02*
X006464Y003287D01*
X006000Y003287D02*
X005504Y003287D01*
X005621Y003385D02*
X005871Y003385D01*
X005793Y003484D02*
X005689Y003484D01*
X005730Y003582D02*
X005753Y003582D01*
X005731Y003878D02*
X005751Y003878D01*
X005792Y003976D02*
X005691Y003976D01*
X005624Y004075D02*
X005868Y004075D01*
X005992Y004174D02*
X005508Y004174D01*
X005428Y004272D02*
X006035Y004272D01*
X005886Y004371D02*
X005578Y004371D01*
X005664Y004469D02*
X005799Y004469D01*
X005759Y004568D02*
X005705Y004568D01*
X005732Y004666D02*
X005732Y004666D01*
X005732Y004765D02*
X005732Y004765D01*
X005719Y004863D02*
X005745Y004863D01*
X005786Y004962D02*
X005678Y004962D01*
X005610Y005060D02*
X005853Y005060D01*
X005957Y005159D02*
X005507Y005159D01*
X005012Y005545D02*
X005062Y005666D01*
X005062Y005797D01*
X005059Y005804D01*
X005062Y005807D01*
X005062Y005956D01*
X005062Y007007D01*
X005459Y007405D01*
X005466Y007402D01*
X005597Y007402D01*
X005719Y007452D01*
X005812Y007545D01*
X005832Y007594D01*
X005852Y007545D01*
X005945Y007452D01*
X006066Y007402D01*
X006197Y007402D01*
X006319Y007452D01*
X006412Y007545D01*
X006462Y007666D01*
X006462Y007797D01*
X006412Y007919D01*
X006319Y008012D01*
X006312Y008014D01*
X006312Y008557D01*
X007306Y009552D01*
X007412Y009657D01*
X007412Y010449D01*
X007419Y010452D01*
X007512Y010545D01*
X007562Y010666D01*
X007562Y010797D01*
X007512Y010919D01*
X007419Y011012D01*
X007297Y011062D01*
X007166Y011062D01*
X007045Y011012D01*
X006952Y010919D01*
X006902Y010797D01*
X006902Y010666D01*
X006952Y010545D01*
X007045Y010452D01*
X007052Y010449D01*
X007052Y010321D01*
X007012Y010419D01*
X006919Y010512D01*
X006797Y010562D01*
X006666Y010562D01*
X006545Y010512D01*
X006452Y010419D01*
X006402Y010297D01*
X006402Y010166D01*
X006452Y010045D01*
X006545Y009952D01*
X006552Y009949D01*
X006552Y009806D01*
X006157Y009412D01*
X006014Y009412D01*
X006012Y009419D01*
X005919Y009512D01*
X005797Y009562D01*
X005666Y009562D01*
X005545Y009512D01*
X005452Y009419D01*
X005402Y009297D01*
X005402Y009166D01*
X005452Y009045D01*
X005545Y008952D01*
X005666Y008902D01*
X005797Y008902D01*
X005919Y008952D01*
X006012Y009045D01*
X006014Y009052D01*
X006157Y009052D01*
X006297Y009052D01*
X005952Y008706D01*
X005952Y008557D01*
X005952Y008014D01*
X005945Y008012D01*
X005852Y007919D01*
X005832Y007870D01*
X005812Y007919D01*
X005719Y008012D01*
X005597Y008062D01*
X005519Y008062D01*
X005562Y008166D01*
X005562Y008297D01*
X005512Y008419D01*
X005419Y008512D01*
X005297Y008562D01*
X005166Y008562D01*
X005159Y008559D01*
X004412Y009306D01*
X004412Y011449D01*
X004419Y011452D01*
X004512Y011545D01*
X004562Y011666D01*
X004562Y011797D01*
X004512Y011919D01*
X004419Y012012D01*
X004297Y012062D01*
X004166Y012062D01*
X004045Y012012D01*
X003952Y011919D01*
X003902Y011797D01*
X003902Y011666D01*
X003952Y011545D01*
X004045Y011452D01*
X004052Y011449D01*
X004052Y009157D01*
X004157Y009052D01*
X004905Y008304D01*
X004902Y008297D01*
X004902Y008166D01*
X004952Y008045D01*
X005045Y007952D01*
X005166Y007902D01*
X005245Y007902D01*
X005202Y007797D01*
X005202Y007666D01*
X005205Y007659D01*
X004702Y007156D01*
X004702Y007007D01*
X004702Y006062D01*
X004666Y006062D01*
X004545Y006012D01*
X004452Y005919D01*
X004402Y005797D01*
X004402Y005666D01*
X004452Y005545D01*
X004545Y005452D01*
X004666Y005402D01*
X004797Y005402D01*
X004919Y005452D01*
X005012Y005545D01*
X005015Y005553D02*
X006552Y005553D01*
X006552Y005455D02*
X004921Y005455D01*
X005056Y005652D02*
X006552Y005652D01*
X006552Y005750D02*
X005062Y005750D01*
X005062Y005849D02*
X006552Y005849D01*
X006552Y005947D02*
X005062Y005947D01*
X005062Y006046D02*
X006552Y006046D01*
X006552Y006144D02*
X005062Y006144D01*
X005062Y006243D02*
X006552Y006243D01*
X006552Y006341D02*
X005062Y006341D01*
X005062Y006440D02*
X006552Y006440D01*
X006552Y006539D02*
X005062Y006539D01*
X005062Y006637D02*
X006552Y006637D01*
X006552Y006736D02*
X005062Y006736D01*
X005062Y006834D02*
X006552Y006834D01*
X006552Y006933D02*
X005062Y006933D01*
X005086Y007031D02*
X006552Y007031D01*
X006552Y007130D02*
X005184Y007130D01*
X005283Y007228D02*
X006552Y007228D01*
X006572Y007327D02*
X005381Y007327D01*
X005168Y007623D02*
X000732Y007623D01*
X000732Y007721D02*
X005202Y007721D01*
X005211Y007820D02*
X000732Y007820D01*
X000732Y007918D02*
X005127Y007918D01*
X004980Y008017D02*
X000732Y008017D01*
X000732Y008115D02*
X002203Y008115D01*
X002228Y008102D02*
X002296Y008080D01*
X002366Y008069D01*
X002372Y008069D01*
X002372Y008490D01*
X002430Y008490D01*
X002430Y008069D01*
X002436Y008069D01*
X002506Y008080D01*
X002574Y008102D01*
X002637Y008134D01*
X002694Y008176D01*
X002744Y008226D01*
X002786Y008283D01*
X002818Y008346D01*
X002840Y008414D01*
X002851Y008484D01*
X002851Y008490D01*
X002430Y008490D01*
X002430Y008548D01*
X002851Y008548D01*
X002851Y008555D01*
X002840Y008625D01*
X002818Y008692D01*
X002786Y008755D01*
X002744Y008812D01*
X002694Y008862D01*
X002637Y008904D01*
X002599Y008923D01*
X002645Y008942D01*
X002766Y009063D01*
X002831Y009221D01*
X002831Y009392D01*
X002766Y009550D01*
X002645Y009671D01*
X002574Y009700D01*
X002645Y009729D01*
X002766Y009850D01*
X002831Y010008D01*
X002831Y010180D01*
X002766Y010338D01*
X002645Y010459D01*
X002574Y010488D01*
X002645Y010517D01*
X002766Y010638D01*
X002831Y010796D01*
X002831Y010967D01*
X002766Y011125D01*
X002645Y011246D01*
X002574Y011275D01*
X002645Y011304D01*
X002766Y011425D01*
X002831Y011583D01*
X002831Y011754D01*
X002766Y011912D01*
X002645Y012033D01*
X002574Y012062D01*
X002645Y012092D01*
X002766Y012213D01*
X002831Y012371D01*
X002831Y012542D01*
X002766Y012700D01*
X002645Y012821D01*
X002574Y012850D01*
X002645Y012879D01*
X002766Y013000D01*
X002831Y013158D01*
X002831Y013329D01*
X002766Y013487D01*
X002645Y013608D01*
X002574Y013637D01*
X002645Y013666D01*
X002766Y013787D01*
X002831Y013945D01*
X002831Y014117D01*
X002766Y014275D01*
X002645Y014396D01*
X002574Y014425D01*
X002645Y014454D01*
X002766Y014575D01*
X002831Y014733D01*
X002831Y014904D01*
X002766Y015062D01*
X002645Y015183D01*
X002574Y015212D01*
X002645Y015241D01*
X002766Y015362D01*
X002831Y015520D01*
X002831Y015691D01*
X002766Y015849D01*
X002645Y015970D01*
X002487Y016036D01*
X002316Y016036D01*
X002158Y015970D01*
X002037Y015849D01*
X001971Y015691D01*
X001971Y015520D01*
X002037Y015362D01*
X002158Y015241D01*
X002228Y015212D01*
X002158Y015183D01*
X002037Y015062D01*
X001971Y014904D01*
X001971Y014733D01*
X002037Y014575D01*
X002158Y014454D01*
X002228Y014425D01*
X002158Y014396D01*
X002037Y014275D01*
X001971Y014117D01*
X001971Y013945D01*
X002037Y013787D01*
X002158Y013666D01*
X002228Y013637D01*
X002158Y013608D01*
X002037Y013487D01*
X001971Y013329D01*
X001971Y013158D01*
X002037Y013000D01*
X002158Y012879D01*
X002228Y012850D01*
X002158Y012821D01*
X002037Y012700D01*
X001971Y012542D01*
X001971Y012371D01*
X002037Y012213D01*
X002158Y012092D01*
X002228Y012062D01*
X002158Y012033D01*
X002037Y011912D01*
X001971Y011754D01*
X001971Y011583D01*
X002037Y011425D01*
X002158Y011304D01*
X002228Y011275D01*
X002158Y011246D01*
X002037Y011125D01*
X001971Y010967D01*
X001971Y010796D01*
X002037Y010638D01*
X002158Y010517D01*
X002228Y010488D01*
X002158Y010459D01*
X002037Y010338D01*
X001971Y010180D01*
X001971Y010008D01*
X002037Y009850D01*
X002158Y009729D01*
X002228Y009700D01*
X002158Y009671D01*
X002037Y009550D01*
X001971Y009392D01*
X001971Y009221D01*
X002037Y009063D01*
X002158Y008942D01*
X002203Y008923D01*
X002165Y008904D01*
X002108Y008862D01*
X002058Y008812D01*
X002016Y008755D01*
X001984Y008692D01*
X001962Y008625D01*
X001951Y008555D01*
X001951Y008548D01*
X002372Y008548D01*
X002372Y008490D01*
X001951Y008490D01*
X001951Y008484D01*
X001962Y008414D01*
X001984Y008346D01*
X002016Y008283D01*
X002058Y008226D01*
X002108Y008176D01*
X002165Y008134D01*
X002228Y008102D01*
X002372Y008115D02*
X002430Y008115D01*
X002430Y008214D02*
X002372Y008214D01*
X002372Y008312D02*
X002430Y008312D01*
X002430Y008411D02*
X002372Y008411D01*
X002372Y008509D02*
X000732Y008509D01*
X000732Y008411D02*
X001963Y008411D01*
X002001Y008312D02*
X000732Y008312D01*
X000732Y008214D02*
X002070Y008214D01*
X001960Y008608D02*
X000732Y008608D01*
X000732Y008707D02*
X001992Y008707D01*
X002053Y008805D02*
X000732Y008805D01*
X000732Y008904D02*
X002165Y008904D01*
X002097Y009002D02*
X000732Y009002D01*
X000732Y009101D02*
X002021Y009101D01*
X001980Y009199D02*
X000732Y009199D01*
X000732Y009298D02*
X001971Y009298D01*
X001973Y009396D02*
X000732Y009396D01*
X000732Y009495D02*
X002014Y009495D01*
X002080Y009593D02*
X000732Y009593D01*
X000732Y009692D02*
X002208Y009692D01*
X002096Y009791D02*
X000732Y009791D01*
X000732Y009889D02*
X002021Y009889D01*
X001980Y009988D02*
X000732Y009988D01*
X000732Y010086D02*
X001971Y010086D01*
X001973Y010185D02*
X000732Y010185D01*
X000732Y010283D02*
X002014Y010283D01*
X002081Y010382D02*
X000732Y010382D01*
X000732Y010480D02*
X002210Y010480D01*
X002096Y010579D02*
X000732Y010579D01*
X000732Y010677D02*
X002020Y010677D01*
X001979Y010776D02*
X000732Y010776D01*
X000732Y010874D02*
X001971Y010874D01*
X001974Y010973D02*
X000732Y010973D01*
X000732Y011072D02*
X002014Y011072D01*
X002082Y011170D02*
X000732Y011170D01*
X000732Y011269D02*
X002213Y011269D01*
X002095Y011367D02*
X000732Y011367D01*
X000732Y011466D02*
X002020Y011466D01*
X001979Y011564D02*
X000732Y011564D01*
X000732Y011663D02*
X001971Y011663D01*
X001974Y011761D02*
X000732Y011761D01*
X000732Y011860D02*
X002015Y011860D01*
X002083Y011958D02*
X000732Y011958D01*
X000732Y012057D02*
X002215Y012057D01*
X002094Y012156D02*
X000732Y012156D01*
X000732Y012254D02*
X002019Y012254D01*
X001979Y012353D02*
X000732Y012353D01*
X000732Y012451D02*
X001971Y012451D01*
X001974Y012550D02*
X000732Y012550D01*
X000732Y012648D02*
X002015Y012648D01*
X002084Y012747D02*
X000732Y012747D01*
X000732Y012845D02*
X002217Y012845D01*
X002093Y012944D02*
X000732Y012944D01*
X000732Y013042D02*
X002019Y013042D01*
X001978Y013141D02*
X000732Y013141D01*
X000732Y013240D02*
X001971Y013240D01*
X001975Y013338D02*
X000732Y013338D01*
X000732Y013437D02*
X002016Y013437D01*
X002085Y013535D02*
X000732Y013535D01*
X000732Y013634D02*
X002219Y013634D01*
X002092Y013732D02*
X000732Y013732D01*
X000732Y013831D02*
X002019Y013831D01*
X001978Y013929D02*
X000732Y013929D01*
X000732Y014028D02*
X001971Y014028D01*
X001975Y014126D02*
X000732Y014126D01*
X000732Y014225D02*
X002016Y014225D01*
X002086Y014324D02*
X000732Y014324D01*
X000732Y014422D02*
X002222Y014422D01*
X002091Y014521D02*
X000732Y014521D01*
X000732Y014619D02*
X002018Y014619D01*
X001977Y014718D02*
X000732Y014718D01*
X000732Y014816D02*
X001971Y014816D01*
X001976Y014915D02*
X000732Y014915D01*
X000732Y015013D02*
X002016Y015013D01*
X002086Y015112D02*
X000732Y015112D01*
X000732Y015210D02*
X002224Y015210D01*
X002090Y015309D02*
X000809Y015309D01*
X000907Y015407D02*
X002018Y015407D01*
X001977Y015506D02*
X001622Y015506D01*
X001764Y015605D02*
X001971Y015605D01*
X001976Y015703D02*
X001863Y015703D01*
X001941Y015802D02*
X002017Y015802D01*
X001982Y015900D02*
X002087Y015900D01*
X002023Y015999D02*
X002226Y015999D01*
X002052Y016069D02*
X002052Y016069D01*
X002052Y016097D02*
X013412Y016097D01*
X013412Y016196D02*
X002052Y016196D01*
X002052Y016294D02*
X013412Y016294D01*
X013412Y016393D02*
X002052Y016393D01*
X002052Y016395D02*
X002052Y016395D01*
X002012Y016491D02*
X013452Y016491D01*
X013412Y016395D02*
X013412Y016395D01*
X013374Y016590D02*
X002090Y016590D01*
X002189Y016689D02*
X013275Y016689D01*
X013441Y015999D02*
X011237Y015999D01*
X011306Y015970D02*
X011148Y016036D01*
X010977Y016036D01*
X010819Y015970D01*
X010698Y015849D01*
X010633Y015691D01*
X010633Y015520D01*
X010698Y015362D01*
X010819Y015241D01*
X010889Y015212D01*
X010819Y015183D01*
X010698Y015062D01*
X010633Y014904D01*
X010633Y014733D01*
X010698Y014575D01*
X010819Y014454D01*
X010889Y014425D01*
X010819Y014396D01*
X010698Y014275D01*
X010633Y014117D01*
X010633Y013945D01*
X010698Y013787D01*
X010819Y013666D01*
X010889Y013637D01*
X010819Y013608D01*
X010698Y013487D01*
X010633Y013329D01*
X010633Y013158D01*
X010698Y013000D01*
X010819Y012879D01*
X010889Y012850D01*
X010819Y012821D01*
X010698Y012700D01*
X010633Y012542D01*
X010633Y012371D01*
X010698Y012213D01*
X010819Y012092D01*
X010889Y012062D01*
X010819Y012033D01*
X010698Y011912D01*
X010633Y011754D01*
X010633Y011583D01*
X010698Y011425D01*
X010819Y011304D01*
X010889Y011275D01*
X010819Y011246D01*
X010698Y011125D01*
X010633Y010967D01*
X010633Y010796D01*
X010698Y010638D01*
X010819Y010517D01*
X010889Y010488D01*
X010819Y010459D01*
X010698Y010338D01*
X010633Y010180D01*
X010633Y010008D01*
X010698Y009850D01*
X010819Y009729D01*
X010889Y009700D01*
X010819Y009671D01*
X010698Y009550D01*
X010633Y009392D01*
X010633Y009221D01*
X010698Y009063D01*
X010819Y008942D01*
X010889Y008913D01*
X010819Y008884D01*
X010698Y008763D01*
X010633Y008605D01*
X010633Y008434D01*
X010698Y008276D01*
X010819Y008155D01*
X010977Y008089D01*
X011148Y008089D01*
X011306Y008155D01*
X011427Y008276D01*
X011492Y008434D01*
X011492Y008605D01*
X011427Y008763D01*
X011306Y008884D01*
X011236Y008913D01*
X011306Y008942D01*
X011427Y009063D01*
X011492Y009221D01*
X011492Y009392D01*
X011427Y009550D01*
X011306Y009671D01*
X011236Y009700D01*
X011306Y009729D01*
X011427Y009850D01*
X011492Y010008D01*
X011492Y010180D01*
X011427Y010338D01*
X011306Y010459D01*
X011236Y010488D01*
X011306Y010517D01*
X011427Y010638D01*
X011492Y010796D01*
X011492Y010967D01*
X011427Y011125D01*
X011306Y011246D01*
X011236Y011275D01*
X011306Y011304D01*
X011427Y011425D01*
X011492Y011583D01*
X011492Y011754D01*
X011427Y011912D01*
X011306Y012033D01*
X011236Y012062D01*
X011306Y012092D01*
X011427Y012213D01*
X011492Y012371D01*
X011492Y012542D01*
X011427Y012700D01*
X011306Y012821D01*
X011236Y012850D01*
X011306Y012879D01*
X011427Y013000D01*
X011492Y013158D01*
X011492Y013329D01*
X011427Y013487D01*
X011306Y013608D01*
X011236Y013637D01*
X011306Y013666D01*
X011427Y013787D01*
X011492Y013945D01*
X011492Y014117D01*
X011427Y014275D01*
X011306Y014396D01*
X011236Y014425D01*
X011306Y014454D01*
X011427Y014575D01*
X011492Y014733D01*
X011492Y014904D01*
X011427Y015062D01*
X011306Y015183D01*
X011236Y015212D01*
X011306Y015241D01*
X011427Y015362D01*
X011492Y015520D01*
X011492Y015691D01*
X011427Y015849D01*
X011306Y015970D01*
X011376Y015900D02*
X013482Y015900D01*
X013522Y015802D02*
X011447Y015802D01*
X011488Y015703D02*
X013601Y015703D01*
X013537Y015767D02*
X013537Y015767D01*
X013699Y015605D02*
X011492Y015605D01*
X011487Y015506D02*
X013841Y015506D01*
X014069Y015412D02*
X014069Y015412D01*
X014395Y015412D02*
X014395Y015412D01*
X014556Y015407D02*
X011446Y015407D01*
X011374Y015309D02*
X014655Y015309D01*
X014732Y015210D02*
X011240Y015210D01*
X011377Y015112D02*
X014732Y015112D01*
X014732Y015013D02*
X011447Y015013D01*
X011488Y014915D02*
X014732Y014915D01*
X014732Y014816D02*
X011492Y014816D01*
X011486Y014718D02*
X014732Y014718D01*
X014732Y014619D02*
X011445Y014619D01*
X011373Y014521D02*
X014732Y014521D01*
X014732Y014422D02*
X011242Y014422D01*
X011378Y014324D02*
X014732Y014324D01*
X014732Y014225D02*
X011448Y014225D01*
X011488Y014126D02*
X014732Y014126D01*
X014732Y014028D02*
X011492Y014028D01*
X011486Y013929D02*
X014732Y013929D01*
X014732Y013831D02*
X011445Y013831D01*
X011372Y013732D02*
X014732Y013732D01*
X014732Y013634D02*
X011244Y013634D01*
X011379Y013535D02*
X014732Y013535D01*
X014732Y013437D02*
X011448Y013437D01*
X011489Y013338D02*
X014732Y013338D01*
X014732Y013240D02*
X011492Y013240D01*
X011485Y013141D02*
X014732Y013141D01*
X014732Y013042D02*
X011445Y013042D01*
X011371Y012944D02*
X014732Y012944D01*
X014732Y012845D02*
X011246Y012845D01*
X011380Y012747D02*
X014732Y012747D01*
X014732Y012648D02*
X011448Y012648D01*
X011489Y012550D02*
X014732Y012550D01*
X014732Y012451D02*
X011492Y012451D01*
X011485Y012353D02*
X014732Y012353D01*
X014732Y012254D02*
X011444Y012254D01*
X011370Y012156D02*
X014732Y012156D01*
X014732Y012057D02*
X011249Y012057D01*
X011381Y011958D02*
X014732Y011958D01*
X014732Y011860D02*
X011449Y011860D01*
X011490Y011761D02*
X014732Y011761D01*
X014732Y011663D02*
X011492Y011663D01*
X011485Y011564D02*
X014732Y011564D01*
X014732Y011466D02*
X011444Y011466D01*
X011369Y011367D02*
X014732Y011367D01*
X014732Y011269D02*
X011251Y011269D01*
X011382Y011170D02*
X014732Y011170D01*
X014732Y011072D02*
X011449Y011072D01*
X011490Y010973D02*
X014732Y010973D01*
X014732Y010874D02*
X011492Y010874D01*
X011484Y010776D02*
X014732Y010776D01*
X014732Y010677D02*
X011443Y010677D01*
X011368Y010579D02*
X014732Y010579D01*
X014732Y010480D02*
X011253Y010480D01*
X011383Y010382D02*
X014732Y010382D01*
X014732Y010283D02*
X011450Y010283D01*
X011490Y010185D02*
X014732Y010185D01*
X014732Y010086D02*
X011492Y010086D01*
X011484Y009988D02*
X014732Y009988D01*
X014732Y009889D02*
X011443Y009889D01*
X011367Y009791D02*
X014732Y009791D01*
X014732Y009692D02*
X011256Y009692D01*
X011384Y009593D02*
X014732Y009593D01*
X014732Y009495D02*
X011450Y009495D01*
X011491Y009396D02*
X014732Y009396D01*
X014732Y009298D02*
X011492Y009298D01*
X011483Y009199D02*
X014732Y009199D01*
X014732Y009101D02*
X011443Y009101D01*
X011366Y009002D02*
X014732Y009002D01*
X014732Y008904D02*
X011258Y008904D01*
X011385Y008805D02*
X014732Y008805D01*
X014732Y008707D02*
X011450Y008707D01*
X011491Y008608D02*
X014732Y008608D01*
X014732Y008509D02*
X011492Y008509D01*
X011483Y008411D02*
X014732Y008411D01*
X014732Y008312D02*
X011442Y008312D01*
X011365Y008214D02*
X014732Y008214D01*
X014732Y008115D02*
X011211Y008115D01*
X010914Y008115D02*
X010603Y008115D01*
X010701Y008017D02*
X012557Y008017D01*
X012545Y008012D02*
X012452Y007919D01*
X012449Y007912D01*
X012157Y007912D01*
X012052Y007806D01*
X011802Y007556D01*
X011802Y007407D01*
X011802Y006414D01*
X011795Y006412D01*
X011702Y006319D01*
X011652Y006197D01*
X011652Y006066D01*
X011412Y006306D01*
X011412Y007157D01*
X011412Y007306D01*
X010059Y008659D01*
X010062Y008666D01*
X010062Y008797D01*
X010012Y008919D01*
X009919Y009012D01*
X009797Y009062D01*
X009666Y009062D01*
X009545Y009012D01*
X009452Y008919D01*
X009402Y008797D01*
X009402Y008666D01*
X009452Y008545D01*
X009545Y008452D01*
X009666Y008402D01*
X009797Y008402D01*
X009804Y008405D01*
X011052Y007157D01*
X011052Y006157D01*
X011157Y006052D01*
X012275Y004934D01*
X012232Y004831D01*
X012232Y004632D01*
X012308Y004449D01*
X012449Y004308D01*
X012632Y004232D01*
X012831Y004232D01*
X012934Y004275D01*
X013052Y004157D01*
X013052Y004119D01*
X013015Y004156D01*
X012831Y004232D01*
X012632Y004232D01*
X012449Y004156D01*
X012308Y004015D01*
X012232Y003831D01*
X012232Y003632D01*
X012308Y003449D01*
X012449Y003308D01*
X012632Y003232D01*
X012831Y003232D01*
X013015Y003308D01*
X013052Y003345D01*
X013052Y003306D01*
X012804Y003059D01*
X012797Y003062D01*
X012666Y003062D01*
X012545Y003012D01*
X012452Y002919D01*
X012402Y002797D01*
X012402Y002666D01*
X012452Y002545D01*
X012545Y002452D01*
X012666Y002402D01*
X012797Y002402D01*
X012919Y002452D01*
X013012Y002545D01*
X013062Y002666D01*
X013062Y002797D01*
X013059Y002804D01*
X013412Y003157D01*
X013412Y003306D01*
X013412Y003322D01*
X013459Y003287D01*
X013532Y003250D01*
X013610Y003225D01*
X013682Y003213D01*
X013682Y003682D01*
X013782Y003682D01*
X013782Y003782D01*
X014250Y003782D01*
X014239Y003854D01*
X014214Y003931D01*
X014177Y004004D01*
X014128Y004071D01*
X014071Y004128D01*
X014004Y004177D01*
X013931Y004214D01*
X013854Y004239D01*
X013850Y004240D01*
X014015Y004308D01*
X014156Y004449D01*
X014232Y004632D01*
X014232Y004831D01*
X014156Y005015D01*
X014015Y005156D01*
X013831Y005232D01*
X014015Y005308D01*
X014156Y005449D01*
X014232Y005632D01*
X014232Y005831D01*
X014156Y006015D01*
X014015Y006156D01*
X013831Y006232D01*
X013632Y006232D01*
X013449Y006156D01*
X013412Y006119D01*
X013412Y006306D01*
X013306Y006412D01*
X013059Y006659D01*
X013062Y006666D01*
X013062Y006797D01*
X013012Y006919D01*
X012919Y007012D01*
X012797Y007062D01*
X012666Y007062D01*
X012545Y007012D01*
X012452Y006919D01*
X012402Y006797D01*
X012402Y006666D01*
X012452Y006545D01*
X012545Y006452D01*
X012666Y006402D01*
X012797Y006402D01*
X012804Y006405D01*
X012977Y006232D01*
X012308Y006232D01*
X012301Y006224D01*
X012262Y006319D01*
X012169Y006412D01*
X012162Y006414D01*
X012162Y007407D01*
X012306Y007552D01*
X012449Y007552D01*
X012452Y007545D01*
X012545Y007452D01*
X012666Y007402D01*
X012797Y007402D01*
X012919Y007452D01*
X013012Y007545D01*
X013062Y007666D01*
X013062Y007797D01*
X013012Y007919D01*
X012919Y008012D01*
X012797Y008062D01*
X012666Y008062D01*
X012545Y008012D01*
X012452Y007918D02*
X010800Y007918D01*
X010898Y007820D02*
X012065Y007820D01*
X011967Y007721D02*
X010997Y007721D01*
X011096Y007623D02*
X011868Y007623D01*
X011802Y007524D02*
X011194Y007524D01*
X011293Y007425D02*
X011802Y007425D01*
X011802Y007327D02*
X011391Y007327D01*
X011412Y007228D02*
X011802Y007228D01*
X011802Y007130D02*
X011412Y007130D01*
X011412Y007031D02*
X011802Y007031D01*
X011802Y006933D02*
X011412Y006933D01*
X011412Y006834D02*
X011802Y006834D01*
X011802Y006736D02*
X011412Y006736D01*
X011412Y006637D02*
X011802Y006637D01*
X011802Y006539D02*
X011412Y006539D01*
X011412Y006440D02*
X011802Y006440D01*
X011725Y006341D02*
X011412Y006341D01*
X011475Y006243D02*
X011671Y006243D01*
X011652Y006144D02*
X011574Y006144D01*
X011360Y005849D02*
X007912Y005849D01*
X007912Y005947D02*
X011262Y005947D01*
X011163Y006046D02*
X007912Y006046D01*
X007912Y006144D02*
X011065Y006144D01*
X011052Y006243D02*
X007912Y006243D01*
X007912Y006341D02*
X011052Y006341D01*
X011052Y006440D02*
X007912Y006440D01*
X007912Y006539D02*
X011052Y006539D01*
X011052Y006637D02*
X007912Y006637D01*
X007912Y006736D02*
X011052Y006736D01*
X011052Y006834D02*
X007912Y006834D01*
X007912Y006933D02*
X011052Y006933D01*
X011052Y007031D02*
X007912Y007031D01*
X007912Y007130D02*
X011052Y007130D01*
X010981Y007228D02*
X007912Y007228D01*
X007912Y007327D02*
X010882Y007327D01*
X010784Y007425D02*
X007912Y007425D01*
X007912Y007524D02*
X010685Y007524D01*
X010586Y007623D02*
X007912Y007623D01*
X007976Y007721D02*
X010488Y007721D01*
X010389Y007820D02*
X008074Y007820D01*
X008173Y007918D02*
X010291Y007918D01*
X010192Y008017D02*
X008271Y008017D01*
X008370Y008115D02*
X010094Y008115D01*
X009995Y008214D02*
X008468Y008214D01*
X008567Y008312D02*
X009897Y008312D01*
X009644Y008411D02*
X008665Y008411D01*
X008764Y008509D02*
X009487Y008509D01*
X009426Y008608D02*
X008863Y008608D01*
X008961Y008707D02*
X009402Y008707D01*
X009405Y008805D02*
X009060Y008805D01*
X009158Y008904D02*
X009446Y008904D01*
X009536Y009002D02*
X009257Y009002D01*
X009355Y009101D02*
X010682Y009101D01*
X010642Y009199D02*
X009454Y009199D01*
X009552Y009298D02*
X010633Y009298D01*
X010634Y009396D02*
X009651Y009396D01*
X009732Y009732D02*
X007732Y007732D01*
X007732Y001232D01*
X007582Y001082D01*
X007232Y001082D01*
X007440Y000823D02*
X013514Y000823D01*
X013537Y000767D02*
X013537Y000767D01*
X013473Y000922D02*
X007676Y000922D01*
X007775Y001020D02*
X013432Y001020D01*
X013412Y001119D02*
X007873Y001119D01*
X007912Y001217D02*
X013412Y001217D01*
X013412Y001316D02*
X007912Y001316D01*
X007912Y001414D02*
X013420Y001414D01*
X013412Y001395D02*
X013412Y001395D01*
X013461Y001513D02*
X007912Y001513D01*
X007912Y001611D02*
X013501Y001611D01*
X013550Y001710D02*
X007912Y001710D01*
X007912Y001809D02*
X013649Y001809D01*
X013747Y001907D02*
X007912Y001907D01*
X007912Y002006D02*
X013957Y002006D01*
X014395Y002052D02*
X014395Y002052D01*
X014506Y002006D02*
X014732Y002006D01*
X014696Y001927D02*
X014696Y001927D01*
X014716Y001907D02*
X014732Y001907D01*
X014732Y002104D02*
X007912Y002104D01*
X007912Y002203D02*
X014732Y002203D01*
X014732Y002301D02*
X007912Y002301D01*
X007912Y002400D02*
X014732Y002400D01*
X014732Y002498D02*
X012965Y002498D01*
X013033Y002597D02*
X014732Y002597D01*
X014732Y002695D02*
X013062Y002695D01*
X013062Y002794D02*
X014732Y002794D01*
X014732Y002892D02*
X013147Y002892D01*
X013246Y002991D02*
X014732Y002991D01*
X014732Y003090D02*
X013344Y003090D01*
X013412Y003188D02*
X014732Y003188D01*
X014732Y003287D02*
X014004Y003287D01*
X014071Y003335D01*
X014128Y003393D01*
X014177Y003459D01*
X014214Y003532D01*
X014239Y003610D01*
X014250Y003682D01*
X013782Y003682D01*
X013782Y003213D01*
X013854Y003225D01*
X013931Y003250D01*
X014004Y003287D01*
X014121Y003385D02*
X014732Y003385D01*
X014732Y003484D02*
X014189Y003484D01*
X014230Y003582D02*
X014732Y003582D01*
X014732Y003681D02*
X014250Y003681D01*
X014231Y003878D02*
X014732Y003878D01*
X014732Y003976D02*
X014191Y003976D01*
X014124Y004075D02*
X014732Y004075D01*
X014732Y004174D02*
X014008Y004174D01*
X013928Y004272D02*
X014732Y004272D01*
X014732Y004371D02*
X014078Y004371D01*
X014164Y004469D02*
X014732Y004469D01*
X014732Y004568D02*
X014205Y004568D01*
X014232Y004666D02*
X014732Y004666D01*
X014732Y004765D02*
X014232Y004765D01*
X014219Y004863D02*
X014732Y004863D01*
X014732Y004962D02*
X014178Y004962D01*
X014110Y005060D02*
X014732Y005060D01*
X014732Y005159D02*
X014007Y005159D01*
X013893Y005258D02*
X014732Y005258D01*
X014732Y005356D02*
X014063Y005356D01*
X014158Y005455D02*
X014732Y005455D01*
X014732Y005553D02*
X014199Y005553D01*
X014232Y005652D02*
X014732Y005652D01*
X014732Y005750D02*
X014232Y005750D01*
X014225Y005849D02*
X014732Y005849D01*
X014732Y005947D02*
X014184Y005947D01*
X014125Y006046D02*
X014732Y006046D01*
X014732Y006144D02*
X014026Y006144D01*
X013437Y006144D02*
X013412Y006144D01*
X013412Y006243D02*
X014732Y006243D01*
X014732Y006341D02*
X013377Y006341D01*
X013278Y006440D02*
X014732Y006440D01*
X014732Y006539D02*
X013180Y006539D01*
X013081Y006637D02*
X014732Y006637D01*
X014732Y006736D02*
X013062Y006736D01*
X013047Y006834D02*
X014732Y006834D01*
X014732Y006933D02*
X012997Y006933D01*
X012871Y007031D02*
X014732Y007031D01*
X014732Y007130D02*
X012162Y007130D01*
X012162Y007228D02*
X014732Y007228D01*
X014732Y007327D02*
X012162Y007327D01*
X012180Y007425D02*
X012609Y007425D01*
X012473Y007524D02*
X012279Y007524D01*
X012232Y007732D02*
X012732Y007732D01*
X012855Y007425D02*
X014732Y007425D01*
X014732Y007524D02*
X012991Y007524D01*
X013044Y007623D02*
X014732Y007623D01*
X014732Y007721D02*
X013062Y007721D01*
X013053Y007820D02*
X014732Y007820D01*
X014732Y007918D02*
X013012Y007918D01*
X012906Y008017D02*
X014732Y008017D01*
X013232Y006232D02*
X013232Y005232D01*
X013732Y004732D01*
X013529Y005189D02*
X013412Y005306D01*
X013412Y005345D01*
X013449Y005308D01*
X013632Y005232D01*
X013831Y005232D01*
X013632Y005232D01*
X013529Y005189D01*
X013570Y005258D02*
X013461Y005258D01*
X012732Y004732D02*
X011232Y006232D01*
X011232Y007232D01*
X009732Y008732D01*
X009928Y009002D02*
X010759Y009002D01*
X010867Y008904D02*
X010018Y008904D01*
X010059Y008805D02*
X010740Y008805D01*
X010675Y008707D02*
X010062Y008707D01*
X010110Y008608D02*
X010634Y008608D01*
X010633Y008509D02*
X010209Y008509D01*
X010307Y008411D02*
X010642Y008411D01*
X010683Y008312D02*
X010406Y008312D01*
X010504Y008214D02*
X010760Y008214D01*
X010675Y009495D02*
X009962Y009495D01*
X010032Y009593D02*
X010741Y009593D01*
X010869Y009692D02*
X010062Y009692D01*
X010062Y009791D02*
X010758Y009791D01*
X010682Y009889D02*
X010024Y009889D01*
X009943Y009988D02*
X010641Y009988D01*
X010633Y010086D02*
X007412Y010086D01*
X007412Y009988D02*
X009021Y009988D01*
X008940Y009889D02*
X007412Y009889D01*
X007412Y009791D02*
X008902Y009791D01*
X008902Y009692D02*
X007412Y009692D01*
X007348Y009593D02*
X008839Y009593D01*
X008740Y009495D02*
X007249Y009495D01*
X007151Y009396D02*
X008642Y009396D01*
X008543Y009298D02*
X007052Y009298D01*
X006954Y009199D02*
X008445Y009199D01*
X008346Y009101D02*
X006855Y009101D01*
X006757Y009002D02*
X008248Y009002D01*
X008149Y008904D02*
X006658Y008904D01*
X006560Y008805D02*
X008051Y008805D01*
X007952Y008707D02*
X006461Y008707D01*
X006363Y008608D02*
X007853Y008608D01*
X007755Y008509D02*
X006312Y008509D01*
X006312Y008411D02*
X007656Y008411D01*
X007558Y008312D02*
X006312Y008312D01*
X006312Y008214D02*
X007459Y008214D01*
X007361Y008115D02*
X006312Y008115D01*
X006312Y008017D02*
X007262Y008017D01*
X007164Y007918D02*
X006412Y007918D01*
X006453Y007820D02*
X007065Y007820D01*
X006967Y007721D02*
X006462Y007721D01*
X006444Y007623D02*
X006868Y007623D01*
X006769Y007524D02*
X006391Y007524D01*
X006255Y007425D02*
X006671Y007425D01*
X006732Y007232D02*
X006732Y001232D01*
X006582Y001082D01*
X006232Y001082D01*
X006440Y000823D02*
X007024Y000823D01*
X006941Y000922D02*
X006676Y000922D01*
X006775Y001020D02*
X006902Y001020D01*
X006902Y001119D02*
X006873Y001119D01*
X006552Y001316D02*
X006464Y001316D01*
X006552Y002203D02*
X000761Y002203D01*
X000732Y002301D02*
X006552Y002301D01*
X007912Y002498D02*
X012499Y002498D01*
X012431Y002597D02*
X007912Y002597D01*
X007912Y002695D02*
X012402Y002695D01*
X012402Y002794D02*
X007912Y002794D01*
X007912Y002892D02*
X012441Y002892D01*
X012524Y002991D02*
X007912Y002991D01*
X007912Y003090D02*
X012835Y003090D01*
X012934Y003188D02*
X007912Y003188D01*
X007912Y003287D02*
X008000Y003287D01*
X008464Y003287D02*
X009000Y003287D01*
X008871Y003385D02*
X008592Y003385D01*
X008670Y003484D02*
X008793Y003484D01*
X008753Y003582D02*
X008711Y003582D01*
X008732Y003681D02*
X008732Y003681D01*
X008732Y003779D02*
X008732Y003779D01*
X008751Y003878D02*
X008712Y003878D01*
X008672Y003976D02*
X008792Y003976D01*
X008868Y004075D02*
X008596Y004075D01*
X008472Y004174D02*
X008992Y004174D01*
X009035Y004272D02*
X008428Y004272D01*
X008331Y004232D02*
X008132Y004232D01*
X007949Y004308D01*
X007912Y004345D01*
X007912Y004119D01*
X007949Y004156D01*
X008132Y004232D01*
X008331Y004232D01*
X008578Y004371D02*
X008886Y004371D01*
X008799Y004469D02*
X008664Y004469D01*
X008705Y004568D02*
X008759Y004568D01*
X008732Y004666D02*
X008732Y004666D01*
X008732Y004765D02*
X008732Y004765D01*
X008719Y004863D02*
X008745Y004863D01*
X008786Y004962D02*
X008678Y004962D01*
X008610Y005060D02*
X008853Y005060D01*
X008957Y005159D02*
X008507Y005159D01*
X007957Y005159D02*
X007912Y005159D01*
X007912Y005258D02*
X011952Y005258D01*
X011853Y005356D02*
X007912Y005356D01*
X007912Y005455D02*
X011754Y005455D01*
X011656Y005553D02*
X007912Y005553D01*
X007912Y005652D02*
X011557Y005652D01*
X011459Y005750D02*
X007912Y005750D01*
X006552Y005356D02*
X000732Y005356D01*
X000732Y005258D02*
X006552Y005258D01*
X006552Y005159D02*
X006507Y005159D01*
X006552Y004272D02*
X006428Y004272D01*
X006472Y004174D02*
X006552Y004174D01*
X007912Y004174D02*
X007992Y004174D01*
X008035Y004272D02*
X007912Y004272D01*
X009428Y004272D02*
X010035Y004272D01*
X009992Y004174D02*
X009472Y004174D01*
X009596Y004075D02*
X009868Y004075D01*
X009792Y003976D02*
X009672Y003976D01*
X009712Y003878D02*
X009751Y003878D01*
X009732Y003779D02*
X009732Y003779D01*
X009732Y003681D02*
X009732Y003681D01*
X009711Y003582D02*
X009753Y003582D01*
X009793Y003484D02*
X009670Y003484D01*
X009592Y003385D02*
X009871Y003385D01*
X010000Y003287D02*
X009464Y003287D01*
X009578Y004371D02*
X009886Y004371D01*
X009799Y004469D02*
X009664Y004469D01*
X009705Y004568D02*
X009759Y004568D01*
X009732Y004666D02*
X009732Y004666D01*
X009732Y004765D02*
X009732Y004765D01*
X009719Y004863D02*
X009745Y004863D01*
X009786Y004962D02*
X009678Y004962D01*
X009610Y005060D02*
X009853Y005060D01*
X009957Y005159D02*
X009507Y005159D01*
X010507Y005159D02*
X010957Y005159D01*
X010853Y005060D02*
X010610Y005060D01*
X010678Y004962D02*
X010786Y004962D01*
X010745Y004863D02*
X010719Y004863D01*
X010732Y004765D02*
X010732Y004765D01*
X010732Y004666D02*
X010732Y004666D01*
X010705Y004568D02*
X010759Y004568D01*
X010799Y004469D02*
X010664Y004469D01*
X010578Y004371D02*
X010886Y004371D01*
X011035Y004272D02*
X010428Y004272D01*
X010472Y004174D02*
X010992Y004174D01*
X010868Y004075D02*
X010596Y004075D01*
X010672Y003976D02*
X010792Y003976D01*
X010751Y003878D02*
X010712Y003878D01*
X010732Y003779D02*
X010732Y003779D01*
X010732Y003681D02*
X010732Y003681D01*
X010711Y003582D02*
X010753Y003582D01*
X010793Y003484D02*
X010670Y003484D01*
X010592Y003385D02*
X010871Y003385D01*
X011000Y003287D02*
X010464Y003287D01*
X011464Y003287D02*
X012500Y003287D01*
X012371Y003385D02*
X011592Y003385D01*
X011670Y003484D02*
X012293Y003484D01*
X012253Y003582D02*
X011711Y003582D01*
X011732Y003681D02*
X012232Y003681D01*
X012232Y003779D02*
X011732Y003779D01*
X011712Y003878D02*
X012251Y003878D01*
X012292Y003976D02*
X011672Y003976D01*
X011596Y004075D02*
X012368Y004075D01*
X012492Y004174D02*
X011472Y004174D01*
X011428Y004272D02*
X012535Y004272D01*
X012386Y004371D02*
X011578Y004371D01*
X011664Y004469D02*
X012299Y004469D01*
X012259Y004568D02*
X011705Y004568D01*
X011732Y004666D02*
X012232Y004666D01*
X012232Y004765D02*
X011732Y004765D01*
X011719Y004863D02*
X012245Y004863D01*
X012247Y004962D02*
X011678Y004962D01*
X011610Y005060D02*
X012149Y005060D01*
X012050Y005159D02*
X011507Y005159D01*
X011982Y006132D02*
X011982Y007482D01*
X012232Y007732D01*
X012162Y007031D02*
X012593Y007031D01*
X012466Y006933D02*
X012162Y006933D01*
X012162Y006834D02*
X012417Y006834D01*
X012402Y006736D02*
X012162Y006736D01*
X012162Y006637D02*
X012414Y006637D01*
X012458Y006539D02*
X012162Y006539D01*
X012162Y006440D02*
X012574Y006440D01*
X012732Y006732D02*
X013232Y006232D01*
X012966Y006243D02*
X012293Y006243D01*
X012239Y006341D02*
X012868Y006341D01*
X012732Y004732D02*
X013232Y004232D01*
X013232Y003232D01*
X012732Y002732D01*
X012964Y003287D02*
X013032Y003287D01*
X013412Y003287D02*
X013460Y003287D01*
X013682Y003287D02*
X013782Y003287D01*
X013782Y003385D02*
X013682Y003385D01*
X013682Y003484D02*
X013782Y003484D01*
X013782Y003582D02*
X013682Y003582D01*
X013682Y003681D02*
X013782Y003681D01*
X013782Y003779D02*
X014732Y003779D01*
X013036Y004174D02*
X012972Y004174D01*
X012937Y004272D02*
X012928Y004272D01*
X009232Y009732D02*
X006732Y007232D01*
X006132Y007732D02*
X006132Y008632D01*
X007232Y009732D01*
X007232Y010732D01*
X007006Y010973D02*
X006940Y010973D01*
X006919Y010952D02*
X007012Y011045D01*
X007062Y011166D01*
X007062Y011297D01*
X007059Y011304D01*
X007306Y011552D01*
X007412Y011657D01*
X007412Y012449D01*
X007419Y012452D01*
X007512Y012545D01*
X007562Y012666D01*
X007562Y012797D01*
X007512Y012919D01*
X007419Y013012D01*
X007321Y013052D01*
X007449Y013052D01*
X007452Y013045D01*
X007545Y012952D01*
X007666Y012902D01*
X007797Y012902D01*
X007919Y012952D01*
X008012Y013045D01*
X008062Y013166D01*
X008062Y013297D01*
X008012Y013419D01*
X007919Y013512D01*
X007797Y013562D01*
X007666Y013562D01*
X007545Y013512D01*
X007452Y013419D01*
X007449Y013412D01*
X005306Y013412D01*
X005157Y013412D01*
X004804Y013059D01*
X004797Y013062D01*
X004666Y013062D01*
X004545Y013012D01*
X004452Y012919D01*
X004402Y012797D01*
X004402Y012666D01*
X004452Y012545D01*
X004545Y012452D01*
X004666Y012402D01*
X004797Y012402D01*
X004919Y012452D01*
X005012Y012545D01*
X005062Y012666D01*
X005062Y012797D01*
X005059Y012804D01*
X005306Y013052D01*
X007142Y013052D01*
X007045Y013012D01*
X006952Y012919D01*
X006902Y012797D01*
X006902Y012666D01*
X006952Y012545D01*
X007045Y012452D01*
X007052Y012449D01*
X007052Y011806D01*
X006804Y011559D01*
X006797Y011562D01*
X006666Y011562D01*
X006545Y011512D01*
X006452Y011419D01*
X006402Y011297D01*
X006402Y011166D01*
X006452Y011045D01*
X006545Y010952D01*
X006666Y010902D01*
X006797Y010902D01*
X006919Y010952D01*
X006934Y010874D02*
X004412Y010874D01*
X004412Y010776D02*
X006902Y010776D01*
X006902Y010677D02*
X004412Y010677D01*
X004412Y010579D02*
X006938Y010579D01*
X006950Y010480D02*
X007017Y010480D01*
X007027Y010382D02*
X007052Y010382D01*
X006732Y010232D02*
X006732Y009732D01*
X006232Y009232D01*
X005732Y009232D01*
X005528Y009495D02*
X004412Y009495D01*
X004412Y009593D02*
X006339Y009593D01*
X006240Y009495D02*
X005935Y009495D01*
X005969Y009002D02*
X006248Y009002D01*
X006149Y008904D02*
X005802Y008904D01*
X005662Y008904D02*
X004814Y008904D01*
X004716Y009002D02*
X005495Y009002D01*
X005429Y009101D02*
X004617Y009101D01*
X004519Y009199D02*
X005402Y009199D01*
X005402Y009298D02*
X004420Y009298D01*
X004412Y009396D02*
X005443Y009396D01*
X004913Y008805D02*
X006051Y008805D01*
X005952Y008707D02*
X005012Y008707D01*
X005110Y008608D02*
X005952Y008608D01*
X005952Y008509D02*
X005421Y008509D01*
X005515Y008411D02*
X005952Y008411D01*
X005952Y008312D02*
X005556Y008312D01*
X005562Y008214D02*
X005952Y008214D01*
X005952Y008115D02*
X005541Y008115D01*
X005706Y008017D02*
X005952Y008017D01*
X005852Y007918D02*
X005812Y007918D01*
X005532Y007732D02*
X004882Y007082D01*
X004882Y005882D01*
X004732Y005732D01*
X004542Y005455D02*
X000732Y005455D01*
X000732Y005553D02*
X004449Y005553D01*
X004408Y005652D02*
X000732Y005652D01*
X000732Y005750D02*
X004402Y005750D01*
X004423Y005849D02*
X000732Y005849D01*
X000732Y005947D02*
X004481Y005947D01*
X004628Y006046D02*
X000732Y006046D01*
X000732Y006144D02*
X004702Y006144D01*
X004702Y006243D02*
X000732Y006243D01*
X000732Y006341D02*
X004702Y006341D01*
X004702Y006440D02*
X000732Y006440D01*
X000732Y006539D02*
X004702Y006539D01*
X004702Y006637D02*
X000732Y006637D01*
X000732Y006736D02*
X004702Y006736D01*
X004702Y006834D02*
X000732Y006834D01*
X000732Y006933D02*
X004702Y006933D01*
X004702Y007031D02*
X000732Y007031D01*
X000732Y007130D02*
X004702Y007130D01*
X004774Y007228D02*
X000732Y007228D01*
X000732Y007327D02*
X004872Y007327D01*
X004971Y007425D02*
X000732Y007425D01*
X000732Y007524D02*
X005069Y007524D01*
X004923Y008115D02*
X002600Y008115D01*
X002732Y008214D02*
X004902Y008214D01*
X004897Y008312D02*
X002801Y008312D01*
X002839Y008411D02*
X004798Y008411D01*
X004700Y008509D02*
X002430Y008509D01*
X002750Y008805D02*
X004404Y008805D01*
X004503Y008707D02*
X002811Y008707D01*
X002843Y008608D02*
X004601Y008608D01*
X004305Y008904D02*
X002638Y008904D01*
X002705Y009002D02*
X004207Y009002D01*
X004108Y009101D02*
X002781Y009101D01*
X002822Y009199D02*
X004052Y009199D01*
X004052Y009298D02*
X002831Y009298D01*
X002829Y009396D02*
X004052Y009396D01*
X004052Y009495D02*
X002789Y009495D01*
X002722Y009593D02*
X004052Y009593D01*
X004052Y009692D02*
X002594Y009692D01*
X002706Y009791D02*
X004052Y009791D01*
X004052Y009889D02*
X002782Y009889D01*
X002822Y009988D02*
X004052Y009988D01*
X004052Y010086D02*
X002831Y010086D01*
X002829Y010185D02*
X004052Y010185D01*
X004052Y010283D02*
X002788Y010283D01*
X002721Y010382D02*
X004052Y010382D01*
X004052Y010480D02*
X002592Y010480D01*
X002707Y010579D02*
X004052Y010579D01*
X004052Y010677D02*
X002782Y010677D01*
X002823Y010776D02*
X004052Y010776D01*
X004052Y010874D02*
X002831Y010874D01*
X002829Y010973D02*
X004052Y010973D01*
X004052Y011072D02*
X002788Y011072D01*
X002720Y011170D02*
X004052Y011170D01*
X004052Y011269D02*
X002590Y011269D01*
X002708Y011367D02*
X004052Y011367D01*
X004031Y011466D02*
X002782Y011466D01*
X002823Y011564D02*
X003944Y011564D01*
X003903Y011663D02*
X002831Y011663D01*
X002828Y011761D02*
X003902Y011761D01*
X003928Y011860D02*
X002787Y011860D01*
X002719Y011958D02*
X003992Y011958D01*
X004155Y012057D02*
X002587Y012057D01*
X002709Y012156D02*
X007052Y012156D01*
X007052Y012254D02*
X002783Y012254D01*
X002824Y012353D02*
X007052Y012353D01*
X007047Y012451D02*
X004917Y012451D01*
X005014Y012550D02*
X006950Y012550D01*
X006909Y012648D02*
X005054Y012648D01*
X005062Y012747D02*
X006902Y012747D01*
X006922Y012845D02*
X005100Y012845D01*
X005198Y012944D02*
X006977Y012944D01*
X007120Y013042D02*
X005297Y013042D01*
X005232Y013232D02*
X004732Y012732D01*
X004547Y012451D02*
X002831Y012451D01*
X002828Y012550D02*
X004450Y012550D01*
X004409Y012648D02*
X002787Y012648D01*
X002719Y012747D02*
X004402Y012747D01*
X004422Y012845D02*
X002585Y012845D01*
X002709Y012944D02*
X004477Y012944D01*
X004619Y013042D02*
X002783Y013042D01*
X002824Y013141D02*
X004886Y013141D01*
X004985Y013240D02*
X002831Y013240D01*
X002827Y013338D02*
X005084Y013338D01*
X005232Y013232D02*
X007732Y013232D01*
X007470Y013437D02*
X002787Y013437D01*
X002718Y013535D02*
X007602Y013535D01*
X007862Y013535D02*
X010746Y013535D01*
X010677Y013437D02*
X007994Y013437D01*
X008045Y013338D02*
X010636Y013338D01*
X010633Y013240D02*
X008062Y013240D01*
X008051Y013141D02*
X010640Y013141D01*
X010680Y013042D02*
X008009Y013042D01*
X007899Y012944D02*
X010754Y012944D01*
X010879Y012845D02*
X007542Y012845D01*
X007562Y012747D02*
X010745Y012747D01*
X010677Y012648D02*
X007554Y012648D01*
X007514Y012550D02*
X010636Y012550D01*
X010633Y012451D02*
X007417Y012451D01*
X007412Y012353D02*
X010640Y012353D01*
X010681Y012254D02*
X007412Y012254D01*
X007412Y012156D02*
X010755Y012156D01*
X010876Y012057D02*
X007412Y012057D01*
X007412Y011958D02*
X010744Y011958D01*
X010676Y011860D02*
X007412Y011860D01*
X007412Y011761D02*
X010635Y011761D01*
X010633Y011663D02*
X007412Y011663D01*
X007319Y011564D02*
X010640Y011564D01*
X010681Y011466D02*
X007220Y011466D01*
X007122Y011367D02*
X010756Y011367D01*
X010874Y011269D02*
X007062Y011269D01*
X007062Y011170D02*
X010743Y011170D01*
X010676Y011072D02*
X007023Y011072D01*
X006732Y011232D02*
X007232Y011732D01*
X007232Y012732D01*
X007344Y013042D02*
X007454Y013042D01*
X007486Y012944D02*
X007565Y012944D01*
X007052Y012057D02*
X004309Y012057D01*
X004472Y011958D02*
X007052Y011958D01*
X007052Y011860D02*
X004536Y011860D01*
X004562Y011761D02*
X007007Y011761D01*
X006908Y011663D02*
X004560Y011663D01*
X004520Y011564D02*
X006810Y011564D01*
X006499Y011466D02*
X004432Y011466D01*
X004412Y011367D02*
X006431Y011367D01*
X006402Y011269D02*
X004412Y011269D01*
X004412Y011170D02*
X006402Y011170D01*
X006441Y011072D02*
X004412Y011072D01*
X004412Y010973D02*
X006524Y010973D01*
X006514Y010480D02*
X004412Y010480D01*
X004412Y010382D02*
X006437Y010382D01*
X006402Y010283D02*
X004412Y010283D01*
X004412Y010185D02*
X006402Y010185D01*
X006435Y010086D02*
X004412Y010086D01*
X004412Y009988D02*
X006509Y009988D01*
X006552Y009889D02*
X004412Y009889D01*
X004412Y009791D02*
X006536Y009791D01*
X006437Y009692D02*
X004412Y009692D01*
X004232Y009232D02*
X004232Y011732D01*
X002710Y013732D02*
X010753Y013732D01*
X010680Y013831D02*
X002784Y013831D01*
X002824Y013929D02*
X010639Y013929D01*
X010633Y014028D02*
X002831Y014028D01*
X002827Y014126D02*
X010637Y014126D01*
X010677Y014225D02*
X002786Y014225D01*
X002717Y014324D02*
X010747Y014324D01*
X010883Y014422D02*
X002581Y014422D01*
X002711Y014521D02*
X010752Y014521D01*
X010680Y014619D02*
X002784Y014619D01*
X002825Y014718D02*
X010639Y014718D01*
X010633Y014816D02*
X002831Y014816D01*
X002827Y014915D02*
X010637Y014915D01*
X010678Y015013D02*
X002786Y015013D01*
X002716Y015112D02*
X010748Y015112D01*
X010885Y015210D02*
X002578Y015210D01*
X002712Y015309D02*
X010751Y015309D01*
X010679Y015407D02*
X002784Y015407D01*
X002825Y015506D02*
X010638Y015506D01*
X010633Y015605D02*
X002831Y015605D01*
X002826Y015703D02*
X010637Y015703D01*
X010678Y015802D02*
X002785Y015802D01*
X002715Y015900D02*
X010749Y015900D01*
X010888Y015999D02*
X002576Y015999D01*
X001395Y015412D02*
X001395Y015412D01*
X001069Y015412D02*
X001069Y015412D01*
X002583Y013634D02*
X010881Y013634D01*
X010635Y010973D02*
X007457Y010973D01*
X007530Y010874D02*
X010633Y010874D01*
X010641Y010776D02*
X007562Y010776D01*
X007562Y010677D02*
X010682Y010677D01*
X010757Y010579D02*
X007526Y010579D01*
X007447Y010480D02*
X010872Y010480D01*
X010742Y010382D02*
X007412Y010382D01*
X007412Y010283D02*
X010676Y010283D01*
X010635Y010185D02*
X007412Y010185D01*
X009443Y009988D02*
X009521Y009988D01*
X006009Y007425D02*
X005655Y007425D01*
X005791Y007524D02*
X005873Y007524D01*
X005232Y008232D02*
X004232Y009232D01*
X004957Y005159D02*
X000732Y005159D01*
X000732Y005060D02*
X004853Y005060D01*
X004786Y004962D02*
X000732Y004962D01*
X000732Y004863D02*
X004745Y004863D01*
X004732Y004765D02*
X000732Y004765D01*
X000732Y004666D02*
X004732Y004666D01*
X004759Y004568D02*
X000732Y004568D01*
X000732Y004469D02*
X004799Y004469D01*
X004886Y004371D02*
X000732Y004371D01*
X000732Y004272D02*
X005035Y004272D01*
X004955Y004174D02*
X000732Y004174D01*
X000732Y004075D02*
X004840Y004075D01*
X004773Y003976D02*
X000732Y003976D01*
X000732Y003878D02*
X004733Y003878D01*
X004713Y003682D02*
X004725Y003610D01*
X004750Y003532D01*
X004787Y003459D01*
X004835Y003393D01*
X004893Y003335D01*
X004959Y003287D01*
X005032Y003250D01*
X005110Y003225D01*
X005182Y003213D01*
X005182Y003682D01*
X004713Y003682D01*
X004713Y003681D02*
X000732Y003681D01*
X000732Y003779D02*
X005182Y003779D01*
X005182Y003681D02*
X005282Y003681D01*
X005282Y003582D02*
X005182Y003582D01*
X005182Y003484D02*
X005282Y003484D01*
X005282Y003385D02*
X005182Y003385D01*
X005182Y003287D02*
X005282Y003287D01*
X004960Y003287D02*
X004011Y003287D01*
X004734Y003582D02*
X000732Y003582D01*
X000732Y003484D02*
X004775Y003484D01*
X004843Y003385D02*
X000732Y003385D01*
X000732Y003287D02*
X002331Y003287D01*
X002217Y003188D02*
X000732Y003188D01*
X000732Y003090D02*
X002155Y003090D01*
X002118Y002991D02*
X000732Y002991D01*
X002563Y002991D02*
X002601Y002991D01*
X002601Y002892D02*
X003127Y002892D01*
X003127Y002794D02*
X003049Y002794D01*
X003020Y002695D02*
X003127Y002695D01*
X003127Y002597D02*
X002962Y002597D01*
X002862Y002498D02*
X003131Y002498D01*
X003127Y002991D02*
X003045Y002991D01*
X003009Y003090D02*
X003127Y003090D01*
X003127Y003188D02*
X002946Y003188D01*
X002833Y003287D02*
X003153Y003287D01*
X002601Y003287D02*
X002563Y003287D01*
X002563Y003188D02*
X002601Y003188D01*
X002601Y003090D02*
X002563Y003090D01*
D16*
X004232Y001982D03*
X006232Y001082D03*
X007232Y001082D03*
X004732Y005732D03*
X005532Y007732D03*
X005232Y008232D03*
X006132Y007732D03*
X005732Y009232D03*
X006232Y010232D03*
X006732Y010232D03*
X007232Y010732D03*
X006732Y011232D03*
X007232Y012732D03*
X007732Y013232D03*
X005732Y015732D03*
X004732Y012732D03*
X004232Y011732D03*
X003732Y008232D03*
X001232Y008232D03*
X009032Y010382D03*
X009232Y009732D03*
X009732Y009732D03*
X009732Y008732D03*
X011982Y006132D03*
X012732Y006732D03*
X012732Y007732D03*
X012232Y008232D03*
X012732Y002732D03*
M02*
