G75*
G70*
%OFA0B0*%
%FSLAX24Y24*%
%IPPOS*%
%LPD*%
%AMOC8*
5,1,8,0,0,1.08239X$1,22.5*
%
%ADD10C,0.0000*%
%ADD11C,0.0600*%
%ADD12R,0.0740X0.0740*%
%ADD13C,0.0740*%
%ADD14R,0.0709X0.0630*%
%ADD15R,0.0500X0.0220*%
%ADD16R,0.0220X0.0500*%
%ADD17R,0.0630X0.0709*%
%ADD18R,0.0650X0.0650*%
%ADD19C,0.0650*%
%ADD20R,0.0551X0.0472*%
%ADD21R,0.0472X0.0551*%
%ADD22R,0.0480X0.0880*%
%ADD23R,0.1417X0.0866*%
%ADD24C,0.0100*%
%ADD25C,0.0400*%
D10*
X000232Y000232D02*
X000232Y017232D01*
X015232Y017232D01*
X015224Y000232D01*
X000232Y000232D01*
X000582Y001232D02*
X000584Y001282D01*
X000590Y001332D01*
X000600Y001382D01*
X000613Y001430D01*
X000630Y001478D01*
X000651Y001524D01*
X000675Y001568D01*
X000703Y001610D01*
X000734Y001650D01*
X000768Y001687D01*
X000805Y001722D01*
X000844Y001753D01*
X000885Y001782D01*
X000929Y001807D01*
X000975Y001829D01*
X001022Y001847D01*
X001070Y001861D01*
X001119Y001872D01*
X001169Y001879D01*
X001219Y001882D01*
X001270Y001881D01*
X001320Y001876D01*
X001370Y001867D01*
X001418Y001855D01*
X001466Y001838D01*
X001512Y001818D01*
X001557Y001795D01*
X001600Y001768D01*
X001640Y001738D01*
X001678Y001705D01*
X001713Y001669D01*
X001746Y001630D01*
X001775Y001589D01*
X001801Y001546D01*
X001824Y001501D01*
X001843Y001454D01*
X001858Y001406D01*
X001870Y001357D01*
X001878Y001307D01*
X001882Y001257D01*
X001882Y001207D01*
X001878Y001157D01*
X001870Y001107D01*
X001858Y001058D01*
X001843Y001010D01*
X001824Y000963D01*
X001801Y000918D01*
X001775Y000875D01*
X001746Y000834D01*
X001713Y000795D01*
X001678Y000759D01*
X001640Y000726D01*
X001600Y000696D01*
X001557Y000669D01*
X001512Y000646D01*
X001466Y000626D01*
X001418Y000609D01*
X001370Y000597D01*
X001320Y000588D01*
X001270Y000583D01*
X001219Y000582D01*
X001169Y000585D01*
X001119Y000592D01*
X001070Y000603D01*
X001022Y000617D01*
X000975Y000635D01*
X000929Y000657D01*
X000885Y000682D01*
X000844Y000711D01*
X000805Y000742D01*
X000768Y000777D01*
X000734Y000814D01*
X000703Y000854D01*
X000675Y000896D01*
X000651Y000940D01*
X000630Y000986D01*
X000613Y001034D01*
X000600Y001082D01*
X000590Y001132D01*
X000584Y001182D01*
X000582Y001232D01*
X000582Y016232D02*
X000584Y016282D01*
X000590Y016332D01*
X000600Y016382D01*
X000613Y016430D01*
X000630Y016478D01*
X000651Y016524D01*
X000675Y016568D01*
X000703Y016610D01*
X000734Y016650D01*
X000768Y016687D01*
X000805Y016722D01*
X000844Y016753D01*
X000885Y016782D01*
X000929Y016807D01*
X000975Y016829D01*
X001022Y016847D01*
X001070Y016861D01*
X001119Y016872D01*
X001169Y016879D01*
X001219Y016882D01*
X001270Y016881D01*
X001320Y016876D01*
X001370Y016867D01*
X001418Y016855D01*
X001466Y016838D01*
X001512Y016818D01*
X001557Y016795D01*
X001600Y016768D01*
X001640Y016738D01*
X001678Y016705D01*
X001713Y016669D01*
X001746Y016630D01*
X001775Y016589D01*
X001801Y016546D01*
X001824Y016501D01*
X001843Y016454D01*
X001858Y016406D01*
X001870Y016357D01*
X001878Y016307D01*
X001882Y016257D01*
X001882Y016207D01*
X001878Y016157D01*
X001870Y016107D01*
X001858Y016058D01*
X001843Y016010D01*
X001824Y015963D01*
X001801Y015918D01*
X001775Y015875D01*
X001746Y015834D01*
X001713Y015795D01*
X001678Y015759D01*
X001640Y015726D01*
X001600Y015696D01*
X001557Y015669D01*
X001512Y015646D01*
X001466Y015626D01*
X001418Y015609D01*
X001370Y015597D01*
X001320Y015588D01*
X001270Y015583D01*
X001219Y015582D01*
X001169Y015585D01*
X001119Y015592D01*
X001070Y015603D01*
X001022Y015617D01*
X000975Y015635D01*
X000929Y015657D01*
X000885Y015682D01*
X000844Y015711D01*
X000805Y015742D01*
X000768Y015777D01*
X000734Y015814D01*
X000703Y015854D01*
X000675Y015896D01*
X000651Y015940D01*
X000630Y015986D01*
X000613Y016034D01*
X000600Y016082D01*
X000590Y016132D01*
X000584Y016182D01*
X000582Y016232D01*
X013582Y016232D02*
X013584Y016282D01*
X013590Y016332D01*
X013600Y016382D01*
X013613Y016430D01*
X013630Y016478D01*
X013651Y016524D01*
X013675Y016568D01*
X013703Y016610D01*
X013734Y016650D01*
X013768Y016687D01*
X013805Y016722D01*
X013844Y016753D01*
X013885Y016782D01*
X013929Y016807D01*
X013975Y016829D01*
X014022Y016847D01*
X014070Y016861D01*
X014119Y016872D01*
X014169Y016879D01*
X014219Y016882D01*
X014270Y016881D01*
X014320Y016876D01*
X014370Y016867D01*
X014418Y016855D01*
X014466Y016838D01*
X014512Y016818D01*
X014557Y016795D01*
X014600Y016768D01*
X014640Y016738D01*
X014678Y016705D01*
X014713Y016669D01*
X014746Y016630D01*
X014775Y016589D01*
X014801Y016546D01*
X014824Y016501D01*
X014843Y016454D01*
X014858Y016406D01*
X014870Y016357D01*
X014878Y016307D01*
X014882Y016257D01*
X014882Y016207D01*
X014878Y016157D01*
X014870Y016107D01*
X014858Y016058D01*
X014843Y016010D01*
X014824Y015963D01*
X014801Y015918D01*
X014775Y015875D01*
X014746Y015834D01*
X014713Y015795D01*
X014678Y015759D01*
X014640Y015726D01*
X014600Y015696D01*
X014557Y015669D01*
X014512Y015646D01*
X014466Y015626D01*
X014418Y015609D01*
X014370Y015597D01*
X014320Y015588D01*
X014270Y015583D01*
X014219Y015582D01*
X014169Y015585D01*
X014119Y015592D01*
X014070Y015603D01*
X014022Y015617D01*
X013975Y015635D01*
X013929Y015657D01*
X013885Y015682D01*
X013844Y015711D01*
X013805Y015742D01*
X013768Y015777D01*
X013734Y015814D01*
X013703Y015854D01*
X013675Y015896D01*
X013651Y015940D01*
X013630Y015986D01*
X013613Y016034D01*
X013600Y016082D01*
X013590Y016132D01*
X013584Y016182D01*
X013582Y016232D01*
X013582Y001232D02*
X013584Y001282D01*
X013590Y001332D01*
X013600Y001382D01*
X013613Y001430D01*
X013630Y001478D01*
X013651Y001524D01*
X013675Y001568D01*
X013703Y001610D01*
X013734Y001650D01*
X013768Y001687D01*
X013805Y001722D01*
X013844Y001753D01*
X013885Y001782D01*
X013929Y001807D01*
X013975Y001829D01*
X014022Y001847D01*
X014070Y001861D01*
X014119Y001872D01*
X014169Y001879D01*
X014219Y001882D01*
X014270Y001881D01*
X014320Y001876D01*
X014370Y001867D01*
X014418Y001855D01*
X014466Y001838D01*
X014512Y001818D01*
X014557Y001795D01*
X014600Y001768D01*
X014640Y001738D01*
X014678Y001705D01*
X014713Y001669D01*
X014746Y001630D01*
X014775Y001589D01*
X014801Y001546D01*
X014824Y001501D01*
X014843Y001454D01*
X014858Y001406D01*
X014870Y001357D01*
X014878Y001307D01*
X014882Y001257D01*
X014882Y001207D01*
X014878Y001157D01*
X014870Y001107D01*
X014858Y001058D01*
X014843Y001010D01*
X014824Y000963D01*
X014801Y000918D01*
X014775Y000875D01*
X014746Y000834D01*
X014713Y000795D01*
X014678Y000759D01*
X014640Y000726D01*
X014600Y000696D01*
X014557Y000669D01*
X014512Y000646D01*
X014466Y000626D01*
X014418Y000609D01*
X014370Y000597D01*
X014320Y000588D01*
X014270Y000583D01*
X014219Y000582D01*
X014169Y000585D01*
X014119Y000592D01*
X014070Y000603D01*
X014022Y000617D01*
X013975Y000635D01*
X013929Y000657D01*
X013885Y000682D01*
X013844Y000711D01*
X013805Y000742D01*
X013768Y000777D01*
X013734Y000814D01*
X013703Y000854D01*
X013675Y000896D01*
X013651Y000940D01*
X013630Y000986D01*
X013613Y001034D01*
X013600Y001082D01*
X013590Y001132D01*
X013584Y001182D01*
X013582Y001232D01*
D11*
X011063Y008519D03*
X011063Y009307D03*
X011063Y010094D03*
X011063Y010881D03*
X011063Y011669D03*
X011063Y012456D03*
X011063Y013244D03*
X011063Y014031D03*
X011063Y014818D03*
X011063Y015606D03*
X002401Y015606D03*
X002401Y014818D03*
X002401Y014031D03*
X002401Y013244D03*
X002401Y012456D03*
X002401Y011669D03*
X002401Y010881D03*
X002401Y010094D03*
X002401Y009307D03*
X002401Y008519D03*
D12*
X012732Y005732D03*
D13*
X012732Y004732D03*
X012732Y003732D03*
X013732Y003732D03*
X013732Y004732D03*
X013732Y005732D03*
X011232Y004732D03*
X011232Y003732D03*
X010232Y003732D03*
X010232Y004732D03*
X009232Y004732D03*
X009232Y003732D03*
X008232Y003732D03*
X008232Y004732D03*
X007232Y004732D03*
X007232Y003732D03*
X006232Y003732D03*
X006232Y004732D03*
X005232Y004732D03*
X005232Y003732D03*
D14*
X005232Y002783D03*
X005232Y001681D03*
X006232Y001681D03*
X007232Y001681D03*
X007232Y002783D03*
X006232Y002783D03*
X008232Y002783D03*
X009232Y002783D03*
X010232Y002783D03*
X010232Y001681D03*
X009232Y001681D03*
X008232Y001681D03*
X011232Y001681D03*
X011232Y002783D03*
X011232Y005681D03*
X011232Y006783D03*
X010232Y006783D03*
X009232Y006783D03*
X008232Y006783D03*
X008232Y005681D03*
X009232Y005681D03*
X010232Y005681D03*
X007232Y005681D03*
X006232Y005681D03*
X006232Y006783D03*
X007232Y006783D03*
X003732Y008931D03*
X003732Y010033D03*
X001232Y011181D03*
X001232Y012283D03*
X001232Y013181D03*
X001232Y014283D03*
X006582Y014633D03*
X006582Y013531D03*
X012232Y012283D03*
X012232Y011181D03*
D15*
X008422Y011334D03*
X008422Y011019D03*
X008422Y010704D03*
X008422Y010389D03*
X008422Y010074D03*
X008422Y009759D03*
X008422Y009444D03*
X008422Y009129D03*
X005042Y009129D03*
X005042Y009444D03*
X005042Y009759D03*
X005042Y010074D03*
X005042Y010389D03*
X005042Y010704D03*
X005042Y011019D03*
X005042Y011334D03*
D16*
X005629Y011922D03*
X005944Y011922D03*
X006259Y011922D03*
X006574Y011922D03*
X006889Y011922D03*
X007204Y011922D03*
X007519Y011922D03*
X007834Y011922D03*
X007834Y008542D03*
X007519Y008542D03*
X007204Y008542D03*
X006889Y008542D03*
X006574Y008542D03*
X006259Y008542D03*
X005944Y008542D03*
X005629Y008542D03*
D17*
X004783Y015582D03*
X003681Y015582D03*
D18*
X003582Y002882D03*
D19*
X002582Y002882D03*
D20*
X001232Y009141D03*
X001232Y010322D03*
X012232Y010322D03*
X012232Y009141D03*
D21*
X004322Y001232D03*
X003141Y001232D03*
D22*
X002732Y004512D03*
X003642Y004512D03*
X001822Y004512D03*
D23*
X002732Y006952D03*
D24*
X002732Y007732D02*
X001232Y007732D01*
X000732Y007232D01*
X000732Y014232D01*
X000732Y014732D01*
X001232Y015232D01*
X001732Y015232D01*
X002106Y015606D01*
X002401Y015606D01*
X003657Y015606D01*
X003681Y015582D01*
X003681Y015283D01*
X004232Y014732D01*
X006483Y014732D01*
X006582Y014633D01*
X007283Y014232D02*
X006582Y013531D01*
X006574Y013523D01*
X006574Y011922D01*
X006259Y011922D02*
X006259Y012704D01*
X005232Y013732D01*
X004732Y013732D01*
X003645Y014818D01*
X002401Y014818D01*
X002401Y014031D02*
X003933Y014031D01*
X004732Y013232D01*
X005232Y013232D01*
X005944Y012519D01*
X005944Y011922D01*
X005629Y011922D02*
X005542Y011922D01*
X004732Y012732D01*
X004232Y011732D02*
X003507Y012456D01*
X002401Y012456D01*
X001677Y013181D01*
X001232Y013181D01*
X001232Y012283D02*
X001846Y011669D01*
X002401Y011669D01*
X003269Y011019D02*
X003032Y010782D01*
X003032Y009532D01*
X002807Y009307D01*
X002401Y009307D01*
X003132Y009282D02*
X003132Y008132D01*
X002732Y007732D01*
X003732Y008232D02*
X003732Y008931D01*
X004332Y009232D02*
X004332Y007832D01*
X005432Y006732D01*
X005432Y005432D01*
X005732Y005132D01*
X005732Y002382D01*
X005882Y002232D01*
X009681Y002232D01*
X010232Y001681D01*
X009532Y001132D02*
X011732Y001132D01*
X012232Y001632D01*
X012232Y002232D01*
X012732Y002732D01*
X013232Y002232D02*
X013232Y005232D01*
X012732Y005732D01*
X013232Y006232D01*
X013232Y006732D01*
X012732Y007232D01*
X012232Y007232D01*
X011732Y007732D01*
X010732Y007732D01*
X010232Y008232D01*
X008232Y008232D01*
X007922Y008542D01*
X007834Y008542D01*
X007519Y008542D02*
X007519Y008094D01*
X007632Y007982D01*
X010033Y007982D01*
X011232Y006783D01*
X012681Y006783D01*
X012732Y006732D01*
X011982Y006132D02*
X011982Y004482D01*
X012732Y003732D01*
X011982Y003982D02*
X011732Y004232D01*
X006932Y004232D01*
X006732Y004432D01*
X006732Y006082D01*
X006582Y006232D01*
X005882Y006232D01*
X005682Y006432D01*
X005682Y006782D01*
X004532Y007932D01*
X004532Y008982D01*
X004679Y009129D01*
X005042Y009129D01*
X005042Y009444D02*
X004544Y009444D01*
X004332Y009232D01*
X004654Y009759D02*
X004382Y010032D01*
X004232Y010032D01*
X004382Y010032D02*
X004383Y010033D01*
X004739Y010389D01*
X005042Y010389D01*
X005042Y010074D02*
X006074Y010074D01*
X006232Y010232D01*
X005759Y010704D01*
X005042Y010704D01*
X005042Y011019D02*
X003269Y011019D01*
X003732Y010033D02*
X003732Y009882D01*
X003132Y009282D01*
X003732Y010033D02*
X004383Y010033D01*
X004654Y009759D02*
X005042Y009759D01*
X006204Y009759D01*
X006519Y009444D01*
X007232Y009444D01*
X007862Y010074D01*
X008422Y010074D01*
X008422Y010389D02*
X009024Y010389D01*
X009032Y010382D01*
X009432Y009932D02*
X009232Y009732D01*
X009432Y009932D02*
X009432Y011482D01*
X008992Y011922D01*
X007834Y011922D01*
X007519Y011922D02*
X007519Y012269D01*
X007732Y012482D01*
X008982Y012482D01*
X009732Y011732D01*
X009732Y009732D01*
X010232Y009732D02*
X010232Y012232D01*
X009232Y013232D01*
X007732Y013232D01*
X007732Y013732D02*
X009787Y013732D01*
X011063Y012456D01*
X011063Y011669D02*
X011618Y011669D01*
X012232Y012283D01*
X012232Y011181D02*
X012232Y010322D01*
X012232Y009141D02*
X012232Y008232D01*
X012732Y007732D02*
X012732Y014732D01*
X011232Y016232D01*
X010732Y016232D01*
X010232Y015732D01*
X010232Y014732D01*
X009732Y014232D01*
X007283Y014232D01*
X007732Y013732D02*
X007232Y013232D01*
X007232Y012732D01*
X007834Y011334D02*
X007232Y010732D01*
X007732Y010732D02*
X007732Y010482D01*
X007482Y010232D01*
X006732Y010232D01*
X007232Y009444D02*
X008422Y009444D01*
X008422Y009129D02*
X009334Y009129D01*
X009732Y008732D01*
X009682Y007782D02*
X010232Y007232D01*
X010232Y006783D01*
X009682Y007782D02*
X007332Y007782D01*
X007204Y007909D01*
X007204Y008542D01*
X006889Y008542D02*
X006889Y007774D01*
X007082Y007582D01*
X008882Y007582D01*
X009232Y007232D01*
X009232Y006783D01*
X008232Y006783D02*
X008232Y007232D01*
X008082Y007382D01*
X006982Y007382D01*
X006574Y007789D01*
X006574Y008542D01*
X006259Y008542D02*
X006259Y008109D01*
X006232Y008082D01*
X005882Y008082D01*
X005532Y007732D01*
X005232Y008232D02*
X005542Y008542D01*
X005629Y008542D01*
X005232Y008732D02*
X004882Y008732D01*
X004732Y008582D01*
X004732Y008032D01*
X005532Y007232D01*
X005783Y007232D01*
X006232Y006783D01*
X006181Y006783D01*
X006832Y007132D02*
X006883Y007132D01*
X007232Y006783D01*
X007081Y006783D01*
X006832Y007132D02*
X006232Y007732D01*
X006132Y007732D01*
X005232Y008732D02*
X005732Y009232D01*
X006732Y011232D02*
X006629Y011334D01*
X005042Y011334D01*
X007732Y010732D02*
X008019Y011019D01*
X008422Y011019D01*
X008422Y011334D02*
X007834Y011334D01*
X010232Y009732D02*
X010657Y009307D01*
X011063Y009307D01*
X011232Y005681D02*
X011232Y004732D01*
X011982Y003982D02*
X011982Y002182D01*
X011481Y001681D01*
X011232Y001681D01*
X011932Y000932D02*
X013232Y002232D01*
X012232Y000732D02*
X014732Y003232D01*
X014732Y005232D01*
X014232Y005732D01*
X013732Y005732D01*
X011232Y003732D02*
X011232Y002783D01*
X010232Y002783D02*
X010232Y003732D01*
X010232Y004732D02*
X010232Y005681D01*
X009232Y005681D02*
X009232Y004732D01*
X009232Y003732D02*
X009232Y002783D01*
X008232Y002783D02*
X008232Y003732D01*
X008232Y004732D02*
X008232Y005681D01*
X007232Y005681D02*
X007232Y004732D01*
X007232Y003732D02*
X007232Y002783D01*
X006232Y002783D02*
X006232Y003732D01*
X006232Y004732D02*
X006232Y005681D01*
X005232Y006232D02*
X005232Y004732D01*
X004732Y005732D02*
X004732Y003232D01*
X005181Y002783D01*
X005232Y002783D01*
X005232Y001681D02*
X004783Y001232D01*
X004322Y001232D01*
X004232Y001982D02*
X003732Y001982D01*
X003141Y001391D01*
X003141Y001232D01*
X003232Y001232D01*
X002732Y000732D02*
X002232Y001232D01*
X002232Y001732D01*
X002732Y002232D01*
X003232Y002232D01*
X003582Y002582D01*
X003582Y002882D01*
X002732Y003732D01*
X002732Y004512D01*
X003642Y004512D02*
X003642Y006142D01*
X004232Y006732D01*
X004732Y006732D01*
X005232Y006232D01*
X002582Y002882D02*
X001822Y003642D01*
X001822Y004512D01*
X000732Y003232D02*
X002232Y001732D01*
X002732Y000732D02*
X012232Y000732D01*
X011932Y000932D02*
X008482Y000932D01*
X008232Y001182D01*
X008232Y001681D01*
X009232Y001681D02*
X009232Y001432D01*
X009532Y001132D01*
X007232Y001082D02*
X007232Y001681D01*
X006232Y001681D02*
X006232Y001082D01*
X000732Y003232D02*
X000732Y007232D01*
X001232Y008232D02*
X001232Y009141D01*
X001232Y010322D02*
X001232Y011181D01*
X000732Y014232D02*
X000783Y014283D01*
X001232Y014283D01*
X004783Y015582D02*
X005582Y015582D01*
X005732Y015732D01*
D25*
X005732Y015732D03*
X007732Y013232D03*
X007232Y012732D03*
X006732Y011232D03*
X007232Y010732D03*
X006732Y010232D03*
X006232Y010232D03*
X005732Y009232D03*
X005232Y008232D03*
X005532Y007732D03*
X006132Y007732D03*
X004732Y005732D03*
X003732Y008232D03*
X001232Y008232D03*
X004232Y011732D03*
X004732Y012732D03*
X009032Y010382D03*
X009232Y009732D03*
X009732Y009732D03*
X009732Y008732D03*
X011982Y006132D03*
X012732Y006732D03*
X012732Y007732D03*
X012232Y008232D03*
X012732Y002732D03*
X007232Y001082D03*
X006232Y001082D03*
X004232Y001982D03*
M02*
