G75*
G70*
%OFA0B0*%
%FSLAX24Y24*%
%IPPOS*%
%LPD*%
%AMOC8*
5,1,8,0,0,1.08239X$1,22.5*
%
%ADD10C,0.0680*%
%ADD11R,0.0820X0.0820*%
%ADD12C,0.0820*%
%ADD13R,0.0730X0.0730*%
%ADD14C,0.0730*%
%ADD15C,0.1380*%
D10*
X002401Y008519D03*
X002401Y009307D03*
X002401Y010094D03*
X002401Y010881D03*
X002401Y011669D03*
X002401Y012456D03*
X002401Y013244D03*
X002401Y014031D03*
X002401Y014818D03*
X002401Y015606D03*
X011063Y015606D03*
X011063Y014818D03*
X011063Y014031D03*
X011063Y013244D03*
X011063Y012456D03*
X011063Y011669D03*
X011063Y010881D03*
X011063Y010094D03*
X011063Y009307D03*
X011063Y008519D03*
D11*
X012732Y005732D03*
D12*
X012732Y004732D03*
X012732Y003732D03*
X013732Y003732D03*
X013732Y004732D03*
X013732Y005732D03*
X011232Y004732D03*
X011232Y003732D03*
X010232Y003732D03*
X010232Y004732D03*
X009232Y004732D03*
X009232Y003732D03*
X008232Y003732D03*
X008232Y004732D03*
X007232Y004732D03*
X007232Y003732D03*
X006232Y003732D03*
X006232Y004732D03*
X005232Y004732D03*
X005232Y003732D03*
D13*
X003582Y002882D03*
D14*
X002582Y002882D03*
D15*
X001232Y001232D03*
X001232Y016232D03*
X014232Y016232D03*
X014232Y001232D03*
M02*
