G75*
G70*
%OFA0B0*%
%FSLAX24Y24*%
%IPPOS*%
%LPD*%
%AMOC8*
5,1,8,0,0,1.08239X$1,22.5*
%
%ADD10C,0.0060*%
%ADD11C,0.0050*%
%ADD12C,0.0080*%
%ADD13C,0.0040*%
D10*
X005352Y008852D02*
X005352Y011472D01*
X005492Y011612D01*
X008112Y011612D01*
X008112Y008852D01*
X005352Y008852D01*
X005511Y011312D02*
X005513Y011335D01*
X005519Y011358D01*
X005528Y011379D01*
X005541Y011399D01*
X005557Y011416D01*
X005575Y011430D01*
X005595Y011441D01*
X005617Y011449D01*
X005640Y011453D01*
X005664Y011453D01*
X005687Y011449D01*
X005709Y011441D01*
X005729Y011430D01*
X005747Y011416D01*
X005763Y011399D01*
X005776Y011379D01*
X005785Y011358D01*
X005791Y011335D01*
X005793Y011312D01*
X005791Y011289D01*
X005785Y011266D01*
X005776Y011245D01*
X005763Y011225D01*
X005747Y011208D01*
X005729Y011194D01*
X005709Y011183D01*
X005687Y011175D01*
X005664Y011171D01*
X005640Y011171D01*
X005617Y011175D01*
X005595Y011183D01*
X005575Y011194D01*
X005557Y011208D01*
X005541Y011225D01*
X005528Y011245D01*
X005519Y011266D01*
X005513Y011289D01*
X005511Y011312D01*
X013505Y008687D02*
X013562Y008687D01*
X013675Y008687D02*
X013902Y008687D01*
X013902Y008630D02*
X013902Y008744D01*
X013902Y008876D02*
X013675Y008876D01*
X013675Y008989D02*
X013675Y009046D01*
X013675Y008989D02*
X013788Y008876D01*
X013675Y008687D02*
X013675Y008630D01*
X013562Y008489D02*
X013902Y008489D01*
X013788Y008375D01*
X013902Y008262D01*
X013562Y008262D01*
X013732Y009183D02*
X013675Y009239D01*
X013675Y009353D01*
X013732Y009409D01*
X013788Y009409D01*
X013788Y009183D01*
X013732Y009183D02*
X013845Y009183D01*
X013902Y009239D01*
X013902Y009353D01*
X013902Y009551D02*
X013902Y009664D01*
X013902Y009608D02*
X013562Y009608D01*
X013562Y009551D01*
X013732Y009796D02*
X013675Y009853D01*
X013675Y009966D01*
X013732Y010023D01*
X013788Y010023D01*
X013788Y009796D01*
X013732Y009796D02*
X013845Y009796D01*
X013902Y009853D01*
X013902Y009966D01*
X013902Y010165D02*
X013902Y010335D01*
X013845Y010391D01*
X013788Y010335D01*
X013788Y010221D01*
X013732Y010165D01*
X013675Y010221D01*
X013675Y010391D01*
X013732Y010533D02*
X013675Y010590D01*
X013675Y010760D01*
X013788Y010703D02*
X013788Y010590D01*
X013732Y010533D01*
X013902Y010533D02*
X013902Y010703D01*
X013845Y010760D01*
X013788Y010703D01*
X013845Y011270D02*
X013902Y011326D01*
X013902Y011440D01*
X013845Y011496D01*
X013788Y011496D01*
X013732Y011440D01*
X013732Y011326D01*
X013675Y011270D01*
X013618Y011270D01*
X013562Y011326D01*
X013562Y011440D01*
X013618Y011496D01*
X013732Y011638D02*
X013845Y011638D01*
X013902Y011695D01*
X013902Y011865D01*
X013845Y012006D02*
X013788Y012063D01*
X013788Y012233D01*
X013732Y012233D02*
X013902Y012233D01*
X013902Y012063D01*
X013845Y012006D01*
X013675Y012063D02*
X013675Y012176D01*
X013732Y012233D01*
X013902Y012374D02*
X013902Y012488D01*
X013902Y012431D02*
X013562Y012431D01*
X013562Y012374D01*
X013732Y012620D02*
X013675Y012677D01*
X013675Y012790D01*
X013732Y012847D01*
X013788Y012847D01*
X013788Y012620D01*
X013732Y012620D02*
X013845Y012620D01*
X013902Y012677D01*
X013902Y012790D01*
X013788Y013357D02*
X013562Y013357D01*
X013788Y013357D02*
X013902Y013470D01*
X013788Y013583D01*
X013562Y013583D01*
X013675Y013725D02*
X013562Y013838D01*
X013902Y013838D01*
X013902Y013725D02*
X013902Y013952D01*
X013902Y014093D02*
X013902Y014150D01*
X013845Y014150D01*
X013845Y014093D01*
X013902Y014093D01*
X013845Y014277D02*
X013618Y014504D01*
X013845Y014504D01*
X013902Y014447D01*
X013902Y014334D01*
X013845Y014277D01*
X013618Y014277D01*
X013562Y014334D01*
X013562Y014447D01*
X013618Y014504D01*
X014475Y012974D02*
X014475Y012918D01*
X014588Y012804D01*
X014475Y012804D02*
X014702Y012804D01*
X014588Y012663D02*
X014588Y012436D01*
X014532Y012436D02*
X014475Y012493D01*
X014475Y012606D01*
X014532Y012663D01*
X014588Y012663D01*
X014702Y012606D02*
X014702Y012493D01*
X014645Y012436D01*
X014532Y012436D01*
X014532Y012294D02*
X014702Y012294D01*
X014532Y012294D02*
X014475Y012238D01*
X014475Y012068D01*
X014702Y012068D01*
X014475Y011931D02*
X014475Y011874D01*
X014588Y011761D01*
X014475Y011761D02*
X014702Y011761D01*
X014588Y011619D02*
X014588Y011392D01*
X014532Y011392D02*
X014475Y011449D01*
X014475Y011563D01*
X014532Y011619D01*
X014588Y011619D01*
X014702Y011563D02*
X014702Y011449D01*
X014645Y011392D01*
X014532Y011392D01*
X014362Y011251D02*
X014362Y011024D01*
X014702Y011024D01*
X014532Y011024D02*
X014532Y011138D01*
X014532Y010514D02*
X014588Y010514D01*
X014588Y010287D01*
X014532Y010287D02*
X014475Y010344D01*
X014475Y010458D01*
X014532Y010514D01*
X014702Y010458D02*
X014702Y010344D01*
X014645Y010287D01*
X014532Y010287D01*
X014532Y010146D02*
X014475Y010089D01*
X014475Y009976D01*
X014532Y009919D01*
X014645Y009919D01*
X014702Y009976D01*
X014702Y010089D01*
X014645Y010146D01*
X014532Y010146D01*
X014362Y009778D02*
X014362Y009664D01*
X014362Y009721D02*
X014645Y009721D01*
X014702Y009664D01*
X014702Y009608D01*
X014645Y009551D01*
X014645Y009055D02*
X014702Y009055D01*
X014702Y008998D01*
X014645Y008998D01*
X014645Y009055D01*
X014532Y009055D02*
X014532Y008998D01*
X014475Y008998D01*
X014475Y009055D01*
X014532Y009055D01*
X014475Y008857D02*
X014759Y008857D01*
X014815Y008800D01*
X014815Y008744D01*
X014702Y008687D02*
X014702Y008857D01*
X014702Y008687D02*
X014645Y008630D01*
X014475Y008630D01*
X014475Y008489D02*
X014418Y008489D01*
X014362Y008432D01*
X014362Y008262D01*
X014702Y008262D01*
X014702Y008432D01*
X014645Y008489D01*
X014588Y008489D01*
X014532Y008432D01*
X014532Y008262D01*
X014532Y008432D02*
X014475Y008489D01*
X013732Y011638D02*
X013675Y011695D01*
X013675Y011865D01*
D11*
X002757Y000624D02*
X002757Y000457D01*
X002757Y000582D02*
X002924Y000582D01*
X002924Y000624D02*
X002924Y000457D01*
X003033Y000499D02*
X003033Y000665D01*
X003075Y000707D01*
X003158Y000707D01*
X003200Y000665D01*
X003309Y000707D02*
X003476Y000707D01*
X003393Y000707D02*
X003393Y000457D01*
X003200Y000499D02*
X003158Y000457D01*
X003075Y000457D01*
X003033Y000499D01*
X002924Y000624D02*
X002840Y000707D01*
X002757Y000624D01*
X003585Y000707D02*
X003669Y000707D01*
X003627Y000707D02*
X003627Y000457D01*
X003585Y000457D02*
X003669Y000457D01*
X003770Y000540D02*
X003770Y000707D01*
X003936Y000707D02*
X003936Y000540D01*
X003853Y000457D01*
X003770Y000540D01*
X004046Y000582D02*
X004129Y000582D01*
X004046Y000707D02*
X004046Y000457D01*
X004213Y000457D01*
X004213Y000707D02*
X004046Y000707D01*
X006057Y000907D02*
X006182Y000907D01*
X006224Y000949D01*
X006224Y001115D01*
X006182Y001157D01*
X006057Y001157D01*
X006057Y000907D01*
X006333Y000907D02*
X006500Y001074D01*
X006500Y001115D01*
X006458Y001157D01*
X006375Y001157D01*
X006333Y001115D01*
X006333Y000907D02*
X006500Y000907D01*
X007007Y000907D02*
X007132Y000907D01*
X007174Y000949D01*
X007174Y001115D01*
X007132Y001157D01*
X007007Y001157D01*
X007007Y000907D01*
X007283Y000949D02*
X007325Y000907D01*
X007408Y000907D01*
X007450Y000949D01*
X007450Y000990D01*
X007408Y001032D01*
X007366Y001032D01*
X007408Y001032D02*
X007450Y001074D01*
X007450Y001115D01*
X007408Y001157D01*
X007325Y001157D01*
X007283Y001115D01*
X008007Y001115D02*
X008007Y001074D01*
X008049Y001032D01*
X008132Y001032D01*
X008174Y000990D01*
X008174Y000949D01*
X008132Y000907D01*
X008049Y000907D01*
X008007Y000949D01*
X008007Y001115D02*
X008049Y001157D01*
X008132Y001157D01*
X008174Y001115D01*
X008283Y001157D02*
X008283Y000907D01*
X008450Y000907D01*
X008366Y001032D02*
X008283Y001032D01*
X008283Y001157D02*
X008450Y001157D01*
X009007Y001115D02*
X009007Y001074D01*
X009049Y001032D01*
X009132Y001032D01*
X009174Y000990D01*
X009174Y000949D01*
X009132Y000907D01*
X009049Y000907D01*
X009007Y000949D01*
X009007Y001115D02*
X009049Y001157D01*
X009132Y001157D01*
X009174Y001115D01*
X009283Y001157D02*
X009283Y000907D01*
X009283Y001032D02*
X009366Y001032D01*
X009283Y001157D02*
X009450Y001157D01*
X010007Y001115D02*
X010007Y001074D01*
X010049Y001032D01*
X010132Y001032D01*
X010174Y000990D01*
X010174Y000949D01*
X010132Y000907D01*
X010049Y000907D01*
X010007Y000949D01*
X010007Y001115D02*
X010049Y001157D01*
X010132Y001157D01*
X010174Y001115D01*
X010283Y001115D02*
X010325Y001157D01*
X010408Y001157D01*
X010450Y001115D01*
X010450Y001032D02*
X010366Y001032D01*
X010450Y001032D02*
X010450Y000949D01*
X010408Y000907D01*
X010325Y000907D01*
X010283Y000949D01*
X010283Y001115D01*
X011007Y001115D02*
X011007Y001074D01*
X011049Y001032D01*
X011132Y001032D01*
X011174Y000990D01*
X011174Y000949D01*
X011132Y000907D01*
X011049Y000907D01*
X011007Y000949D01*
X011007Y001115D02*
X011049Y001157D01*
X011132Y001157D01*
X011174Y001115D01*
X011283Y000949D02*
X011283Y000907D01*
X011325Y000907D01*
X011325Y000949D01*
X011283Y000949D01*
X011732Y001732D02*
X011732Y007732D01*
X014732Y007732D01*
X014732Y006232D01*
X014232Y006232D01*
X014732Y006232D02*
X014732Y005732D01*
X014232Y005732D01*
X014732Y005732D02*
X014732Y005232D01*
X014232Y005232D01*
X014232Y004732D02*
X014732Y004732D01*
X014732Y004232D01*
X014232Y004232D01*
X014732Y004232D02*
X014732Y003732D01*
X014232Y003732D01*
X014232Y003232D02*
X014732Y003232D01*
X014732Y001732D01*
X011732Y001732D01*
X014732Y003232D02*
X014732Y003732D01*
X014732Y004732D02*
X014732Y005232D01*
X013057Y008757D02*
X012890Y008757D01*
X012807Y008840D01*
X012890Y008924D01*
X013057Y008924D01*
X013015Y009033D02*
X013057Y009075D01*
X013057Y009158D01*
X013015Y009200D01*
X012973Y009200D01*
X012932Y009158D01*
X012932Y009075D01*
X012890Y009033D01*
X012848Y009033D01*
X012807Y009075D01*
X012807Y009158D01*
X012848Y009200D01*
X012848Y009309D02*
X012890Y009309D01*
X012932Y009351D01*
X012932Y009434D01*
X012973Y009476D01*
X013015Y009476D01*
X013057Y009434D01*
X013057Y009351D01*
X013015Y009309D01*
X012848Y009309D02*
X012807Y009351D01*
X012807Y009434D01*
X012848Y009476D01*
X012848Y009585D02*
X013015Y009585D01*
X013057Y009627D01*
X013057Y009711D01*
X013015Y009752D01*
X012848Y009752D01*
X012807Y009711D01*
X012807Y009627D01*
X012848Y009585D01*
X012848Y009862D02*
X013015Y009862D01*
X013057Y009903D01*
X013057Y009987D01*
X013015Y010028D01*
X013057Y010138D02*
X013057Y010221D01*
X013057Y010180D02*
X012807Y010180D01*
X012807Y010221D02*
X012807Y010138D01*
X012848Y010028D02*
X012807Y009987D01*
X012807Y009903D01*
X012848Y009862D01*
X012890Y010322D02*
X012807Y010405D01*
X012890Y010489D01*
X013057Y010489D01*
X012932Y010489D02*
X012932Y010322D01*
X012890Y010322D02*
X013057Y010322D01*
X013057Y010682D02*
X012807Y010682D01*
X012807Y010765D02*
X012807Y010598D01*
X012807Y010874D02*
X013057Y010874D01*
X013057Y011041D01*
X013057Y011151D02*
X013057Y011276D01*
X013015Y011317D01*
X012848Y011317D01*
X012807Y011276D01*
X012807Y011151D01*
X013057Y011151D01*
X012932Y010958D02*
X012932Y010874D01*
X012807Y010874D02*
X012807Y011041D01*
X012932Y008924D02*
X012932Y008757D01*
X011500Y007465D02*
X011500Y007299D01*
X011458Y007257D01*
X011333Y007257D01*
X011333Y007507D01*
X011458Y007507D01*
X011500Y007465D01*
X011224Y007465D02*
X011182Y007507D01*
X011099Y007507D01*
X011057Y007465D01*
X011057Y007424D01*
X011099Y007382D01*
X011182Y007382D01*
X011224Y007340D01*
X011224Y007299D01*
X011182Y007257D01*
X011099Y007257D01*
X011057Y007299D01*
X010450Y007299D02*
X010408Y007257D01*
X010325Y007257D01*
X010283Y007299D01*
X010283Y007465D01*
X010325Y007507D01*
X010408Y007507D01*
X010450Y007465D01*
X010174Y007465D02*
X010132Y007507D01*
X010049Y007507D01*
X010007Y007465D01*
X010007Y007424D01*
X010049Y007382D01*
X010132Y007382D01*
X010174Y007340D01*
X010174Y007299D01*
X010132Y007257D01*
X010049Y007257D01*
X010007Y007299D01*
X009450Y007299D02*
X009408Y007257D01*
X009283Y007257D01*
X009283Y007507D01*
X009408Y007507D01*
X009450Y007465D01*
X009450Y007424D01*
X009408Y007382D01*
X009283Y007382D01*
X009174Y007340D02*
X009174Y007299D01*
X009132Y007257D01*
X009049Y007257D01*
X009007Y007299D01*
X009049Y007382D02*
X009132Y007382D01*
X009174Y007340D01*
X009174Y007465D02*
X009132Y007507D01*
X009049Y007507D01*
X009007Y007465D01*
X009007Y007424D01*
X009049Y007382D01*
X009408Y007382D02*
X009450Y007340D01*
X009450Y007299D01*
X008450Y007257D02*
X008450Y007424D01*
X008366Y007507D01*
X008283Y007424D01*
X008283Y007257D01*
X008174Y007299D02*
X008174Y007340D01*
X008132Y007382D01*
X008049Y007382D01*
X008007Y007424D01*
X008007Y007465D01*
X008049Y007507D01*
X008132Y007507D01*
X008174Y007465D01*
X008283Y007382D02*
X008450Y007382D01*
X008174Y007299D02*
X008132Y007257D01*
X008049Y007257D01*
X008007Y007299D01*
X007450Y007257D02*
X007283Y007257D01*
X007366Y007257D02*
X007366Y007507D01*
X007283Y007424D01*
X007174Y007465D02*
X007132Y007507D01*
X007007Y007507D01*
X007007Y007257D01*
X007132Y007257D01*
X007174Y007299D01*
X007174Y007465D01*
X006500Y007465D02*
X006500Y007299D01*
X006458Y007257D01*
X006375Y007257D01*
X006333Y007299D01*
X006500Y007465D01*
X006458Y007507D01*
X006375Y007507D01*
X006333Y007465D01*
X006333Y007299D01*
X006224Y007299D02*
X006224Y007465D01*
X006182Y007507D01*
X006057Y007507D01*
X006057Y007257D01*
X006182Y007257D01*
X006224Y007299D01*
X004507Y004976D02*
X004423Y004893D01*
X004423Y004934D02*
X004423Y004809D01*
X004507Y004809D02*
X004257Y004809D01*
X004257Y004934D01*
X004298Y004976D01*
X004382Y004976D01*
X004423Y004934D01*
X004507Y004700D02*
X004257Y004700D01*
X004257Y004533D02*
X004507Y004533D01*
X004423Y004616D01*
X004507Y004700D01*
X004382Y004424D02*
X004298Y004424D01*
X004257Y004382D01*
X004257Y004257D01*
X004507Y004257D01*
X004423Y004257D02*
X004423Y004382D01*
X004382Y004424D01*
X004465Y003976D02*
X004298Y003976D01*
X004257Y003934D01*
X004257Y003809D01*
X004507Y003809D01*
X004507Y003934D01*
X004465Y003976D01*
X004507Y003700D02*
X004257Y003700D01*
X004257Y003533D02*
X004507Y003700D01*
X004507Y003533D02*
X004257Y003533D01*
X004298Y003424D02*
X004257Y003382D01*
X004257Y003299D01*
X004298Y003257D01*
X004465Y003257D01*
X004507Y003299D01*
X004507Y003382D01*
X004465Y003424D01*
X004382Y003424D01*
X004382Y003340D01*
X000665Y008757D02*
X000707Y008799D01*
X000707Y008882D01*
X000665Y008924D01*
X000623Y008924D01*
X000582Y008882D01*
X000582Y008799D01*
X000540Y008757D01*
X000498Y008757D01*
X000457Y008799D01*
X000457Y008882D01*
X000498Y008924D01*
X000457Y009033D02*
X000457Y009116D01*
X000457Y009075D02*
X000707Y009075D01*
X000707Y009116D02*
X000707Y009033D01*
X000665Y009217D02*
X000498Y009217D01*
X000457Y009259D01*
X000457Y009342D01*
X000498Y009384D01*
X000582Y009384D02*
X000582Y009301D01*
X000582Y009384D02*
X000665Y009384D01*
X000707Y009342D01*
X000707Y009259D01*
X000665Y009217D01*
X000707Y009493D02*
X000457Y009493D01*
X000707Y009660D01*
X000457Y009660D01*
X000540Y009770D02*
X000457Y009853D01*
X000540Y009936D01*
X000707Y009936D01*
X000707Y010046D02*
X000707Y010213D01*
X000707Y010046D02*
X000457Y010046D01*
X000582Y009936D02*
X000582Y009770D01*
X000540Y009770D02*
X000707Y009770D01*
D12*
X000838Y010126D02*
X000838Y010677D01*
X001626Y010677D01*
X001626Y010126D01*
X001468Y009850D02*
X000996Y009850D01*
X001232Y009614D01*
X001468Y009850D01*
X001507Y009614D02*
X001232Y009614D01*
X000956Y009614D01*
X000838Y009338D02*
X000838Y008787D01*
X001626Y008787D01*
X001626Y009338D01*
X001909Y008027D02*
X002893Y008027D01*
X002893Y016098D01*
X001909Y016098D01*
X001909Y008027D01*
X001442Y006382D02*
X004022Y006382D01*
X004022Y005082D01*
X001442Y005082D01*
X001442Y006382D01*
X002328Y003244D02*
X002828Y003244D01*
X002098Y002882D02*
X002100Y002944D01*
X002106Y003007D01*
X002116Y003068D01*
X002130Y003129D01*
X002147Y003189D01*
X002168Y003248D01*
X002194Y003305D01*
X002222Y003360D01*
X002254Y003414D01*
X002290Y003465D01*
X002328Y003515D01*
X002370Y003561D01*
X002414Y003605D01*
X002462Y003646D01*
X002511Y003684D01*
X002563Y003718D01*
X002617Y003749D01*
X002673Y003777D01*
X002731Y003801D01*
X002790Y003822D01*
X002850Y003838D01*
X002911Y003851D01*
X002973Y003860D01*
X003035Y003865D01*
X003098Y003866D01*
X003160Y003863D01*
X003222Y003856D01*
X003284Y003845D01*
X003344Y003830D01*
X003404Y003812D01*
X003462Y003790D01*
X003519Y003764D01*
X003574Y003734D01*
X003627Y003701D01*
X003678Y003665D01*
X003726Y003626D01*
X003772Y003583D01*
X003815Y003538D01*
X003855Y003490D01*
X003892Y003440D01*
X003926Y003387D01*
X003957Y003333D01*
X003983Y003277D01*
X004007Y003219D01*
X004026Y003159D01*
X004042Y003099D01*
X004054Y003037D01*
X004062Y002976D01*
X004066Y002913D01*
X004066Y002851D01*
X004062Y002788D01*
X004054Y002727D01*
X004042Y002665D01*
X004026Y002605D01*
X004007Y002545D01*
X003983Y002487D01*
X003957Y002431D01*
X003926Y002377D01*
X003892Y002324D01*
X003855Y002274D01*
X003815Y002226D01*
X003772Y002181D01*
X003726Y002138D01*
X003678Y002099D01*
X003627Y002063D01*
X003574Y002030D01*
X003519Y002000D01*
X003462Y001974D01*
X003404Y001952D01*
X003344Y001934D01*
X003284Y001919D01*
X003222Y001908D01*
X003160Y001901D01*
X003098Y001898D01*
X003035Y001899D01*
X002973Y001904D01*
X002911Y001913D01*
X002850Y001926D01*
X002790Y001942D01*
X002731Y001963D01*
X002673Y001987D01*
X002617Y002015D01*
X002563Y002046D01*
X002511Y002080D01*
X002462Y002118D01*
X002414Y002159D01*
X002370Y002203D01*
X002328Y002249D01*
X002290Y002299D01*
X002254Y002350D01*
X002222Y002404D01*
X002194Y002459D01*
X002168Y002516D01*
X002147Y002575D01*
X002130Y002635D01*
X002116Y002696D01*
X002106Y002757D01*
X002100Y002820D01*
X002098Y002882D01*
X002787Y001626D02*
X003338Y001626D01*
X003614Y001507D02*
X003614Y001232D01*
X003850Y001468D01*
X003850Y000996D01*
X003614Y001232D01*
X003614Y000956D01*
X003338Y000838D02*
X002787Y000838D01*
X002787Y001626D01*
X004126Y001626D02*
X004677Y001626D01*
X004677Y000838D01*
X004126Y000838D01*
X004982Y003232D02*
X005482Y003232D01*
X005732Y003482D01*
X005982Y003232D01*
X006482Y003232D01*
X006732Y003482D01*
X006982Y003232D01*
X007482Y003232D01*
X007732Y003482D01*
X007982Y003232D01*
X008482Y003232D01*
X008732Y003482D01*
X008982Y003232D01*
X009482Y003232D01*
X009732Y003482D01*
X009982Y003232D01*
X010482Y003232D01*
X010732Y003482D01*
X010982Y003232D01*
X011482Y003232D01*
X011732Y003482D01*
X011732Y003982D01*
X011482Y004232D01*
X010982Y004232D01*
X010732Y003982D01*
X010482Y004232D01*
X009982Y004232D01*
X009732Y003982D01*
X009482Y004232D01*
X008982Y004232D01*
X008732Y003982D01*
X008482Y004232D01*
X007982Y004232D01*
X007732Y003982D01*
X007482Y004232D01*
X006982Y004232D01*
X006732Y003982D01*
X006482Y004232D01*
X005982Y004232D01*
X005732Y003982D01*
X005482Y004232D01*
X004982Y004232D01*
X004732Y003982D01*
X004732Y003482D01*
X004982Y003232D01*
X004982Y004232D02*
X005482Y004232D01*
X005732Y004482D01*
X005982Y004232D01*
X006482Y004232D01*
X006732Y004482D01*
X006982Y004232D01*
X007482Y004232D01*
X007732Y004482D01*
X007982Y004232D01*
X008482Y004232D01*
X008732Y004482D01*
X008982Y004232D01*
X009482Y004232D01*
X009732Y004482D01*
X009982Y004232D01*
X010482Y004232D01*
X010732Y004482D01*
X010982Y004232D01*
X011482Y004232D01*
X011732Y004482D01*
X011732Y004982D01*
X011482Y005232D01*
X010982Y005232D01*
X010732Y004982D01*
X010482Y005232D01*
X009982Y005232D01*
X009732Y004982D01*
X009482Y005232D01*
X008982Y005232D01*
X008732Y004982D01*
X008482Y005232D01*
X007982Y005232D01*
X007732Y004982D01*
X007482Y005232D01*
X006982Y005232D01*
X006732Y004982D01*
X006482Y005232D01*
X005982Y005232D01*
X005732Y004982D01*
X005482Y005232D01*
X004982Y005232D01*
X004732Y004982D01*
X004732Y004482D01*
X004982Y004232D01*
X010570Y008027D02*
X010570Y016098D01*
X011555Y016098D01*
X011555Y008027D01*
X010570Y008027D01*
X011838Y008787D02*
X011838Y009338D01*
X011956Y009614D02*
X012232Y009614D01*
X011996Y009850D01*
X012468Y009850D01*
X012232Y009614D01*
X012507Y009614D01*
X012626Y009338D02*
X012626Y008787D01*
X011838Y008787D01*
X011838Y010126D02*
X011838Y010677D01*
X012626Y010677D01*
X012626Y010126D01*
X012232Y006482D02*
X014232Y006482D01*
X014232Y006232D02*
X012232Y006232D01*
X012232Y003232D01*
X014232Y003232D01*
X014232Y003732D01*
X014232Y004232D01*
X014232Y004732D01*
X014232Y005232D01*
X014232Y005732D01*
X014232Y006232D01*
D13*
X012559Y006752D02*
X012252Y006752D01*
X012405Y006752D02*
X012405Y007212D01*
X012252Y007059D01*
M02*
