%
M48
M72
T01C0.0200
T02C0.0276
T03C0.0315
T04C0.0400
T05C0.1300
%
T01
X4232Y1982
X6232Y1082
X7232Y1082
X4732Y5732
X5532Y7732
X5232Y8232
X6132Y7732
X5732Y9232
X6232Y10232
X6732Y10232
X7232Y10732
X6732Y11232
X7232Y12732
X7732Y13232
X5732Y15732
X4732Y12732
X4232Y11732
X3732Y8232
X1232Y8232
X9032Y10382
X9232Y9732
X9732Y9732
X9732Y8732
X11982Y6132
X12732Y6732
X12732Y7732
X12232Y8232
X12732Y2732
T02
X3582Y2882
X2582Y2882
T03
X2401Y8519
X2401Y9307
X2401Y10094
X2401Y10881
X2401Y11669
X2401Y12456
X2401Y13244
X2401Y14031
X2401Y14818
X2401Y15606
X11063Y15606
X11063Y14818
X11063Y14031
X11063Y13244
X11063Y12456
X11063Y11669
X11063Y10881
X11063Y10094
X11063Y9307
X11063Y8519
T04
X12732Y5732
X12732Y4732
X12732Y3732
X13732Y3732
X13732Y4732
X13732Y5732
X11232Y4732
X11232Y3732
X10232Y3732
X10232Y4732
X9232Y4732
X9232Y3732
X8232Y3732
X8232Y4732
X7232Y4732
X7232Y3732
X6232Y3732
X6232Y4732
X5232Y4732
X5232Y3732
T05
X1232Y1232
X1232Y16232
X14232Y16232
X14232Y1232
M30
