G75*
G70*
%OFA0B0*%
%FSLAX24Y24*%
%IPPOS*%
%LPD*%
%AMOC8*
5,1,8,0,0,1.08239X$1,22.5*
%
%ADD10C,0.0000*%
%ADD11R,0.0500X0.0220*%
%ADD12R,0.0220X0.0500*%
%ADD13R,0.0800X0.0800*%
%ADD14C,0.0800*%
%ADD15C,0.0600*%
%ADD16R,0.0630X0.0709*%
%ADD17R,0.0709X0.0630*%
%ADD18C,0.0520*%
%ADD19C,0.0554*%
%ADD20C,0.0740*%
%ADD21R,0.0472X0.0551*%
%ADD22R,0.0740X0.0740*%
%ADD23C,0.0780*%
%ADD24C,0.1000*%
%ADD25OC8,0.1000*%
%ADD26OC8,0.0520*%
%ADD27C,0.0460*%
%ADD28C,0.0100*%
%ADD29C,0.0360*%
%ADD30C,0.0240*%
%ADD31C,0.0400*%
D10*
X000232Y000232D02*
X000232Y039602D01*
X035224Y039602D01*
X035224Y000232D01*
X000232Y000232D01*
X000582Y001232D02*
X000584Y001282D01*
X000590Y001332D01*
X000600Y001382D01*
X000613Y001430D01*
X000630Y001478D01*
X000651Y001524D01*
X000675Y001568D01*
X000703Y001610D01*
X000734Y001650D01*
X000768Y001687D01*
X000805Y001722D01*
X000844Y001753D01*
X000885Y001782D01*
X000929Y001807D01*
X000975Y001829D01*
X001022Y001847D01*
X001070Y001861D01*
X001119Y001872D01*
X001169Y001879D01*
X001219Y001882D01*
X001270Y001881D01*
X001320Y001876D01*
X001370Y001867D01*
X001418Y001855D01*
X001466Y001838D01*
X001512Y001818D01*
X001557Y001795D01*
X001600Y001768D01*
X001640Y001738D01*
X001678Y001705D01*
X001713Y001669D01*
X001746Y001630D01*
X001775Y001589D01*
X001801Y001546D01*
X001824Y001501D01*
X001843Y001454D01*
X001858Y001406D01*
X001870Y001357D01*
X001878Y001307D01*
X001882Y001257D01*
X001882Y001207D01*
X001878Y001157D01*
X001870Y001107D01*
X001858Y001058D01*
X001843Y001010D01*
X001824Y000963D01*
X001801Y000918D01*
X001775Y000875D01*
X001746Y000834D01*
X001713Y000795D01*
X001678Y000759D01*
X001640Y000726D01*
X001600Y000696D01*
X001557Y000669D01*
X001512Y000646D01*
X001466Y000626D01*
X001418Y000609D01*
X001370Y000597D01*
X001320Y000588D01*
X001270Y000583D01*
X001219Y000582D01*
X001169Y000585D01*
X001119Y000592D01*
X001070Y000603D01*
X001022Y000617D01*
X000975Y000635D01*
X000929Y000657D01*
X000885Y000682D01*
X000844Y000711D01*
X000805Y000742D01*
X000768Y000777D01*
X000734Y000814D01*
X000703Y000854D01*
X000675Y000896D01*
X000651Y000940D01*
X000630Y000986D01*
X000613Y001034D01*
X000600Y001082D01*
X000590Y001132D01*
X000584Y001182D01*
X000582Y001232D01*
X000582Y038732D02*
X000584Y038782D01*
X000590Y038832D01*
X000600Y038882D01*
X000613Y038930D01*
X000630Y038978D01*
X000651Y039024D01*
X000675Y039068D01*
X000703Y039110D01*
X000734Y039150D01*
X000768Y039187D01*
X000805Y039222D01*
X000844Y039253D01*
X000885Y039282D01*
X000929Y039307D01*
X000975Y039329D01*
X001022Y039347D01*
X001070Y039361D01*
X001119Y039372D01*
X001169Y039379D01*
X001219Y039382D01*
X001270Y039381D01*
X001320Y039376D01*
X001370Y039367D01*
X001418Y039355D01*
X001466Y039338D01*
X001512Y039318D01*
X001557Y039295D01*
X001600Y039268D01*
X001640Y039238D01*
X001678Y039205D01*
X001713Y039169D01*
X001746Y039130D01*
X001775Y039089D01*
X001801Y039046D01*
X001824Y039001D01*
X001843Y038954D01*
X001858Y038906D01*
X001870Y038857D01*
X001878Y038807D01*
X001882Y038757D01*
X001882Y038707D01*
X001878Y038657D01*
X001870Y038607D01*
X001858Y038558D01*
X001843Y038510D01*
X001824Y038463D01*
X001801Y038418D01*
X001775Y038375D01*
X001746Y038334D01*
X001713Y038295D01*
X001678Y038259D01*
X001640Y038226D01*
X001600Y038196D01*
X001557Y038169D01*
X001512Y038146D01*
X001466Y038126D01*
X001418Y038109D01*
X001370Y038097D01*
X001320Y038088D01*
X001270Y038083D01*
X001219Y038082D01*
X001169Y038085D01*
X001119Y038092D01*
X001070Y038103D01*
X001022Y038117D01*
X000975Y038135D01*
X000929Y038157D01*
X000885Y038182D01*
X000844Y038211D01*
X000805Y038242D01*
X000768Y038277D01*
X000734Y038314D01*
X000703Y038354D01*
X000675Y038396D01*
X000651Y038440D01*
X000630Y038486D01*
X000613Y038534D01*
X000600Y038582D01*
X000590Y038632D01*
X000584Y038682D01*
X000582Y038732D01*
X033582Y038732D02*
X033584Y038782D01*
X033590Y038832D01*
X033600Y038882D01*
X033613Y038930D01*
X033630Y038978D01*
X033651Y039024D01*
X033675Y039068D01*
X033703Y039110D01*
X033734Y039150D01*
X033768Y039187D01*
X033805Y039222D01*
X033844Y039253D01*
X033885Y039282D01*
X033929Y039307D01*
X033975Y039329D01*
X034022Y039347D01*
X034070Y039361D01*
X034119Y039372D01*
X034169Y039379D01*
X034219Y039382D01*
X034270Y039381D01*
X034320Y039376D01*
X034370Y039367D01*
X034418Y039355D01*
X034466Y039338D01*
X034512Y039318D01*
X034557Y039295D01*
X034600Y039268D01*
X034640Y039238D01*
X034678Y039205D01*
X034713Y039169D01*
X034746Y039130D01*
X034775Y039089D01*
X034801Y039046D01*
X034824Y039001D01*
X034843Y038954D01*
X034858Y038906D01*
X034870Y038857D01*
X034878Y038807D01*
X034882Y038757D01*
X034882Y038707D01*
X034878Y038657D01*
X034870Y038607D01*
X034858Y038558D01*
X034843Y038510D01*
X034824Y038463D01*
X034801Y038418D01*
X034775Y038375D01*
X034746Y038334D01*
X034713Y038295D01*
X034678Y038259D01*
X034640Y038226D01*
X034600Y038196D01*
X034557Y038169D01*
X034512Y038146D01*
X034466Y038126D01*
X034418Y038109D01*
X034370Y038097D01*
X034320Y038088D01*
X034270Y038083D01*
X034219Y038082D01*
X034169Y038085D01*
X034119Y038092D01*
X034070Y038103D01*
X034022Y038117D01*
X033975Y038135D01*
X033929Y038157D01*
X033885Y038182D01*
X033844Y038211D01*
X033805Y038242D01*
X033768Y038277D01*
X033734Y038314D01*
X033703Y038354D01*
X033675Y038396D01*
X033651Y038440D01*
X033630Y038486D01*
X033613Y038534D01*
X033600Y038582D01*
X033590Y038632D01*
X033584Y038682D01*
X033582Y038732D01*
X033582Y001232D02*
X033584Y001282D01*
X033590Y001332D01*
X033600Y001382D01*
X033613Y001430D01*
X033630Y001478D01*
X033651Y001524D01*
X033675Y001568D01*
X033703Y001610D01*
X033734Y001650D01*
X033768Y001687D01*
X033805Y001722D01*
X033844Y001753D01*
X033885Y001782D01*
X033929Y001807D01*
X033975Y001829D01*
X034022Y001847D01*
X034070Y001861D01*
X034119Y001872D01*
X034169Y001879D01*
X034219Y001882D01*
X034270Y001881D01*
X034320Y001876D01*
X034370Y001867D01*
X034418Y001855D01*
X034466Y001838D01*
X034512Y001818D01*
X034557Y001795D01*
X034600Y001768D01*
X034640Y001738D01*
X034678Y001705D01*
X034713Y001669D01*
X034746Y001630D01*
X034775Y001589D01*
X034801Y001546D01*
X034824Y001501D01*
X034843Y001454D01*
X034858Y001406D01*
X034870Y001357D01*
X034878Y001307D01*
X034882Y001257D01*
X034882Y001207D01*
X034878Y001157D01*
X034870Y001107D01*
X034858Y001058D01*
X034843Y001010D01*
X034824Y000963D01*
X034801Y000918D01*
X034775Y000875D01*
X034746Y000834D01*
X034713Y000795D01*
X034678Y000759D01*
X034640Y000726D01*
X034600Y000696D01*
X034557Y000669D01*
X034512Y000646D01*
X034466Y000626D01*
X034418Y000609D01*
X034370Y000597D01*
X034320Y000588D01*
X034270Y000583D01*
X034219Y000582D01*
X034169Y000585D01*
X034119Y000592D01*
X034070Y000603D01*
X034022Y000617D01*
X033975Y000635D01*
X033929Y000657D01*
X033885Y000682D01*
X033844Y000711D01*
X033805Y000742D01*
X033768Y000777D01*
X033734Y000814D01*
X033703Y000854D01*
X033675Y000896D01*
X033651Y000940D01*
X033630Y000986D01*
X033613Y001034D01*
X033600Y001082D01*
X033590Y001132D01*
X033584Y001182D01*
X033582Y001232D01*
D11*
X026422Y011629D03*
X026422Y011944D03*
X026422Y012259D03*
X026422Y012574D03*
X026422Y012889D03*
X026422Y013204D03*
X026422Y013519D03*
X026422Y013834D03*
X023042Y013834D03*
X023042Y013519D03*
X023042Y013204D03*
X023042Y012889D03*
X023042Y012574D03*
X023042Y012259D03*
X023042Y011944D03*
X023042Y011629D03*
X024042Y028629D03*
X024042Y028944D03*
X024042Y029259D03*
X024042Y029574D03*
X024042Y029889D03*
X024042Y030204D03*
X024042Y030519D03*
X024042Y030834D03*
X027422Y030834D03*
X027422Y030519D03*
X027422Y030204D03*
X027422Y029889D03*
X027422Y029574D03*
X027422Y029259D03*
X027422Y028944D03*
X027422Y028629D03*
X011922Y028629D03*
X011922Y028944D03*
X011922Y029259D03*
X011922Y029574D03*
X011922Y029889D03*
X011922Y030204D03*
X011922Y030519D03*
X011922Y030834D03*
X008542Y030834D03*
X008542Y030519D03*
X008542Y030204D03*
X008542Y029889D03*
X008542Y029574D03*
X008542Y029259D03*
X008542Y028944D03*
X008542Y028629D03*
D12*
X009129Y028042D03*
X009444Y028042D03*
X009759Y028042D03*
X010074Y028042D03*
X010389Y028042D03*
X010704Y028042D03*
X011019Y028042D03*
X011334Y028042D03*
X011334Y031422D03*
X011019Y031422D03*
X010704Y031422D03*
X010389Y031422D03*
X010074Y031422D03*
X009759Y031422D03*
X009444Y031422D03*
X009129Y031422D03*
X023629Y014422D03*
X023944Y014422D03*
X024259Y014422D03*
X024574Y014422D03*
X024889Y014422D03*
X025204Y014422D03*
X025519Y014422D03*
X025834Y014422D03*
X025834Y011042D03*
X025519Y011042D03*
X025204Y011042D03*
X024889Y011042D03*
X024574Y011042D03*
X024259Y011042D03*
X023944Y011042D03*
X023629Y011042D03*
X024629Y028042D03*
X024944Y028042D03*
X025259Y028042D03*
X025574Y028042D03*
X025889Y028042D03*
X026204Y028042D03*
X026519Y028042D03*
X026834Y028042D03*
X026834Y031422D03*
X026519Y031422D03*
X026204Y031422D03*
X025889Y031422D03*
X025574Y031422D03*
X025259Y031422D03*
X024944Y031422D03*
X024629Y031422D03*
D13*
X005732Y001732D03*
D14*
X007110Y001732D03*
D15*
X002532Y003232D02*
X001932Y003232D01*
X001932Y004232D02*
X002532Y004232D01*
X002532Y005232D02*
X001932Y005232D01*
X001932Y009732D02*
X002532Y009732D01*
X002532Y010732D02*
X001932Y010732D01*
X001932Y011732D02*
X002532Y011732D01*
D16*
X005681Y012732D03*
X006783Y012732D03*
X008681Y010232D03*
X009783Y010232D03*
X009783Y008732D03*
X008681Y008732D03*
X006783Y007232D03*
X005681Y007232D03*
X010681Y018732D03*
X011783Y018732D03*
X016681Y013232D03*
X017783Y013232D03*
X017783Y011732D03*
X016681Y011732D03*
X020681Y016232D03*
X021783Y016232D03*
X023181Y022732D03*
X023181Y023732D03*
X024283Y023732D03*
X024283Y022732D03*
X027681Y017732D03*
X028783Y017732D03*
X032181Y024232D03*
X033283Y024232D03*
X033283Y026232D03*
X032181Y026232D03*
X032181Y028232D03*
X033283Y028232D03*
X032783Y033232D03*
X031681Y033232D03*
X026283Y032732D03*
X025181Y032732D03*
X015283Y032232D03*
X015283Y033232D03*
X015283Y034232D03*
X014181Y034232D03*
X014181Y033232D03*
X014181Y032232D03*
X010783Y032732D03*
X009681Y032732D03*
X031681Y008732D03*
X032783Y008732D03*
X028283Y005232D03*
X028283Y004232D03*
X028283Y003232D03*
X027181Y003232D03*
X027181Y004232D03*
X027181Y005232D03*
D17*
X028732Y011681D03*
X028732Y012783D03*
X030732Y019681D03*
X030732Y020783D03*
X005232Y028181D03*
X005232Y029283D03*
X001732Y031681D03*
X001732Y032783D03*
X001732Y033681D03*
X001732Y034783D03*
D18*
X003532Y034232D03*
X003532Y032232D03*
X019732Y013732D03*
X019732Y011732D03*
X030232Y024232D03*
X030232Y026232D03*
X005832Y010732D03*
X005832Y005232D03*
D19*
X013232Y008952D03*
X013232Y011511D03*
D20*
X010901Y016240D03*
X009901Y016240D03*
X008901Y016240D03*
X007901Y016240D03*
X006901Y016240D03*
X005901Y016240D03*
X004901Y016240D03*
X004901Y022539D03*
X005901Y022539D03*
X006901Y022539D03*
X007901Y022539D03*
X008901Y022539D03*
X009901Y022539D03*
X010901Y022539D03*
X011901Y022539D03*
X017232Y022732D03*
X017232Y021732D03*
X017232Y023732D03*
X017232Y026232D03*
X017232Y027232D03*
X017232Y028232D03*
X017232Y030232D03*
X017232Y031232D03*
X017232Y032232D03*
X020232Y028232D03*
X020232Y027232D03*
X020232Y026232D03*
X020232Y023732D03*
X020232Y022732D03*
X020232Y021732D03*
X023342Y020012D03*
X025122Y020012D03*
X025122Y017452D03*
X023342Y017452D03*
X018732Y018232D03*
X018232Y017482D03*
X017732Y018232D03*
X018232Y005232D03*
X019232Y005232D03*
X019232Y004232D03*
X019232Y003232D03*
X019232Y002232D03*
X018232Y002232D03*
X018232Y003232D03*
X018232Y004232D03*
X017232Y004232D03*
X017232Y003232D03*
X017232Y002232D03*
X017232Y005232D03*
X014232Y004232D03*
X014232Y003232D03*
X022732Y003232D03*
X022732Y004232D03*
X023732Y004232D03*
X023732Y003232D03*
X023732Y005232D03*
X022732Y005232D03*
X031732Y005232D03*
X031732Y006232D03*
X031732Y007232D03*
X032732Y007232D03*
X032732Y006232D03*
X032732Y010232D03*
X032732Y011232D03*
X032732Y012232D03*
X032732Y013232D03*
X032732Y014232D03*
X032732Y015232D03*
X032732Y016232D03*
X032732Y017232D03*
X032732Y018232D03*
X032732Y019232D03*
X032732Y020232D03*
X033512Y029342D03*
X033512Y031122D03*
X030952Y031122D03*
X030952Y029342D03*
X031232Y035232D03*
X031232Y036232D03*
X031232Y037232D03*
X030232Y036232D03*
X030232Y035232D03*
X027732Y035232D03*
X027732Y036232D03*
X027732Y037232D03*
X026732Y037232D03*
X026732Y036232D03*
X026732Y035232D03*
X025732Y035232D03*
X025732Y036232D03*
X025732Y037232D03*
X024732Y037232D03*
X024732Y036232D03*
X024732Y035232D03*
X023732Y035232D03*
X023732Y036232D03*
X022732Y036232D03*
X022732Y035232D03*
X021732Y035232D03*
X021732Y036232D03*
X021732Y037232D03*
X022732Y037232D03*
X023732Y037232D03*
X015232Y037232D03*
X014232Y037232D03*
X013232Y037232D03*
X010232Y037232D03*
X009232Y037232D03*
X008232Y037232D03*
X007232Y037232D03*
X006232Y037232D03*
X005232Y037232D03*
X004232Y037232D03*
X005232Y033232D03*
X006232Y033232D03*
X007232Y033232D03*
X007232Y032232D03*
X006232Y032232D03*
X005232Y032232D03*
X004012Y029622D03*
X004012Y027842D03*
X003232Y025732D03*
X003232Y024732D03*
X003232Y023732D03*
X002232Y023732D03*
X002232Y024732D03*
X001452Y027842D03*
X001452Y029622D03*
D21*
X008641Y011732D03*
X009822Y011732D03*
X026141Y038732D03*
X027322Y038732D03*
D22*
X030232Y037232D03*
X012232Y037232D03*
X002232Y025732D03*
X011901Y016240D03*
X032732Y005232D03*
D23*
X012732Y001732D03*
X008732Y001732D03*
D24*
X009732Y003732D03*
D25*
X009732Y005732D03*
D26*
X006632Y005232D03*
X006632Y010732D03*
X027732Y019732D03*
X028732Y020732D03*
X029732Y019732D03*
D27*
X025232Y038732D03*
D28*
X026141Y038732D01*
X027322Y038732D02*
X031732Y038732D01*
X033232Y037232D01*
X034232Y037232D01*
X034732Y036732D01*
X034732Y028732D01*
X034232Y028232D01*
X033283Y028232D01*
X032181Y028232D02*
X030732Y028232D01*
X029389Y029574D01*
X027422Y029574D01*
X027422Y029259D02*
X028704Y029259D01*
X029232Y028732D01*
X029232Y028232D01*
X028732Y028232D02*
X028732Y028732D01*
X028519Y028944D01*
X027422Y028944D01*
X027422Y028629D02*
X027834Y028629D01*
X028232Y028232D01*
X026834Y028042D02*
X026834Y026629D01*
X027232Y026232D01*
X030232Y026232D01*
X032181Y026232D01*
X033283Y026232D02*
X033283Y024232D01*
X033283Y023783D01*
X033232Y023732D01*
X033232Y022732D01*
X032732Y022232D01*
X033232Y021732D02*
X031232Y021732D01*
X030732Y021232D01*
X030732Y020783D01*
X030732Y019681D02*
X029783Y019681D01*
X029732Y019732D01*
X028783Y020681D02*
X028732Y020732D01*
X028783Y020681D02*
X028783Y017732D01*
X028232Y017181D01*
X028232Y014232D01*
X027519Y013519D01*
X026422Y013519D01*
X026422Y012889D02*
X024232Y012889D01*
X023917Y012574D01*
X023042Y012574D01*
X023042Y012259D02*
X022204Y012259D01*
X021732Y012732D01*
X021889Y012889D01*
X023042Y012889D01*
X023042Y013204D02*
X023069Y013232D01*
X023732Y013232D01*
X024074Y012889D01*
X024232Y012889D01*
X025204Y012259D02*
X025232Y012232D01*
X025482Y011982D01*
X026384Y011982D01*
X026422Y011944D01*
X028468Y011944D01*
X028732Y011681D01*
X032283Y011681D01*
X032732Y011232D01*
X032232Y011232D01*
X031732Y010732D01*
X031732Y008783D01*
X031681Y008732D01*
X031681Y008283D01*
X032232Y007732D01*
X032232Y005732D01*
X031732Y005232D01*
X031732Y006232D02*
X027732Y006232D01*
X025519Y008444D01*
X025519Y008732D01*
X025232Y008732D01*
X019732Y003232D01*
X019232Y003232D01*
X019232Y004232D02*
X020232Y004232D01*
X025204Y009204D01*
X025204Y011042D01*
X024889Y011042D02*
X024889Y009389D01*
X020732Y005232D01*
X019232Y005232D01*
X017232Y005232D02*
X017232Y006232D01*
X016681Y006783D01*
X016681Y011732D01*
X016681Y013232D01*
X017783Y013232D02*
X019232Y013232D01*
X019732Y013732D01*
X019732Y013232D01*
X021019Y011944D01*
X023042Y011944D01*
X023042Y011629D02*
X019834Y011629D01*
X019732Y011732D01*
X017783Y011732D01*
X017232Y014732D02*
X015732Y014732D01*
X013232Y012232D01*
X013232Y011511D01*
X015732Y009011D01*
X015732Y003732D01*
X015232Y003232D01*
X014232Y003232D01*
X014232Y004232D02*
X012732Y004232D01*
X012232Y004732D01*
X012232Y006732D01*
X011732Y007232D01*
X009232Y007232D01*
X008681Y007783D01*
X008681Y008732D01*
X009783Y008732D02*
X010003Y008952D01*
X009783Y009432D02*
X009733Y009482D01*
X008681Y010232D02*
X008641Y010271D01*
X008641Y011732D01*
X009822Y011732D02*
X013011Y011732D01*
X013232Y011511D01*
X017232Y014732D02*
X017732Y015232D01*
X017732Y018232D01*
X018232Y017482D02*
X018232Y016732D01*
X018732Y016232D01*
X020681Y016232D01*
X021783Y016232D02*
X022632Y016232D01*
X023632Y015232D01*
X023632Y014424D01*
X023629Y014422D01*
X023944Y014422D02*
X023944Y015519D01*
X023232Y016232D01*
X024232Y015732D02*
X024259Y015704D01*
X024259Y014422D01*
X024574Y014422D02*
X024574Y016574D01*
X024732Y016732D01*
X025122Y017452D02*
X025122Y020012D01*
X027452Y020012D01*
X027732Y019732D01*
X027681Y019681D01*
X027681Y017732D01*
X026232Y018232D02*
X026232Y016232D01*
X025204Y015204D01*
X025204Y014422D01*
X024889Y014422D02*
X024889Y015889D01*
X025732Y016732D01*
X025732Y018232D01*
X025122Y020012D02*
X025122Y021622D01*
X025232Y021732D01*
X026732Y021732D01*
X025232Y021732D02*
X020232Y021732D01*
X020232Y018732D01*
X019732Y018232D01*
X018732Y018232D01*
X017232Y021732D02*
X020232Y021732D01*
X020232Y022732D02*
X023181Y022732D01*
X023181Y023732D02*
X022232Y023732D01*
X020232Y023732D01*
X019232Y025232D02*
X023732Y025232D01*
X024283Y024681D01*
X024283Y023732D01*
X026232Y023732D01*
X026232Y027232D01*
X026204Y027259D01*
X026204Y028042D01*
X026204Y028574D01*
X025889Y028889D01*
X025574Y028574D01*
X025574Y028042D01*
X025259Y028042D02*
X025259Y026759D01*
X024732Y026232D01*
X025732Y026232D01*
X025889Y026389D01*
X025889Y028042D01*
X026519Y028042D02*
X026519Y024944D01*
X027232Y024232D01*
X030232Y024232D01*
X032181Y024232D01*
X033283Y026232D02*
X034232Y026232D01*
X033512Y029342D02*
X030952Y029342D01*
X030952Y029452D01*
X031732Y030232D01*
X031732Y033181D01*
X031681Y033232D01*
X030732Y033232D01*
X030232Y033732D01*
X030232Y035232D01*
X030732Y035732D02*
X031232Y036232D01*
X030732Y035732D02*
X029732Y035732D01*
X029732Y031232D01*
X029019Y030519D01*
X027422Y030519D01*
X027422Y030834D02*
X028834Y030834D01*
X029232Y031232D01*
X029232Y036732D01*
X029732Y037232D01*
X030232Y037232D01*
X031232Y037232D02*
X032232Y037232D01*
X032783Y036681D01*
X032783Y033232D01*
X033732Y033232D01*
X032783Y033232D02*
X032732Y033232D01*
X031732Y033232D02*
X031681Y033232D01*
X028732Y032232D02*
X027232Y032232D01*
X026834Y031834D01*
X026834Y031422D01*
X026519Y031422D02*
X026519Y030862D01*
X025889Y030232D01*
X025889Y031422D01*
X025889Y032338D01*
X026283Y032732D01*
X025574Y032338D02*
X025181Y032732D01*
X020732Y032732D01*
X022232Y030732D02*
X022759Y030204D01*
X024042Y030204D01*
X024042Y029889D02*
X022074Y029889D01*
X021732Y030232D01*
X021259Y029259D02*
X020232Y028232D01*
X020232Y027232D02*
X021944Y028944D01*
X024042Y028944D01*
X024042Y028629D02*
X023629Y028629D01*
X023232Y028232D01*
X023732Y027232D02*
X024232Y027232D01*
X024629Y027629D01*
X024629Y028042D01*
X024944Y028042D02*
X024944Y026944D01*
X024732Y026732D01*
X024232Y026732D01*
X024732Y026232D02*
X020232Y026232D01*
X018232Y025232D02*
X017732Y025232D01*
X017232Y024732D01*
X017232Y023732D01*
X012232Y023732D01*
X011901Y023401D01*
X011901Y022539D01*
X011783Y022421D01*
X011783Y018732D01*
X011783Y018283D01*
X011232Y017732D01*
X010681Y018732D02*
X010681Y022318D01*
X010901Y022539D01*
X010232Y023232D02*
X008232Y023232D01*
X007901Y022901D01*
X007901Y022539D01*
X006901Y022539D02*
X006901Y023401D01*
X007232Y023732D01*
X010232Y023732D01*
X012732Y026232D01*
X012732Y028232D01*
X012334Y028629D01*
X011922Y028629D01*
X011922Y028944D02*
X012519Y028944D01*
X013232Y028232D01*
X013232Y026232D01*
X010232Y023232D01*
X010232Y024232D02*
X011334Y025334D01*
X011334Y028042D01*
X011019Y028042D02*
X011019Y025519D01*
X010232Y024732D01*
X005232Y024732D01*
X004901Y024401D01*
X004901Y022539D01*
X005901Y022539D02*
X005901Y023901D01*
X006232Y024232D01*
X010232Y024232D01*
X010232Y025232D02*
X009232Y025232D01*
X009732Y025732D02*
X009759Y025759D01*
X009759Y028042D01*
X009444Y028042D02*
X009444Y028444D01*
X009732Y028732D01*
X010074Y028732D01*
X010074Y030074D01*
X010232Y030232D01*
X010389Y030389D01*
X010389Y031422D01*
X010389Y032338D01*
X010783Y032732D01*
X010783Y034181D01*
X009232Y035732D01*
X008732Y035732D01*
X008232Y036232D01*
X008232Y037232D01*
X008232Y037732D01*
X008732Y038232D01*
X013732Y038232D01*
X014232Y037732D01*
X014232Y037232D01*
X014181Y037181D01*
X014181Y034232D01*
X014181Y033232D01*
X014181Y032232D01*
X013732Y031232D02*
X012232Y032732D01*
X012232Y037232D01*
X013232Y037232D02*
X013232Y034232D01*
X011732Y033732D02*
X011732Y032732D01*
X011019Y032019D01*
X011019Y031422D01*
X010704Y031422D02*
X010704Y029259D01*
X010732Y029232D01*
X010389Y028889D01*
X010389Y028042D01*
X010074Y028042D02*
X010074Y028732D01*
X010704Y028042D02*
X010704Y025704D01*
X010232Y025232D01*
X008732Y027232D02*
X006732Y027232D01*
X004732Y025232D01*
X002732Y025232D01*
X002232Y024732D01*
X002232Y023732D02*
X001732Y023732D01*
X001232Y024232D01*
X001232Y027622D01*
X001452Y027842D01*
X004012Y027842D01*
X004012Y028063D01*
X005232Y029283D01*
X005783Y029283D01*
X006232Y029732D01*
X006232Y030232D02*
X005732Y030232D01*
X006232Y030232D02*
X007204Y029259D01*
X008542Y029259D01*
X008542Y028944D02*
X007019Y028944D01*
X006732Y029232D01*
X007129Y028629D02*
X005232Y026732D01*
X002732Y026732D01*
X002232Y026232D01*
X002232Y025732D01*
X003232Y023732D02*
X003232Y023232D01*
X002732Y022732D01*
X001732Y022732D01*
X000732Y023732D01*
X000732Y028902D01*
X001452Y029622D01*
X001732Y029902D01*
X001732Y031681D01*
X001283Y031681D01*
X000732Y032232D01*
X000732Y033232D01*
X001232Y033732D01*
X000732Y034232D01*
X000732Y035732D01*
X003732Y038732D01*
X006232Y038732D01*
X014732Y038732D01*
X015232Y038232D01*
X015232Y037232D01*
X021732Y037232D01*
X021732Y035232D02*
X022732Y035232D01*
X023732Y035232D01*
X024732Y035232D01*
X025732Y035232D01*
X026732Y035232D01*
X027732Y035232D01*
X025574Y032338D02*
X025574Y031422D01*
X025889Y030232D02*
X025889Y028889D01*
X025232Y029232D02*
X024889Y029574D01*
X024042Y029574D01*
X024042Y029259D02*
X021259Y029259D01*
X017232Y030232D02*
X015732Y031732D01*
X015732Y032232D01*
X015283Y032232D01*
X015283Y031283D01*
X015232Y031232D01*
X013732Y031232D01*
X013232Y030732D02*
X013019Y030519D01*
X011922Y030519D01*
X011922Y030204D02*
X014759Y030204D01*
X016232Y028732D01*
X016732Y028732D01*
X017232Y028232D01*
X014732Y028732D02*
X014732Y024232D01*
X014232Y024232D02*
X014232Y028732D01*
X013732Y029232D01*
X012232Y029232D01*
X012204Y029259D01*
X011922Y029259D01*
X011922Y029574D02*
X013889Y029574D01*
X014732Y028732D01*
X012334Y030834D02*
X012732Y031232D01*
X012334Y030834D02*
X011922Y030834D01*
X011334Y031422D02*
X011334Y031834D01*
X012232Y032732D01*
X011732Y033732D02*
X010232Y035232D01*
X010232Y037232D01*
X011232Y036732D02*
X011232Y035232D01*
X009681Y034783D02*
X009232Y035232D01*
X006732Y035232D01*
X006232Y035732D01*
X006232Y037232D01*
X006232Y038732D01*
X007232Y037232D02*
X008232Y037232D01*
X009681Y034783D02*
X009681Y032732D01*
X010074Y032338D01*
X010074Y031422D01*
X009759Y031422D02*
X009759Y030704D01*
X010232Y030232D01*
X011232Y029732D02*
X011389Y029889D01*
X011922Y029889D01*
X009444Y031422D02*
X009444Y032019D01*
X008732Y032732D01*
X008732Y033232D01*
X007732Y034232D01*
X003532Y034232D01*
X002981Y034783D01*
X001732Y034783D01*
X001732Y033681D02*
X001283Y033681D01*
X001232Y033732D01*
X001732Y032783D02*
X002981Y032783D01*
X003532Y032232D01*
X004032Y032732D01*
X004032Y033232D01*
X004532Y033732D01*
X007732Y033732D01*
X008232Y033232D01*
X008232Y032732D01*
X009129Y031834D01*
X009129Y031422D01*
X008542Y031422D02*
X008542Y030834D01*
X008542Y030519D02*
X007944Y030519D01*
X007732Y030732D01*
X007732Y032732D01*
X007232Y033232D01*
X006732Y032732D02*
X006232Y033232D01*
X006732Y032732D02*
X006732Y031732D01*
X007232Y031232D01*
X007232Y030732D01*
X007759Y030204D01*
X008542Y030204D01*
X008542Y029889D02*
X007574Y029889D01*
X005732Y031732D01*
X005732Y032732D01*
X005232Y033232D01*
X005232Y032232D02*
X005232Y031732D01*
X007389Y029574D01*
X008542Y029574D01*
X008542Y028629D02*
X007129Y028629D01*
X006232Y028232D02*
X006181Y028181D01*
X005232Y028181D01*
X004012Y029622D02*
X001452Y029622D01*
X008232Y031732D02*
X008542Y031422D01*
X009129Y028042D02*
X009129Y027629D01*
X008732Y027232D01*
X014232Y022732D02*
X014232Y021732D01*
X014732Y022732D02*
X014732Y020232D01*
X017232Y022732D02*
X018232Y022732D01*
X018732Y023232D01*
X018732Y034732D01*
X019232Y035232D01*
X021732Y035232D01*
X017232Y032732D02*
X017232Y032232D01*
X017232Y032732D02*
X015732Y034232D01*
X015283Y034232D01*
X015283Y037181D01*
X015232Y037232D01*
X015283Y033232D02*
X015732Y033232D01*
X016232Y032732D01*
X016232Y032232D01*
X017232Y031232D01*
X024283Y023732D02*
X024283Y022732D01*
X023342Y020012D02*
X023342Y017452D01*
X022232Y014232D02*
X022629Y013834D01*
X023042Y013834D01*
X023042Y012259D02*
X025204Y012259D01*
X025232Y012232D02*
X025574Y012574D01*
X026422Y012574D01*
X026422Y012889D02*
X028626Y012889D01*
X028732Y012783D01*
X030181Y012783D01*
X030232Y012732D01*
X030232Y013232D02*
X029732Y013732D01*
X029732Y015232D01*
X029232Y015732D01*
X029732Y016232D02*
X030232Y015732D01*
X030232Y014732D01*
X030732Y014232D01*
X032732Y014232D01*
X032732Y013232D02*
X030232Y013232D01*
X027732Y011232D02*
X027732Y008232D01*
X028232Y007732D01*
X030232Y007732D01*
X030232Y006732D02*
X027732Y006732D01*
X025834Y008629D01*
X025834Y011042D01*
X025519Y011042D02*
X025519Y008732D01*
X024259Y010259D02*
X023232Y009232D01*
X022732Y009232D01*
X022732Y009732D02*
X023232Y009732D01*
X023944Y010444D01*
X023944Y011042D01*
X023629Y011042D02*
X023629Y010629D01*
X023232Y010232D01*
X022732Y010232D01*
X024259Y010259D02*
X024259Y011042D01*
X026422Y011629D02*
X027334Y011629D01*
X027732Y011232D01*
X032783Y008732D02*
X032783Y007283D01*
X032732Y007232D01*
X032783Y008732D02*
X033732Y008732D01*
X034232Y003732D02*
X031732Y001232D01*
X013232Y001232D01*
X012732Y001732D01*
X019232Y002232D02*
X021232Y002232D01*
X021732Y002732D01*
X021732Y004732D01*
X023732Y005232D02*
X027181Y005232D01*
X027181Y004232D02*
X023732Y004232D01*
X023732Y003232D02*
X027181Y003232D01*
X028283Y003232D02*
X029232Y003232D01*
X029232Y004232D02*
X028283Y004232D01*
X028283Y005232D02*
X029232Y005232D01*
X034232Y003732D02*
X034232Y020732D01*
X033232Y021732D01*
X010681Y018732D02*
X004732Y018732D01*
X004232Y018232D01*
X004232Y014232D01*
X004732Y013732D01*
X006232Y013732D01*
X006783Y013181D01*
X006783Y012732D01*
D29*
X011232Y017732D03*
X014732Y020232D03*
X014232Y021732D03*
X014232Y022732D03*
X014732Y022732D03*
X014732Y024232D03*
X014232Y024232D03*
X018232Y025232D03*
X019232Y025232D03*
X022232Y023732D03*
X024232Y026732D03*
X023732Y027232D03*
X023232Y028232D03*
X021732Y030232D03*
X022232Y030732D03*
X020732Y032732D03*
X025232Y029232D03*
X028232Y028232D03*
X028732Y028232D03*
X029232Y028232D03*
X028732Y032232D03*
X033732Y033232D03*
X034232Y026232D03*
X032732Y022232D03*
X029732Y016232D03*
X029232Y015732D03*
X030232Y012732D03*
X033732Y008732D03*
X030232Y007732D03*
X030232Y006732D03*
X029232Y005232D03*
X029232Y004232D03*
X029232Y003232D03*
X022732Y009232D03*
X022732Y009732D03*
X022732Y010232D03*
X022232Y014232D03*
X023232Y016232D03*
X024232Y015732D03*
X024732Y016732D03*
X025732Y018232D03*
X026232Y018232D03*
X026732Y021732D03*
X026232Y023732D03*
X013232Y030732D03*
X012732Y031232D03*
X011232Y029732D03*
X010732Y029232D03*
X008232Y031732D03*
X006232Y029732D03*
X005732Y030232D03*
X006732Y029232D03*
X006232Y028232D03*
X009232Y025232D03*
X009732Y025732D03*
X013232Y034232D03*
X011232Y035232D03*
X011232Y036732D03*
X001232Y017732D03*
X021732Y004732D03*
D30*
X018232Y005232D02*
X018232Y004232D01*
X018232Y003232D01*
X018232Y002232D01*
X017232Y002232D02*
X017232Y003232D01*
X017232Y004232D01*
X017232Y005232D01*
X013232Y008952D02*
X010003Y008952D01*
X009783Y008732D02*
X009783Y009432D01*
X009783Y010232D01*
X009733Y009482D02*
X007732Y009482D01*
X007732Y013732D01*
X008232Y014232D01*
X014232Y014232D01*
X015732Y015732D01*
X015732Y022232D01*
X016232Y022732D01*
X017232Y022732D01*
X006783Y012732D02*
X006632Y012581D01*
X006632Y010732D01*
X005832Y010732D02*
X002832Y013732D01*
X000982Y013732D01*
X000982Y017482D01*
X001232Y017732D01*
X000982Y013732D02*
X000982Y011232D01*
X001482Y010732D01*
X002232Y010732D01*
X002232Y011732D02*
X003732Y011732D01*
X004232Y011232D01*
X004232Y007232D01*
X002232Y005232D01*
X005832Y005232D01*
X005832Y007081D01*
X005681Y007232D01*
X005732Y007283D01*
X005732Y008232D01*
X006982Y009482D01*
X007732Y009482D01*
X005832Y010732D02*
X005832Y012581D01*
X005681Y012732D01*
X006783Y007232D02*
X006632Y007081D01*
X006632Y005232D01*
D31*
X004732Y003732D02*
X009732Y003732D01*
X011732Y003732D01*
X012732Y002732D01*
X012732Y001732D01*
X008732Y001732D02*
X007110Y001732D01*
X004732Y003732D02*
X004232Y003232D01*
X002232Y003232D01*
M02*
