G75*
G70*
%OFA0B0*%
%FSLAX24Y24*%
%IPPOS*%
%LPD*%
%AMOC8*
5,1,8,0,0,1.08239X$1,22.5*
%
%ADD10R,0.0800X0.0800*%
%ADD11C,0.0800*%
%ADD12C,0.0600*%
%ADD13C,0.0520*%
%ADD14C,0.0554*%
%ADD15C,0.0740*%
%ADD16R,0.0740X0.0740*%
%ADD17C,0.0780*%
%ADD18C,0.1000*%
%ADD19OC8,0.1000*%
%ADD20OC8,0.0520*%
%ADD21C,0.0100*%
%ADD22C,0.0460*%
%ADD23C,0.0360*%
%ADD24C,0.0240*%
D10*
X005732Y001732D03*
D11*
X007110Y001732D03*
D12*
X002532Y003232D02*
X001932Y003232D01*
X001932Y004232D02*
X002532Y004232D01*
X002532Y005232D02*
X001932Y005232D01*
X001932Y009732D02*
X002532Y009732D01*
X002532Y010732D02*
X001932Y010732D01*
X001932Y011732D02*
X002532Y011732D01*
D13*
X005832Y010732D03*
X005832Y005232D03*
X019732Y011732D03*
X019732Y013732D03*
X030232Y024232D03*
X030232Y026232D03*
X003532Y032232D03*
X003532Y034232D03*
D14*
X013232Y011511D03*
X013232Y008952D03*
D15*
X017232Y005232D03*
X018232Y005232D03*
X019232Y005232D03*
X019232Y004232D03*
X019232Y003232D03*
X019232Y002232D03*
X018232Y002232D03*
X018232Y003232D03*
X018232Y004232D03*
X017232Y004232D03*
X017232Y003232D03*
X017232Y002232D03*
X014232Y003232D03*
X014232Y004232D03*
X022732Y004232D03*
X023732Y004232D03*
X023732Y003232D03*
X022732Y003232D03*
X022732Y005232D03*
X023732Y005232D03*
X031732Y005232D03*
X031732Y006232D03*
X031732Y007232D03*
X032732Y007232D03*
X032732Y006232D03*
X032732Y010232D03*
X032732Y011232D03*
X032732Y012232D03*
X032732Y013232D03*
X032732Y014232D03*
X032732Y015232D03*
X032732Y016232D03*
X032732Y017232D03*
X032732Y018232D03*
X032732Y019232D03*
X032732Y020232D03*
X025122Y020012D03*
X023342Y020012D03*
X023342Y017452D03*
X025122Y017452D03*
X020232Y021732D03*
X020232Y022732D03*
X020232Y023732D03*
X020232Y026232D03*
X020232Y027232D03*
X020232Y028232D03*
X017232Y028232D03*
X017232Y027232D03*
X017232Y026232D03*
X017232Y023732D03*
X017232Y022732D03*
X017232Y021732D03*
X017732Y018232D03*
X018232Y017482D03*
X018732Y018232D03*
X011901Y022539D03*
X010901Y022539D03*
X009901Y022539D03*
X008901Y022539D03*
X007901Y022539D03*
X006901Y022539D03*
X005901Y022539D03*
X004901Y022539D03*
X003232Y023732D03*
X003232Y024732D03*
X003232Y025732D03*
X002232Y024732D03*
X002232Y023732D03*
X001452Y027842D03*
X001452Y029622D03*
X004012Y029622D03*
X004012Y027842D03*
X005232Y032232D03*
X005232Y033232D03*
X006232Y033232D03*
X007232Y033232D03*
X007232Y032232D03*
X006232Y032232D03*
X006232Y037232D03*
X007232Y037232D03*
X008232Y037232D03*
X009232Y037232D03*
X010232Y037232D03*
X013232Y037232D03*
X014232Y037232D03*
X015232Y037232D03*
X017232Y032232D03*
X017232Y031232D03*
X017232Y030232D03*
X021732Y035232D03*
X021732Y036232D03*
X021732Y037232D03*
X022732Y037232D03*
X023732Y037232D03*
X024732Y037232D03*
X025732Y037232D03*
X026732Y037232D03*
X027732Y037232D03*
X027732Y036232D03*
X027732Y035232D03*
X026732Y035232D03*
X026732Y036232D03*
X025732Y036232D03*
X025732Y035232D03*
X024732Y035232D03*
X024732Y036232D03*
X023732Y036232D03*
X023732Y035232D03*
X022732Y035232D03*
X022732Y036232D03*
X030232Y036232D03*
X030232Y035232D03*
X031232Y035232D03*
X031232Y036232D03*
X031232Y037232D03*
X030952Y031122D03*
X030952Y029342D03*
X033512Y029342D03*
X033512Y031122D03*
X010901Y016240D03*
X009901Y016240D03*
X008901Y016240D03*
X007901Y016240D03*
X006901Y016240D03*
X005901Y016240D03*
X004901Y016240D03*
X005232Y037232D03*
X004232Y037232D03*
D16*
X012232Y037232D03*
X002232Y025732D03*
X011901Y016240D03*
X030232Y037232D03*
X032732Y005232D03*
D17*
X012732Y001732D03*
X008732Y001732D03*
D18*
X009732Y003732D03*
D19*
X009732Y005732D03*
D20*
X006632Y005232D03*
X006632Y010732D03*
X027732Y019732D03*
X028732Y020732D03*
X029732Y019732D03*
D21*
X005200Y002203D02*
X002261Y002203D01*
X002162Y002301D02*
X011732Y002301D01*
X011732Y002203D02*
X008954Y002203D01*
X009026Y002173D02*
X008835Y002252D01*
X008628Y002252D01*
X008437Y002173D01*
X008291Y002026D01*
X008212Y001835D01*
X008212Y001628D01*
X008291Y001437D01*
X008437Y001291D01*
X008628Y001212D01*
X008835Y001212D01*
X009026Y001291D01*
X009173Y001437D01*
X009252Y001628D01*
X009252Y001835D01*
X009173Y002026D01*
X009026Y002173D01*
X009095Y002104D02*
X011732Y002104D01*
X011732Y002006D02*
X009181Y002006D01*
X009222Y001907D02*
X011732Y001907D01*
X011732Y001809D02*
X009252Y001809D01*
X009252Y001710D02*
X011732Y001710D01*
X011732Y001611D02*
X009245Y001611D01*
X009204Y001513D02*
X011732Y001513D01*
X011732Y001414D02*
X009150Y001414D01*
X009051Y001316D02*
X011732Y001316D01*
X011732Y001217D02*
X008848Y001217D01*
X008615Y001217D02*
X007252Y001217D01*
X007215Y001202D02*
X007410Y001282D01*
X007559Y001432D01*
X007640Y001626D01*
X007640Y001837D01*
X007559Y002032D01*
X007410Y002181D01*
X007215Y002262D01*
X007004Y002262D01*
X006810Y002181D01*
X006660Y002032D01*
X006580Y001837D01*
X006580Y001626D01*
X006660Y001432D01*
X006810Y001282D01*
X007004Y001202D01*
X007215Y001202D01*
X006967Y001217D02*
X006229Y001217D01*
X006224Y001212D02*
X006252Y001240D01*
X006272Y001274D01*
X006282Y001312D01*
X006282Y001682D01*
X005782Y001682D01*
X005782Y001782D01*
X006282Y001782D01*
X006282Y002152D01*
X006272Y002190D01*
X006252Y002224D01*
X006224Y002252D01*
X006190Y002272D01*
X006152Y002282D01*
X005782Y002282D01*
X005782Y001782D01*
X005682Y001782D01*
X005682Y002282D01*
X005312Y002282D01*
X005274Y002272D01*
X005240Y002252D01*
X005212Y002224D01*
X005192Y002190D01*
X005182Y002152D01*
X005182Y001782D01*
X005682Y001782D01*
X005682Y001682D01*
X005782Y001682D01*
X005782Y001182D01*
X006152Y001182D01*
X006190Y001192D01*
X006224Y001212D01*
X006282Y001316D02*
X006776Y001316D01*
X006678Y001414D02*
X006282Y001414D01*
X006282Y001513D02*
X006627Y001513D01*
X006586Y001611D02*
X006282Y001611D01*
X006282Y001809D02*
X006580Y001809D01*
X006580Y001710D02*
X005782Y001710D01*
X005782Y001809D02*
X005682Y001809D01*
X005682Y001907D02*
X005782Y001907D01*
X005782Y002006D02*
X005682Y002006D01*
X005682Y002104D02*
X005782Y002104D01*
X005782Y002203D02*
X005682Y002203D01*
X005682Y001710D02*
X002754Y001710D01*
X002852Y001611D02*
X005182Y001611D01*
X005182Y001682D02*
X005182Y001312D01*
X005192Y001274D01*
X005212Y001240D01*
X005240Y001212D01*
X005274Y001192D01*
X005312Y001182D01*
X005682Y001182D01*
X005682Y001682D01*
X005182Y001682D01*
X005182Y001809D02*
X002655Y001809D01*
X002557Y001907D02*
X005182Y001907D01*
X005182Y002006D02*
X002458Y002006D01*
X002359Y002104D02*
X005182Y002104D01*
X005182Y001513D02*
X002951Y001513D01*
X003049Y001414D02*
X005182Y001414D01*
X005182Y001316D02*
X003148Y001316D01*
X003246Y001217D02*
X005234Y001217D01*
X005682Y001217D02*
X005782Y001217D01*
X005782Y001316D02*
X005682Y001316D01*
X005682Y001414D02*
X005782Y001414D01*
X005782Y001513D02*
X005682Y001513D01*
X005682Y001611D02*
X005782Y001611D01*
X006282Y001907D02*
X006609Y001907D01*
X006650Y002006D02*
X006282Y002006D01*
X006282Y002104D02*
X006733Y002104D01*
X006862Y002203D02*
X006264Y002203D01*
X007358Y002203D02*
X008510Y002203D01*
X008369Y002104D02*
X007487Y002104D01*
X007570Y002006D02*
X008282Y002006D01*
X008242Y001907D02*
X007611Y001907D01*
X007640Y001809D02*
X008212Y001809D01*
X008212Y001710D02*
X007640Y001710D01*
X007634Y001611D02*
X008219Y001611D01*
X008260Y001513D02*
X007593Y001513D01*
X007542Y001414D02*
X008314Y001414D01*
X008412Y001316D02*
X007443Y001316D01*
X009375Y003198D02*
X009198Y003375D01*
X009102Y003606D01*
X009102Y003857D01*
X009198Y004089D01*
X009375Y004266D01*
X009606Y004362D01*
X009857Y004362D01*
X010089Y004266D01*
X010266Y004089D01*
X010362Y003857D01*
X010362Y003606D01*
X010266Y003375D01*
X010089Y003198D01*
X009857Y003102D01*
X009606Y003102D01*
X009375Y003198D01*
X009398Y003188D02*
X002962Y003188D01*
X002962Y003146D02*
X002962Y003317D01*
X002896Y003475D01*
X002775Y003596D01*
X002617Y003662D01*
X001846Y003662D01*
X001688Y003596D01*
X001567Y003475D01*
X001502Y003317D01*
X001502Y003146D01*
X001567Y002988D01*
X001688Y002867D01*
X001846Y002802D01*
X002617Y002802D01*
X002775Y002867D01*
X002896Y002988D01*
X002962Y003146D01*
X002938Y003090D02*
X011732Y003090D01*
X011732Y003188D02*
X010065Y003188D01*
X010178Y003287D02*
X011732Y003287D01*
X011732Y003385D02*
X010270Y003385D01*
X010311Y003484D02*
X011732Y003484D01*
X011732Y003582D02*
X010352Y003582D01*
X010362Y003681D02*
X011732Y003681D01*
X011732Y003779D02*
X010362Y003779D01*
X010353Y003878D02*
X011732Y003878D01*
X011732Y003976D02*
X010312Y003976D01*
X010272Y004075D02*
X011732Y004075D01*
X011732Y004174D02*
X010181Y004174D01*
X010074Y004272D02*
X011732Y004272D01*
X011732Y004371D02*
X002960Y004371D01*
X002971Y004337D02*
X002949Y004405D01*
X002917Y004468D01*
X002875Y004525D01*
X002825Y004575D01*
X002768Y004617D01*
X002705Y004649D01*
X002637Y004671D01*
X002567Y004682D01*
X002282Y004682D01*
X002282Y004282D01*
X002182Y004282D01*
X002182Y004682D01*
X001896Y004682D01*
X001826Y004671D01*
X001759Y004649D01*
X001696Y004617D01*
X001639Y004575D01*
X001589Y004525D01*
X001547Y004468D01*
X001515Y004405D01*
X001493Y004337D01*
X001484Y004282D01*
X002182Y004282D01*
X002182Y004182D01*
X002282Y004182D01*
X002282Y004282D01*
X002979Y004282D01*
X002971Y004337D01*
X002916Y004469D02*
X011732Y004469D01*
X011732Y004568D02*
X002832Y004568D01*
X002651Y004666D02*
X011732Y004666D01*
X011732Y004765D02*
X000732Y004765D01*
X000732Y004863D02*
X001698Y004863D01*
X001688Y004867D02*
X001846Y004802D01*
X002617Y004802D01*
X002775Y004867D01*
X002896Y004988D01*
X002962Y005146D01*
X002962Y005317D01*
X002896Y005475D01*
X002775Y005596D01*
X002617Y005662D01*
X001846Y005662D01*
X001688Y005596D01*
X001567Y005475D01*
X001502Y005317D01*
X001502Y005146D01*
X001567Y004988D01*
X001688Y004867D01*
X001594Y004962D02*
X000732Y004962D01*
X000732Y005060D02*
X001537Y005060D01*
X001502Y005159D02*
X000732Y005159D01*
X000732Y005258D02*
X001502Y005258D01*
X001518Y005356D02*
X000732Y005356D01*
X000732Y005455D02*
X001559Y005455D01*
X001645Y005553D02*
X000732Y005553D01*
X000732Y005652D02*
X001822Y005652D01*
X002642Y005652D02*
X009082Y005652D01*
X009082Y005682D02*
X009082Y005463D01*
X009463Y005082D01*
X009682Y005082D01*
X009682Y005682D01*
X009082Y005682D01*
X009082Y005782D02*
X009682Y005782D01*
X009682Y006382D01*
X009463Y006382D01*
X009082Y006001D01*
X009082Y005782D01*
X009082Y005849D02*
X000732Y005849D01*
X000732Y005947D02*
X009082Y005947D01*
X009127Y006046D02*
X000732Y006046D01*
X000732Y006144D02*
X009225Y006144D01*
X009324Y006243D02*
X000732Y006243D01*
X000732Y006341D02*
X009422Y006341D01*
X009682Y006341D02*
X009782Y006341D01*
X009782Y006382D02*
X009782Y005782D01*
X009682Y005782D01*
X009682Y005682D01*
X009782Y005682D01*
X009782Y005782D01*
X010382Y005782D01*
X010382Y006001D01*
X010001Y006382D01*
X009782Y006382D01*
X009782Y006243D02*
X009682Y006243D01*
X009682Y006144D02*
X009782Y006144D01*
X009782Y006046D02*
X009682Y006046D01*
X009682Y005947D02*
X009782Y005947D01*
X009782Y005849D02*
X009682Y005849D01*
X009682Y005750D02*
X000732Y005750D01*
X000732Y006440D02*
X011732Y006440D01*
X011732Y006341D02*
X010041Y006341D01*
X010140Y006243D02*
X011732Y006243D01*
X011732Y006144D02*
X010238Y006144D01*
X010337Y006046D02*
X011732Y006046D01*
X011732Y005947D02*
X010382Y005947D01*
X010382Y005849D02*
X011732Y005849D01*
X011732Y005750D02*
X009782Y005750D01*
X009782Y005682D02*
X010382Y005682D01*
X010382Y005463D01*
X010001Y005082D01*
X009782Y005082D01*
X009782Y005682D01*
X009782Y005652D02*
X009682Y005652D01*
X009682Y005553D02*
X009782Y005553D01*
X009782Y005455D02*
X009682Y005455D01*
X009682Y005356D02*
X009782Y005356D01*
X009782Y005258D02*
X009682Y005258D01*
X009682Y005159D02*
X009782Y005159D01*
X010078Y005159D02*
X011732Y005159D01*
X011732Y005258D02*
X010177Y005258D01*
X010275Y005356D02*
X011732Y005356D01*
X011732Y005455D02*
X010374Y005455D01*
X010382Y005553D02*
X011732Y005553D01*
X011732Y005652D02*
X010382Y005652D01*
X009385Y005159D02*
X007042Y005159D01*
X007042Y005202D02*
X007042Y005062D01*
X006802Y004822D01*
X006662Y004822D01*
X006662Y005202D01*
X006662Y005262D01*
X007042Y005262D01*
X007042Y005402D01*
X006802Y005642D01*
X006662Y005642D01*
X006662Y005262D01*
X006602Y005262D01*
X006602Y005642D01*
X006462Y005642D01*
X006222Y005402D01*
X006222Y005262D01*
X006602Y005262D01*
X006602Y005202D01*
X006662Y005202D01*
X007042Y005202D01*
X007040Y005060D02*
X011732Y005060D01*
X011732Y004962D02*
X006942Y004962D01*
X006843Y004863D02*
X011732Y004863D01*
X011732Y006539D02*
X000732Y006539D01*
X000732Y006637D02*
X011732Y006637D01*
X011732Y006736D02*
X000732Y006736D01*
X000732Y006834D02*
X011732Y006834D01*
X011732Y006933D02*
X000732Y006933D01*
X000732Y007031D02*
X011732Y007031D01*
X011732Y007130D02*
X000732Y007130D01*
X000732Y007228D02*
X011732Y007228D01*
X011732Y007327D02*
X000732Y007327D01*
X000732Y007425D02*
X011732Y007425D01*
X011732Y007524D02*
X000732Y007524D01*
X000732Y007623D02*
X011732Y007623D01*
X011732Y007721D02*
X000732Y007721D01*
X000732Y007820D02*
X011732Y007820D01*
X011732Y007918D02*
X000732Y007918D01*
X000732Y008017D02*
X011732Y008017D01*
X011732Y008115D02*
X000732Y008115D01*
X000732Y008214D02*
X011732Y008214D01*
X011732Y008312D02*
X000732Y008312D01*
X000732Y008411D02*
X011732Y008411D01*
X011732Y008509D02*
X000732Y008509D01*
X000732Y008608D02*
X011732Y008608D01*
X011732Y008707D02*
X000732Y008707D01*
X000732Y008805D02*
X011732Y008805D01*
X011732Y008904D02*
X000732Y008904D01*
X000732Y009002D02*
X011732Y009002D01*
X011732Y009101D02*
X000732Y009101D01*
X000732Y009199D02*
X011732Y009199D01*
X011732Y009298D02*
X002652Y009298D01*
X002637Y009293D02*
X002705Y009315D01*
X002768Y009347D01*
X002825Y009389D01*
X002875Y009439D01*
X002917Y009496D01*
X002949Y009559D01*
X002971Y009626D01*
X002979Y009682D01*
X002282Y009682D01*
X002282Y009782D01*
X002182Y009782D01*
X002182Y010182D01*
X001896Y010182D01*
X001826Y010171D01*
X001759Y010149D01*
X001696Y010117D01*
X001639Y010075D01*
X001589Y010025D01*
X001547Y009968D01*
X001515Y009905D01*
X001493Y009837D01*
X001484Y009782D01*
X002182Y009782D01*
X002182Y009682D01*
X002282Y009682D01*
X002282Y009282D01*
X002567Y009282D01*
X002637Y009293D01*
X002833Y009396D02*
X011732Y009396D01*
X011732Y009495D02*
X002916Y009495D01*
X002960Y009593D02*
X011732Y009593D01*
X011732Y009692D02*
X002282Y009692D01*
X002282Y009782D02*
X002979Y009782D01*
X002971Y009837D01*
X002949Y009905D01*
X002917Y009968D01*
X002875Y010025D01*
X002825Y010075D01*
X002768Y010117D01*
X002705Y010149D01*
X002637Y010171D01*
X002567Y010182D01*
X002282Y010182D01*
X002282Y009782D01*
X002282Y009791D02*
X002182Y009791D01*
X002182Y009889D02*
X002282Y009889D01*
X002282Y009988D02*
X002182Y009988D01*
X002182Y010086D02*
X002282Y010086D01*
X002617Y010302D02*
X001846Y010302D01*
X001688Y010367D01*
X001567Y010488D01*
X001502Y010646D01*
X001502Y010817D01*
X001567Y010975D01*
X001688Y011096D01*
X001846Y011162D01*
X002617Y011162D01*
X002775Y011096D01*
X002896Y010975D01*
X002962Y010817D01*
X002962Y010646D01*
X002896Y010488D01*
X002775Y010367D01*
X002617Y010302D01*
X002790Y010382D02*
X005658Y010382D01*
X005611Y010401D02*
X005754Y010342D01*
X005909Y010342D01*
X006053Y010401D01*
X006162Y010511D01*
X006222Y010654D01*
X006222Y010809D01*
X006162Y010953D01*
X006053Y011062D01*
X005909Y011122D01*
X005754Y011122D01*
X005611Y011062D01*
X005501Y010953D01*
X005442Y010809D01*
X005442Y010654D01*
X005501Y010511D01*
X005611Y010401D01*
X005532Y010480D02*
X002888Y010480D01*
X002934Y010579D02*
X005473Y010579D01*
X005442Y010677D02*
X002962Y010677D01*
X002962Y010776D02*
X005442Y010776D01*
X005469Y010874D02*
X002938Y010874D01*
X002897Y010973D02*
X005521Y010973D01*
X005633Y011072D02*
X002800Y011072D01*
X002617Y011302D02*
X002775Y011367D01*
X011732Y011367D01*
X011732Y011269D02*
X000732Y011269D01*
X000732Y011367D02*
X001688Y011367D01*
X001846Y011302D01*
X002617Y011302D01*
X002775Y011367D02*
X002896Y011488D01*
X002962Y011646D01*
X002962Y011817D01*
X002896Y011975D01*
X002775Y012096D01*
X002617Y012162D01*
X001846Y012162D01*
X001688Y012096D01*
X001567Y011975D01*
X001502Y011817D01*
X001502Y011646D01*
X001567Y011488D01*
X001688Y011367D01*
X001590Y011466D02*
X000732Y011466D01*
X000732Y011564D02*
X001536Y011564D01*
X001502Y011663D02*
X000732Y011663D01*
X000732Y011761D02*
X001502Y011761D01*
X001519Y011860D02*
X000732Y011860D01*
X000732Y011958D02*
X001560Y011958D01*
X001649Y012057D02*
X000732Y012057D01*
X000732Y012156D02*
X001831Y012156D01*
X002632Y012156D02*
X011732Y012156D01*
X011732Y012254D02*
X000732Y012254D01*
X000732Y012353D02*
X011732Y012353D01*
X011732Y012451D02*
X000732Y012451D01*
X000732Y012550D02*
X011732Y012550D01*
X011732Y012648D02*
X000732Y012648D01*
X000732Y012747D02*
X011732Y012747D01*
X011732Y012845D02*
X000732Y012845D01*
X000732Y012944D02*
X011732Y012944D01*
X011732Y013042D02*
X000732Y013042D01*
X000732Y013141D02*
X011732Y013141D01*
X011732Y013232D02*
X011732Y000732D01*
X003732Y000732D01*
X000732Y003732D01*
X000732Y014232D01*
X010732Y014232D01*
X011732Y013232D01*
X011724Y013240D02*
X000732Y013240D01*
X000732Y013338D02*
X011626Y013338D01*
X011527Y013437D02*
X000732Y013437D01*
X000732Y013535D02*
X011428Y013535D01*
X011330Y013634D02*
X000732Y013634D01*
X000732Y013732D02*
X011231Y013732D01*
X011133Y013831D02*
X000732Y013831D01*
X000732Y013929D02*
X011034Y013929D01*
X010936Y014028D02*
X000732Y014028D01*
X000732Y014126D02*
X010837Y014126D01*
X010739Y014225D02*
X000732Y014225D01*
X002815Y012057D02*
X011732Y012057D01*
X011732Y011958D02*
X002903Y011958D01*
X002944Y011860D02*
X011732Y011860D01*
X011732Y011761D02*
X002962Y011761D01*
X002962Y011663D02*
X011732Y011663D01*
X011732Y011564D02*
X002928Y011564D01*
X002874Y011466D02*
X011732Y011466D01*
X011732Y011170D02*
X000732Y011170D01*
X000732Y011072D02*
X001664Y011072D01*
X001566Y010973D02*
X000732Y010973D01*
X000732Y010874D02*
X001526Y010874D01*
X001502Y010776D02*
X000732Y010776D01*
X000732Y010677D02*
X001502Y010677D01*
X001530Y010579D02*
X000732Y010579D01*
X000732Y010480D02*
X001575Y010480D01*
X001674Y010382D02*
X000732Y010382D01*
X000732Y010283D02*
X011732Y010283D01*
X011732Y010185D02*
X000732Y010185D01*
X000732Y010086D02*
X001654Y010086D01*
X001561Y009988D02*
X000732Y009988D01*
X000732Y009889D02*
X001510Y009889D01*
X001486Y009791D02*
X000732Y009791D01*
X000732Y009692D02*
X002182Y009692D01*
X002182Y009682D02*
X001484Y009682D01*
X001493Y009626D01*
X001515Y009559D01*
X001547Y009496D01*
X001589Y009439D01*
X001639Y009389D01*
X001696Y009347D01*
X001759Y009315D01*
X001826Y009293D01*
X001896Y009282D01*
X002182Y009282D01*
X002182Y009682D01*
X002182Y009593D02*
X002282Y009593D01*
X002282Y009495D02*
X002182Y009495D01*
X002182Y009396D02*
X002282Y009396D01*
X002282Y009298D02*
X002182Y009298D01*
X001811Y009298D02*
X000732Y009298D01*
X000732Y009396D02*
X001631Y009396D01*
X001548Y009495D02*
X000732Y009495D01*
X000732Y009593D02*
X001504Y009593D01*
X002810Y010086D02*
X011732Y010086D01*
X011732Y009988D02*
X002902Y009988D01*
X002954Y009889D02*
X011732Y009889D01*
X011732Y009791D02*
X002978Y009791D01*
X006006Y010382D02*
X006402Y010382D01*
X006462Y010322D02*
X006602Y010322D01*
X006602Y010702D01*
X006662Y010702D01*
X006662Y010762D01*
X007042Y010762D01*
X007042Y010902D01*
X006802Y011142D01*
X006662Y011142D01*
X006662Y010762D01*
X006602Y010762D01*
X006602Y011142D01*
X006462Y011142D01*
X006222Y010902D01*
X006222Y010762D01*
X006602Y010762D01*
X006602Y010702D01*
X006222Y010702D01*
X006222Y010562D01*
X006462Y010322D01*
X006602Y010382D02*
X006662Y010382D01*
X006662Y010322D02*
X006802Y010322D01*
X007042Y010562D01*
X007042Y010702D01*
X006662Y010702D01*
X006662Y010322D01*
X006662Y010480D02*
X006602Y010480D01*
X006602Y010579D02*
X006662Y010579D01*
X006662Y010677D02*
X006602Y010677D01*
X006632Y010732D02*
X006632Y005232D01*
X006662Y005258D02*
X009287Y005258D01*
X009188Y005356D02*
X007042Y005356D01*
X006989Y005455D02*
X009090Y005455D01*
X009082Y005553D02*
X006890Y005553D01*
X006662Y005553D02*
X006602Y005553D01*
X006602Y005455D02*
X006662Y005455D01*
X006662Y005356D02*
X006602Y005356D01*
X006602Y005258D02*
X006222Y005258D01*
X006222Y005309D02*
X006162Y005453D01*
X006053Y005562D01*
X005909Y005622D01*
X005754Y005622D01*
X005611Y005562D01*
X005501Y005453D01*
X005442Y005309D01*
X005442Y005154D01*
X005501Y005011D01*
X005611Y004901D01*
X005754Y004842D01*
X005909Y004842D01*
X006053Y004901D01*
X006162Y005011D01*
X006222Y005154D01*
X006222Y005309D01*
X006222Y005356D02*
X006202Y005356D01*
X006161Y005455D02*
X006275Y005455D01*
X006373Y005553D02*
X006062Y005553D01*
X006222Y005202D02*
X006222Y005062D01*
X006462Y004822D01*
X006602Y004822D01*
X006602Y005202D01*
X006222Y005202D01*
X006222Y005159D02*
X006222Y005159D01*
X006223Y005060D02*
X006183Y005060D01*
X006113Y004962D02*
X006322Y004962D01*
X006420Y004863D02*
X005961Y004863D01*
X005702Y004863D02*
X002766Y004863D01*
X002870Y004962D02*
X005550Y004962D01*
X005481Y005060D02*
X002926Y005060D01*
X002962Y005159D02*
X005442Y005159D01*
X005442Y005258D02*
X002962Y005258D01*
X002946Y005356D02*
X005461Y005356D01*
X005503Y005455D02*
X002905Y005455D01*
X002819Y005553D02*
X005602Y005553D01*
X006602Y005159D02*
X006662Y005159D01*
X006662Y005060D02*
X006602Y005060D01*
X006602Y004962D02*
X006662Y004962D01*
X006662Y004863D02*
X006602Y004863D01*
X009110Y003878D02*
X002810Y003878D01*
X002825Y003889D02*
X002875Y003939D01*
X002917Y003996D01*
X002949Y004059D01*
X002971Y004126D01*
X002979Y004182D01*
X002282Y004182D01*
X002282Y003782D01*
X002567Y003782D01*
X002637Y003793D01*
X002705Y003815D01*
X002768Y003847D01*
X002825Y003889D01*
X002902Y003976D02*
X009151Y003976D01*
X009192Y004075D02*
X002954Y004075D01*
X002978Y004174D02*
X009283Y004174D01*
X009390Y004272D02*
X002282Y004272D01*
X002282Y004174D02*
X002182Y004174D01*
X002182Y004182D02*
X002182Y003782D01*
X001896Y003782D01*
X001826Y003793D01*
X001759Y003815D01*
X001696Y003847D01*
X001639Y003889D01*
X001589Y003939D01*
X001547Y003996D01*
X001515Y004059D01*
X001493Y004126D01*
X001484Y004182D01*
X002182Y004182D01*
X002182Y004272D02*
X000732Y004272D01*
X000732Y004174D02*
X001485Y004174D01*
X001510Y004075D02*
X000732Y004075D01*
X000732Y003976D02*
X001561Y003976D01*
X001653Y003878D02*
X000732Y003878D01*
X000732Y003779D02*
X009102Y003779D01*
X009102Y003681D02*
X000783Y003681D01*
X000881Y003582D02*
X001674Y003582D01*
X001576Y003484D02*
X000980Y003484D01*
X001078Y003385D02*
X001530Y003385D01*
X001502Y003287D02*
X001177Y003287D01*
X001276Y003188D02*
X001502Y003188D01*
X001525Y003090D02*
X001374Y003090D01*
X001473Y002991D02*
X001566Y002991D01*
X001571Y002892D02*
X001663Y002892D01*
X001670Y002794D02*
X011732Y002794D01*
X011732Y002892D02*
X002801Y002892D01*
X002897Y002991D02*
X011732Y002991D01*
X011732Y002695D02*
X001768Y002695D01*
X001867Y002597D02*
X011732Y002597D01*
X011732Y002498D02*
X001965Y002498D01*
X002064Y002400D02*
X011732Y002400D01*
X011732Y001119D02*
X003345Y001119D01*
X003443Y001020D02*
X011732Y001020D01*
X011732Y000922D02*
X003542Y000922D01*
X003641Y000823D02*
X011732Y000823D01*
X009286Y003287D02*
X002962Y003287D01*
X002934Y003385D02*
X009193Y003385D01*
X009153Y003484D02*
X002888Y003484D01*
X002789Y003582D02*
X009112Y003582D01*
X006862Y010382D02*
X011732Y010382D01*
X011732Y010480D02*
X006960Y010480D01*
X007042Y010579D02*
X011732Y010579D01*
X011732Y010677D02*
X007042Y010677D01*
X007042Y010776D02*
X011732Y010776D01*
X011732Y010874D02*
X007042Y010874D01*
X006970Y010973D02*
X011732Y010973D01*
X011732Y011072D02*
X006872Y011072D01*
X006662Y011072D02*
X006602Y011072D01*
X006602Y010973D02*
X006662Y010973D01*
X006662Y010874D02*
X006602Y010874D01*
X006602Y010776D02*
X006662Y010776D01*
X006392Y011072D02*
X006031Y011072D01*
X006142Y010973D02*
X006293Y010973D01*
X006222Y010874D02*
X006195Y010874D01*
X006222Y010776D02*
X006222Y010776D01*
X006222Y010677D02*
X006222Y010677D01*
X006222Y010579D02*
X006191Y010579D01*
X006132Y010480D02*
X006303Y010480D01*
X002282Y004666D02*
X002182Y004666D01*
X002182Y004568D02*
X002282Y004568D01*
X002282Y004469D02*
X002182Y004469D01*
X002182Y004371D02*
X002282Y004371D01*
X002282Y004075D02*
X002182Y004075D01*
X002182Y003976D02*
X002282Y003976D01*
X002282Y003878D02*
X002182Y003878D01*
X001504Y004371D02*
X000732Y004371D01*
X000732Y004469D02*
X001548Y004469D01*
X001631Y004568D02*
X000732Y004568D01*
X000732Y004666D02*
X001813Y004666D01*
X001232Y017732D02*
X011232Y017732D01*
X014732Y020732D02*
X014232Y021232D01*
X014232Y021732D01*
X014232Y022732D02*
X014232Y024232D01*
X014732Y024232D02*
X014732Y022732D01*
X015732Y022232D02*
X013232Y022232D01*
X012732Y021732D01*
X011732Y021732D01*
X010732Y022732D01*
X010732Y029232D01*
X011232Y029732D02*
X006232Y029732D01*
X005732Y030232D02*
X006232Y030732D01*
X006232Y032232D01*
X004732Y030732D02*
X005232Y030232D01*
X005232Y029232D01*
X006232Y028232D01*
X005232Y027232D01*
X004232Y027232D01*
X003232Y026232D01*
X002732Y026732D01*
X001232Y026732D01*
X000732Y026232D01*
X000732Y018232D01*
X001232Y017732D01*
X003232Y024732D02*
X003732Y024732D01*
X006732Y027732D01*
X006732Y029232D01*
X004732Y030732D02*
X001732Y030732D01*
X001232Y031232D01*
X001232Y035732D01*
X003732Y038232D01*
X006732Y038232D01*
X007232Y037732D01*
X007232Y037232D01*
X005732Y036232D02*
X015732Y036232D01*
X019232Y032732D01*
X019232Y029232D01*
X018232Y028232D01*
X017232Y028232D01*
X017232Y027232D02*
X016732Y027232D01*
X016232Y027732D01*
X016232Y029232D01*
X018232Y029232D01*
X018732Y029732D01*
X018732Y032232D01*
X015232Y035732D01*
X005232Y035732D01*
X004232Y036732D01*
X004232Y037232D01*
X005232Y037232D02*
X005232Y036732D01*
X005732Y036232D01*
X008732Y034232D02*
X008232Y033232D01*
X008232Y031732D01*
X008732Y034232D02*
X010232Y034232D01*
X011232Y035232D01*
X011232Y036732D02*
X011232Y037732D01*
X010732Y038232D01*
X009732Y038232D01*
X009232Y037732D01*
X009232Y037232D01*
X013232Y034232D02*
X013232Y031732D01*
X012732Y031232D01*
X017232Y031232D01*
X016232Y029232D02*
X014732Y030732D01*
X013232Y030732D01*
X016732Y026232D02*
X016232Y025732D01*
X016232Y022732D01*
X015732Y022232D01*
X016732Y022232D01*
X017232Y021732D01*
X018732Y020732D02*
X019232Y021232D01*
X019232Y022732D01*
X020232Y023732D01*
X020232Y022732D02*
X021232Y022732D01*
X021732Y023232D01*
X021732Y030232D01*
X022232Y030732D02*
X022232Y023732D01*
X024732Y023732D01*
X026232Y022232D01*
X026232Y018232D01*
X025732Y018232D02*
X025732Y020232D01*
X025232Y020732D01*
X021732Y020732D01*
X021732Y023232D01*
X021732Y020732D02*
X021232Y020232D01*
X014732Y020232D01*
X014732Y020732D02*
X018732Y020732D01*
X018232Y025232D02*
X019232Y025232D01*
X019232Y026232D02*
X019232Y028732D01*
X020232Y029732D01*
X020232Y032232D01*
X020732Y032732D01*
X023732Y033732D02*
X024232Y034232D01*
X024232Y035732D01*
X023732Y036232D01*
X023232Y035732D02*
X022732Y036232D01*
X023232Y035732D02*
X023232Y028232D01*
X023732Y027232D02*
X023732Y033732D01*
X024232Y032732D02*
X025232Y033732D01*
X025232Y035732D01*
X024732Y036232D01*
X024732Y037232D02*
X023732Y037232D01*
X022732Y037232D01*
X021732Y037232D01*
X024732Y037232D02*
X024732Y038232D01*
X025232Y038732D01*
X025732Y037232D02*
X024732Y037232D01*
X025732Y037232D02*
X026732Y037232D01*
X027732Y037232D01*
X028232Y037732D01*
X028732Y037732D01*
X029732Y038732D01*
X032232Y038732D01*
X032732Y038232D01*
X032732Y035732D01*
X032232Y035232D01*
X031232Y035232D01*
X030952Y034952D01*
X030952Y031122D01*
X033512Y031122D01*
X033842Y031122D01*
X034232Y030732D01*
X034232Y026232D01*
X030952Y027452D02*
X030732Y027232D01*
X025732Y027232D01*
X025232Y027732D01*
X025232Y029232D01*
X026232Y030232D02*
X026232Y035732D01*
X025732Y036232D01*
X026732Y036232D02*
X027232Y035732D01*
X027232Y030232D01*
X028732Y028732D01*
X028732Y028232D01*
X029232Y028232D02*
X029232Y029232D01*
X028232Y030232D01*
X028232Y035732D01*
X027732Y036232D01*
X029732Y035732D02*
X029732Y032732D01*
X029232Y032232D01*
X028732Y032232D01*
X030952Y029342D02*
X030952Y027452D01*
X028232Y028232D02*
X026232Y030232D01*
X024232Y032732D02*
X024232Y026732D01*
X026232Y023732D02*
X027232Y022732D01*
X034232Y022732D01*
X034732Y022232D01*
X034732Y011732D01*
X034232Y011232D01*
X032732Y011232D01*
X033482Y009482D02*
X030982Y009482D01*
X030732Y009732D01*
X030732Y016232D01*
X030232Y016732D01*
X024732Y016732D01*
X024062Y016732D01*
X023342Y017452D01*
X023232Y016232D02*
X029732Y016232D01*
X029232Y015732D02*
X024232Y015732D01*
X022232Y014232D02*
X020732Y014232D01*
X020232Y013732D01*
X020232Y006232D01*
X021732Y004732D01*
X024732Y005232D02*
X024732Y003732D01*
X025232Y003232D01*
X029232Y003232D01*
X029232Y004232D02*
X025732Y004232D01*
X025232Y004732D01*
X025232Y005232D01*
X021732Y008732D01*
X021732Y009232D01*
X022232Y009732D01*
X022732Y009732D01*
X022732Y010232D02*
X021732Y010232D01*
X021232Y009732D01*
X021232Y008732D01*
X024732Y005232D01*
X025732Y005232D02*
X029232Y005232D01*
X030232Y004732D02*
X030232Y006732D01*
X030232Y007732D02*
X031232Y006732D01*
X032232Y006732D01*
X032732Y006232D01*
X032732Y005232D02*
X032732Y004732D01*
X032232Y004232D01*
X030732Y004232D01*
X030232Y004732D01*
X031732Y001732D02*
X031232Y001232D01*
X025732Y005232D02*
X022732Y008232D01*
X022732Y009232D01*
X031732Y017732D02*
X031732Y021232D01*
X032732Y022232D01*
X031732Y021232D02*
X031232Y021732D01*
X026732Y021732D01*
X031732Y017732D02*
X032232Y017232D01*
X032732Y017232D01*
X034732Y022232D02*
X034732Y032732D01*
X034232Y033232D01*
X033732Y033232D01*
X030232Y036232D02*
X029732Y035732D01*
X020232Y026232D02*
X019232Y026232D01*
X017232Y026232D01*
X016732Y026232D01*
X010901Y022539D02*
X010732Y022708D01*
X010732Y022732D01*
X009901Y022539D02*
X009901Y025563D01*
X009732Y025732D01*
X009232Y025232D02*
X008901Y024901D01*
X008901Y022539D01*
X003232Y025732D02*
X003232Y026232D01*
X033482Y009482D02*
X033732Y009232D01*
X033732Y008732D01*
D22*
X025232Y038732D03*
D23*
X020732Y032732D03*
X022232Y030732D03*
X021732Y030232D03*
X023232Y028232D03*
X023732Y027232D03*
X024232Y026732D03*
X025232Y029232D03*
X028232Y028232D03*
X028732Y028232D03*
X029232Y028232D03*
X028732Y032232D03*
X033732Y033232D03*
X034232Y026232D03*
X032732Y022232D03*
X029732Y016232D03*
X029232Y015732D03*
X030232Y012732D03*
X033732Y008732D03*
X030232Y007732D03*
X030232Y006732D03*
X029232Y005232D03*
X029232Y004232D03*
X029232Y003232D03*
X022732Y009232D03*
X022732Y009732D03*
X022732Y010232D03*
X022232Y014232D03*
X023232Y016232D03*
X024232Y015732D03*
X024732Y016732D03*
X025732Y018232D03*
X026232Y018232D03*
X026732Y021732D03*
X026232Y023732D03*
X022232Y023732D03*
X019232Y025232D03*
X018232Y025232D03*
X014732Y024232D03*
X014232Y024232D03*
X014232Y022732D03*
X014732Y022732D03*
X014232Y021732D03*
X014732Y020232D03*
X011232Y017732D03*
X009232Y025232D03*
X009732Y025732D03*
X010732Y029232D03*
X011232Y029732D03*
X012732Y031232D03*
X013232Y030732D03*
X013232Y034232D03*
X011232Y035232D03*
X011232Y036732D03*
X008232Y031732D03*
X006232Y029732D03*
X005732Y030232D03*
X006732Y029232D03*
X006232Y028232D03*
X001232Y017732D03*
X021732Y004732D03*
D24*
X022732Y004232D02*
X022732Y005232D01*
X022732Y004232D02*
X022732Y003232D01*
X022732Y001732D01*
X022232Y001232D01*
X017232Y001232D01*
X017232Y002232D01*
X017232Y001232D02*
X014732Y001232D01*
X012732Y003232D01*
X011232Y003232D01*
X013232Y008952D02*
X017511Y008952D01*
X018232Y008232D01*
X018232Y005232D01*
X022232Y001232D02*
X031232Y001232D01*
X033732Y003732D01*
X033732Y007532D01*
X033232Y008032D01*
X031732Y008032D01*
X031732Y007232D01*
X031732Y008032D02*
X030932Y008032D01*
X030232Y008732D01*
X030232Y012732D01*
M02*
