%
M48
M72
T01C0.0200
T02C0.0300
T03C0.0320
T04C0.0354
T05C0.0394
T06C0.0400
T07C0.0472
T08C0.1300
%
T01
X1232Y17732
X9232Y25232
X9732Y25732
X10732Y29232
X11232Y29732
X12732Y31232
X13232Y30732
X13232Y34232
X11232Y35232
X11232Y36732
X8232Y31732
X6232Y29732
X5732Y30232
X6732Y29232
X6232Y28232
X14232Y24232
X14732Y24232
X14732Y22732
X14232Y22732
X14232Y21732
X14732Y20232
X11232Y17732
X18232Y25232
X19232Y25232
X22232Y23732
X24232Y26732
X23732Y27232
X23232Y28232
X21732Y30232
X22232Y30732
X20732Y32732
X25232Y29232
X28232Y28232
X28732Y28232
X29232Y28232
X28732Y32232
X33732Y33232
X34232Y26232
X32732Y22232
X29732Y16232
X29232Y15732
X30232Y12732
X33732Y8732
X30232Y7732
X30232Y6732
X29232Y5232
X29232Y4232
X29232Y3232
X22732Y9232
X22732Y9732
X22732Y10232
X22232Y14232
X23232Y16232
X24232Y15732
X24732Y16732
X25732Y18232
X26232Y18232
X26732Y21732
X26232Y23732
X21732Y4732
T02
X25232Y38732
T03
X30232Y26232
X30232Y24232
X28732Y20732
X29732Y19732
X27732Y19732
X19732Y13732
X19732Y11732
X18232Y17482
X18732Y18232
X17732Y18232
X6632Y10732
X5832Y10732
X5832Y5232
X6632Y5232
X3532Y32232
X3532Y34232
T04
X13232Y11511
X13232Y8952
T05
X12732Y1732
X8732Y1732
T06
X9732Y3732
X9732Y5732
X14232Y4232
X14232Y3232
X17232Y3232
X17232Y4232
X17232Y5232
X18232Y5232
X19232Y5232
X19232Y4232
X19232Y3232
X19232Y2232
X18232Y2232
X18232Y3232
X18232Y4232
X17232Y2232
X22732Y3232
X22732Y4232
X23732Y4232
X23732Y3232
X23732Y5232
X22732Y5232
X31732Y5232
X31732Y6232
X31732Y7232
X32732Y7232
X32732Y6232
X32732Y5232
X32732Y10232
X32732Y11232
X32732Y12232
X32732Y13232
X32732Y14232
X32732Y15232
X32732Y16232
X32732Y17232
X32732Y18232
X32732Y19232
X32732Y20232
X25122Y20012
X23342Y20012
X23342Y17452
X25122Y17452
X20232Y21732
X20232Y22732
X20232Y23732
X20232Y26232
X20232Y27232
X20232Y28232
X17232Y28232
X17232Y27232
X17232Y26232
X17232Y23732
X17232Y22732
X17232Y21732
X11901Y22539
X10901Y22539
X9901Y22539
X8901Y22539
X7901Y22539
X6901Y22539
X5901Y22539
X4901Y22539
X3232Y23732
X3232Y24732
X3232Y25732
X2232Y25732
X2232Y24732
X2232Y23732
X1452Y27842
X1452Y29622
X4012Y29622
X4012Y27842
X5232Y32232
X5232Y33232
X6232Y33232
X7232Y33232
X7232Y32232
X6232Y32232
X6232Y37232
X7232Y37232
X8232Y37232
X9232Y37232
X10232Y37232
X12232Y37232
X13232Y37232
X14232Y37232
X15232Y37232
X17232Y32232
X17232Y31232
X17232Y30232
X21732Y35232
X21732Y36232
X21732Y37232
X22732Y37232
X23732Y37232
X24732Y37232
X25732Y37232
X26732Y37232
X27732Y37232
X27732Y36232
X27732Y35232
X26732Y35232
X26732Y36232
X25732Y36232
X25732Y35232
X24732Y35232
X24732Y36232
X23732Y36232
X23732Y35232
X22732Y35232
X22732Y36232
X30232Y36232
X30232Y35232
X31232Y35232
X31232Y36232
X31232Y37232
X30232Y37232
X30952Y31122
X30952Y29342
X33512Y29342
X33512Y31122
X11901Y16240
X10901Y16240
X9901Y16240
X8901Y16240
X7901Y16240
X6901Y16240
X5901Y16240
X4901Y16240
X2232Y11732
X2232Y10732
X2232Y9732
X2232Y5232
X2232Y4232
X2232Y3232
X4232Y37232
X5232Y37232
T07
X5732Y1732
X7110Y1732
T08
X1232Y1232
X34232Y1232
X34232Y38732
X1232Y38732
M30
