G75*
G70*
%OFA0B0*%
%FSLAX24Y24*%
%IPPOS*%
%LPD*%
%AMOC8*
5,1,8,0,0,1.08239X$1,22.5*
%
%ADD10C,0.0080*%
%ADD11C,0.0110*%
%ADD12C,0.0060*%
%ADD13C,0.0050*%
%ADD14R,0.0300X0.4200*%
%ADD15R,0.0200X0.0750*%
%ADD16R,0.0200X0.0300*%
%ADD17C,0.0010*%
%ADD18C,0.0040*%
%ADD19C,0.0100*%
%ADD20R,0.0900X0.0250*%
%ADD21C,0.0120*%
D10*
X005043Y000314D02*
X005043Y000629D01*
X007799Y000629D01*
X007799Y000314D01*
X005043Y000314D01*
X005043Y000629D02*
X005043Y003070D01*
X007799Y003070D01*
X007799Y000629D01*
X013732Y002982D02*
X013982Y002732D01*
X014482Y002732D01*
X014732Y002982D01*
X014732Y003482D01*
X014482Y003732D01*
X014732Y003982D01*
X014732Y004482D01*
X014482Y004732D01*
X013982Y004732D01*
X013732Y004482D01*
X013732Y003982D01*
X013982Y003732D01*
X013732Y003482D01*
X013732Y002982D01*
X014772Y002982D02*
X015052Y002982D01*
X014912Y003842D02*
X014912Y004122D01*
X014772Y003982D02*
X015052Y003982D01*
X014833Y004772D02*
X014833Y005192D01*
X014693Y005192D02*
X014973Y005192D01*
X014512Y005052D02*
X014512Y004772D01*
X014512Y004982D02*
X014232Y004982D01*
X014232Y005052D02*
X014372Y005192D01*
X014512Y005052D01*
X014232Y005052D02*
X014232Y004772D01*
X014052Y004842D02*
X013982Y004772D01*
X013772Y004772D01*
X013772Y005192D01*
X013982Y005192D01*
X014052Y005122D01*
X014052Y005052D01*
X013982Y004982D01*
X013772Y004982D01*
X013982Y004982D02*
X014052Y004912D01*
X014052Y004842D01*
X016732Y004982D02*
X016982Y004732D01*
X017482Y004732D01*
X017732Y004482D01*
X017982Y004732D01*
X018482Y004732D01*
X018732Y004482D01*
X018982Y004732D01*
X019482Y004732D01*
X019732Y004482D01*
X019732Y003982D01*
X019482Y003732D01*
X018982Y003732D01*
X018732Y003982D01*
X018482Y003732D01*
X017982Y003732D01*
X017732Y003982D01*
X017482Y003732D01*
X016982Y003732D01*
X016732Y003982D01*
X016732Y004482D01*
X016982Y004732D01*
X017482Y004732D01*
X017732Y004982D01*
X017982Y004732D01*
X018482Y004732D01*
X018732Y004982D01*
X018982Y004732D01*
X019482Y004732D01*
X019732Y004982D01*
X019732Y005482D01*
X019482Y005732D01*
X018982Y005732D01*
X018732Y005482D01*
X018482Y005732D01*
X017982Y005732D01*
X017732Y005482D01*
X017482Y005732D01*
X016982Y005732D01*
X016732Y005482D01*
X016732Y004982D01*
X016772Y005772D02*
X016772Y006192D01*
X016912Y006052D01*
X017052Y006192D01*
X017052Y005772D01*
X017232Y005842D02*
X017302Y005772D01*
X017442Y005772D01*
X017512Y005842D01*
X017512Y006122D01*
X017442Y006192D01*
X017302Y006192D01*
X017232Y006122D01*
X017232Y005842D01*
X017693Y006192D02*
X017973Y006192D01*
X017833Y006192D02*
X017833Y005772D01*
X018153Y005842D02*
X018153Y006122D01*
X018223Y006192D01*
X018363Y006192D01*
X018433Y006122D01*
X018433Y005842D01*
X018363Y005772D01*
X018223Y005772D01*
X018153Y005842D01*
X018613Y005912D02*
X018823Y005912D01*
X018893Y005982D01*
X018893Y006122D01*
X018823Y006192D01*
X018613Y006192D01*
X018613Y005772D01*
X018753Y005912D02*
X018893Y005772D01*
X019074Y005842D02*
X019144Y005772D01*
X019284Y005772D01*
X019354Y005842D01*
X019354Y005912D01*
X019284Y005982D01*
X019144Y005982D01*
X019074Y006052D01*
X019074Y006122D01*
X019144Y006192D01*
X019284Y006192D01*
X019354Y006122D01*
X019772Y005192D02*
X019772Y004772D01*
X020052Y004772D01*
X020232Y004772D02*
X020232Y005192D01*
X020512Y005192D01*
X020693Y005192D02*
X020693Y004772D01*
X020512Y004772D02*
X020232Y004772D01*
X020232Y004982D02*
X020372Y004982D01*
X020693Y004982D02*
X020833Y004982D01*
X020693Y005192D02*
X020973Y005192D01*
X021153Y005192D02*
X021433Y005192D01*
X021293Y005192D02*
X021293Y004772D01*
X021280Y004192D02*
X021280Y003772D01*
X021280Y003982D02*
X020999Y003982D01*
X020819Y003982D02*
X020679Y003982D01*
X020819Y003982D02*
X020819Y003842D01*
X020749Y003772D01*
X020609Y003772D01*
X020539Y003842D01*
X020539Y004122D01*
X020609Y004192D01*
X020749Y004192D01*
X020819Y004122D01*
X020999Y004192D02*
X020999Y003772D01*
X021600Y003772D02*
X021600Y004192D01*
X021460Y004192D02*
X021740Y004192D01*
X022232Y003982D02*
X022232Y004482D01*
X022482Y004732D01*
X022232Y004982D01*
X022232Y005482D01*
X022482Y005732D01*
X022982Y005732D01*
X023232Y005482D01*
X023232Y004982D01*
X022982Y004732D01*
X023232Y004482D01*
X023232Y003982D01*
X022982Y003732D01*
X023232Y003482D01*
X023232Y002982D01*
X022982Y002732D01*
X022482Y002732D01*
X022232Y002982D01*
X022232Y003482D01*
X022482Y003732D01*
X022232Y003982D01*
X021893Y003192D02*
X021613Y003192D01*
X021753Y003192D02*
X021753Y002772D01*
X021433Y002772D02*
X021433Y003192D01*
X021153Y003192D02*
X021153Y002772D01*
X020973Y002842D02*
X020973Y003122D01*
X020903Y003192D01*
X020763Y003192D01*
X020693Y003122D01*
X020693Y002842D01*
X020763Y002772D01*
X020903Y002772D01*
X020973Y002842D01*
X021153Y003192D02*
X021433Y002772D01*
X021433Y002192D02*
X021153Y001912D01*
X021223Y001982D02*
X021433Y001772D01*
X021153Y001772D02*
X021153Y002192D01*
X020973Y002122D02*
X020903Y002192D01*
X020763Y002192D01*
X020693Y002122D01*
X020693Y001842D01*
X020763Y001772D01*
X020903Y001772D01*
X020973Y001842D01*
X020512Y001772D02*
X020512Y002052D01*
X020372Y002192D01*
X020232Y002052D01*
X020232Y001772D01*
X020052Y001842D02*
X019982Y001772D01*
X019772Y001772D01*
X019772Y002192D01*
X019982Y002192D01*
X020052Y002122D01*
X020052Y002052D01*
X019982Y001982D01*
X019772Y001982D01*
X019732Y001982D02*
X019482Y001732D01*
X018982Y001732D01*
X018732Y001982D01*
X018482Y001732D01*
X017982Y001732D01*
X017732Y001982D01*
X017482Y001732D01*
X016982Y001732D01*
X016732Y001982D01*
X016732Y002482D01*
X016982Y002732D01*
X017482Y002732D01*
X017732Y002482D01*
X017982Y002732D01*
X018482Y002732D01*
X018732Y002482D01*
X018982Y002732D01*
X019482Y002732D01*
X019732Y002482D01*
X019732Y001982D01*
X019982Y001982D02*
X020052Y001912D01*
X020052Y001842D01*
X020232Y001982D02*
X020512Y001982D01*
X020512Y002772D02*
X020372Y002912D01*
X020442Y002912D02*
X020232Y002912D01*
X020232Y002772D02*
X020232Y003192D01*
X020442Y003192D01*
X020512Y003122D01*
X020512Y002982D01*
X020442Y002912D01*
X020052Y003192D02*
X019772Y003192D01*
X019772Y002772D01*
X019772Y002982D02*
X019912Y002982D01*
X019732Y002982D02*
X019732Y003482D01*
X019482Y003732D01*
X018982Y003732D01*
X018732Y003482D01*
X018482Y003732D01*
X017982Y003732D01*
X017732Y003482D01*
X017482Y003732D01*
X016982Y003732D01*
X016732Y003482D01*
X016732Y002982D01*
X016982Y002732D01*
X017482Y002732D01*
X017732Y002982D01*
X017982Y002732D01*
X018482Y002732D01*
X018732Y002982D01*
X018982Y002732D01*
X019482Y002732D01*
X019732Y002982D01*
X019772Y003772D02*
X019772Y004192D01*
X019982Y004192D01*
X020052Y004122D01*
X020052Y003982D01*
X019982Y003912D01*
X019772Y003912D01*
X019912Y003912D02*
X020052Y003772D01*
X020232Y003772D02*
X020372Y003772D01*
X020302Y003772D02*
X020302Y004192D01*
X020232Y004192D02*
X020372Y004192D01*
X022272Y005772D02*
X022272Y006192D01*
X022552Y005772D01*
X022552Y006192D01*
X022732Y006052D02*
X022732Y005772D01*
X022732Y005982D02*
X023012Y005982D01*
X023012Y006052D02*
X023012Y005772D01*
X023193Y005912D02*
X023193Y006192D01*
X023012Y006052D02*
X022872Y006192D01*
X022732Y006052D01*
X023193Y005912D02*
X023333Y005772D01*
X023473Y005912D01*
X023473Y006192D01*
X023482Y005732D02*
X023982Y005732D01*
X024232Y005482D01*
X024232Y004982D01*
X023982Y004732D01*
X024232Y004482D01*
X024232Y003982D01*
X023982Y003732D01*
X024232Y003482D01*
X024232Y002982D01*
X023982Y002732D01*
X023482Y002732D01*
X023232Y002982D01*
X023232Y003482D01*
X023482Y003732D01*
X023232Y003982D01*
X023232Y004482D01*
X023482Y004732D01*
X023232Y004982D01*
X023232Y005482D01*
X023482Y005732D01*
X024272Y005192D02*
X024482Y005192D01*
X024552Y005122D01*
X024552Y005052D01*
X024482Y004982D01*
X024272Y004982D01*
X024482Y004982D02*
X024552Y004912D01*
X024552Y004842D01*
X024482Y004772D01*
X024272Y004772D01*
X024272Y005192D01*
X024732Y005122D02*
X024732Y004842D01*
X024802Y004772D01*
X024942Y004772D01*
X025012Y004842D01*
X025193Y004772D02*
X025193Y005192D01*
X025473Y004772D01*
X025473Y005192D01*
X025012Y005122D02*
X024942Y005192D01*
X024802Y005192D01*
X024732Y005122D01*
X024732Y004192D02*
X024872Y004192D01*
X024802Y004192D02*
X024802Y003772D01*
X024732Y003772D02*
X024872Y003772D01*
X025039Y003842D02*
X025109Y003772D01*
X025249Y003772D01*
X025319Y003842D01*
X025319Y003982D01*
X025179Y003982D01*
X025039Y004122D02*
X025039Y003842D01*
X025039Y004122D02*
X025109Y004192D01*
X025249Y004192D01*
X025319Y004122D01*
X025499Y004192D02*
X025499Y003772D01*
X025499Y003982D02*
X025780Y003982D01*
X025780Y004192D02*
X025780Y003772D01*
X026100Y003772D02*
X026100Y004192D01*
X025960Y004192D02*
X026240Y004192D01*
X025933Y003192D02*
X025653Y003192D01*
X025793Y003192D02*
X025793Y002772D01*
X025333Y002982D02*
X025193Y002982D01*
X025193Y003192D02*
X025473Y003192D01*
X025193Y003192D02*
X025193Y002772D01*
X025012Y002772D02*
X024732Y002772D01*
X024732Y003192D01*
X025012Y003192D01*
X024872Y002982D02*
X024732Y002982D01*
X024552Y002772D02*
X024272Y002772D01*
X024272Y003192D01*
X024272Y003772D02*
X024272Y004192D01*
X024482Y004192D01*
X024552Y004122D01*
X024552Y003982D01*
X024482Y003912D01*
X024272Y003912D01*
X024412Y003912D02*
X024552Y003772D01*
X019192Y001522D02*
X019122Y001592D01*
X018982Y001592D01*
X018982Y001451D01*
X019122Y001311D02*
X019192Y001381D01*
X019192Y001522D01*
X019122Y001311D02*
X018842Y001311D01*
X018771Y001381D01*
X018771Y001522D01*
X018842Y001592D01*
X018771Y001145D02*
X018771Y001004D01*
X018771Y001075D02*
X019192Y001075D01*
X019192Y001145D02*
X019192Y001004D01*
X019122Y000824D02*
X019192Y000754D01*
X019192Y000614D01*
X019122Y000544D01*
X018982Y000614D02*
X018982Y000754D01*
X019052Y000824D01*
X019122Y000824D01*
X018982Y000614D02*
X018912Y000544D01*
X018842Y000544D01*
X018771Y000614D01*
X018771Y000754D01*
X018842Y000824D01*
X018122Y001452D02*
X017842Y001452D01*
X017982Y001592D02*
X017982Y001311D01*
X016982Y001311D02*
X016982Y001592D01*
X018832Y011382D02*
X018832Y014082D01*
X018834Y014141D01*
X018840Y014199D01*
X018849Y014258D01*
X018863Y014315D01*
X018880Y014371D01*
X018901Y014426D01*
X018925Y014480D01*
X018953Y014532D01*
X018984Y014582D01*
X019018Y014630D01*
X019055Y014675D01*
X019096Y014718D01*
X019139Y014759D01*
X019184Y014796D01*
X019232Y014830D01*
X019282Y014861D01*
X019334Y014889D01*
X019388Y014913D01*
X019443Y014934D01*
X019499Y014951D01*
X019556Y014965D01*
X019615Y014974D01*
X019673Y014980D01*
X019732Y014982D01*
X019791Y014980D01*
X019849Y014974D01*
X019908Y014965D01*
X019965Y014951D01*
X020021Y014934D01*
X020076Y014913D01*
X020130Y014889D01*
X020182Y014861D01*
X020232Y014830D01*
X020280Y014796D01*
X020325Y014759D01*
X020368Y014718D01*
X020409Y014675D01*
X020446Y014630D01*
X020480Y014582D01*
X020511Y014532D01*
X020539Y014480D01*
X020563Y014426D01*
X020584Y014371D01*
X020601Y014315D01*
X020615Y014258D01*
X020624Y014199D01*
X020630Y014141D01*
X020632Y014082D01*
X020632Y011382D01*
X020630Y011323D01*
X020624Y011265D01*
X020615Y011206D01*
X020601Y011149D01*
X020584Y011093D01*
X020563Y011038D01*
X020539Y010984D01*
X020511Y010932D01*
X020480Y010882D01*
X020446Y010834D01*
X020409Y010789D01*
X020368Y010746D01*
X020325Y010705D01*
X020280Y010668D01*
X020232Y010634D01*
X020182Y010603D01*
X020130Y010575D01*
X020076Y010551D01*
X020021Y010530D01*
X019965Y010513D01*
X019908Y010499D01*
X019849Y010490D01*
X019791Y010484D01*
X019732Y010482D01*
X019673Y010484D01*
X019615Y010490D01*
X019556Y010499D01*
X019499Y010513D01*
X019443Y010530D01*
X019388Y010551D01*
X019334Y010575D01*
X019282Y010603D01*
X019232Y010634D01*
X019184Y010668D01*
X019139Y010705D01*
X019096Y010746D01*
X019055Y010789D01*
X019018Y010834D01*
X018984Y010882D01*
X018953Y010932D01*
X018925Y010984D01*
X018901Y011038D01*
X018880Y011093D01*
X018863Y011149D01*
X018849Y011206D01*
X018840Y011265D01*
X018834Y011323D01*
X018832Y011382D01*
X023832Y017532D02*
X024625Y017532D01*
X025432Y017882D02*
X025432Y019582D01*
X024637Y019932D02*
X023832Y019932D01*
X023032Y019582D02*
X023032Y017882D01*
X022692Y017772D02*
X022271Y017772D01*
X022271Y017982D01*
X022342Y018052D01*
X022482Y018052D01*
X022552Y017982D01*
X022552Y017772D01*
X022552Y017912D02*
X022692Y018052D01*
X022622Y018232D02*
X022692Y018302D01*
X022692Y018442D01*
X022622Y018512D01*
X022552Y018512D01*
X022482Y018442D01*
X022482Y018302D01*
X022412Y018232D01*
X022342Y018232D01*
X022271Y018302D01*
X022271Y018442D01*
X022342Y018512D01*
X022271Y018693D02*
X022271Y018973D01*
X022271Y018833D02*
X022692Y018833D01*
X022692Y019153D02*
X022692Y019433D01*
X022692Y019293D02*
X022271Y019293D01*
X022412Y019153D01*
X023532Y018732D02*
X023534Y018784D01*
X023540Y018836D01*
X023550Y018888D01*
X023563Y018938D01*
X023580Y018988D01*
X023601Y019036D01*
X023626Y019082D01*
X023654Y019126D01*
X023685Y019168D01*
X023719Y019208D01*
X023756Y019245D01*
X023796Y019279D01*
X023838Y019310D01*
X023882Y019338D01*
X023928Y019363D01*
X023976Y019384D01*
X024026Y019401D01*
X024076Y019414D01*
X024128Y019424D01*
X024180Y019430D01*
X024232Y019432D01*
X024284Y019430D01*
X024336Y019424D01*
X024388Y019414D01*
X024438Y019401D01*
X024488Y019384D01*
X024536Y019363D01*
X024582Y019338D01*
X024626Y019310D01*
X024668Y019279D01*
X024708Y019245D01*
X024745Y019208D01*
X024779Y019168D01*
X024810Y019126D01*
X024838Y019082D01*
X024863Y019036D01*
X024884Y018988D01*
X024901Y018938D01*
X024914Y018888D01*
X024924Y018836D01*
X024930Y018784D01*
X024932Y018732D01*
X024930Y018680D01*
X024924Y018628D01*
X024914Y018576D01*
X024901Y018526D01*
X024884Y018476D01*
X024863Y018428D01*
X024838Y018382D01*
X024810Y018338D01*
X024779Y018296D01*
X024745Y018256D01*
X024708Y018219D01*
X024668Y018185D01*
X024626Y018154D01*
X024582Y018126D01*
X024536Y018101D01*
X024488Y018080D01*
X024438Y018063D01*
X024388Y018050D01*
X024336Y018040D01*
X024284Y018034D01*
X024232Y018032D01*
X024180Y018034D01*
X024128Y018040D01*
X024076Y018050D01*
X024026Y018063D01*
X023976Y018080D01*
X023928Y018101D01*
X023882Y018126D01*
X023838Y018154D01*
X023796Y018185D01*
X023756Y018219D01*
X023719Y018256D01*
X023685Y018296D01*
X023654Y018338D01*
X023626Y018382D01*
X023601Y018428D01*
X023580Y018476D01*
X023563Y018526D01*
X023550Y018576D01*
X023540Y018628D01*
X023534Y018680D01*
X023532Y018732D01*
X021903Y021272D02*
X021973Y021342D01*
X021973Y021622D01*
X021903Y021692D01*
X021693Y021692D01*
X021693Y021272D01*
X021903Y021272D01*
X021512Y021272D02*
X021512Y021692D01*
X021232Y021692D02*
X021232Y021272D01*
X021052Y021342D02*
X021052Y021482D01*
X020912Y021482D01*
X020732Y021482D02*
X020482Y021232D01*
X019982Y021232D01*
X019732Y021482D01*
X019732Y021982D01*
X019982Y022232D01*
X019732Y022482D01*
X019732Y022982D01*
X019982Y023232D01*
X019732Y023482D01*
X019732Y023982D01*
X019982Y024232D01*
X020482Y024232D01*
X020732Y023982D01*
X020732Y023482D01*
X020482Y023232D01*
X020732Y022982D01*
X020732Y022482D01*
X020482Y022232D01*
X020732Y021982D01*
X020732Y021482D01*
X020772Y021622D02*
X020772Y021342D01*
X020842Y021272D01*
X020982Y021272D01*
X021052Y021342D01*
X021052Y021622D02*
X020982Y021692D01*
X020842Y021692D01*
X020772Y021622D01*
X021232Y021692D02*
X021512Y021272D01*
X021442Y022272D02*
X021512Y022342D01*
X021442Y022272D02*
X021302Y022272D01*
X021232Y022342D01*
X021232Y022622D01*
X021302Y022692D01*
X021442Y022692D01*
X021512Y022622D01*
X021693Y022692D02*
X021693Y022272D01*
X021973Y022272D01*
X021052Y022342D02*
X020982Y022272D01*
X020842Y022272D01*
X020772Y022342D01*
X020842Y022482D02*
X020982Y022482D01*
X021052Y022412D01*
X021052Y022342D01*
X020842Y022482D02*
X020772Y022552D01*
X020772Y022622D01*
X020842Y022692D01*
X020982Y022692D01*
X021052Y022622D01*
X020982Y023272D02*
X020842Y023272D01*
X020772Y023342D01*
X020842Y023482D02*
X020982Y023482D01*
X021052Y023412D01*
X021052Y023342D01*
X020982Y023272D01*
X021232Y023272D02*
X021442Y023272D01*
X021512Y023342D01*
X021512Y023622D01*
X021442Y023692D01*
X021232Y023692D01*
X021232Y023272D01*
X021052Y023622D02*
X020982Y023692D01*
X020842Y023692D01*
X020772Y023622D01*
X020772Y023552D01*
X020842Y023482D01*
X020749Y024272D02*
X020819Y024342D01*
X020749Y024272D02*
X020609Y024272D01*
X020539Y024342D01*
X020539Y024622D01*
X020609Y024692D01*
X020749Y024692D01*
X020819Y024622D01*
X020359Y024622D02*
X020289Y024692D01*
X020149Y024692D01*
X020079Y024622D01*
X019912Y024692D02*
X019772Y024692D01*
X019842Y024692D02*
X019842Y024272D01*
X019772Y024272D02*
X019912Y024272D01*
X020079Y024272D02*
X020359Y024552D01*
X020359Y024622D01*
X020359Y024272D02*
X020079Y024272D01*
X019203Y023692D02*
X019203Y023412D01*
X019063Y023272D01*
X018923Y023412D01*
X018923Y023692D01*
X018743Y023622D02*
X018743Y023552D01*
X018672Y023482D01*
X018743Y023412D01*
X018743Y023342D01*
X018672Y023272D01*
X018532Y023272D01*
X018462Y023342D01*
X018302Y023342D02*
X018302Y023272D01*
X018232Y023272D01*
X018232Y023342D01*
X018302Y023342D01*
X018052Y023342D02*
X017982Y023272D01*
X017842Y023272D01*
X017772Y023342D01*
X017732Y023482D02*
X017482Y023232D01*
X017732Y022982D01*
X017732Y022482D01*
X017482Y022232D01*
X017732Y021982D01*
X017732Y021482D01*
X017482Y021232D01*
X016982Y021232D01*
X016732Y021482D01*
X016732Y021982D01*
X016982Y022232D01*
X016732Y022482D01*
X016732Y022982D01*
X016982Y023232D01*
X016732Y023482D01*
X016732Y023982D01*
X016982Y024232D01*
X017482Y024232D01*
X017732Y023982D01*
X017732Y023482D01*
X017772Y023622D02*
X017842Y023692D01*
X017982Y023692D01*
X018052Y023622D01*
X018052Y023552D01*
X017982Y023482D01*
X018052Y023412D01*
X018052Y023342D01*
X017982Y023482D02*
X017912Y023482D01*
X018462Y023622D02*
X018532Y023692D01*
X018672Y023692D01*
X018743Y023622D01*
X018672Y023482D02*
X018602Y023482D01*
X018512Y022692D02*
X018512Y022412D01*
X018372Y022272D01*
X018232Y022412D01*
X018232Y022692D01*
X018052Y022692D02*
X017772Y022692D01*
X017772Y022482D01*
X017912Y022552D01*
X017982Y022552D01*
X018052Y022482D01*
X018052Y022342D01*
X017982Y022272D01*
X017842Y022272D01*
X017772Y022342D01*
X017842Y021692D02*
X017772Y021622D01*
X017772Y021342D01*
X017842Y021272D01*
X017982Y021272D01*
X018052Y021342D01*
X018052Y021482D01*
X017912Y021482D01*
X018052Y021622D02*
X017982Y021692D01*
X017842Y021692D01*
X018232Y021692D02*
X018232Y021272D01*
X018512Y021272D02*
X018232Y021692D01*
X018512Y021692D02*
X018512Y021272D01*
X018693Y021272D02*
X018903Y021272D01*
X018973Y021342D01*
X018973Y021622D01*
X018903Y021692D01*
X018693Y021692D01*
X018693Y021272D01*
X019056Y018882D02*
X017407Y018882D01*
X017345Y018332D02*
X017187Y018332D01*
X018119Y018332D02*
X018345Y018332D01*
X019119Y018332D02*
X019277Y018332D01*
X021693Y023272D02*
X021693Y023552D01*
X021833Y023692D01*
X021973Y023552D01*
X021973Y023272D01*
X021973Y023482D02*
X021693Y023482D01*
X021693Y025772D02*
X021903Y025772D01*
X021973Y025842D01*
X021973Y026122D01*
X021903Y026192D01*
X021693Y026192D01*
X021693Y025772D01*
X021512Y025772D02*
X021512Y026192D01*
X021232Y026192D02*
X021232Y025772D01*
X021052Y025842D02*
X021052Y025982D01*
X020912Y025982D01*
X020732Y025982D02*
X020482Y025732D01*
X019982Y025732D01*
X019732Y025982D01*
X019732Y026482D01*
X019982Y026732D01*
X019732Y026982D01*
X019732Y027482D01*
X019982Y027732D01*
X019732Y027982D01*
X019732Y028482D01*
X019982Y028732D01*
X020482Y028732D01*
X020732Y028482D01*
X020732Y027982D01*
X020482Y027732D01*
X020732Y027482D01*
X020732Y026982D01*
X020482Y026732D01*
X020732Y026482D01*
X020732Y025982D01*
X020772Y026122D02*
X020772Y025842D01*
X020842Y025772D01*
X020982Y025772D01*
X021052Y025842D01*
X021052Y026122D02*
X020982Y026192D01*
X020842Y026192D01*
X020772Y026122D01*
X021232Y026192D02*
X021512Y025772D01*
X021512Y026772D02*
X021232Y027192D01*
X021052Y027192D02*
X020772Y027192D01*
X020912Y027192D02*
X020912Y026772D01*
X021232Y026772D02*
X021512Y027192D01*
X021512Y027772D02*
X021232Y028192D01*
X021052Y028122D02*
X021052Y027982D01*
X020982Y027912D01*
X020772Y027912D01*
X020912Y027912D02*
X021052Y027772D01*
X021232Y027772D02*
X021512Y028192D01*
X021052Y028122D02*
X020982Y028192D01*
X020772Y028192D01*
X020772Y027772D01*
X020693Y028772D02*
X020693Y029192D01*
X020903Y029192D01*
X020973Y029122D01*
X020973Y028982D01*
X020903Y028912D01*
X020693Y028912D01*
X020833Y028912D02*
X020973Y028772D01*
X021153Y028772D02*
X021433Y029052D01*
X021433Y029122D01*
X021363Y029192D01*
X021223Y029192D01*
X021153Y029122D01*
X021153Y028772D02*
X021433Y028772D01*
X020512Y028772D02*
X020232Y028772D01*
X020232Y029192D01*
X020512Y029192D01*
X020372Y028982D02*
X020232Y028982D01*
X020052Y028912D02*
X020052Y028842D01*
X019982Y028772D01*
X019842Y028772D01*
X019772Y028842D01*
X019842Y028982D02*
X019982Y028982D01*
X020052Y028912D01*
X020052Y029122D02*
X019982Y029192D01*
X019842Y029192D01*
X019772Y029122D01*
X019772Y029052D01*
X019842Y028982D01*
X018973Y029772D02*
X018693Y029772D01*
X018693Y030192D01*
X018512Y030122D02*
X018442Y030192D01*
X018302Y030192D01*
X018232Y030122D01*
X018232Y029842D01*
X018302Y029772D01*
X018442Y029772D01*
X018512Y029842D01*
X018363Y029192D02*
X018433Y029122D01*
X018433Y029052D01*
X018363Y028982D01*
X018433Y028912D01*
X018433Y028842D01*
X018363Y028772D01*
X018223Y028772D01*
X018153Y028842D01*
X017973Y028772D02*
X017833Y028912D01*
X017903Y028912D02*
X017693Y028912D01*
X017693Y028772D02*
X017693Y029192D01*
X017903Y029192D01*
X017973Y029122D01*
X017973Y028982D01*
X017903Y028912D01*
X018153Y029122D02*
X018223Y029192D01*
X018363Y029192D01*
X018363Y028982D02*
X018293Y028982D01*
X017732Y028482D02*
X017732Y027982D01*
X017482Y027732D01*
X017732Y027482D01*
X017732Y026982D01*
X017482Y026732D01*
X017732Y026482D01*
X017732Y025982D01*
X017482Y025732D01*
X016982Y025732D01*
X016732Y025982D01*
X016732Y026482D01*
X016982Y026732D01*
X016732Y026982D01*
X016732Y027482D01*
X016982Y027732D01*
X016732Y027982D01*
X016732Y028482D01*
X016982Y028732D01*
X017482Y028732D01*
X017732Y028482D01*
X017772Y028192D02*
X017982Y028192D01*
X018052Y028122D01*
X018052Y027982D01*
X017982Y027912D01*
X017772Y027912D01*
X017912Y027912D02*
X018052Y027772D01*
X018232Y027772D02*
X018512Y028192D01*
X018232Y028192D02*
X018512Y027772D01*
X018512Y027192D02*
X018232Y026772D01*
X018512Y026772D02*
X018232Y027192D01*
X018052Y027192D02*
X017772Y027192D01*
X017912Y027192D02*
X017912Y026772D01*
X017982Y026192D02*
X017842Y026192D01*
X017772Y026122D01*
X017772Y025842D01*
X017842Y025772D01*
X017982Y025772D01*
X018052Y025842D01*
X018052Y025982D01*
X017912Y025982D01*
X018052Y026122D02*
X017982Y026192D01*
X018232Y026192D02*
X018232Y025772D01*
X018512Y025772D02*
X018232Y026192D01*
X018512Y026192D02*
X018512Y025772D01*
X018693Y025772D02*
X018903Y025772D01*
X018973Y025842D01*
X018973Y026122D01*
X018903Y026192D01*
X018693Y026192D01*
X018693Y025772D01*
X017903Y024692D02*
X017693Y024692D01*
X017693Y024272D01*
X017693Y024412D02*
X017903Y024412D01*
X017973Y024482D01*
X017973Y024622D01*
X017903Y024692D01*
X017833Y024412D02*
X017973Y024272D01*
X017512Y024272D02*
X017512Y024692D01*
X017232Y024692D02*
X017232Y024272D01*
X017372Y024412D01*
X017512Y024272D01*
X017052Y024482D02*
X016982Y024412D01*
X016772Y024412D01*
X016772Y024272D02*
X016772Y024692D01*
X016982Y024692D01*
X017052Y024622D01*
X017052Y024482D01*
X017772Y027772D02*
X017772Y028192D01*
X017512Y028772D02*
X017232Y028772D01*
X017232Y029192D01*
X017512Y029192D01*
X017372Y028982D02*
X017232Y028982D01*
X017052Y028912D02*
X017052Y028842D01*
X016982Y028772D01*
X016842Y028772D01*
X016772Y028842D01*
X016842Y028982D02*
X016982Y028982D01*
X017052Y028912D01*
X017052Y029122D02*
X016982Y029192D01*
X016842Y029192D01*
X016772Y029122D01*
X016772Y029052D01*
X016842Y028982D01*
X016982Y029732D02*
X016732Y029982D01*
X016732Y030482D01*
X016982Y030732D01*
X016732Y030982D01*
X016732Y031482D01*
X016982Y031732D01*
X016732Y031982D01*
X016732Y032482D01*
X016982Y032732D01*
X017482Y032732D01*
X017732Y032482D01*
X017732Y031982D01*
X017482Y031732D01*
X017732Y031482D01*
X017732Y030982D01*
X017482Y030732D01*
X017732Y030482D01*
X017732Y029982D01*
X017482Y029732D01*
X016982Y029732D01*
X017772Y029842D02*
X017842Y029772D01*
X017982Y029772D01*
X018052Y029842D01*
X018052Y029912D01*
X017982Y029982D01*
X017842Y029982D01*
X017772Y030052D01*
X017772Y030122D01*
X017842Y030192D01*
X017982Y030192D01*
X018052Y030122D01*
X017982Y030772D02*
X017842Y030772D01*
X017772Y030842D01*
X017842Y030982D02*
X017982Y030982D01*
X018052Y030912D01*
X018052Y030842D01*
X017982Y030772D01*
X018232Y030772D02*
X018232Y031192D01*
X018442Y031192D01*
X018512Y031122D01*
X018512Y030842D01*
X018442Y030772D01*
X018232Y030772D01*
X018052Y031122D02*
X017982Y031192D01*
X017842Y031192D01*
X017772Y031122D01*
X017772Y031052D01*
X017842Y030982D01*
X017842Y031772D02*
X017982Y031772D01*
X018052Y031842D01*
X018052Y031982D01*
X017912Y031982D01*
X018052Y032122D02*
X017982Y032192D01*
X017842Y032192D01*
X017772Y032122D01*
X017772Y031842D01*
X017842Y031772D01*
X018232Y031772D02*
X018232Y032192D01*
X018512Y031772D01*
X018512Y032192D01*
X018693Y032192D02*
X018903Y032192D01*
X018973Y032122D01*
X018973Y031842D01*
X018903Y031772D01*
X018693Y031772D01*
X018693Y032192D01*
X018767Y032772D02*
X019047Y033052D01*
X019047Y033122D01*
X018977Y033192D01*
X018837Y033192D01*
X018767Y033122D01*
X018600Y033192D02*
X018460Y033192D01*
X018530Y033192D02*
X018530Y032772D01*
X018460Y032772D02*
X018600Y032772D01*
X018767Y032772D02*
X019047Y032772D01*
X019227Y032842D02*
X019297Y032772D01*
X019437Y032772D01*
X019507Y032842D01*
X019227Y032842D02*
X019227Y033122D01*
X019297Y033192D01*
X019437Y033192D01*
X019507Y033122D01*
X018280Y032982D02*
X017999Y032982D01*
X017819Y032842D02*
X017819Y033192D01*
X017539Y033192D02*
X017539Y032842D01*
X017609Y032772D01*
X017749Y032772D01*
X017819Y032842D01*
X017359Y032772D02*
X017359Y033192D01*
X017219Y033052D01*
X017079Y033192D01*
X017079Y032772D01*
X016912Y032772D02*
X016772Y032772D01*
X016842Y032772D02*
X016842Y033192D01*
X016772Y033192D02*
X016912Y033192D01*
X015122Y035391D02*
X015192Y035461D01*
X015192Y035601D01*
X015122Y035671D01*
X014982Y035671D01*
X014982Y035531D01*
X014842Y035391D02*
X015122Y035391D01*
X014842Y035391D02*
X014771Y035461D01*
X014771Y035601D01*
X014842Y035671D01*
X014771Y035851D02*
X015192Y036131D01*
X014771Y036131D01*
X014771Y036311D02*
X014771Y036522D01*
X014842Y036592D01*
X015122Y036592D01*
X015192Y036522D01*
X015192Y036311D01*
X014771Y036311D01*
X014771Y035851D02*
X015192Y035851D01*
X014982Y036732D02*
X015482Y036732D01*
X015732Y036982D01*
X015732Y037482D01*
X015482Y037732D01*
X014982Y037732D01*
X014732Y037482D01*
X014482Y037732D01*
X013982Y037732D01*
X013732Y037482D01*
X013482Y037732D01*
X012982Y037732D01*
X012732Y037482D01*
X012482Y037732D01*
X011982Y037732D01*
X011732Y037482D01*
X011732Y036982D01*
X011982Y036732D01*
X012482Y036732D01*
X012732Y036982D01*
X012982Y036732D01*
X013482Y036732D01*
X013732Y036982D01*
X013982Y036732D01*
X014482Y036732D01*
X014732Y036982D01*
X014982Y036732D01*
X014192Y036451D02*
X014052Y036592D01*
X013771Y036592D01*
X013771Y036311D02*
X014052Y036311D01*
X014192Y036451D01*
X014122Y036131D02*
X014192Y036061D01*
X014192Y035921D01*
X014122Y035851D01*
X014122Y035691D02*
X014192Y035691D01*
X014192Y035621D01*
X014122Y035621D01*
X014122Y035691D01*
X014122Y035441D02*
X014192Y035371D01*
X014192Y035231D01*
X014122Y035160D01*
X013982Y035301D02*
X013982Y035371D01*
X014052Y035441D01*
X014122Y035441D01*
X013982Y035371D02*
X013912Y035441D01*
X013842Y035441D01*
X013771Y035371D01*
X013771Y035231D01*
X013842Y035160D01*
X013842Y035851D02*
X013771Y035921D01*
X013771Y036061D01*
X013842Y036131D01*
X013912Y036131D01*
X013982Y036061D01*
X014052Y036131D01*
X014122Y036131D01*
X013982Y036061D02*
X013982Y035991D01*
X013192Y036061D02*
X013192Y035851D01*
X012771Y035851D01*
X012771Y036061D01*
X012842Y036131D01*
X013122Y036131D01*
X013192Y036061D01*
X013192Y036311D02*
X012912Y036311D01*
X012771Y036451D01*
X012912Y036592D01*
X013192Y036592D01*
X012982Y036592D02*
X012982Y036311D01*
X013052Y035671D02*
X013122Y035671D01*
X013192Y035601D01*
X013192Y035461D01*
X013122Y035391D01*
X012982Y035461D02*
X012982Y035601D01*
X013052Y035671D01*
X012842Y035671D02*
X012771Y035601D01*
X012771Y035461D01*
X012842Y035391D01*
X012912Y035391D01*
X012982Y035461D01*
X012192Y035461D02*
X012122Y035391D01*
X012192Y035461D02*
X012192Y035601D01*
X012122Y035671D01*
X012052Y035671D01*
X011982Y035601D01*
X011982Y035461D01*
X011912Y035391D01*
X011842Y035391D01*
X011771Y035461D01*
X011771Y035601D01*
X011842Y035671D01*
X011842Y035851D02*
X012122Y035851D01*
X012192Y035921D01*
X012192Y036061D01*
X012122Y036131D01*
X012192Y036311D02*
X012192Y036592D01*
X012192Y036311D02*
X011771Y036311D01*
X011842Y036131D02*
X011771Y036061D01*
X011771Y035921D01*
X011842Y035851D01*
X010732Y036982D02*
X010732Y037482D01*
X010482Y037732D01*
X009982Y037732D01*
X009732Y037482D01*
X009482Y037732D01*
X008982Y037732D01*
X008732Y037482D01*
X008482Y037732D01*
X007982Y037732D01*
X007732Y037482D01*
X007482Y037732D01*
X006982Y037732D01*
X006732Y037482D01*
X006482Y037732D01*
X005982Y037732D01*
X005732Y037482D01*
X005482Y037732D01*
X004982Y037732D01*
X004732Y037482D01*
X004482Y037732D01*
X003982Y037732D01*
X003732Y037482D01*
X003732Y036982D01*
X003982Y036732D01*
X004482Y036732D01*
X004732Y036982D01*
X004982Y036732D01*
X005482Y036732D01*
X005732Y036982D01*
X005982Y036732D01*
X006482Y036732D01*
X006732Y036982D01*
X006982Y036732D01*
X007482Y036732D01*
X007732Y036982D01*
X007982Y036732D01*
X008482Y036732D01*
X008732Y036982D01*
X008982Y036732D01*
X009482Y036732D01*
X009732Y036982D01*
X009982Y036732D01*
X010482Y036732D01*
X010732Y036982D01*
X010192Y036592D02*
X010192Y036311D01*
X009771Y036311D01*
X009771Y036592D01*
X009982Y036451D02*
X009982Y036311D01*
X010122Y036131D02*
X009842Y036131D01*
X009771Y036061D01*
X009771Y035851D01*
X010192Y035851D01*
X010192Y036061D01*
X010122Y036131D01*
X010122Y035671D02*
X009842Y035671D01*
X009771Y035601D01*
X009771Y035461D01*
X009842Y035391D01*
X010122Y035391D01*
X010192Y035461D01*
X010192Y035601D01*
X010122Y035671D01*
X010192Y035211D02*
X009771Y035211D01*
X009912Y035070D01*
X009771Y034930D01*
X010192Y034930D01*
X009192Y035391D02*
X008771Y035391D01*
X008771Y035601D01*
X008842Y035671D01*
X008982Y035671D01*
X009052Y035601D01*
X009052Y035391D01*
X009192Y035851D02*
X008771Y035851D01*
X009192Y035851D02*
X009192Y036131D01*
X009122Y036311D02*
X009192Y036381D01*
X009192Y036522D01*
X009122Y036592D01*
X009052Y036592D01*
X008982Y036522D01*
X008982Y036381D01*
X008912Y036311D01*
X008842Y036311D01*
X008771Y036381D01*
X008771Y036522D01*
X008842Y036592D01*
X008192Y036451D02*
X008052Y036592D01*
X007771Y036592D01*
X007771Y036311D02*
X008052Y036311D01*
X008192Y036451D01*
X008122Y036131D02*
X008192Y036061D01*
X008192Y035921D01*
X008122Y035851D01*
X008122Y035691D02*
X008192Y035691D01*
X008192Y035621D01*
X008122Y035621D01*
X008122Y035691D01*
X008122Y035441D02*
X008192Y035371D01*
X008192Y035231D01*
X008122Y035160D01*
X007982Y035301D02*
X007982Y035371D01*
X008052Y035441D01*
X008122Y035441D01*
X007982Y035371D02*
X007912Y035441D01*
X007842Y035441D01*
X007771Y035371D01*
X007771Y035231D01*
X007842Y035160D01*
X007192Y035231D02*
X007122Y035160D01*
X007192Y035231D02*
X007192Y035371D01*
X007122Y035441D01*
X007052Y035441D01*
X006982Y035371D01*
X006982Y035301D01*
X006982Y035371D02*
X006912Y035441D01*
X006842Y035441D01*
X006771Y035371D01*
X006771Y035231D01*
X006842Y035160D01*
X007122Y035621D02*
X007122Y035691D01*
X007192Y035691D01*
X007192Y035621D01*
X007122Y035621D01*
X007122Y035851D02*
X007192Y035921D01*
X007192Y036061D01*
X007122Y036131D01*
X007052Y036131D01*
X006982Y036061D01*
X006982Y035991D01*
X006982Y036061D02*
X006912Y036131D01*
X006842Y036131D01*
X006771Y036061D01*
X006771Y035921D01*
X006842Y035851D01*
X006771Y036311D02*
X007052Y036311D01*
X007192Y036451D01*
X007052Y036592D01*
X006771Y036592D01*
X006192Y036522D02*
X006192Y036311D01*
X005771Y036311D01*
X005771Y036522D01*
X005842Y036592D01*
X006122Y036592D01*
X006192Y036522D01*
X006192Y036131D02*
X005771Y036131D01*
X005771Y035851D02*
X006192Y036131D01*
X006192Y035851D02*
X005771Y035851D01*
X005842Y035671D02*
X005771Y035601D01*
X005771Y035461D01*
X005842Y035391D01*
X006122Y035391D01*
X006192Y035461D01*
X006192Y035601D01*
X006122Y035671D01*
X005982Y035671D01*
X005982Y035531D01*
X005192Y035851D02*
X004771Y035851D01*
X004771Y036061D01*
X004842Y036131D01*
X004982Y036131D01*
X005052Y036061D01*
X005052Y035851D01*
X005052Y035991D02*
X005192Y036131D01*
X005192Y036311D02*
X004771Y036592D01*
X004771Y036311D02*
X005192Y036592D01*
X004192Y036592D02*
X003771Y036311D01*
X003771Y036131D02*
X003771Y035851D01*
X003771Y035991D02*
X004192Y035991D01*
X004192Y036311D02*
X003771Y036592D01*
X003842Y037772D02*
X003982Y037772D01*
X004052Y037842D01*
X004052Y037982D01*
X003912Y037982D01*
X004052Y038122D02*
X003982Y038192D01*
X003842Y038192D01*
X003772Y038122D01*
X003772Y037842D01*
X003842Y037772D01*
X004232Y037772D02*
X004232Y038192D01*
X004442Y038192D01*
X004512Y038122D01*
X004512Y037982D01*
X004442Y037912D01*
X004232Y037912D01*
X004693Y037842D02*
X004763Y037772D01*
X004903Y037772D01*
X004973Y037842D01*
X004973Y037912D01*
X004903Y037982D01*
X004763Y037982D01*
X004693Y038052D01*
X004693Y038122D01*
X004763Y038192D01*
X004903Y038192D01*
X004973Y038122D01*
X007771Y036061D02*
X007771Y035921D01*
X007842Y035851D01*
X007982Y035991D02*
X007982Y036061D01*
X008052Y036131D01*
X008122Y036131D01*
X007982Y036061D02*
X007912Y036131D01*
X007842Y036131D01*
X007771Y036061D01*
X007661Y034192D02*
X007380Y033772D01*
X007482Y033732D02*
X007732Y033482D01*
X007732Y032982D01*
X007482Y032732D01*
X006982Y032732D01*
X006732Y032482D01*
X006482Y032732D01*
X005982Y032732D01*
X005732Y032482D01*
X005482Y032732D01*
X004982Y032732D01*
X004732Y032482D01*
X004732Y031982D01*
X004982Y031732D01*
X005482Y031732D01*
X005732Y031982D01*
X005982Y031732D01*
X006482Y031732D01*
X006732Y031982D01*
X006982Y031732D01*
X007482Y031732D01*
X007732Y031982D01*
X007732Y032482D01*
X007482Y032732D01*
X006982Y032732D01*
X006732Y032982D01*
X006482Y032732D01*
X005982Y032732D01*
X005732Y032982D01*
X005482Y032732D01*
X004982Y032732D01*
X004732Y032982D01*
X004732Y033482D01*
X004982Y033732D01*
X005482Y033732D01*
X005732Y033482D01*
X005982Y033732D01*
X006482Y033732D01*
X006732Y033482D01*
X006982Y033732D01*
X007482Y033732D01*
X007661Y033772D02*
X007380Y034192D01*
X007200Y034192D02*
X007200Y033842D01*
X007130Y033772D01*
X006990Y033772D01*
X006920Y033842D01*
X006920Y034192D01*
X006740Y034052D02*
X006740Y033772D01*
X006740Y033982D02*
X006460Y033982D01*
X006460Y034052D02*
X006600Y034192D01*
X006740Y034052D01*
X006460Y034052D02*
X006460Y033772D01*
X006280Y033982D02*
X005999Y033982D01*
X005819Y033842D02*
X005819Y034192D01*
X005539Y034192D02*
X005539Y033842D01*
X005609Y033772D01*
X005749Y033772D01*
X005819Y033842D01*
X005359Y033772D02*
X005359Y034192D01*
X005219Y034052D01*
X005079Y034192D01*
X005079Y033772D01*
X004912Y033772D02*
X004772Y033772D01*
X004842Y033772D02*
X004842Y034192D01*
X004772Y034192D02*
X004912Y034192D01*
X004432Y034582D02*
X004432Y031882D01*
X004430Y031823D01*
X004424Y031765D01*
X004415Y031706D01*
X004401Y031649D01*
X004384Y031593D01*
X004363Y031538D01*
X004339Y031484D01*
X004311Y031432D01*
X004280Y031382D01*
X004246Y031334D01*
X004209Y031289D01*
X004168Y031246D01*
X004125Y031205D01*
X004080Y031168D01*
X004032Y031134D01*
X003982Y031103D01*
X003930Y031075D01*
X003876Y031051D01*
X003821Y031030D01*
X003765Y031013D01*
X003708Y030999D01*
X003649Y030990D01*
X003591Y030984D01*
X003532Y030982D01*
X003473Y030984D01*
X003415Y030990D01*
X003356Y030999D01*
X003299Y031013D01*
X003243Y031030D01*
X003188Y031051D01*
X003134Y031075D01*
X003082Y031103D01*
X003032Y031134D01*
X002984Y031168D01*
X002939Y031205D01*
X002896Y031246D01*
X002855Y031289D01*
X002818Y031334D01*
X002784Y031382D01*
X002753Y031432D01*
X002725Y031484D01*
X002701Y031538D01*
X002680Y031593D01*
X002663Y031649D01*
X002649Y031706D01*
X002640Y031765D01*
X002634Y031823D01*
X002632Y031882D01*
X002632Y034582D01*
X002634Y034641D01*
X002640Y034699D01*
X002649Y034758D01*
X002663Y034815D01*
X002680Y034871D01*
X002701Y034926D01*
X002725Y034980D01*
X002753Y035032D01*
X002784Y035082D01*
X002818Y035130D01*
X002855Y035175D01*
X002896Y035218D01*
X002939Y035259D01*
X002984Y035296D01*
X003032Y035330D01*
X003082Y035361D01*
X003134Y035389D01*
X003188Y035413D01*
X003243Y035434D01*
X003299Y035451D01*
X003356Y035465D01*
X003415Y035474D01*
X003473Y035480D01*
X003532Y035482D01*
X003591Y035480D01*
X003649Y035474D01*
X003708Y035465D01*
X003765Y035451D01*
X003821Y035434D01*
X003876Y035413D01*
X003930Y035389D01*
X003982Y035361D01*
X004032Y035330D01*
X004080Y035296D01*
X004125Y035259D01*
X004168Y035218D01*
X004209Y035175D01*
X004246Y035130D01*
X004280Y035082D01*
X004311Y035032D01*
X004339Y034980D01*
X004363Y034926D01*
X004384Y034871D01*
X004401Y034815D01*
X004415Y034758D01*
X004424Y034699D01*
X004430Y034641D01*
X004432Y034582D01*
X007772Y033552D02*
X007912Y033692D01*
X007912Y033272D01*
X007772Y033272D02*
X008052Y033272D01*
X003932Y029125D02*
X003932Y028332D01*
X003582Y027532D02*
X001882Y027532D01*
X002002Y027042D02*
X002002Y026622D01*
X002142Y026622D02*
X001861Y026622D01*
X001732Y026482D02*
X003732Y026482D01*
X003732Y026232D02*
X001732Y026232D01*
X001732Y023232D01*
X003732Y023232D01*
X003732Y026232D01*
X002002Y027042D02*
X001861Y026902D01*
X001532Y028332D02*
X001532Y029137D01*
X001882Y029932D02*
X003582Y029932D01*
X003363Y030272D02*
X003223Y030272D01*
X003153Y030342D01*
X003293Y030482D02*
X003363Y030482D01*
X003433Y030412D01*
X003433Y030342D01*
X003363Y030272D01*
X003363Y030482D02*
X003433Y030552D01*
X003433Y030622D01*
X003363Y030692D01*
X003223Y030692D01*
X003153Y030622D01*
X002973Y030692D02*
X002693Y030692D01*
X002833Y030692D02*
X002833Y030272D01*
X002512Y030342D02*
X002442Y030272D01*
X002302Y030272D01*
X002232Y030342D01*
X002302Y030482D02*
X002442Y030482D01*
X002512Y030412D01*
X002512Y030342D01*
X002302Y030482D02*
X002232Y030552D01*
X002232Y030622D01*
X002302Y030692D01*
X002442Y030692D01*
X002512Y030622D01*
X002052Y030622D02*
X002052Y030482D01*
X001982Y030412D01*
X001772Y030412D01*
X001912Y030412D02*
X002052Y030272D01*
X001772Y030272D02*
X001772Y030692D01*
X001982Y030692D01*
X002052Y030622D01*
X002032Y028732D02*
X002034Y028784D01*
X002040Y028836D01*
X002050Y028888D01*
X002063Y028938D01*
X002080Y028988D01*
X002101Y029036D01*
X002126Y029082D01*
X002154Y029126D01*
X002185Y029168D01*
X002219Y029208D01*
X002256Y029245D01*
X002296Y029279D01*
X002338Y029310D01*
X002382Y029338D01*
X002428Y029363D01*
X002476Y029384D01*
X002526Y029401D01*
X002576Y029414D01*
X002628Y029424D01*
X002680Y029430D01*
X002732Y029432D01*
X002784Y029430D01*
X002836Y029424D01*
X002888Y029414D01*
X002938Y029401D01*
X002988Y029384D01*
X003036Y029363D01*
X003082Y029338D01*
X003126Y029310D01*
X003168Y029279D01*
X003208Y029245D01*
X003245Y029208D01*
X003279Y029168D01*
X003310Y029126D01*
X003338Y029082D01*
X003363Y029036D01*
X003384Y028988D01*
X003401Y028938D01*
X003414Y028888D01*
X003424Y028836D01*
X003430Y028784D01*
X003432Y028732D01*
X003430Y028680D01*
X003424Y028628D01*
X003414Y028576D01*
X003401Y028526D01*
X003384Y028476D01*
X003363Y028428D01*
X003338Y028382D01*
X003310Y028338D01*
X003279Y028296D01*
X003245Y028256D01*
X003208Y028219D01*
X003168Y028185D01*
X003126Y028154D01*
X003082Y028126D01*
X003036Y028101D01*
X002988Y028080D01*
X002938Y028063D01*
X002888Y028050D01*
X002836Y028040D01*
X002784Y028034D01*
X002732Y028032D01*
X002680Y028034D01*
X002628Y028040D01*
X002576Y028050D01*
X002526Y028063D01*
X002476Y028080D01*
X002428Y028101D01*
X002382Y028126D01*
X002338Y028154D01*
X002296Y028185D01*
X002256Y028219D01*
X002219Y028256D01*
X002185Y028296D01*
X002154Y028338D01*
X002126Y028382D01*
X002101Y028428D01*
X002080Y028476D01*
X002063Y028526D01*
X002050Y028576D01*
X002040Y028628D01*
X002034Y028680D01*
X002032Y028732D01*
X001622Y025240D02*
X001692Y025170D01*
X001692Y025030D01*
X001622Y024960D01*
X001482Y025100D02*
X001482Y025170D01*
X001552Y025240D01*
X001622Y025240D01*
X001482Y025170D02*
X001412Y025240D01*
X001342Y025240D01*
X001271Y025170D01*
X001271Y025030D01*
X001342Y024960D01*
X001342Y024780D02*
X001482Y024780D01*
X001552Y024710D01*
X001552Y024499D01*
X001692Y024499D02*
X001271Y024499D01*
X001271Y024710D01*
X001342Y024780D01*
X001342Y024319D02*
X001271Y024249D01*
X001271Y024109D01*
X001342Y024039D01*
X001412Y024039D01*
X001482Y024109D01*
X001482Y024249D01*
X001552Y024319D01*
X001622Y024319D01*
X001692Y024249D01*
X001692Y024109D01*
X001622Y024039D01*
X001622Y023859D02*
X001692Y023789D01*
X001692Y023649D01*
X001622Y023579D01*
X001342Y023579D01*
X001271Y023649D01*
X001271Y023789D01*
X001342Y023859D01*
X001271Y023412D02*
X001271Y023272D01*
X001271Y023342D02*
X001692Y023342D01*
X001692Y023272D02*
X001692Y023412D01*
X008287Y012126D02*
X008287Y011338D01*
X008838Y011338D01*
X009114Y011496D02*
X009114Y011968D01*
X009350Y011732D01*
X009114Y011496D01*
X009350Y011456D02*
X009350Y011732D01*
X009350Y012007D01*
X009626Y012126D02*
X010177Y012126D01*
X010177Y011338D01*
X009626Y011338D01*
X008838Y012126D02*
X008287Y012126D01*
X018693Y030772D02*
X018693Y031052D01*
X018833Y031192D01*
X018973Y031052D01*
X018973Y030772D01*
X018973Y030982D02*
X018693Y030982D01*
X021271Y033391D02*
X021271Y033601D01*
X021342Y033671D01*
X021482Y033671D01*
X021552Y033601D01*
X021552Y033391D01*
X021692Y033391D02*
X021271Y033391D01*
X021271Y033851D02*
X021692Y033851D01*
X021552Y033991D01*
X021692Y034131D01*
X021271Y034131D01*
X021271Y034311D02*
X021271Y034522D01*
X021342Y034592D01*
X021482Y034592D01*
X021552Y034522D01*
X021552Y034311D01*
X021692Y034311D02*
X021271Y034311D01*
X021552Y034451D02*
X021692Y034592D01*
X021482Y034732D02*
X021982Y034732D01*
X022232Y034982D01*
X022232Y035482D01*
X021982Y035732D01*
X022232Y035982D01*
X022232Y036482D01*
X021982Y036732D01*
X022232Y036982D01*
X022232Y037482D01*
X021982Y037732D01*
X021482Y037732D01*
X021232Y037482D01*
X021232Y036982D01*
X021482Y036732D01*
X021232Y036482D01*
X021232Y035982D01*
X021482Y035732D01*
X021232Y035482D01*
X021232Y034982D01*
X021482Y034732D01*
X022232Y034982D02*
X022232Y035482D01*
X022482Y035732D01*
X022232Y035982D01*
X022232Y036482D01*
X022482Y036732D01*
X022232Y036982D01*
X022232Y037482D01*
X022482Y037732D01*
X022982Y037732D01*
X023232Y037482D01*
X023482Y037732D01*
X023982Y037732D01*
X024232Y037482D01*
X024482Y037732D01*
X024982Y037732D01*
X025232Y037482D01*
X025482Y037732D01*
X025982Y037732D01*
X026232Y037482D01*
X026482Y037732D01*
X026982Y037732D01*
X027232Y037482D01*
X027482Y037732D01*
X027982Y037732D01*
X028232Y037482D01*
X028232Y036982D01*
X027982Y036732D01*
X028232Y036482D01*
X028232Y035982D01*
X027982Y035732D01*
X028232Y035482D01*
X028232Y034982D01*
X027982Y034732D01*
X027482Y034732D01*
X027232Y034982D01*
X027232Y035482D01*
X027482Y035732D01*
X027232Y035982D01*
X027232Y036482D01*
X027482Y036732D01*
X027232Y036982D01*
X027232Y037482D01*
X027232Y036982D01*
X026982Y036732D01*
X027232Y036482D01*
X027232Y035982D01*
X026982Y035732D01*
X027232Y035482D01*
X027232Y034982D01*
X026982Y034732D01*
X026482Y034732D01*
X026232Y034982D01*
X026232Y035482D01*
X026482Y035732D01*
X026232Y035982D01*
X026232Y036482D01*
X026482Y036732D01*
X026232Y036982D01*
X026232Y037482D01*
X026232Y036982D01*
X025982Y036732D01*
X026232Y036482D01*
X026232Y035982D01*
X025982Y035732D01*
X026232Y035482D01*
X026232Y034982D01*
X025982Y034732D01*
X025482Y034732D01*
X025232Y034982D01*
X025232Y035482D01*
X025482Y035732D01*
X025232Y035982D01*
X025232Y036482D01*
X025482Y036732D01*
X025232Y036982D01*
X025232Y037482D01*
X025232Y036982D01*
X024982Y036732D01*
X025232Y036482D01*
X025232Y035982D01*
X024982Y035732D01*
X025232Y035482D01*
X025232Y034982D01*
X024982Y034732D01*
X024482Y034732D01*
X024232Y034982D01*
X024232Y035482D01*
X024482Y035732D01*
X024232Y035982D01*
X024232Y036482D01*
X024482Y036732D01*
X024232Y036982D01*
X024232Y037482D01*
X024232Y036982D01*
X023982Y036732D01*
X024232Y036482D01*
X024232Y035982D01*
X023982Y035732D01*
X024232Y035482D01*
X024232Y034982D01*
X023982Y034732D01*
X023482Y034732D01*
X023232Y034982D01*
X023232Y035482D01*
X023482Y035732D01*
X023232Y035982D01*
X023232Y036482D01*
X023482Y036732D01*
X023232Y036982D01*
X023232Y037482D01*
X023232Y036982D01*
X022982Y036732D01*
X023232Y036482D01*
X023232Y035982D01*
X022982Y035732D01*
X023232Y035482D01*
X023232Y034982D01*
X022982Y034732D01*
X022482Y034732D01*
X022232Y034982D01*
X022271Y034452D02*
X022692Y034452D01*
X022692Y034592D02*
X022692Y034311D01*
X022412Y034311D02*
X022271Y034452D01*
X023271Y034522D02*
X023271Y034381D01*
X023342Y034311D01*
X023271Y034522D02*
X023342Y034592D01*
X023412Y034592D01*
X023692Y034311D01*
X023692Y034592D01*
X024271Y034522D02*
X024342Y034592D01*
X024412Y034592D01*
X024482Y034522D01*
X024552Y034592D01*
X024622Y034592D01*
X024692Y034522D01*
X024692Y034381D01*
X024622Y034311D01*
X024482Y034452D02*
X024482Y034522D01*
X024271Y034522D02*
X024271Y034381D01*
X024342Y034311D01*
X025271Y034522D02*
X025482Y034311D01*
X025482Y034592D01*
X025692Y034522D02*
X025271Y034522D01*
X026271Y034592D02*
X026271Y034311D01*
X026482Y034311D01*
X026412Y034452D01*
X026412Y034522D01*
X026482Y034592D01*
X026622Y034592D01*
X026692Y034522D01*
X026692Y034381D01*
X026622Y034311D01*
X027271Y034592D02*
X027342Y034452D01*
X027482Y034311D01*
X027482Y034522D01*
X027552Y034592D01*
X027622Y034592D01*
X027692Y034522D01*
X027692Y034381D01*
X027622Y034311D01*
X027482Y034311D01*
X029271Y035272D02*
X029271Y035412D01*
X029271Y035342D02*
X029692Y035342D01*
X029692Y035272D02*
X029692Y035412D01*
X029622Y035579D02*
X029342Y035579D01*
X029271Y035649D01*
X029271Y035789D01*
X029342Y035859D01*
X029342Y036039D02*
X029412Y036039D01*
X029482Y036109D01*
X029482Y036249D01*
X029552Y036319D01*
X029622Y036319D01*
X029692Y036249D01*
X029692Y036109D01*
X029622Y036039D01*
X029622Y035859D02*
X029692Y035789D01*
X029692Y035649D01*
X029622Y035579D01*
X029342Y036039D02*
X029271Y036109D01*
X029271Y036249D01*
X029342Y036319D01*
X029271Y036499D02*
X029271Y036710D01*
X029342Y036780D01*
X029482Y036780D01*
X029552Y036710D01*
X029552Y036499D01*
X029692Y036499D02*
X029271Y036499D01*
X029342Y036960D02*
X029271Y037030D01*
X029271Y037170D01*
X029342Y037240D01*
X029412Y037240D01*
X029692Y036960D01*
X029692Y037240D01*
X029732Y037732D02*
X031732Y037732D01*
X031732Y034732D01*
X029732Y034732D01*
X029732Y037732D01*
X029732Y037982D02*
X031732Y037982D01*
X030102Y038172D02*
X029822Y038172D01*
X029962Y038172D02*
X029962Y038592D01*
X029822Y038452D01*
X027677Y038338D02*
X027677Y039126D01*
X027126Y039126D01*
X026850Y038968D02*
X026614Y038732D01*
X026850Y038496D01*
X026850Y038968D01*
X026614Y039007D02*
X026614Y038732D01*
X026614Y038456D01*
X026338Y038338D02*
X025787Y038338D01*
X025787Y039126D01*
X026338Y039126D01*
X027126Y038338D02*
X027677Y038338D01*
X024621Y038122D02*
X024621Y037982D01*
X024551Y037912D01*
X024341Y037912D01*
X024481Y037912D02*
X024621Y037772D01*
X024341Y037772D02*
X024341Y038192D01*
X024551Y038192D01*
X024621Y038122D01*
X024161Y038192D02*
X023880Y038192D01*
X023880Y037772D01*
X024161Y037772D01*
X024021Y037982D02*
X023880Y037982D01*
X023700Y037912D02*
X023700Y038192D01*
X023420Y038192D02*
X023420Y037912D01*
X023560Y037772D01*
X023700Y037912D01*
X023253Y037772D02*
X023113Y037772D01*
X023183Y037772D02*
X023183Y038192D01*
X023113Y038192D02*
X023253Y038192D01*
X022933Y038192D02*
X022653Y038192D01*
X022653Y037772D01*
X022933Y037772D01*
X022793Y037982D02*
X022653Y037982D01*
X022473Y038122D02*
X022403Y038192D01*
X022263Y038192D01*
X022193Y038122D01*
X022193Y037842D01*
X022263Y037772D01*
X022403Y037772D01*
X022473Y037842D01*
X022012Y037772D02*
X021732Y037772D01*
X021732Y038192D01*
X022012Y038192D01*
X021872Y037982D02*
X021732Y037982D01*
X021552Y037982D02*
X021482Y037912D01*
X021272Y037912D01*
X021412Y037912D02*
X021552Y037772D01*
X021552Y037982D02*
X021552Y038122D01*
X021482Y038192D01*
X021272Y038192D01*
X021272Y037772D01*
X021092Y037482D02*
X020811Y037482D01*
X020881Y036692D02*
X020811Y036622D01*
X020811Y036342D01*
X020881Y036272D01*
X021022Y036272D01*
X021092Y036342D01*
X021092Y036482D01*
X020951Y036482D01*
X021092Y036622D02*
X021022Y036692D01*
X020881Y036692D01*
X020645Y036692D02*
X020504Y036692D01*
X020575Y036692D02*
X020575Y036272D01*
X020645Y036272D02*
X020504Y036272D01*
X020324Y036342D02*
X020254Y036272D01*
X020114Y036272D01*
X020044Y036342D01*
X020114Y036482D02*
X020254Y036482D01*
X020324Y036412D01*
X020324Y036342D01*
X020114Y036482D02*
X020044Y036552D01*
X020044Y036622D01*
X020114Y036692D01*
X020254Y036692D01*
X020324Y036622D01*
X020952Y035622D02*
X020952Y035342D01*
X021092Y035482D02*
X020811Y035482D01*
X014814Y037842D02*
X014744Y037772D01*
X014604Y037772D01*
X014534Y037842D01*
X014604Y037982D02*
X014534Y038052D01*
X014534Y038122D01*
X014604Y038192D01*
X014744Y038192D01*
X014814Y038122D01*
X014744Y037982D02*
X014814Y037912D01*
X014814Y037842D01*
X014744Y037982D02*
X014604Y037982D01*
X014354Y037912D02*
X014354Y037842D01*
X014284Y037772D01*
X014144Y037772D01*
X014074Y037842D01*
X014144Y037982D02*
X014284Y037982D01*
X014354Y037912D01*
X014354Y038122D02*
X014284Y038192D01*
X014144Y038192D01*
X014074Y038122D01*
X014074Y038052D01*
X014144Y037982D01*
X013893Y037982D02*
X013613Y037982D01*
X013613Y038052D02*
X013753Y038192D01*
X013893Y038052D01*
X013893Y037772D01*
X013613Y037772D02*
X013613Y038052D01*
X013433Y037982D02*
X013363Y037912D01*
X013153Y037912D01*
X013153Y037772D02*
X013153Y038192D01*
X013363Y038192D01*
X013433Y038122D01*
X013433Y037982D01*
X012973Y038192D02*
X012973Y037772D01*
X012693Y037772D02*
X012693Y038192D01*
X012833Y038052D01*
X012973Y038192D01*
X012512Y038122D02*
X012512Y037842D01*
X012442Y037772D01*
X012302Y037772D01*
X012232Y037842D01*
X012232Y038122D01*
X012302Y038192D01*
X012442Y038192D01*
X012512Y038122D01*
X012052Y038122D02*
X011982Y038192D01*
X011842Y038192D01*
X011772Y038122D01*
X011772Y037842D01*
X011842Y037772D01*
X011982Y037772D01*
X012052Y037842D01*
X027272Y021692D02*
X027272Y021272D01*
X027482Y021272D01*
X027552Y021342D01*
X027552Y021412D01*
X027482Y021482D01*
X027272Y021482D01*
X027482Y021482D02*
X027552Y021552D01*
X027552Y021622D01*
X027482Y021692D01*
X027272Y021692D01*
X027732Y021552D02*
X027872Y021692D01*
X028012Y021552D01*
X028012Y021272D01*
X028012Y021482D02*
X027732Y021482D01*
X027732Y021552D02*
X027732Y021272D01*
X028333Y021272D02*
X028333Y021692D01*
X028193Y021692D02*
X028473Y021692D01*
X029332Y023882D02*
X029332Y026582D01*
X029334Y026641D01*
X029340Y026699D01*
X029349Y026758D01*
X029363Y026815D01*
X029380Y026871D01*
X029401Y026926D01*
X029425Y026980D01*
X029453Y027032D01*
X029484Y027082D01*
X029518Y027130D01*
X029555Y027175D01*
X029596Y027218D01*
X029639Y027259D01*
X029684Y027296D01*
X029732Y027330D01*
X029782Y027361D01*
X029834Y027389D01*
X029888Y027413D01*
X029943Y027434D01*
X029999Y027451D01*
X030056Y027465D01*
X030115Y027474D01*
X030173Y027480D01*
X030232Y027482D01*
X030291Y027480D01*
X030349Y027474D01*
X030408Y027465D01*
X030465Y027451D01*
X030521Y027434D01*
X030576Y027413D01*
X030630Y027389D01*
X030682Y027361D01*
X030732Y027330D01*
X030780Y027296D01*
X030825Y027259D01*
X030868Y027218D01*
X030909Y027175D01*
X030946Y027130D01*
X030980Y027082D01*
X031011Y027032D01*
X031039Y026980D01*
X031063Y026926D01*
X031084Y026871D01*
X031101Y026815D01*
X031115Y026758D01*
X031124Y026699D01*
X031130Y026641D01*
X031132Y026582D01*
X031132Y023882D01*
X031130Y023823D01*
X031124Y023765D01*
X031115Y023706D01*
X031101Y023649D01*
X031084Y023593D01*
X031063Y023538D01*
X031039Y023484D01*
X031011Y023432D01*
X030980Y023382D01*
X030946Y023334D01*
X030909Y023289D01*
X030868Y023246D01*
X030825Y023205D01*
X030780Y023168D01*
X030732Y023134D01*
X030682Y023103D01*
X030630Y023075D01*
X030576Y023051D01*
X030521Y023030D01*
X030465Y023013D01*
X030408Y022999D01*
X030349Y022990D01*
X030291Y022984D01*
X030232Y022982D01*
X030173Y022984D01*
X030115Y022990D01*
X030056Y022999D01*
X029999Y023013D01*
X029943Y023030D01*
X029888Y023051D01*
X029834Y023075D01*
X029782Y023103D01*
X029732Y023134D01*
X029684Y023168D01*
X029639Y023205D01*
X029596Y023246D01*
X029555Y023289D01*
X029518Y023334D01*
X029484Y023382D01*
X029453Y023432D01*
X029425Y023484D01*
X029401Y023538D01*
X029380Y023593D01*
X029363Y023649D01*
X029349Y023706D01*
X029340Y023765D01*
X029334Y023823D01*
X029332Y023882D01*
X032482Y020732D02*
X032232Y020482D01*
X032232Y019982D01*
X032482Y019732D01*
X032232Y019482D01*
X032232Y018982D01*
X032482Y018732D01*
X032232Y018482D01*
X032232Y017982D01*
X032482Y017732D01*
X032232Y017482D01*
X032232Y016982D01*
X032482Y016732D01*
X032232Y016482D01*
X032232Y015982D01*
X032482Y015732D01*
X032232Y015482D01*
X032232Y014982D01*
X032482Y014732D01*
X032232Y014482D01*
X032232Y013982D01*
X032482Y013732D01*
X032232Y013482D01*
X032232Y012982D01*
X032482Y012732D01*
X032232Y012482D01*
X032232Y011982D01*
X032482Y011732D01*
X032232Y011482D01*
X032232Y010982D01*
X032482Y010732D01*
X032232Y010482D01*
X032232Y009982D01*
X032482Y009732D01*
X032982Y009732D01*
X033232Y009982D01*
X033232Y010482D01*
X032982Y010732D01*
X033232Y010982D01*
X033232Y011482D01*
X032982Y011732D01*
X033232Y011982D01*
X033232Y012482D01*
X032982Y012732D01*
X033232Y012982D01*
X033232Y013482D01*
X032982Y013732D01*
X033232Y013982D01*
X033232Y014482D01*
X032982Y014732D01*
X033232Y014982D01*
X033232Y015482D01*
X032982Y015732D01*
X033232Y015982D01*
X033232Y016482D01*
X032982Y016732D01*
X033232Y016982D01*
X033232Y017482D01*
X032982Y017732D01*
X033232Y017982D01*
X033232Y018482D01*
X032982Y018732D01*
X033232Y018982D01*
X033232Y019482D01*
X032982Y019732D01*
X033232Y019982D01*
X033232Y020482D01*
X032982Y020732D01*
X032482Y020732D01*
X033342Y019671D02*
X033271Y019601D01*
X033271Y019391D01*
X033692Y019391D01*
X033692Y019601D01*
X033622Y019671D01*
X033552Y019671D01*
X033482Y019601D01*
X033482Y019391D01*
X033482Y019601D02*
X033412Y019671D01*
X033342Y019671D01*
X033482Y019851D02*
X033412Y019921D01*
X033412Y020061D01*
X033482Y020131D01*
X033552Y020131D01*
X033552Y019851D01*
X033622Y019851D02*
X033482Y019851D01*
X033622Y019851D02*
X033692Y019921D01*
X033692Y020061D01*
X033622Y020311D02*
X033692Y020381D01*
X033692Y020521D01*
X033552Y020592D02*
X033552Y020311D01*
X033622Y020311D02*
X033482Y020311D01*
X033412Y020381D01*
X033412Y020521D01*
X033482Y020592D01*
X033552Y020592D01*
X033692Y019211D02*
X033271Y018930D01*
X033271Y019211D02*
X033692Y018930D01*
X032092Y017622D02*
X032092Y017342D01*
X032022Y017272D01*
X031811Y017272D01*
X031811Y017692D01*
X032022Y017692D01*
X032092Y017622D01*
X031631Y017692D02*
X031631Y017272D01*
X031351Y017692D01*
X031351Y017272D01*
X031171Y017342D02*
X031171Y017482D01*
X031031Y017482D01*
X031171Y017622D02*
X031101Y017692D01*
X030961Y017692D01*
X030891Y017622D01*
X030891Y017342D01*
X030961Y017272D01*
X031101Y017272D01*
X031171Y017342D01*
X031351Y014692D02*
X031631Y014692D01*
X031491Y014692D02*
X031491Y014272D01*
X031811Y014272D02*
X032092Y014692D01*
X031811Y014692D02*
X032092Y014272D01*
X032092Y013692D02*
X031811Y013272D01*
X031631Y013272D02*
X031491Y013412D01*
X031561Y013412D02*
X031351Y013412D01*
X031351Y013272D02*
X031351Y013692D01*
X031561Y013692D01*
X031631Y013622D01*
X031631Y013482D01*
X031561Y013412D01*
X031811Y013692D02*
X032092Y013272D01*
X032022Y011692D02*
X031881Y011692D01*
X031811Y011622D01*
X031631Y011692D02*
X031631Y011412D01*
X031491Y011272D01*
X031351Y011412D01*
X031351Y011692D01*
X031171Y011622D02*
X031171Y011552D01*
X031101Y011482D01*
X031171Y011412D01*
X031171Y011342D01*
X031101Y011272D01*
X030961Y011272D01*
X030891Y011342D01*
X031031Y011482D02*
X031101Y011482D01*
X031171Y011622D02*
X031101Y011692D01*
X030961Y011692D01*
X030891Y011622D01*
X031811Y011342D02*
X031881Y011272D01*
X032022Y011272D01*
X032092Y011342D01*
X032092Y011412D01*
X032022Y011482D01*
X031951Y011482D01*
X032022Y011482D02*
X032092Y011552D01*
X032092Y011622D01*
X032022Y011692D01*
X031232Y007732D02*
X031232Y004732D01*
X033232Y004732D01*
X033232Y007732D01*
X031232Y007732D01*
X031192Y006740D02*
X031192Y006460D01*
X031192Y006600D02*
X030771Y006600D01*
X030912Y006460D01*
X030842Y006280D02*
X030982Y006280D01*
X031052Y006210D01*
X031052Y005999D01*
X031192Y005999D02*
X030771Y005999D01*
X030771Y006210D01*
X030842Y006280D01*
X030842Y005819D02*
X030771Y005749D01*
X030771Y005609D01*
X030842Y005539D01*
X030912Y005539D01*
X030982Y005609D01*
X030982Y005749D01*
X031052Y005819D01*
X031122Y005819D01*
X031192Y005749D01*
X031192Y005609D01*
X031122Y005539D01*
X031122Y005359D02*
X031192Y005289D01*
X031192Y005149D01*
X031122Y005079D01*
X030842Y005079D01*
X030771Y005149D01*
X030771Y005289D01*
X030842Y005359D01*
X030771Y004912D02*
X030771Y004772D01*
X030771Y004842D02*
X031192Y004842D01*
X031192Y004772D02*
X031192Y004912D01*
X031232Y004482D02*
X033232Y004482D01*
X033192Y004252D02*
X033192Y003972D01*
X033192Y004112D02*
X032771Y004112D01*
X032912Y003972D01*
X033082Y029032D02*
X031382Y029032D01*
X031032Y029832D02*
X031032Y030637D01*
X031382Y031432D02*
X033082Y031432D01*
X032933Y031772D02*
X032653Y031772D01*
X032933Y032052D01*
X032933Y032122D01*
X032863Y032192D01*
X032723Y032192D01*
X032653Y032122D01*
X032473Y032192D02*
X032193Y032192D01*
X032333Y032192D02*
X032333Y031772D01*
X032012Y031842D02*
X031942Y031772D01*
X031802Y031772D01*
X031732Y031842D01*
X031802Y031982D02*
X031942Y031982D01*
X032012Y031912D01*
X032012Y031842D01*
X031802Y031982D02*
X031732Y032052D01*
X031732Y032122D01*
X031802Y032192D01*
X031942Y032192D01*
X032012Y032122D01*
X031552Y032122D02*
X031552Y031982D01*
X031482Y031912D01*
X031272Y031912D01*
X031412Y031912D02*
X031552Y031772D01*
X031272Y031772D02*
X031272Y032192D01*
X031482Y032192D01*
X031552Y032122D01*
X031532Y030232D02*
X031534Y030284D01*
X031540Y030336D01*
X031550Y030388D01*
X031563Y030438D01*
X031580Y030488D01*
X031601Y030536D01*
X031626Y030582D01*
X031654Y030626D01*
X031685Y030668D01*
X031719Y030708D01*
X031756Y030745D01*
X031796Y030779D01*
X031838Y030810D01*
X031882Y030838D01*
X031928Y030863D01*
X031976Y030884D01*
X032026Y030901D01*
X032076Y030914D01*
X032128Y030924D01*
X032180Y030930D01*
X032232Y030932D01*
X032284Y030930D01*
X032336Y030924D01*
X032388Y030914D01*
X032438Y030901D01*
X032488Y030884D01*
X032536Y030863D01*
X032582Y030838D01*
X032626Y030810D01*
X032668Y030779D01*
X032708Y030745D01*
X032745Y030708D01*
X032779Y030668D01*
X032810Y030626D01*
X032838Y030582D01*
X032863Y030536D01*
X032884Y030488D01*
X032901Y030438D01*
X032914Y030388D01*
X032924Y030336D01*
X032930Y030284D01*
X032932Y030232D01*
X032930Y030180D01*
X032924Y030128D01*
X032914Y030076D01*
X032901Y030026D01*
X032884Y029976D01*
X032863Y029928D01*
X032838Y029882D01*
X032810Y029838D01*
X032779Y029796D01*
X032745Y029756D01*
X032708Y029719D01*
X032668Y029685D01*
X032626Y029654D01*
X032582Y029626D01*
X032536Y029601D01*
X032488Y029580D01*
X032438Y029563D01*
X032388Y029550D01*
X032336Y029540D01*
X032284Y029534D01*
X032232Y029532D01*
X032180Y029534D01*
X032128Y029540D01*
X032076Y029550D01*
X032026Y029563D01*
X031976Y029580D01*
X031928Y029601D01*
X031882Y029626D01*
X031838Y029654D01*
X031796Y029685D01*
X031756Y029719D01*
X031719Y029756D01*
X031685Y029796D01*
X031654Y029838D01*
X031626Y029882D01*
X031601Y029928D01*
X031580Y029976D01*
X031563Y030026D01*
X031550Y030076D01*
X031540Y030128D01*
X031534Y030180D01*
X031532Y030232D01*
X033432Y030625D02*
X033432Y029832D01*
D11*
X018674Y009680D02*
X018674Y009582D01*
X018576Y009582D01*
X018576Y009680D01*
X018674Y009680D01*
X018674Y009385D02*
X018674Y009287D01*
X018576Y009287D01*
X018576Y009385D01*
X018674Y009385D01*
X018325Y009287D02*
X018030Y009287D01*
X017931Y009385D01*
X017931Y009680D01*
X017680Y009680D02*
X017582Y009582D01*
X017287Y009582D01*
X017582Y009582D02*
X017680Y009484D01*
X017680Y009385D01*
X017582Y009287D01*
X017287Y009287D01*
X017287Y009877D01*
X017582Y009877D01*
X017680Y009779D01*
X017680Y009680D01*
X018325Y009680D02*
X018325Y009188D01*
X018227Y009090D01*
X018128Y009090D01*
X018030Y008680D02*
X017931Y008582D01*
X017931Y008385D01*
X018030Y008287D01*
X018227Y008287D01*
X018325Y008385D01*
X018325Y008582D01*
X018227Y008680D01*
X018030Y008680D01*
X017680Y008877D02*
X017484Y008877D01*
X017582Y008877D02*
X017582Y008385D01*
X017484Y008287D01*
X017385Y008287D01*
X017287Y008385D01*
X017287Y007877D02*
X017680Y007877D01*
X017484Y007582D02*
X017287Y007582D01*
X017287Y007287D02*
X017287Y007877D01*
X017931Y007582D02*
X018030Y007680D01*
X018227Y007680D01*
X018325Y007582D01*
X018325Y007484D01*
X017931Y007484D01*
X017931Y007582D02*
X017931Y007385D01*
X018030Y007287D01*
X018227Y007287D01*
X018576Y007287D02*
X018576Y007680D01*
X018576Y007484D02*
X018773Y007680D01*
X018871Y007680D01*
X019113Y007680D02*
X019408Y007680D01*
X019507Y007582D01*
X019507Y007287D01*
X019757Y007385D02*
X019757Y007582D01*
X019856Y007680D01*
X020053Y007680D01*
X020151Y007582D01*
X020151Y007484D01*
X019757Y007484D01*
X019757Y007385D02*
X019856Y007287D01*
X020053Y007287D01*
X020402Y007287D02*
X020402Y007680D01*
X020402Y007484D02*
X020599Y007680D01*
X020697Y007680D01*
X019113Y007680D02*
X019113Y007287D01*
X018871Y008287D02*
X018674Y008287D01*
X018576Y008385D01*
X018576Y008582D01*
X018674Y008680D01*
X018871Y008680D01*
X018970Y008582D01*
X018970Y008484D01*
X018576Y008484D01*
X023839Y002579D02*
X023839Y002185D01*
X023642Y002382D02*
X024036Y002382D01*
X023082Y001377D02*
X023180Y001279D01*
X023180Y000885D01*
X023082Y000787D01*
X022885Y000787D01*
X022787Y000885D01*
X022787Y001279D01*
X022885Y001377D01*
X023082Y001377D01*
X023431Y001180D02*
X023431Y000885D01*
X023530Y000787D01*
X023825Y000787D01*
X023825Y001180D01*
X024174Y001180D02*
X024371Y001180D01*
X024470Y001082D01*
X024470Y000787D01*
X024174Y000787D01*
X024076Y000885D01*
X024174Y000984D01*
X024470Y000984D01*
X024720Y001082D02*
X024819Y001180D01*
X025114Y001180D01*
X025114Y001377D02*
X025114Y000787D01*
X024819Y000787D01*
X024720Y000885D01*
X024720Y001082D01*
X025365Y001082D02*
X025365Y000885D01*
X025463Y000787D01*
X025759Y000787D01*
X026009Y000885D02*
X026108Y000787D01*
X026305Y000787D01*
X026403Y000885D01*
X026403Y001082D01*
X026305Y001180D01*
X026108Y001180D01*
X026009Y001082D01*
X026009Y000885D01*
X025759Y001180D02*
X025463Y001180D01*
X025365Y001082D01*
X026654Y001180D02*
X026654Y000590D01*
X026654Y000787D02*
X026949Y000787D01*
X027048Y000885D01*
X027048Y001082D01*
X026949Y001180D01*
X026654Y001180D01*
X027299Y001180D02*
X027495Y001180D01*
X027397Y001279D02*
X027397Y000885D01*
X027495Y000787D01*
X027728Y000885D02*
X027728Y001082D01*
X027827Y001180D01*
X028023Y001180D01*
X028122Y001082D01*
X028122Y000984D01*
X027728Y000984D01*
X027728Y000885D02*
X027827Y000787D01*
X028023Y000787D01*
X028373Y000787D02*
X028373Y001180D01*
X028373Y000984D02*
X028570Y001180D01*
X028668Y001180D01*
X029554Y000984D02*
X029850Y000984D01*
X029948Y001082D01*
X029948Y001279D01*
X029850Y001377D01*
X029554Y001377D01*
X029554Y000787D01*
X029751Y000984D02*
X029948Y000787D01*
X030199Y000885D02*
X030199Y001082D01*
X030297Y001180D01*
X030494Y001180D01*
X030593Y001082D01*
X030593Y000984D01*
X030199Y000984D01*
X030199Y000885D02*
X030297Y000787D01*
X030494Y000787D01*
X030843Y001180D02*
X031040Y000787D01*
X031237Y001180D01*
X031488Y001180D02*
X031685Y001377D01*
X031685Y000787D01*
X031488Y000787D02*
X031882Y000787D01*
X023180Y000787D02*
X022984Y000984D01*
X023036Y002382D02*
X022642Y002382D01*
D12*
X023352Y011352D02*
X023352Y013972D01*
X023492Y014112D01*
X026112Y014112D01*
X026112Y011352D01*
X023352Y011352D01*
X023511Y013812D02*
X023513Y013835D01*
X023519Y013858D01*
X023528Y013879D01*
X023541Y013899D01*
X023557Y013916D01*
X023575Y013930D01*
X023595Y013941D01*
X023617Y013949D01*
X023640Y013953D01*
X023664Y013953D01*
X023687Y013949D01*
X023709Y013941D01*
X023729Y013930D01*
X023747Y013916D01*
X023763Y013899D01*
X023776Y013879D01*
X023785Y013858D01*
X023791Y013835D01*
X023793Y013812D01*
X023791Y013789D01*
X023785Y013766D01*
X023776Y013745D01*
X023763Y013725D01*
X023747Y013708D01*
X023729Y013694D01*
X023709Y013683D01*
X023687Y013675D01*
X023664Y013671D01*
X023640Y013671D01*
X023617Y013675D01*
X023595Y013683D01*
X023575Y013694D01*
X023557Y013708D01*
X023541Y013725D01*
X023528Y013745D01*
X023519Y013766D01*
X023513Y013789D01*
X023511Y013812D01*
X027482Y018382D02*
X027382Y018482D01*
X027382Y019132D01*
X027732Y018532D02*
X028332Y018532D01*
X028482Y018382D02*
X027732Y018382D01*
X027732Y018532D01*
X027732Y018382D02*
X027482Y018382D01*
X027382Y019632D02*
X027382Y020982D01*
X027482Y021082D01*
X029982Y021082D01*
X030082Y020982D01*
X030082Y019632D01*
X030082Y019132D02*
X030082Y018482D01*
X029982Y018382D01*
X029732Y018382D01*
X029732Y018532D01*
X029132Y018532D01*
X028982Y018382D02*
X029732Y018382D01*
X028882Y019132D02*
X028882Y019432D01*
X028882Y019582D01*
X029032Y019732D01*
X029332Y019732D01*
X029332Y020032D01*
X029032Y020032D01*
X028882Y020182D01*
X028882Y020332D01*
X028882Y020632D01*
X028582Y020632D01*
X028582Y020332D01*
X028582Y020182D01*
X028432Y020032D01*
X028132Y020032D01*
X028132Y019732D01*
X028432Y019732D01*
X028582Y019582D01*
X028582Y019432D01*
X028582Y019132D01*
X028882Y019132D01*
X028882Y019432D02*
X028582Y019432D01*
X028582Y020332D02*
X028882Y020332D01*
X027112Y028352D02*
X024492Y028352D01*
X024352Y028492D01*
X024352Y031112D01*
X027112Y031112D01*
X027112Y028352D01*
X024511Y028652D02*
X024513Y028675D01*
X024519Y028698D01*
X024528Y028719D01*
X024541Y028739D01*
X024557Y028756D01*
X024575Y028770D01*
X024595Y028781D01*
X024617Y028789D01*
X024640Y028793D01*
X024664Y028793D01*
X024687Y028789D01*
X024709Y028781D01*
X024729Y028770D01*
X024747Y028756D01*
X024763Y028739D01*
X024776Y028719D01*
X024785Y028698D01*
X024791Y028675D01*
X024793Y028652D01*
X024791Y028629D01*
X024785Y028606D01*
X024776Y028585D01*
X024763Y028565D01*
X024747Y028548D01*
X024729Y028534D01*
X024709Y028523D01*
X024687Y028515D01*
X024664Y028511D01*
X024640Y028511D01*
X024617Y028515D01*
X024595Y028523D01*
X024575Y028534D01*
X024557Y028548D01*
X024541Y028565D01*
X024528Y028585D01*
X024519Y028606D01*
X024513Y028629D01*
X024511Y028652D01*
X011612Y028352D02*
X011612Y030972D01*
X011472Y031112D01*
X008852Y031112D01*
X008852Y028352D01*
X011612Y028352D01*
X011171Y030812D02*
X011173Y030835D01*
X011179Y030858D01*
X011188Y030879D01*
X011201Y030899D01*
X011217Y030916D01*
X011235Y030930D01*
X011255Y030941D01*
X011277Y030949D01*
X011300Y030953D01*
X011324Y030953D01*
X011347Y030949D01*
X011369Y030941D01*
X011389Y030930D01*
X011407Y030916D01*
X011423Y030899D01*
X011436Y030879D01*
X011445Y030858D01*
X011451Y030835D01*
X011453Y030812D01*
X011451Y030789D01*
X011445Y030766D01*
X011436Y030745D01*
X011423Y030725D01*
X011407Y030708D01*
X011389Y030694D01*
X011369Y030683D01*
X011347Y030675D01*
X011324Y030671D01*
X011300Y030671D01*
X011277Y030675D01*
X011255Y030683D01*
X011235Y030694D01*
X011217Y030708D01*
X011201Y030725D01*
X011188Y030745D01*
X011179Y030766D01*
X011173Y030789D01*
X011171Y030812D01*
X006582Y011332D02*
X006382Y011332D01*
X006132Y011332D02*
X005932Y011332D01*
X006032Y011232D02*
X006032Y011432D01*
X005382Y010732D02*
X005384Y010790D01*
X005390Y010848D01*
X005400Y010905D01*
X005414Y010961D01*
X005431Y011017D01*
X005452Y011071D01*
X005477Y011123D01*
X005506Y011174D01*
X005538Y011222D01*
X005573Y011268D01*
X005611Y011312D01*
X005652Y011353D01*
X005696Y011391D01*
X005742Y011426D01*
X005790Y011458D01*
X005841Y011487D01*
X005893Y011512D01*
X005947Y011533D01*
X006003Y011550D01*
X006059Y011564D01*
X006116Y011574D01*
X006174Y011580D01*
X006232Y011582D01*
X006290Y011580D01*
X006348Y011574D01*
X006405Y011564D01*
X006461Y011550D01*
X006517Y011533D01*
X006571Y011512D01*
X006623Y011487D01*
X006674Y011458D01*
X006722Y011426D01*
X006768Y011391D01*
X006812Y011353D01*
X006853Y011312D01*
X006891Y011268D01*
X006926Y011222D01*
X006958Y011174D01*
X006987Y011123D01*
X007012Y011071D01*
X007033Y011017D01*
X007050Y010961D01*
X007064Y010905D01*
X007074Y010848D01*
X007080Y010790D01*
X007082Y010732D01*
X007080Y010674D01*
X007074Y010616D01*
X007064Y010559D01*
X007050Y010503D01*
X007033Y010447D01*
X007012Y010393D01*
X006987Y010341D01*
X006958Y010290D01*
X006926Y010242D01*
X006891Y010196D01*
X006853Y010152D01*
X006812Y010111D01*
X006768Y010073D01*
X006722Y010038D01*
X006674Y010006D01*
X006623Y009977D01*
X006571Y009952D01*
X006517Y009931D01*
X006461Y009914D01*
X006405Y009900D01*
X006348Y009890D01*
X006290Y009884D01*
X006232Y009882D01*
X006174Y009884D01*
X006116Y009890D01*
X006059Y009900D01*
X006003Y009914D01*
X005947Y009931D01*
X005893Y009952D01*
X005841Y009977D01*
X005790Y010006D01*
X005742Y010038D01*
X005696Y010073D01*
X005652Y010111D01*
X005611Y010152D01*
X005573Y010196D01*
X005538Y010242D01*
X005506Y010290D01*
X005477Y010341D01*
X005452Y010393D01*
X005431Y010447D01*
X005414Y010503D01*
X005400Y010559D01*
X005390Y010616D01*
X005384Y010674D01*
X005382Y010732D01*
X006032Y005932D02*
X006032Y005732D01*
X005932Y005832D02*
X006132Y005832D01*
X006382Y005832D02*
X006582Y005832D01*
X005382Y005232D02*
X005384Y005290D01*
X005390Y005348D01*
X005400Y005405D01*
X005414Y005461D01*
X005431Y005517D01*
X005452Y005571D01*
X005477Y005623D01*
X005506Y005674D01*
X005538Y005722D01*
X005573Y005768D01*
X005611Y005812D01*
X005652Y005853D01*
X005696Y005891D01*
X005742Y005926D01*
X005790Y005958D01*
X005841Y005987D01*
X005893Y006012D01*
X005947Y006033D01*
X006003Y006050D01*
X006059Y006064D01*
X006116Y006074D01*
X006174Y006080D01*
X006232Y006082D01*
X006290Y006080D01*
X006348Y006074D01*
X006405Y006064D01*
X006461Y006050D01*
X006517Y006033D01*
X006571Y006012D01*
X006623Y005987D01*
X006674Y005958D01*
X006722Y005926D01*
X006768Y005891D01*
X006812Y005853D01*
X006853Y005812D01*
X006891Y005768D01*
X006926Y005722D01*
X006958Y005674D01*
X006987Y005623D01*
X007012Y005571D01*
X007033Y005517D01*
X007050Y005461D01*
X007064Y005405D01*
X007074Y005348D01*
X007080Y005290D01*
X007082Y005232D01*
X007080Y005174D01*
X007074Y005116D01*
X007064Y005059D01*
X007050Y005003D01*
X007033Y004947D01*
X007012Y004893D01*
X006987Y004841D01*
X006958Y004790D01*
X006926Y004742D01*
X006891Y004696D01*
X006853Y004652D01*
X006812Y004611D01*
X006768Y004573D01*
X006722Y004538D01*
X006674Y004506D01*
X006623Y004477D01*
X006571Y004452D01*
X006517Y004431D01*
X006461Y004414D01*
X006405Y004400D01*
X006348Y004390D01*
X006290Y004384D01*
X006232Y004382D01*
X006174Y004384D01*
X006116Y004390D01*
X006059Y004400D01*
X006003Y004414D01*
X005947Y004431D01*
X005893Y004452D01*
X005841Y004477D01*
X005790Y004506D01*
X005742Y004538D01*
X005696Y004573D01*
X005652Y004611D01*
X005611Y004652D01*
X005573Y004696D01*
X005538Y004742D01*
X005506Y004790D01*
X005477Y004841D01*
X005452Y004893D01*
X005431Y004947D01*
X005414Y005003D01*
X005400Y005059D01*
X005390Y005116D01*
X005384Y005174D01*
X005382Y005232D01*
X008932Y003432D02*
X009232Y003432D01*
X009082Y003282D02*
X009082Y003582D01*
X009282Y004382D02*
X009732Y004382D01*
X010182Y004382D01*
X010182Y004632D01*
X009282Y004632D01*
X009282Y004382D01*
X009732Y004382D02*
X009732Y004282D01*
X007982Y004732D02*
X007984Y004818D01*
X007990Y004904D01*
X008001Y004989D01*
X008016Y005073D01*
X008034Y005157D01*
X008057Y005240D01*
X008084Y005322D01*
X008115Y005402D01*
X008150Y005480D01*
X008189Y005557D01*
X008231Y005632D01*
X008277Y005704D01*
X008326Y005774D01*
X008379Y005842D01*
X008435Y005907D01*
X008495Y005969D01*
X008557Y006029D01*
X008622Y006085D01*
X008690Y006138D01*
X008760Y006187D01*
X008832Y006233D01*
X008907Y006275D01*
X008984Y006314D01*
X009062Y006349D01*
X009142Y006380D01*
X009224Y006407D01*
X009307Y006430D01*
X009391Y006448D01*
X009475Y006463D01*
X009560Y006474D01*
X009646Y006480D01*
X009732Y006482D01*
X009818Y006480D01*
X009904Y006474D01*
X009989Y006463D01*
X010073Y006448D01*
X010157Y006430D01*
X010240Y006407D01*
X010322Y006380D01*
X010402Y006349D01*
X010480Y006314D01*
X010557Y006275D01*
X010632Y006233D01*
X010704Y006187D01*
X010774Y006138D01*
X010842Y006085D01*
X010907Y006029D01*
X010969Y005969D01*
X011029Y005907D01*
X011085Y005842D01*
X011138Y005774D01*
X011187Y005704D01*
X011233Y005632D01*
X011275Y005557D01*
X011314Y005480D01*
X011349Y005402D01*
X011380Y005322D01*
X011407Y005240D01*
X011430Y005157D01*
X011448Y005073D01*
X011463Y004989D01*
X011474Y004904D01*
X011480Y004818D01*
X011482Y004732D01*
X011480Y004646D01*
X011474Y004560D01*
X011463Y004475D01*
X011448Y004391D01*
X011430Y004307D01*
X011407Y004224D01*
X011380Y004142D01*
X011349Y004062D01*
X011314Y003984D01*
X011275Y003907D01*
X011233Y003832D01*
X011187Y003760D01*
X011138Y003690D01*
X011085Y003622D01*
X011029Y003557D01*
X010969Y003495D01*
X010907Y003435D01*
X010842Y003379D01*
X010774Y003326D01*
X010704Y003277D01*
X010632Y003231D01*
X010557Y003189D01*
X010480Y003150D01*
X010402Y003115D01*
X010322Y003084D01*
X010240Y003057D01*
X010157Y003034D01*
X010073Y003016D01*
X009989Y003001D01*
X009904Y002990D01*
X009818Y002984D01*
X009732Y002982D01*
X009646Y002984D01*
X009560Y002990D01*
X009475Y003001D01*
X009391Y003016D01*
X009307Y003034D01*
X009224Y003057D01*
X009142Y003084D01*
X009062Y003115D01*
X008984Y003150D01*
X008907Y003189D01*
X008832Y003231D01*
X008760Y003277D01*
X008690Y003326D01*
X008622Y003379D01*
X008557Y003435D01*
X008495Y003495D01*
X008435Y003557D01*
X008379Y003622D01*
X008326Y003690D01*
X008277Y003760D01*
X008231Y003832D01*
X008189Y003907D01*
X008150Y003984D01*
X008115Y004062D01*
X008084Y004142D01*
X008057Y004224D01*
X008034Y004307D01*
X008016Y004391D01*
X008001Y004475D01*
X007990Y004560D01*
X007984Y004646D01*
X007982Y004732D01*
X009732Y004982D02*
X009732Y005182D01*
D13*
X002832Y002282D02*
X001682Y002232D01*
X002592Y002462D02*
X002594Y002482D01*
X002600Y002500D01*
X002609Y002518D01*
X002621Y002533D01*
X002636Y002545D01*
X002654Y002554D01*
X002672Y002560D01*
X002692Y002562D01*
X002712Y002560D01*
X002730Y002554D01*
X002748Y002545D01*
X002763Y002533D01*
X002775Y002518D01*
X002784Y002500D01*
X002790Y002482D01*
X002792Y002462D01*
X002790Y002442D01*
X002784Y002424D01*
X002775Y002406D01*
X002763Y002391D01*
X002748Y002379D01*
X002730Y002370D01*
X002712Y002364D01*
X002692Y002362D01*
X002672Y002364D01*
X002654Y002370D01*
X002636Y002379D01*
X002621Y002391D01*
X002609Y002406D01*
X002600Y002424D01*
X002594Y002442D01*
X002592Y002462D01*
X002832Y002282D02*
X002932Y002382D01*
X002932Y006082D01*
X002832Y006182D01*
X001682Y006232D01*
X001682Y008732D02*
X002832Y008782D01*
X002932Y008882D01*
X002932Y012582D01*
X002832Y012682D01*
X001682Y012732D01*
X001657Y015874D02*
X001657Y022960D01*
X015712Y022960D01*
X015712Y015874D01*
X001657Y015874D01*
X004982Y017732D02*
X004982Y018232D01*
X005232Y018232D01*
X006732Y018232D02*
X006982Y018232D01*
X006982Y017732D01*
X006982Y020982D02*
X006482Y020982D01*
X006982Y020982D02*
X006982Y021482D01*
X007732Y021482D02*
X007732Y020982D01*
X007982Y020982D01*
X009732Y020982D02*
X009982Y020982D01*
X009982Y021482D01*
X005482Y020982D02*
X004982Y020982D01*
X004982Y021482D01*
X002592Y008962D02*
X002594Y008982D01*
X002600Y009000D01*
X002609Y009018D01*
X002621Y009033D01*
X002636Y009045D01*
X002654Y009054D01*
X002672Y009060D01*
X002692Y009062D01*
X002712Y009060D01*
X002730Y009054D01*
X002748Y009045D01*
X002763Y009033D01*
X002775Y009018D01*
X002784Y009000D01*
X002790Y008982D01*
X002792Y008962D01*
X002790Y008942D01*
X002784Y008924D01*
X002775Y008906D01*
X002763Y008891D01*
X002748Y008879D01*
X002730Y008870D01*
X002712Y008864D01*
X002692Y008862D01*
X002672Y008864D01*
X002654Y008870D01*
X002636Y008879D01*
X002621Y008891D01*
X002609Y008906D01*
X002600Y008924D01*
X002594Y008942D01*
X002592Y008962D01*
X009724Y001907D02*
X009724Y001557D01*
X009840Y001557D02*
X009607Y001557D01*
X009607Y001790D02*
X009724Y001907D01*
X009975Y001907D02*
X010209Y001557D01*
X010209Y001907D01*
X010343Y001732D02*
X010577Y001732D01*
X010712Y001849D02*
X010770Y001907D01*
X010887Y001907D01*
X010945Y001849D01*
X010712Y001615D01*
X010770Y001557D01*
X010887Y001557D01*
X010945Y001615D01*
X010945Y001849D01*
X011080Y001849D02*
X011138Y001907D01*
X011255Y001907D01*
X011314Y001849D01*
X011080Y001615D01*
X011138Y001557D01*
X011255Y001557D01*
X011314Y001615D01*
X011314Y001849D01*
X011448Y001790D02*
X011565Y001907D01*
X011565Y001557D01*
X011448Y001557D02*
X011682Y001557D01*
X011080Y001615D02*
X011080Y001849D01*
X010712Y001849D02*
X010712Y001615D01*
X010519Y001557D02*
X010519Y001907D01*
X010343Y001732D01*
X009975Y001557D02*
X009975Y001907D01*
X027607Y018657D02*
X027834Y018657D01*
X027720Y018657D02*
X027720Y018997D01*
X027607Y018884D01*
X029707Y018940D02*
X029764Y018997D01*
X029877Y018997D01*
X029934Y018940D01*
X029934Y018884D01*
X029877Y018827D01*
X029934Y018770D01*
X029934Y018714D01*
X029877Y018657D01*
X029764Y018657D01*
X029707Y018714D01*
X029820Y018827D02*
X029877Y018827D01*
D14*
X001382Y010732D03*
X001382Y004232D03*
D15*
X001632Y005957D03*
X001632Y009007D03*
X001632Y012457D03*
X001632Y002507D03*
D16*
X001632Y003732D03*
X001632Y004732D03*
X001632Y010232D03*
X001632Y011232D03*
D17*
X017377Y018899D02*
X017432Y018856D01*
X017396Y018807D01*
X017362Y018756D01*
X017333Y018702D01*
X017306Y018647D01*
X017282Y018591D01*
X017263Y018533D01*
X017246Y018474D01*
X017233Y018414D01*
X017224Y018354D01*
X017219Y018293D01*
X017217Y018231D01*
X017219Y018170D01*
X017224Y018109D01*
X017234Y018049D01*
X017247Y017989D01*
X017263Y017930D01*
X017283Y017872D01*
X017306Y017816D01*
X017333Y017761D01*
X017363Y017707D01*
X017396Y017656D01*
X017432Y017607D01*
X017472Y017560D01*
X017513Y017515D01*
X017558Y017473D01*
X017605Y017434D01*
X017654Y017398D01*
X017705Y017364D01*
X017759Y017334D01*
X017814Y017307D01*
X017870Y017284D01*
X017928Y017264D01*
X017908Y017197D01*
X017907Y017197D01*
X017846Y017218D01*
X017785Y017243D01*
X017726Y017272D01*
X017669Y017304D01*
X017615Y017340D01*
X017562Y017379D01*
X017512Y017421D01*
X017464Y017466D01*
X017419Y017513D01*
X017377Y017563D01*
X017339Y017616D01*
X017303Y017671D01*
X017271Y017728D01*
X017242Y017787D01*
X017217Y017847D01*
X017196Y017909D01*
X017179Y017972D01*
X017165Y018036D01*
X017155Y018101D01*
X017149Y018166D01*
X017147Y018232D01*
X017149Y018297D01*
X017155Y018362D01*
X017165Y018427D01*
X017178Y018491D01*
X017196Y018554D01*
X017217Y018616D01*
X017242Y018676D01*
X017271Y018735D01*
X017303Y018792D01*
X017338Y018847D01*
X017377Y018900D01*
X017384Y018894D01*
X017346Y018842D01*
X017310Y018787D01*
X017279Y018731D01*
X017250Y018672D01*
X017225Y018612D01*
X017204Y018551D01*
X017187Y018489D01*
X017173Y018425D01*
X017164Y018361D01*
X017158Y018296D01*
X017156Y018232D01*
X017158Y018167D01*
X017164Y018102D01*
X017174Y018038D01*
X017187Y017974D01*
X017205Y017912D01*
X017226Y017851D01*
X017251Y017791D01*
X017279Y017732D01*
X017311Y017676D01*
X017346Y017621D01*
X017384Y017569D01*
X017426Y017519D01*
X017470Y017472D01*
X017518Y017427D01*
X017567Y017386D01*
X017620Y017347D01*
X017674Y017312D01*
X017731Y017280D01*
X017789Y017252D01*
X017849Y017227D01*
X017910Y017205D01*
X017913Y017214D01*
X017852Y017235D01*
X017792Y017260D01*
X017735Y017288D01*
X017679Y017320D01*
X017625Y017355D01*
X017573Y017393D01*
X017524Y017434D01*
X017477Y017478D01*
X017433Y017525D01*
X017392Y017575D01*
X017353Y017626D01*
X017319Y017680D01*
X017287Y017737D01*
X017259Y017794D01*
X017234Y017854D01*
X017213Y017915D01*
X017196Y017977D01*
X017183Y018040D01*
X017173Y018103D01*
X017167Y018167D01*
X017165Y018231D01*
X017167Y018296D01*
X017173Y018360D01*
X017182Y018423D01*
X017196Y018486D01*
X017213Y018548D01*
X017234Y018609D01*
X017258Y018669D01*
X017287Y018727D01*
X017318Y018783D01*
X017353Y018837D01*
X017391Y018889D01*
X017398Y018883D01*
X017360Y018832D01*
X017326Y018778D01*
X017294Y018722D01*
X017267Y018665D01*
X017242Y018606D01*
X017222Y018546D01*
X017205Y018484D01*
X017191Y018422D01*
X017182Y018359D01*
X017176Y018295D01*
X017174Y018231D01*
X017176Y018168D01*
X017182Y018104D01*
X017191Y018041D01*
X017205Y017979D01*
X017222Y017917D01*
X017243Y017857D01*
X017267Y017798D01*
X017295Y017741D01*
X017326Y017685D01*
X017361Y017632D01*
X017399Y017580D01*
X017439Y017531D01*
X017483Y017485D01*
X017530Y017441D01*
X017578Y017400D01*
X017630Y017362D01*
X017683Y017327D01*
X017739Y017296D01*
X017796Y017268D01*
X017855Y017243D01*
X017915Y017223D01*
X017918Y017231D01*
X017858Y017252D01*
X017800Y017276D01*
X017743Y017304D01*
X017688Y017335D01*
X017635Y017370D01*
X017584Y017407D01*
X017535Y017448D01*
X017489Y017491D01*
X017446Y017537D01*
X017406Y017586D01*
X017368Y017637D01*
X017334Y017690D01*
X017303Y017745D01*
X017275Y017802D01*
X017251Y017860D01*
X017230Y017920D01*
X017213Y017981D01*
X017200Y018043D01*
X017191Y018105D01*
X017185Y018168D01*
X017183Y018231D01*
X017185Y018295D01*
X017191Y018358D01*
X017200Y018420D01*
X017213Y018482D01*
X017230Y018543D01*
X017251Y018603D01*
X017275Y018661D01*
X017302Y018718D01*
X017333Y018773D01*
X017368Y018826D01*
X017405Y018877D01*
X017412Y018872D01*
X017375Y018821D01*
X017341Y018769D01*
X017310Y018714D01*
X017283Y018658D01*
X017259Y018600D01*
X017239Y018540D01*
X017222Y018480D01*
X017209Y018419D01*
X017199Y018357D01*
X017194Y018294D01*
X017192Y018231D01*
X017194Y018169D01*
X017200Y018106D01*
X017209Y018044D01*
X017222Y017983D01*
X017239Y017923D01*
X017260Y017863D01*
X017283Y017805D01*
X017311Y017749D01*
X017342Y017694D01*
X017376Y017642D01*
X017413Y017591D01*
X017453Y017543D01*
X017496Y017497D01*
X017541Y017454D01*
X017590Y017414D01*
X017640Y017377D01*
X017693Y017343D01*
X017747Y017312D01*
X017803Y017284D01*
X017861Y017260D01*
X017921Y017240D01*
X017923Y017248D01*
X017865Y017269D01*
X017807Y017293D01*
X017751Y017320D01*
X017697Y017351D01*
X017645Y017384D01*
X017595Y017421D01*
X017547Y017461D01*
X017502Y017504D01*
X017460Y017549D01*
X017420Y017597D01*
X017383Y017647D01*
X017349Y017699D01*
X017319Y017753D01*
X017292Y017809D01*
X017268Y017867D01*
X017248Y017925D01*
X017231Y017985D01*
X017218Y018046D01*
X017209Y018107D01*
X017203Y018169D01*
X017201Y018231D01*
X017203Y018294D01*
X017208Y018355D01*
X017218Y018417D01*
X017231Y018478D01*
X017247Y018538D01*
X017268Y018596D01*
X017291Y018654D01*
X017318Y018710D01*
X017349Y018764D01*
X017382Y018816D01*
X017419Y018866D01*
X017426Y018861D01*
X017390Y018811D01*
X017357Y018759D01*
X017326Y018706D01*
X017299Y018650D01*
X017276Y018593D01*
X017256Y018535D01*
X017239Y018476D01*
X017227Y018415D01*
X017217Y018354D01*
X017212Y018293D01*
X017210Y018231D01*
X017212Y018170D01*
X017217Y018109D01*
X017227Y018048D01*
X017240Y017987D01*
X017256Y017928D01*
X017276Y017870D01*
X017300Y017813D01*
X017327Y017757D01*
X017357Y017704D01*
X017390Y017652D01*
X017427Y017602D01*
X017466Y017555D01*
X017509Y017510D01*
X017553Y017468D01*
X017601Y017428D01*
X017650Y017392D01*
X017702Y017358D01*
X017755Y017328D01*
X017811Y017301D01*
X017868Y017277D01*
X017926Y017257D01*
X018556Y017197D02*
X018536Y017264D01*
X018594Y017284D01*
X018650Y017307D01*
X018705Y017334D01*
X018758Y017364D01*
X018810Y017398D01*
X018859Y017434D01*
X018906Y017473D01*
X018950Y017515D01*
X018992Y017560D01*
X019032Y017607D01*
X019068Y017656D01*
X019101Y017707D01*
X019131Y017761D01*
X019158Y017816D01*
X019181Y017872D01*
X019201Y017930D01*
X019217Y017989D01*
X019230Y018049D01*
X019240Y018109D01*
X019245Y018170D01*
X019247Y018231D01*
X019245Y018293D01*
X019240Y018354D01*
X019231Y018414D01*
X019218Y018474D01*
X019201Y018533D01*
X019182Y018591D01*
X019158Y018647D01*
X019131Y018702D01*
X019102Y018756D01*
X019068Y018807D01*
X019032Y018856D01*
X019087Y018899D01*
X019087Y018900D01*
X019126Y018847D01*
X019161Y018792D01*
X019193Y018735D01*
X019222Y018676D01*
X019247Y018616D01*
X019268Y018554D01*
X019286Y018491D01*
X019299Y018427D01*
X019309Y018362D01*
X019315Y018297D01*
X019317Y018231D01*
X019315Y018166D01*
X019309Y018101D01*
X019299Y018036D01*
X019285Y017972D01*
X019268Y017909D01*
X019247Y017847D01*
X019222Y017787D01*
X019193Y017728D01*
X019161Y017671D01*
X019125Y017616D01*
X019087Y017563D01*
X019045Y017513D01*
X019000Y017466D01*
X018952Y017421D01*
X018902Y017379D01*
X018849Y017340D01*
X018795Y017304D01*
X018738Y017272D01*
X018679Y017243D01*
X018618Y017218D01*
X018557Y017197D01*
X018554Y017205D01*
X018615Y017227D01*
X018675Y017252D01*
X018733Y017280D01*
X018790Y017312D01*
X018844Y017347D01*
X018897Y017386D01*
X018946Y017427D01*
X018994Y017472D01*
X019038Y017519D01*
X019079Y017569D01*
X019118Y017621D01*
X019153Y017676D01*
X019185Y017732D01*
X019213Y017791D01*
X019238Y017851D01*
X019259Y017912D01*
X019277Y017974D01*
X019290Y018038D01*
X019300Y018102D01*
X019306Y018167D01*
X019308Y018231D01*
X019306Y018296D01*
X019300Y018361D01*
X019291Y018425D01*
X019277Y018489D01*
X019260Y018551D01*
X019239Y018612D01*
X019214Y018672D01*
X019185Y018731D01*
X019154Y018787D01*
X019119Y018842D01*
X019080Y018894D01*
X019073Y018889D01*
X019111Y018837D01*
X019146Y018783D01*
X019177Y018727D01*
X019206Y018669D01*
X019230Y018609D01*
X019251Y018548D01*
X019268Y018486D01*
X019282Y018423D01*
X019291Y018360D01*
X019297Y018296D01*
X019299Y018231D01*
X019297Y018167D01*
X019291Y018103D01*
X019281Y018040D01*
X019268Y017977D01*
X019251Y017915D01*
X019230Y017854D01*
X019205Y017794D01*
X019177Y017737D01*
X019145Y017680D01*
X019111Y017626D01*
X019072Y017575D01*
X019031Y017525D01*
X018987Y017478D01*
X018940Y017434D01*
X018891Y017393D01*
X018839Y017355D01*
X018785Y017320D01*
X018729Y017288D01*
X018672Y017260D01*
X018612Y017235D01*
X018551Y017214D01*
X018549Y017223D01*
X018609Y017243D01*
X018668Y017268D01*
X018725Y017296D01*
X018781Y017327D01*
X018834Y017362D01*
X018886Y017400D01*
X018934Y017441D01*
X018981Y017485D01*
X019025Y017531D01*
X019065Y017580D01*
X019103Y017632D01*
X019138Y017685D01*
X019169Y017741D01*
X019197Y017798D01*
X019221Y017857D01*
X019242Y017917D01*
X019259Y017979D01*
X019273Y018041D01*
X019282Y018104D01*
X019288Y018168D01*
X019290Y018231D01*
X019288Y018295D01*
X019282Y018359D01*
X019273Y018422D01*
X019260Y018484D01*
X019242Y018546D01*
X019222Y018606D01*
X019197Y018665D01*
X019170Y018722D01*
X019138Y018778D01*
X019104Y018832D01*
X019066Y018883D01*
X019059Y018877D01*
X019096Y018826D01*
X019131Y018773D01*
X019162Y018718D01*
X019189Y018661D01*
X019213Y018603D01*
X019234Y018543D01*
X019251Y018482D01*
X019264Y018420D01*
X019273Y018358D01*
X019279Y018295D01*
X019281Y018231D01*
X019279Y018168D01*
X019273Y018105D01*
X019264Y018043D01*
X019251Y017981D01*
X019234Y017920D01*
X019213Y017860D01*
X019189Y017802D01*
X019161Y017745D01*
X019130Y017690D01*
X019096Y017637D01*
X019058Y017586D01*
X019018Y017537D01*
X018975Y017491D01*
X018929Y017448D01*
X018880Y017407D01*
X018829Y017370D01*
X018776Y017335D01*
X018721Y017304D01*
X018664Y017276D01*
X018606Y017252D01*
X018546Y017231D01*
X018543Y017240D01*
X018603Y017260D01*
X018660Y017284D01*
X018717Y017312D01*
X018771Y017343D01*
X018824Y017377D01*
X018874Y017414D01*
X018923Y017454D01*
X018968Y017497D01*
X019011Y017543D01*
X019051Y017591D01*
X019088Y017642D01*
X019122Y017694D01*
X019153Y017749D01*
X019181Y017805D01*
X019204Y017863D01*
X019225Y017923D01*
X019242Y017983D01*
X019255Y018044D01*
X019264Y018106D01*
X019270Y018169D01*
X019272Y018231D01*
X019270Y018294D01*
X019265Y018357D01*
X019255Y018419D01*
X019242Y018480D01*
X019225Y018540D01*
X019205Y018600D01*
X019181Y018658D01*
X019154Y018714D01*
X019123Y018769D01*
X019089Y018821D01*
X019052Y018872D01*
X019045Y018866D01*
X019082Y018816D01*
X019115Y018764D01*
X019146Y018710D01*
X019173Y018654D01*
X019196Y018596D01*
X019217Y018538D01*
X019233Y018478D01*
X019246Y018417D01*
X019256Y018355D01*
X019261Y018294D01*
X019263Y018231D01*
X019261Y018169D01*
X019255Y018107D01*
X019246Y018046D01*
X019233Y017985D01*
X019216Y017925D01*
X019196Y017867D01*
X019172Y017809D01*
X019145Y017753D01*
X019115Y017699D01*
X019081Y017647D01*
X019044Y017597D01*
X019004Y017549D01*
X018962Y017504D01*
X018917Y017461D01*
X018869Y017421D01*
X018819Y017384D01*
X018767Y017351D01*
X018713Y017320D01*
X018657Y017293D01*
X018599Y017269D01*
X018541Y017248D01*
X018538Y017257D01*
X018596Y017277D01*
X018653Y017301D01*
X018708Y017328D01*
X018762Y017358D01*
X018814Y017392D01*
X018863Y017428D01*
X018911Y017468D01*
X018955Y017510D01*
X018998Y017555D01*
X019037Y017602D01*
X019073Y017652D01*
X019107Y017704D01*
X019137Y017757D01*
X019164Y017813D01*
X019188Y017870D01*
X019208Y017928D01*
X019224Y017987D01*
X019237Y018048D01*
X019247Y018108D01*
X019252Y018170D01*
X019254Y018231D01*
X019252Y018293D01*
X019247Y018354D01*
X019237Y018415D01*
X019225Y018476D01*
X019208Y018535D01*
X019188Y018593D01*
X019165Y018650D01*
X019138Y018706D01*
X019108Y018759D01*
X019074Y018811D01*
X019038Y018861D01*
D18*
X012176Y020540D02*
X012100Y020463D01*
X012176Y020540D02*
X012176Y020693D01*
X012100Y020770D01*
X012023Y020770D01*
X011946Y020693D01*
X011946Y020617D01*
X011946Y020693D02*
X011869Y020770D01*
X011793Y020770D01*
X011716Y020693D01*
X011716Y020540D01*
X011793Y020463D01*
X012100Y020924D02*
X012100Y021000D01*
X012176Y021000D01*
X012176Y020924D01*
X012100Y020924D01*
X012100Y021154D02*
X012176Y021231D01*
X012176Y021384D01*
X012100Y021461D01*
X012023Y021461D01*
X011946Y021384D01*
X011946Y021307D01*
X011946Y021384D02*
X011869Y021461D01*
X011793Y021461D01*
X011716Y021384D01*
X011716Y021231D01*
X011793Y021154D01*
X011716Y021614D02*
X012023Y021614D01*
X012176Y021768D01*
X012023Y021921D01*
X011716Y021921D01*
X011153Y021884D02*
X011076Y021960D01*
X010769Y021960D01*
X010692Y021884D01*
X010692Y021654D01*
X011153Y021654D01*
X011153Y021884D01*
X011153Y021500D02*
X010692Y021500D01*
X010692Y021193D02*
X011153Y021500D01*
X011153Y021193D02*
X010692Y021193D01*
X010769Y021040D02*
X010692Y020963D01*
X010692Y020810D01*
X010769Y020733D01*
X011076Y020733D01*
X011153Y020810D01*
X011153Y020963D01*
X011076Y021040D01*
X010923Y021040D01*
X010923Y020886D01*
X010169Y021768D02*
X009938Y021768D01*
X009785Y021921D01*
X009708Y021921D01*
X009938Y021768D02*
X009785Y021614D01*
X009708Y021614D01*
X009272Y021212D02*
X009041Y020982D01*
X009348Y020982D01*
X009272Y020752D02*
X009272Y021212D01*
X008888Y021059D02*
X008581Y020752D01*
X008428Y020829D02*
X008428Y020982D01*
X008274Y020982D01*
X008121Y021135D02*
X008197Y021212D01*
X008351Y021212D01*
X008428Y021135D01*
X008581Y021059D02*
X008888Y020752D01*
X008428Y020829D02*
X008351Y020752D01*
X008197Y020752D01*
X008121Y020829D01*
X008121Y021135D01*
X008084Y021614D02*
X007777Y021921D01*
X007700Y021921D01*
X007700Y021614D01*
X008084Y021614D02*
X008161Y021614D01*
X008161Y021921D01*
X008685Y021921D02*
X009145Y021614D01*
X009145Y021921D02*
X008685Y021614D01*
X007137Y021614D02*
X007137Y021921D01*
X007137Y021614D02*
X007060Y021614D01*
X006753Y021921D01*
X006677Y021921D01*
X006677Y021614D01*
X006153Y021768D02*
X005923Y021768D01*
X005769Y021921D01*
X005692Y021921D01*
X005923Y021768D02*
X005769Y021614D01*
X005692Y021614D01*
X005945Y021212D02*
X006098Y021059D01*
X006098Y020752D01*
X006098Y020982D02*
X005791Y020982D01*
X005791Y021059D02*
X005945Y021212D01*
X005791Y021059D02*
X005791Y020752D01*
X005169Y021654D02*
X004708Y021961D01*
X004708Y021654D02*
X005169Y021961D01*
X005197Y018462D02*
X005121Y018385D01*
X005121Y018079D01*
X005197Y018002D01*
X005351Y018002D01*
X005428Y018079D01*
X005428Y018232D01*
X005274Y018232D01*
X005428Y018385D02*
X005351Y018462D01*
X005197Y018462D01*
X005581Y018309D02*
X005888Y018002D01*
X006041Y018002D02*
X006348Y018002D01*
X006195Y018002D02*
X006195Y018462D01*
X006041Y018309D01*
X005888Y018309D02*
X005581Y018002D01*
X005653Y017236D02*
X006113Y016929D01*
X006113Y017236D02*
X005653Y016929D01*
X005169Y016929D02*
X005169Y017236D01*
X005169Y016929D02*
X005092Y016929D01*
X004785Y017236D01*
X004708Y017236D01*
X004708Y016929D01*
X006677Y016929D02*
X006753Y016929D01*
X006907Y017083D01*
X007137Y017083D01*
X006907Y017083D02*
X006753Y017236D01*
X006677Y017236D01*
X007661Y017281D02*
X007738Y017205D01*
X007661Y017281D02*
X007661Y017435D01*
X007738Y017512D01*
X007814Y017512D01*
X008121Y017205D01*
X008121Y017512D01*
X007968Y017051D02*
X007661Y017051D01*
X007661Y016744D02*
X007968Y016744D01*
X008121Y016898D01*
X007968Y017051D01*
X008685Y017091D02*
X008991Y017091D01*
X009145Y016937D01*
X008991Y016784D01*
X008685Y016784D01*
X008838Y017244D02*
X008685Y017398D01*
X009145Y017398D01*
X009145Y017551D02*
X009145Y017244D01*
X009629Y017244D02*
X009629Y017551D01*
X009629Y017398D02*
X010090Y017398D01*
X010013Y017091D02*
X010090Y017014D01*
X010090Y016861D01*
X010013Y016784D01*
X009860Y016861D02*
X009860Y017014D01*
X009936Y017091D01*
X010013Y017091D01*
X009860Y016861D02*
X009783Y016784D01*
X009706Y016784D01*
X009629Y016861D01*
X009629Y017014D01*
X009706Y017091D01*
X010614Y017093D02*
X010690Y017169D01*
X010844Y017169D01*
X010921Y017093D01*
X010921Y016863D01*
X011074Y016863D02*
X010614Y016863D01*
X010614Y017093D01*
X010614Y017323D02*
X010614Y017553D01*
X010690Y017630D01*
X010997Y017630D01*
X011074Y017553D01*
X011074Y017323D01*
X010614Y017323D01*
X011677Y017323D02*
X011677Y017553D01*
X011753Y017630D01*
X011907Y017630D01*
X011984Y017553D01*
X011984Y017323D01*
X012137Y017323D02*
X011677Y017323D01*
X011677Y017169D02*
X012137Y017169D01*
X011907Y017169D02*
X011907Y016863D01*
X012137Y016863D02*
X011677Y016863D01*
D19*
X011482Y002232D02*
X009482Y002232D01*
X009482Y001732D01*
X009232Y001732D01*
X009482Y001732D02*
X009482Y001232D01*
X011482Y001232D01*
X011482Y002232D01*
X011982Y002232D01*
X011982Y001732D01*
X012232Y001732D01*
X011982Y001732D02*
X011982Y001232D01*
X011482Y001232D01*
D20*
X009732Y004957D03*
D21*
X027642Y019882D02*
X027792Y019882D01*
X027982Y020532D02*
X027882Y020632D01*
X028732Y020802D02*
X028732Y020952D01*
X029432Y020532D02*
X029532Y020632D01*
X029672Y019882D02*
X029822Y019882D01*
M02*
