G75*
G70*
%OFA0B0*%
%FSLAX24Y24*%
%IPPOS*%
%LPD*%
%AMOC8*
5,1,8,0,0,1.08239X$1,22.5*
%
%ADD10C,0.0060*%
%ADD11C,0.0110*%
%ADD12C,0.0030*%
%ADD13C,0.0100*%
%ADD14C,0.0080*%
%ADD15C,0.0050*%
%ADD16C,0.0040*%
%ADD17C,0.0010*%
%ADD18C,0.0256*%
%ADD19C,0.0200*%
%ADD20R,0.4200X0.0300*%
%ADD21R,0.0750X0.0200*%
%ADD22R,0.0300X0.0200*%
%ADD23R,0.0300X0.0550*%
D10*
X002787Y005181D02*
X002844Y005181D01*
X002901Y005237D01*
X002901Y005351D01*
X002957Y005408D01*
X003014Y005408D01*
X003071Y005351D01*
X003071Y005237D01*
X003014Y005181D01*
X002787Y005181D02*
X002731Y005237D01*
X002731Y005351D01*
X002787Y005408D01*
X002731Y005549D02*
X003071Y005549D01*
X002957Y005663D01*
X003071Y005776D01*
X002731Y005776D01*
X002731Y005917D02*
X002731Y006031D01*
X002731Y005974D02*
X003071Y005974D01*
X003071Y005917D02*
X003071Y006031D01*
X003071Y006276D02*
X002731Y006276D01*
X002731Y006163D02*
X002731Y006390D01*
X002787Y006531D02*
X003014Y006531D01*
X003071Y006588D01*
X003071Y006701D01*
X003014Y006758D01*
X003071Y006900D02*
X002731Y006900D01*
X002787Y006758D02*
X002731Y006701D01*
X002731Y006588D01*
X002787Y006531D01*
X002901Y006900D02*
X002901Y007126D01*
X002731Y007126D02*
X003071Y007126D01*
X003071Y007631D02*
X002731Y007631D01*
X003071Y007631D02*
X003071Y007858D01*
X003071Y007999D02*
X002731Y007999D01*
X002731Y008226D01*
X002731Y008367D02*
X002731Y008538D01*
X002787Y008594D01*
X003014Y008594D01*
X003071Y008538D01*
X003071Y008367D01*
X002731Y008367D01*
X002901Y008113D02*
X002901Y007999D01*
X003071Y007999D02*
X003071Y008226D01*
X002901Y009131D02*
X002901Y009358D01*
X003014Y009244D02*
X002787Y009244D01*
X002787Y010131D02*
X003014Y010131D01*
X003071Y010187D01*
X003071Y010301D01*
X003014Y010358D01*
X002901Y010358D01*
X002901Y010244D01*
X002787Y010131D02*
X002731Y010187D01*
X002731Y010301D01*
X002787Y010358D01*
X002731Y010499D02*
X003071Y010726D01*
X002731Y010726D01*
X002731Y010867D02*
X002731Y011038D01*
X002787Y011094D01*
X003014Y011094D01*
X003071Y011038D01*
X003071Y010867D01*
X002731Y010867D01*
X002731Y010499D02*
X003071Y010499D01*
X003501Y010201D02*
X003501Y010001D01*
X003701Y010001D01*
X004501Y010001D02*
X004701Y010001D01*
X004701Y010201D01*
X004701Y011001D02*
X004701Y011201D01*
X004501Y011201D01*
X003701Y011201D02*
X003501Y011201D01*
X003501Y011001D01*
X003071Y011881D02*
X002731Y011881D01*
X003071Y011881D02*
X003071Y012108D01*
X003014Y012249D02*
X003071Y012306D01*
X003071Y012419D01*
X003014Y012476D01*
X002787Y012476D01*
X002731Y012419D01*
X002731Y012306D01*
X002787Y012249D01*
X003014Y012249D01*
X003071Y012617D02*
X002844Y012617D01*
X002731Y012731D01*
X002844Y012844D01*
X003071Y012844D01*
X003071Y012986D02*
X003071Y013156D01*
X003014Y013213D01*
X002787Y013213D01*
X002731Y013156D01*
X002731Y012986D01*
X003071Y012986D01*
X002901Y012844D02*
X002901Y012617D01*
X003501Y013001D02*
X003501Y013201D01*
X003701Y013201D01*
X004501Y013201D02*
X004701Y013201D01*
X004701Y013001D01*
X004701Y012201D02*
X004701Y012001D01*
X004501Y012001D01*
X003701Y012001D02*
X003501Y012001D01*
X003501Y012201D01*
X003071Y014381D02*
X002731Y014381D01*
X003071Y014381D02*
X003071Y014608D01*
X003014Y014749D02*
X002787Y014749D01*
X002731Y014806D01*
X002731Y014919D01*
X002787Y014976D01*
X003014Y014976D01*
X003071Y014919D01*
X003071Y014806D01*
X003014Y014749D01*
X003071Y015117D02*
X002844Y015117D01*
X002731Y015231D01*
X002844Y015344D01*
X003071Y015344D01*
X003071Y015486D02*
X003071Y015656D01*
X003014Y015713D01*
X002787Y015713D01*
X002731Y015656D01*
X002731Y015486D01*
X003071Y015486D01*
X002901Y015344D02*
X002901Y015117D01*
X002901Y015854D02*
X002901Y016081D01*
X003014Y016222D02*
X002787Y016222D01*
X002731Y016279D01*
X002731Y016392D01*
X002787Y016449D01*
X002731Y016591D02*
X002731Y016817D01*
X002731Y016704D02*
X003071Y016704D01*
X003071Y016959D02*
X002731Y016959D01*
X002731Y017129D01*
X002787Y017186D01*
X002901Y017186D01*
X002957Y017129D01*
X002957Y016959D01*
X002957Y017072D02*
X003071Y017186D01*
X003071Y017327D02*
X003071Y017554D01*
X003071Y017327D02*
X002731Y017327D01*
X003014Y016449D02*
X003071Y016392D01*
X003071Y016279D01*
X003014Y016222D01*
X004001Y022001D02*
X004001Y022201D01*
X004001Y022001D02*
X004201Y022001D01*
X005001Y022001D02*
X005201Y022001D01*
X005201Y022201D01*
X005201Y023001D02*
X005201Y023201D01*
X005001Y023201D01*
X004201Y023201D02*
X004001Y023201D01*
X004001Y023001D01*
X003071Y023187D02*
X003071Y023301D01*
X003014Y023358D01*
X002787Y023358D01*
X002731Y023301D01*
X002731Y023187D01*
X002787Y023131D01*
X003014Y023131D01*
X003071Y023187D01*
X003014Y023499D02*
X002731Y023499D01*
X002731Y023726D02*
X003014Y023726D01*
X003071Y023669D01*
X003071Y023556D01*
X003014Y023499D01*
X002731Y023867D02*
X002731Y024094D01*
X002731Y023981D02*
X003071Y023981D01*
X002321Y024131D02*
X002321Y024358D01*
X002321Y024499D02*
X001981Y024726D01*
X001981Y024867D02*
X001981Y025094D01*
X001981Y024981D02*
X002321Y024981D01*
X002321Y024726D02*
X001981Y024499D01*
X001981Y024358D02*
X001981Y024131D01*
X002321Y024131D01*
X002151Y024131D02*
X002151Y024244D01*
X002731Y024881D02*
X002731Y024994D01*
X002731Y024937D02*
X003071Y024937D01*
X003071Y024881D02*
X003071Y024994D01*
X003071Y025126D02*
X002731Y025126D01*
X003071Y025353D01*
X002731Y025353D01*
X004001Y025201D02*
X004001Y025001D01*
X004201Y025001D01*
X005001Y025001D02*
X005201Y025001D01*
X005201Y025201D01*
X005201Y026001D02*
X005201Y026201D01*
X005001Y026201D01*
X004201Y026201D02*
X004001Y026201D01*
X004001Y026001D01*
X004351Y029601D02*
X005851Y029601D01*
X006101Y029851D01*
X006101Y030351D01*
X005851Y030601D01*
X004351Y030601D01*
X004101Y030851D01*
X004101Y031351D01*
X004351Y031601D01*
X005851Y031601D01*
X006101Y031351D01*
X006101Y030851D01*
X005851Y030601D01*
X005851Y031601D02*
X006101Y031851D01*
X006101Y032351D01*
X005851Y032601D01*
X004351Y032601D01*
X004101Y032351D01*
X004101Y031851D01*
X004351Y031601D01*
X004351Y030601D02*
X004101Y030351D01*
X004101Y029851D01*
X004351Y029601D01*
X004351Y032601D02*
X004101Y032851D01*
X004101Y033351D01*
X004351Y033601D01*
X005851Y033601D01*
X006101Y033351D01*
X006101Y032851D01*
X005851Y032601D01*
X005851Y033601D02*
X006101Y033851D01*
X006101Y034351D01*
X005851Y034601D01*
X004351Y034601D01*
X004101Y034351D01*
X004101Y033851D01*
X004351Y033601D01*
X004351Y034601D02*
X004101Y034851D01*
X004101Y035351D01*
X004351Y035601D01*
X005851Y035601D01*
X006101Y035351D01*
X006101Y034851D01*
X005851Y034601D01*
X005851Y035601D02*
X006101Y035851D01*
X006101Y036351D01*
X005851Y036601D01*
X004351Y036601D01*
X004101Y036351D01*
X004101Y035851D01*
X004351Y035601D01*
X003664Y036526D02*
X003437Y036526D01*
X003381Y036583D01*
X003381Y036696D01*
X003437Y036753D01*
X003551Y036753D02*
X003551Y036639D01*
X003551Y036753D02*
X003664Y036753D01*
X003721Y036696D01*
X003721Y036583D01*
X003664Y036526D01*
X003721Y036894D02*
X003381Y036894D01*
X003721Y037121D01*
X003381Y037121D01*
X003381Y037262D02*
X003381Y037433D01*
X003437Y037489D01*
X003664Y037489D01*
X003721Y037433D01*
X003721Y037262D01*
X003381Y037262D01*
X004101Y037351D02*
X004101Y036851D01*
X004351Y036601D01*
X004101Y037351D02*
X004351Y037601D01*
X005851Y037601D01*
X006101Y037351D01*
X006101Y036851D01*
X005851Y036601D01*
X006881Y036894D02*
X007051Y036894D01*
X006994Y037008D01*
X006994Y037064D01*
X007051Y037121D01*
X007164Y037121D01*
X007221Y037064D01*
X007221Y036951D01*
X007164Y036894D01*
X007051Y036753D02*
X007051Y036526D01*
X007164Y036639D02*
X006937Y036639D01*
X006881Y036894D02*
X006881Y037121D01*
X006881Y037262D02*
X007107Y037262D01*
X007221Y037376D01*
X007107Y037489D01*
X006881Y037489D01*
X004358Y038381D02*
X004131Y038381D01*
X004244Y038381D02*
X004244Y038721D01*
X004131Y038608D01*
X008551Y029351D02*
X009201Y029351D01*
X008551Y029351D02*
X008528Y029349D01*
X008505Y029344D01*
X008483Y029335D01*
X008463Y029322D01*
X008445Y029307D01*
X008430Y029289D01*
X008417Y029269D01*
X008408Y029247D01*
X008403Y029224D01*
X008401Y029201D01*
X008401Y028851D01*
X008501Y028751D01*
X008501Y023451D01*
X008401Y023351D01*
X008401Y023001D01*
X008403Y022978D01*
X008408Y022955D01*
X008417Y022933D01*
X008430Y022913D01*
X008445Y022895D01*
X008463Y022880D01*
X008483Y022867D01*
X008505Y022858D01*
X008528Y022853D01*
X008551Y022851D01*
X009201Y022851D01*
X010001Y022851D02*
X010651Y022851D01*
X010674Y022853D01*
X010697Y022858D01*
X010719Y022867D01*
X010739Y022880D01*
X010757Y022895D01*
X010772Y022913D01*
X010785Y022933D01*
X010794Y022955D01*
X010799Y022978D01*
X010801Y023001D01*
X010801Y023351D01*
X010701Y023451D01*
X010701Y028751D01*
X010801Y028851D01*
X010801Y029201D01*
X010799Y029224D01*
X010794Y029247D01*
X010785Y029269D01*
X010772Y029289D01*
X010757Y029307D01*
X010739Y029322D01*
X010719Y029335D01*
X010697Y029344D01*
X010674Y029349D01*
X010651Y029351D01*
X010001Y029351D01*
X011501Y028901D02*
X011501Y028301D01*
X011503Y028284D01*
X011507Y028267D01*
X011514Y028251D01*
X011524Y028237D01*
X011537Y028224D01*
X011551Y028214D01*
X011567Y028207D01*
X011584Y028203D01*
X011601Y028201D01*
X012601Y028201D01*
X012618Y028203D01*
X012635Y028207D01*
X012651Y028214D01*
X012665Y028224D01*
X012678Y028237D01*
X012688Y028251D01*
X012695Y028267D01*
X012699Y028284D01*
X012701Y028301D01*
X012701Y028901D01*
X012699Y028918D01*
X012695Y028935D01*
X012688Y028951D01*
X012678Y028965D01*
X012665Y028978D01*
X012651Y028988D01*
X012635Y028995D01*
X012618Y028999D01*
X012601Y029001D01*
X011601Y029001D01*
X011584Y028999D01*
X011567Y028995D01*
X011551Y028988D01*
X011537Y028978D01*
X011524Y028965D01*
X011514Y028951D01*
X011507Y028935D01*
X011503Y028918D01*
X011501Y028901D01*
X011171Y026811D02*
X011171Y025391D01*
X013031Y025391D02*
X013031Y026811D01*
X016731Y026217D02*
X016731Y026104D01*
X016731Y026161D02*
X017071Y026161D01*
X017071Y026217D02*
X017071Y026104D01*
X016901Y025963D02*
X016901Y025736D01*
X016731Y025594D02*
X016731Y025367D01*
X016731Y025481D02*
X017071Y025481D01*
X017071Y025226D02*
X016731Y024999D01*
X016731Y024858D02*
X016731Y024631D01*
X017071Y024631D01*
X017071Y024858D01*
X017071Y024999D02*
X016731Y025226D01*
X016901Y024744D02*
X016901Y024631D01*
X018776Y025981D02*
X018776Y026321D01*
X018946Y026321D01*
X019003Y026264D01*
X019003Y026151D01*
X018946Y026094D01*
X018776Y026094D01*
X019144Y026151D02*
X019371Y026151D01*
X019371Y026208D02*
X019371Y025981D01*
X019512Y026151D02*
X019739Y026151D01*
X019683Y025981D02*
X019683Y026321D01*
X019512Y026151D01*
X019371Y026208D02*
X019258Y026321D01*
X019144Y026208D01*
X019144Y025981D01*
X019144Y026981D02*
X019144Y027208D01*
X019258Y027321D01*
X019371Y027208D01*
X019371Y026981D01*
X019512Y027037D02*
X019569Y026981D01*
X019683Y026981D01*
X019739Y027037D01*
X019739Y027151D01*
X019683Y027208D01*
X019626Y027208D01*
X019512Y027151D01*
X019512Y027321D01*
X019739Y027321D01*
X019371Y027151D02*
X019144Y027151D01*
X019003Y027151D02*
X018946Y027094D01*
X018776Y027094D01*
X018776Y026981D02*
X018776Y027321D01*
X018946Y027321D01*
X019003Y027264D01*
X019003Y027151D01*
X019144Y027981D02*
X019144Y028208D01*
X019258Y028321D01*
X019371Y028208D01*
X019371Y027981D01*
X019512Y028037D02*
X019569Y027981D01*
X019683Y027981D01*
X019739Y028037D01*
X019739Y028094D01*
X019683Y028151D01*
X019512Y028151D01*
X019512Y028037D01*
X019512Y028151D02*
X019626Y028264D01*
X019739Y028321D01*
X019371Y028151D02*
X019144Y028151D01*
X019003Y028151D02*
X019003Y028264D01*
X018946Y028321D01*
X018776Y028321D01*
X018776Y027981D01*
X018776Y028094D02*
X018946Y028094D01*
X019003Y028151D01*
X019144Y028981D02*
X019144Y029208D01*
X019258Y029321D01*
X019371Y029208D01*
X019371Y028981D01*
X019512Y028981D02*
X019512Y029037D01*
X019739Y029264D01*
X019739Y029321D01*
X019512Y029321D01*
X019371Y029151D02*
X019144Y029151D01*
X019003Y029151D02*
X018946Y029094D01*
X018776Y029094D01*
X018776Y028981D02*
X018776Y029321D01*
X018946Y029321D01*
X019003Y029264D01*
X019003Y029151D01*
X013239Y021071D02*
X013239Y020844D01*
X013126Y020731D01*
X013012Y020844D01*
X013012Y021071D01*
X012871Y020901D02*
X012644Y020901D01*
X012503Y021071D02*
X012276Y021071D01*
X012389Y021071D02*
X012389Y020731D01*
X012134Y020731D02*
X011908Y021071D01*
X011766Y021071D02*
X011539Y021071D01*
X011539Y020731D01*
X011766Y020731D01*
X011908Y020731D02*
X012134Y021071D01*
X011653Y020901D02*
X011539Y020901D01*
X016451Y016101D02*
X017751Y016101D01*
X017774Y016099D01*
X017797Y016094D01*
X017819Y016085D01*
X017839Y016072D01*
X017857Y016057D01*
X017872Y016039D01*
X017885Y016019D01*
X017894Y015997D01*
X017899Y015974D01*
X017901Y015951D01*
X017901Y015701D01*
X017851Y015651D01*
X017851Y012551D01*
X017901Y012501D01*
X017901Y012251D01*
X017899Y012228D01*
X017894Y012205D01*
X017885Y012183D01*
X017872Y012163D01*
X017857Y012145D01*
X017839Y012130D01*
X017819Y012117D01*
X017797Y012108D01*
X017774Y012103D01*
X017751Y012101D01*
X016451Y012101D01*
X016428Y012103D01*
X016405Y012108D01*
X016383Y012117D01*
X016363Y012130D01*
X016345Y012145D01*
X016330Y012163D01*
X016317Y012183D01*
X016308Y012205D01*
X016303Y012228D01*
X016301Y012251D01*
X016301Y012501D01*
X016351Y012551D01*
X016351Y015651D01*
X016301Y015701D01*
X016301Y015951D01*
X016303Y015974D01*
X016308Y015997D01*
X016317Y016019D01*
X016330Y016039D01*
X016345Y016057D01*
X016363Y016072D01*
X016383Y016085D01*
X016405Y016094D01*
X016428Y016099D01*
X016451Y016101D01*
X018301Y015951D02*
X018301Y015701D01*
X018351Y015651D01*
X018351Y012551D01*
X018301Y012501D01*
X018301Y012251D01*
X018303Y012228D01*
X018308Y012205D01*
X018317Y012183D01*
X018330Y012163D01*
X018345Y012145D01*
X018363Y012130D01*
X018383Y012117D01*
X018405Y012108D01*
X018428Y012103D01*
X018451Y012101D01*
X019751Y012101D01*
X019774Y012103D01*
X019797Y012108D01*
X019819Y012117D01*
X019839Y012130D01*
X019857Y012145D01*
X019872Y012163D01*
X019885Y012183D01*
X019894Y012205D01*
X019899Y012228D01*
X019901Y012251D01*
X019901Y012501D01*
X019851Y012551D01*
X019851Y015651D01*
X019901Y015701D01*
X019901Y015951D01*
X019899Y015974D01*
X019894Y015997D01*
X019885Y016019D01*
X019872Y016039D01*
X019857Y016057D01*
X019839Y016072D01*
X019819Y016085D01*
X019797Y016094D01*
X019774Y016099D01*
X019751Y016101D01*
X018451Y016101D01*
X018428Y016099D01*
X018405Y016094D01*
X018383Y016085D01*
X018363Y016072D01*
X018345Y016057D01*
X018330Y016039D01*
X018317Y016019D01*
X018308Y015997D01*
X018303Y015974D01*
X018301Y015951D01*
X020301Y015951D02*
X020301Y015701D01*
X020351Y015651D01*
X020351Y012551D01*
X020301Y012501D01*
X020301Y012251D01*
X020303Y012228D01*
X020308Y012205D01*
X020317Y012183D01*
X020330Y012163D01*
X020345Y012145D01*
X020363Y012130D01*
X020383Y012117D01*
X020405Y012108D01*
X020428Y012103D01*
X020451Y012101D01*
X021751Y012101D01*
X021774Y012103D01*
X021797Y012108D01*
X021819Y012117D01*
X021839Y012130D01*
X021857Y012145D01*
X021872Y012163D01*
X021885Y012183D01*
X021894Y012205D01*
X021899Y012228D01*
X021901Y012251D01*
X021901Y012501D01*
X021851Y012551D01*
X021851Y015651D01*
X021901Y015701D01*
X021901Y015951D01*
X021899Y015974D01*
X021894Y015997D01*
X021885Y016019D01*
X021872Y016039D01*
X021857Y016057D01*
X021839Y016072D01*
X021819Y016085D01*
X021797Y016094D01*
X021774Y016099D01*
X021751Y016101D01*
X020451Y016101D01*
X020428Y016099D01*
X020405Y016094D01*
X020383Y016085D01*
X020363Y016072D01*
X020345Y016057D01*
X020330Y016039D01*
X020317Y016019D01*
X020308Y015997D01*
X020303Y015974D01*
X020301Y015951D01*
X022301Y015951D02*
X022301Y015701D01*
X022351Y015651D01*
X022351Y012551D01*
X022301Y012501D01*
X022301Y012251D01*
X022303Y012228D01*
X022308Y012205D01*
X022317Y012183D01*
X022330Y012163D01*
X022345Y012145D01*
X022363Y012130D01*
X022383Y012117D01*
X022405Y012108D01*
X022428Y012103D01*
X022451Y012101D01*
X023751Y012101D01*
X023774Y012103D01*
X023797Y012108D01*
X023819Y012117D01*
X023839Y012130D01*
X023857Y012145D01*
X023872Y012163D01*
X023885Y012183D01*
X023894Y012205D01*
X023899Y012228D01*
X023901Y012251D01*
X023901Y012501D01*
X023851Y012551D01*
X023851Y015651D01*
X023901Y015701D01*
X023901Y015951D01*
X023899Y015974D01*
X023894Y015997D01*
X023885Y016019D01*
X023872Y016039D01*
X023857Y016057D01*
X023839Y016072D01*
X023819Y016085D01*
X023797Y016094D01*
X023774Y016099D01*
X023751Y016101D01*
X022451Y016101D01*
X022428Y016099D01*
X022405Y016094D01*
X022383Y016085D01*
X022363Y016072D01*
X022345Y016057D01*
X022330Y016039D01*
X022317Y016019D01*
X022308Y015997D01*
X022303Y015974D01*
X022301Y015951D01*
X024301Y015951D02*
X024301Y015701D01*
X024351Y015651D01*
X024351Y012551D01*
X024301Y012501D01*
X024301Y012251D01*
X024303Y012228D01*
X024308Y012205D01*
X024317Y012183D01*
X024330Y012163D01*
X024345Y012145D01*
X024363Y012130D01*
X024383Y012117D01*
X024405Y012108D01*
X024428Y012103D01*
X024451Y012101D01*
X025751Y012101D01*
X025774Y012103D01*
X025797Y012108D01*
X025819Y012117D01*
X025839Y012130D01*
X025857Y012145D01*
X025872Y012163D01*
X025885Y012183D01*
X025894Y012205D01*
X025899Y012228D01*
X025901Y012251D01*
X025901Y012501D01*
X025851Y012551D01*
X025851Y015651D01*
X025901Y015701D01*
X025901Y015951D01*
X025899Y015974D01*
X025894Y015997D01*
X025885Y016019D01*
X025872Y016039D01*
X025857Y016057D01*
X025839Y016072D01*
X025819Y016085D01*
X025797Y016094D01*
X025774Y016099D01*
X025751Y016101D01*
X024451Y016101D01*
X024428Y016099D01*
X024405Y016094D01*
X024383Y016085D01*
X024363Y016072D01*
X024345Y016057D01*
X024330Y016039D01*
X024317Y016019D01*
X024308Y015997D01*
X024303Y015974D01*
X024301Y015951D01*
X026301Y015951D02*
X026301Y015701D01*
X026351Y015651D01*
X026351Y012551D01*
X026301Y012501D01*
X026301Y012251D01*
X026303Y012228D01*
X026308Y012205D01*
X026317Y012183D01*
X026330Y012163D01*
X026345Y012145D01*
X026363Y012130D01*
X026383Y012117D01*
X026405Y012108D01*
X026428Y012103D01*
X026451Y012101D01*
X027751Y012101D01*
X027774Y012103D01*
X027797Y012108D01*
X027819Y012117D01*
X027839Y012130D01*
X027857Y012145D01*
X027872Y012163D01*
X027885Y012183D01*
X027894Y012205D01*
X027899Y012228D01*
X027901Y012251D01*
X027901Y012501D01*
X027851Y012551D01*
X027851Y015651D01*
X027901Y015701D01*
X027901Y015951D01*
X027899Y015974D01*
X027894Y015997D01*
X027885Y016019D01*
X027872Y016039D01*
X027857Y016057D01*
X027839Y016072D01*
X027819Y016085D01*
X027797Y016094D01*
X027774Y016099D01*
X027751Y016101D01*
X026451Y016101D01*
X026428Y016099D01*
X026405Y016094D01*
X026383Y016085D01*
X026363Y016072D01*
X026345Y016057D01*
X026330Y016039D01*
X026317Y016019D01*
X026308Y015997D01*
X026303Y015974D01*
X026301Y015951D01*
X028301Y015951D02*
X028301Y015701D01*
X028351Y015651D01*
X028351Y012551D01*
X028301Y012501D01*
X028301Y012251D01*
X028303Y012228D01*
X028308Y012205D01*
X028317Y012183D01*
X028330Y012163D01*
X028345Y012145D01*
X028363Y012130D01*
X028383Y012117D01*
X028405Y012108D01*
X028428Y012103D01*
X028451Y012101D01*
X029751Y012101D01*
X029774Y012103D01*
X029797Y012108D01*
X029819Y012117D01*
X029839Y012130D01*
X029857Y012145D01*
X029872Y012163D01*
X029885Y012183D01*
X029894Y012205D01*
X029899Y012228D01*
X029901Y012251D01*
X029901Y012501D01*
X029851Y012551D01*
X029851Y015651D01*
X029901Y015701D01*
X029901Y015951D01*
X029899Y015974D01*
X029894Y015997D01*
X029885Y016019D01*
X029872Y016039D01*
X029857Y016057D01*
X029839Y016072D01*
X029819Y016085D01*
X029797Y016094D01*
X029774Y016099D01*
X029751Y016101D01*
X028451Y016101D01*
X028428Y016099D01*
X028405Y016094D01*
X028383Y016085D01*
X028363Y016072D01*
X028345Y016057D01*
X028330Y016039D01*
X028317Y016019D01*
X028308Y015997D01*
X028303Y015974D01*
X028301Y015951D01*
X030301Y015951D02*
X030301Y015701D01*
X030351Y015651D01*
X030351Y012551D01*
X030301Y012501D01*
X030301Y012251D01*
X030303Y012228D01*
X030308Y012205D01*
X030317Y012183D01*
X030330Y012163D01*
X030345Y012145D01*
X030363Y012130D01*
X030383Y012117D01*
X030405Y012108D01*
X030428Y012103D01*
X030451Y012101D01*
X031751Y012101D01*
X031774Y012103D01*
X031797Y012108D01*
X031819Y012117D01*
X031839Y012130D01*
X031857Y012145D01*
X031872Y012163D01*
X031885Y012183D01*
X031894Y012205D01*
X031899Y012228D01*
X031901Y012251D01*
X031901Y012501D01*
X031851Y012551D01*
X031851Y015651D01*
X031901Y015701D01*
X031901Y015951D01*
X031899Y015974D01*
X031894Y015997D01*
X031885Y016019D01*
X031872Y016039D01*
X031857Y016057D01*
X031839Y016072D01*
X031819Y016085D01*
X031797Y016094D01*
X031774Y016099D01*
X031751Y016101D01*
X030451Y016101D01*
X030428Y016099D01*
X030405Y016094D01*
X030383Y016085D01*
X030363Y016072D01*
X030345Y016057D01*
X030330Y016039D01*
X030317Y016019D01*
X030308Y015997D01*
X030303Y015974D01*
X030301Y015951D01*
X032301Y015951D02*
X032301Y015701D01*
X032351Y015651D01*
X032351Y012551D01*
X032301Y012501D01*
X032301Y012251D01*
X032303Y012228D01*
X032308Y012205D01*
X032317Y012183D01*
X032330Y012163D01*
X032345Y012145D01*
X032363Y012130D01*
X032383Y012117D01*
X032405Y012108D01*
X032428Y012103D01*
X032451Y012101D01*
X033751Y012101D01*
X033774Y012103D01*
X033797Y012108D01*
X033819Y012117D01*
X033839Y012130D01*
X033857Y012145D01*
X033872Y012163D01*
X033885Y012183D01*
X033894Y012205D01*
X033899Y012228D01*
X033901Y012251D01*
X033901Y012501D01*
X033851Y012551D01*
X033851Y015651D01*
X033901Y015701D01*
X033901Y015951D01*
X033899Y015974D01*
X033894Y015997D01*
X033885Y016019D01*
X033872Y016039D01*
X033857Y016057D01*
X033839Y016072D01*
X033819Y016085D01*
X033797Y016094D01*
X033774Y016099D01*
X033751Y016101D01*
X032451Y016101D01*
X032428Y016099D01*
X032405Y016094D01*
X032383Y016085D01*
X032363Y016072D01*
X032345Y016057D01*
X032330Y016039D01*
X032317Y016019D01*
X032308Y015997D01*
X032303Y015974D01*
X032301Y015951D01*
X034301Y015951D02*
X034301Y015701D01*
X034351Y015651D01*
X034351Y012551D01*
X034301Y012501D01*
X034301Y012251D01*
X034303Y012228D01*
X034308Y012205D01*
X034317Y012183D01*
X034330Y012163D01*
X034345Y012145D01*
X034363Y012130D01*
X034383Y012117D01*
X034405Y012108D01*
X034428Y012103D01*
X034451Y012101D01*
X035751Y012101D01*
X035774Y012103D01*
X035797Y012108D01*
X035819Y012117D01*
X035839Y012130D01*
X035857Y012145D01*
X035872Y012163D01*
X035885Y012183D01*
X035894Y012205D01*
X035899Y012228D01*
X035901Y012251D01*
X035901Y012501D01*
X035851Y012551D01*
X035851Y015651D01*
X035901Y015701D01*
X035901Y015951D01*
X035899Y015974D01*
X035894Y015997D01*
X035885Y016019D01*
X035872Y016039D01*
X035857Y016057D01*
X035839Y016072D01*
X035819Y016085D01*
X035797Y016094D01*
X035774Y016099D01*
X035751Y016101D01*
X034451Y016101D01*
X034428Y016099D01*
X034405Y016094D01*
X034383Y016085D01*
X034363Y016072D01*
X034345Y016057D01*
X034330Y016039D01*
X034317Y016019D01*
X034308Y015997D01*
X034303Y015974D01*
X034301Y015951D01*
X035949Y026054D02*
X035949Y030148D01*
X038252Y030148D01*
X038252Y026054D01*
X035949Y026054D01*
X036152Y029764D02*
X036154Y029790D01*
X036160Y029816D01*
X036169Y029841D01*
X036182Y029864D01*
X036198Y029885D01*
X036217Y029903D01*
X036239Y029919D01*
X036262Y029931D01*
X036287Y029939D01*
X036313Y029944D01*
X036340Y029945D01*
X036366Y029942D01*
X036391Y029935D01*
X036416Y029925D01*
X036438Y029911D01*
X036459Y029894D01*
X036476Y029875D01*
X036491Y029853D01*
X036502Y029829D01*
X036510Y029803D01*
X036514Y029777D01*
X036514Y029751D01*
X036510Y029725D01*
X036502Y029699D01*
X036491Y029675D01*
X036476Y029653D01*
X036459Y029634D01*
X036438Y029617D01*
X036416Y029603D01*
X036391Y029593D01*
X036366Y029586D01*
X036340Y029583D01*
X036313Y029584D01*
X036287Y029589D01*
X036262Y029597D01*
X036239Y029609D01*
X036217Y029625D01*
X036198Y029643D01*
X036182Y029664D01*
X036169Y029687D01*
X036160Y029712D01*
X036154Y029738D01*
X036152Y029764D01*
X012571Y013336D02*
X012457Y013449D01*
X012231Y013449D01*
X012231Y013222D02*
X012457Y013222D01*
X012571Y013336D01*
X012401Y013081D02*
X012401Y012854D01*
X012514Y012713D02*
X012287Y012713D01*
X012231Y012656D01*
X012231Y012486D01*
X012571Y012486D01*
X012571Y012656D01*
X012514Y012713D01*
X012571Y012344D02*
X012344Y012344D01*
X012231Y012231D01*
X012344Y012117D01*
X012571Y012117D01*
X012514Y011976D02*
X012571Y011919D01*
X012571Y011806D01*
X012514Y011749D01*
X012287Y011749D01*
X012231Y011806D01*
X012231Y011919D01*
X012287Y011976D01*
X012514Y011976D01*
X012401Y012117D02*
X012401Y012344D01*
X012571Y011608D02*
X012571Y011381D01*
X012231Y011381D01*
X002371Y007494D02*
X002257Y007381D01*
X002257Y007438D02*
X002257Y007267D01*
X002371Y007267D02*
X002031Y007267D01*
X002031Y007438D01*
X002087Y007494D01*
X002201Y007494D01*
X002257Y007438D01*
X002371Y007126D02*
X002031Y007126D01*
X002031Y006899D02*
X002371Y006899D01*
X002257Y007013D01*
X002371Y007126D01*
X002201Y006758D02*
X002257Y006701D01*
X002257Y006531D01*
X002371Y006531D02*
X002031Y006531D01*
X002031Y006701D01*
X002087Y006758D01*
X002201Y006758D01*
X024101Y004651D02*
X024151Y003501D01*
X024251Y003401D01*
X027951Y003401D01*
X028051Y003501D01*
X028101Y004651D01*
D11*
X017096Y036459D02*
X016997Y036459D01*
X017096Y036459D02*
X017194Y036557D01*
X017194Y037049D01*
X017194Y036656D02*
X016899Y036656D01*
X016800Y036754D01*
X016800Y037049D01*
X016549Y037049D02*
X016451Y036951D01*
X016156Y036951D01*
X016451Y036951D02*
X016549Y036853D01*
X016549Y036754D01*
X016451Y036656D01*
X016156Y036656D01*
X016156Y037246D01*
X016451Y037246D01*
X016549Y037148D01*
X016549Y037049D01*
X016451Y037656D02*
X016549Y037754D01*
X016549Y038148D01*
X016451Y038246D01*
X016156Y038246D01*
X016156Y037656D01*
X016451Y037656D01*
X016800Y037754D02*
X016899Y037656D01*
X017194Y037656D01*
X017194Y038049D01*
X017445Y038049D02*
X017543Y038049D01*
X017642Y037951D01*
X017740Y038049D01*
X017839Y037951D01*
X017839Y037656D01*
X017642Y037656D02*
X017642Y037951D01*
X017445Y038049D02*
X017445Y037656D01*
X016800Y037754D02*
X016800Y038049D01*
X018089Y038049D02*
X018089Y037656D01*
X018286Y037656D02*
X018286Y037951D01*
X018385Y038049D01*
X018483Y037951D01*
X018483Y037656D01*
X018734Y037754D02*
X018832Y037656D01*
X019128Y037656D01*
X019128Y037557D02*
X019029Y037459D01*
X018931Y037459D01*
X019128Y037557D02*
X019128Y038049D01*
X018734Y038049D02*
X018734Y037754D01*
X018286Y037951D02*
X018188Y038049D01*
X018089Y038049D01*
X018286Y037246D02*
X018483Y037246D01*
X018385Y037246D02*
X018385Y036754D01*
X018286Y036656D01*
X018188Y036656D01*
X018089Y036754D01*
X018734Y036754D02*
X018832Y036656D01*
X019029Y036656D01*
X019128Y036754D01*
X019128Y036951D01*
X019029Y037049D01*
X018832Y037049D01*
X018734Y036951D01*
X018734Y036754D01*
X019378Y036754D02*
X019378Y036951D01*
X019477Y037049D01*
X019674Y037049D01*
X019772Y036951D01*
X019772Y036853D01*
X019378Y036853D01*
X019378Y036754D02*
X019477Y036656D01*
X019674Y036656D01*
X020667Y036656D02*
X020667Y037246D01*
X021061Y037246D01*
X020864Y036951D02*
X020667Y036951D01*
X021312Y036951D02*
X021410Y037049D01*
X021607Y037049D01*
X021706Y036951D01*
X021706Y036853D01*
X021312Y036853D01*
X021312Y036951D02*
X021312Y036754D01*
X021410Y036656D01*
X021607Y036656D01*
X021957Y036656D02*
X021957Y037049D01*
X021957Y036853D02*
X022153Y037049D01*
X022252Y037049D01*
X022494Y037049D02*
X022789Y037049D01*
X022887Y036951D01*
X022887Y036656D01*
X023138Y036754D02*
X023138Y036951D01*
X023237Y037049D01*
X023433Y037049D01*
X023532Y036951D01*
X023532Y036853D01*
X023138Y036853D01*
X023138Y036754D02*
X023237Y036656D01*
X023433Y036656D01*
X023783Y036656D02*
X023783Y037049D01*
X023783Y036853D02*
X023979Y037049D01*
X024078Y037049D01*
X024087Y037656D02*
X024087Y038246D01*
X023890Y038049D01*
X023639Y037853D02*
X023639Y038246D01*
X023639Y037853D02*
X023442Y037656D01*
X023246Y037853D01*
X023246Y038246D01*
X023890Y037656D02*
X024284Y037656D01*
X024535Y037656D02*
X024633Y037656D01*
X024633Y037754D01*
X024535Y037754D01*
X024535Y037656D01*
X024857Y037754D02*
X025251Y038148D01*
X025251Y037754D01*
X025152Y037656D01*
X024955Y037656D01*
X024857Y037754D01*
X024857Y038148D01*
X024955Y038246D01*
X025152Y038246D01*
X025251Y038148D01*
X022350Y038246D02*
X022350Y037656D01*
X022055Y037656D01*
X021957Y037754D01*
X021957Y037951D01*
X022055Y038049D01*
X022350Y038049D01*
X021706Y037951D02*
X021706Y037656D01*
X021410Y037656D01*
X021312Y037754D01*
X021410Y037853D01*
X021706Y037853D01*
X021706Y037951D02*
X021607Y038049D01*
X021410Y038049D01*
X021061Y037951D02*
X020963Y038049D01*
X020766Y038049D01*
X020667Y037951D01*
X020667Y037754D01*
X020766Y037656D01*
X020963Y037656D01*
X021061Y037754D01*
X021061Y037951D01*
X020417Y037656D02*
X020023Y037656D01*
X020023Y038246D01*
X022494Y037049D02*
X022494Y036656D01*
D12*
X013014Y029229D02*
X012957Y029229D01*
X012985Y029258D02*
X012985Y029144D01*
X013014Y029116D01*
X012886Y029172D02*
X012773Y029172D01*
X012773Y029144D02*
X012773Y029201D01*
X012801Y029229D01*
X012858Y029229D01*
X012886Y029201D01*
X012886Y029172D01*
X012858Y029116D02*
X012801Y029116D01*
X012773Y029144D01*
X012702Y029144D02*
X012674Y029172D01*
X012617Y029172D01*
X012589Y029201D01*
X012617Y029229D01*
X012702Y029229D01*
X012702Y029144D02*
X012674Y029116D01*
X012589Y029116D01*
X012494Y029116D02*
X012494Y029258D01*
X012523Y029286D01*
X012523Y029201D02*
X012466Y029201D01*
X012400Y029201D02*
X012343Y029201D01*
X012372Y029258D02*
X012400Y029286D01*
X012372Y029258D02*
X012372Y029116D01*
X012273Y029144D02*
X012273Y029258D01*
X012244Y029286D01*
X012188Y029286D01*
X012159Y029258D01*
X012159Y029144D01*
X012188Y029116D01*
X012244Y029116D01*
X012273Y029144D01*
X011909Y029116D02*
X011852Y029116D01*
X011881Y029116D02*
X011881Y029286D01*
X011909Y029286D02*
X011852Y029286D01*
X011782Y029201D02*
X011668Y029201D01*
X011597Y029286D02*
X011484Y029286D01*
X011541Y029286D02*
X011541Y029116D01*
X011413Y029116D02*
X011300Y029286D01*
X011229Y029286D02*
X011116Y029286D01*
X011116Y029116D01*
X011229Y029116D01*
X011300Y029116D02*
X011413Y029286D01*
X011172Y029201D02*
X011116Y029201D01*
X011194Y028847D02*
X011166Y028819D01*
X011166Y028734D01*
X011336Y028734D01*
X011336Y028819D01*
X011307Y028847D01*
X011194Y028847D01*
X011166Y028663D02*
X011336Y028663D01*
X011166Y028550D01*
X011336Y028550D01*
X011307Y028479D02*
X011251Y028479D01*
X011251Y028422D01*
X011307Y028366D02*
X011336Y028394D01*
X011336Y028451D01*
X011307Y028479D01*
X011194Y028479D02*
X011166Y028451D01*
X011166Y028394D01*
X011194Y028366D01*
X011307Y028366D01*
X012916Y028366D02*
X013029Y028366D01*
X013086Y028422D01*
X013029Y028479D01*
X012916Y028479D01*
X012944Y028550D02*
X013057Y028550D01*
X013086Y028578D01*
X013086Y028635D01*
X013057Y028663D01*
X013057Y028734D02*
X013086Y028762D01*
X013086Y028819D01*
X013057Y028847D01*
X013057Y028734D02*
X012944Y028734D01*
X012916Y028762D01*
X012916Y028819D01*
X012944Y028847D01*
X012944Y028663D02*
X012916Y028635D01*
X012916Y028578D01*
X012944Y028550D01*
D13*
X029065Y027526D02*
X029067Y027546D01*
X029072Y027566D01*
X029082Y027584D01*
X029094Y027601D01*
X029109Y027615D01*
X029127Y027625D01*
X029146Y027633D01*
X029166Y027637D01*
X029186Y027637D01*
X029206Y027633D01*
X029225Y027625D01*
X029243Y027615D01*
X029258Y027601D01*
X029270Y027584D01*
X029280Y027566D01*
X029285Y027546D01*
X029287Y027526D01*
X029285Y027506D01*
X029280Y027486D01*
X029270Y027468D01*
X029258Y027451D01*
X029243Y027437D01*
X029225Y027427D01*
X029206Y027419D01*
X029186Y027415D01*
X029166Y027415D01*
X029146Y027419D01*
X029127Y027427D01*
X029109Y027437D01*
X029094Y027451D01*
X029082Y027468D01*
X029072Y027486D01*
X029067Y027506D01*
X029065Y027526D01*
X041601Y008351D02*
X042101Y008351D01*
X042101Y008601D01*
X042101Y008351D02*
X042601Y008351D01*
X042601Y007851D01*
X041601Y007851D01*
X041601Y005851D01*
X042101Y005851D01*
X042101Y005601D01*
X042101Y005851D02*
X042601Y005851D01*
X042601Y007851D01*
X041601Y007851D02*
X041601Y008351D01*
D14*
X004351Y005101D02*
X003851Y005101D01*
X003601Y005351D01*
X003601Y005851D01*
X003851Y006101D01*
X003601Y006351D01*
X003601Y006851D01*
X003851Y007101D01*
X004351Y007101D01*
X004601Y006851D01*
X004601Y006351D01*
X004351Y006101D01*
X004601Y005851D01*
X004601Y005351D01*
X004351Y005101D01*
X004351Y007101D02*
X003851Y007101D01*
X003601Y007351D01*
X003601Y007851D01*
X003851Y008101D01*
X003601Y008351D01*
X003601Y008851D01*
X003851Y009101D01*
X004351Y009101D01*
X004601Y008851D01*
X004601Y008351D01*
X004351Y008101D01*
X004601Y007851D01*
X004601Y007351D01*
X004351Y007101D01*
X010801Y011401D02*
X010801Y012801D01*
X011101Y012801D01*
X011101Y013101D01*
X011101Y012801D02*
X011401Y012801D01*
X011401Y011401D01*
X011101Y011401D01*
X011101Y011101D01*
X011101Y011401D02*
X010801Y011401D01*
X010851Y012601D02*
X011351Y012601D01*
X011301Y014301D02*
X009901Y014301D01*
X009901Y014601D01*
X009601Y014601D01*
X009901Y014601D02*
X009901Y014901D01*
X011301Y014901D01*
X011301Y014601D01*
X011601Y014601D01*
X011301Y014601D02*
X011301Y014301D01*
X011101Y014351D02*
X011101Y014851D01*
X014601Y014351D02*
X014601Y013851D01*
X014851Y013601D01*
X015351Y013601D01*
X015601Y013851D01*
X015601Y014351D01*
X015351Y014601D01*
X014851Y014601D01*
X014601Y014351D01*
X012801Y019301D02*
X011401Y019301D01*
X011401Y019601D01*
X011101Y019601D01*
X011401Y019601D02*
X011401Y019901D01*
X012801Y019901D01*
X012801Y019601D01*
X013101Y019601D01*
X012801Y019601D02*
X012801Y019301D01*
X011601Y019351D02*
X011601Y019851D01*
X009101Y019601D02*
X008801Y019601D01*
X008801Y019301D01*
X007401Y019301D01*
X007401Y019601D01*
X007101Y019601D01*
X007401Y019601D02*
X007401Y019901D01*
X008801Y019901D01*
X008801Y019601D01*
X008601Y019351D02*
X008601Y019851D01*
X004601Y016851D02*
X004601Y016351D01*
X004351Y016101D01*
X004601Y015851D01*
X004601Y015351D01*
X004351Y015101D01*
X004601Y014851D01*
X004601Y014351D01*
X004351Y014101D01*
X003851Y014101D01*
X003601Y014351D01*
X003601Y014851D01*
X003851Y015101D01*
X003601Y015351D01*
X003601Y015851D01*
X003851Y016101D01*
X003601Y016351D01*
X003601Y016851D01*
X003851Y017101D01*
X004351Y017101D01*
X004601Y016851D01*
X011334Y025711D02*
X011336Y025726D01*
X011342Y025739D01*
X011351Y025751D01*
X011362Y025760D01*
X011376Y025766D01*
X011391Y025768D01*
X011406Y025766D01*
X011419Y025760D01*
X011431Y025751D01*
X011440Y025740D01*
X011446Y025726D01*
X011448Y025711D01*
X011446Y025696D01*
X011440Y025683D01*
X011431Y025671D01*
X011420Y025662D01*
X011406Y025656D01*
X011391Y025654D01*
X011376Y025656D01*
X011363Y025662D01*
X011351Y025671D01*
X011342Y025682D01*
X011336Y025696D01*
X011334Y025711D01*
X014351Y026601D02*
X014601Y026351D01*
X015101Y026351D01*
X015351Y026601D01*
X015351Y027101D01*
X015101Y027351D01*
X014601Y027351D01*
X014351Y027101D01*
X014351Y026601D01*
X020101Y026851D02*
X020351Y026601D01*
X020101Y026351D01*
X020101Y025851D01*
X020351Y025601D01*
X020851Y025601D01*
X021101Y025851D01*
X021101Y026351D01*
X020851Y026601D01*
X020351Y026601D01*
X020851Y026601D01*
X021101Y026851D01*
X021101Y027351D01*
X020851Y027601D01*
X020351Y027601D01*
X020101Y027351D01*
X020101Y026851D01*
X020351Y027601D02*
X020851Y027601D01*
X021101Y027851D01*
X021101Y028351D01*
X020851Y028601D01*
X020351Y028601D01*
X020101Y028351D01*
X020101Y027851D01*
X020351Y027601D01*
X020351Y028601D02*
X020851Y028601D01*
X021101Y028851D01*
X021101Y029351D01*
X020851Y029601D01*
X020351Y029601D01*
X020101Y029351D01*
X020101Y028851D01*
X020351Y028601D01*
X025711Y027369D02*
X025711Y030833D01*
X025869Y030991D01*
X029333Y030991D01*
X029491Y030833D01*
X029491Y027369D01*
X029333Y027211D01*
X025869Y027211D01*
X025711Y027369D01*
X030550Y021197D02*
X031652Y021197D01*
X031652Y019504D01*
X030550Y019504D01*
X030550Y021197D01*
X033556Y023001D02*
X033714Y023001D01*
X033776Y022451D02*
X035425Y022451D01*
X035488Y023001D02*
X035646Y023001D01*
X034714Y023001D02*
X034488Y023001D01*
X041351Y026801D02*
X041851Y026801D01*
X041851Y027401D02*
X041351Y027401D01*
X043302Y025239D02*
X044837Y025239D01*
X044994Y023994D02*
X045546Y023994D01*
X045546Y023207D01*
X044994Y023207D01*
X044719Y023365D02*
X044719Y023837D01*
X044483Y023601D01*
X044719Y023365D01*
X044483Y023325D02*
X044483Y023601D01*
X044483Y023876D01*
X044207Y023994D02*
X043656Y023994D01*
X043656Y023207D01*
X044207Y023207D01*
X043302Y025239D02*
X043302Y029963D01*
X044837Y029963D01*
X044994Y031207D02*
X045546Y031207D01*
X045546Y031994D01*
X044994Y031994D01*
X044719Y031837D02*
X044483Y031601D01*
X044719Y031365D01*
X044719Y031837D01*
X044483Y031876D02*
X044483Y031601D01*
X044483Y031325D01*
X044207Y031207D02*
X043656Y031207D01*
X043656Y031994D01*
X044207Y031994D01*
X046491Y029963D02*
X047987Y029963D01*
X042355Y029739D02*
X041855Y029739D01*
X040617Y030101D02*
X040619Y030163D01*
X040625Y030226D01*
X040635Y030287D01*
X040649Y030348D01*
X040666Y030408D01*
X040687Y030467D01*
X040713Y030524D01*
X040741Y030579D01*
X040773Y030633D01*
X040809Y030684D01*
X040847Y030734D01*
X040889Y030780D01*
X040933Y030824D01*
X040981Y030865D01*
X041030Y030903D01*
X041082Y030937D01*
X041136Y030968D01*
X041192Y030996D01*
X041250Y031020D01*
X041309Y031041D01*
X041369Y031057D01*
X041430Y031070D01*
X041492Y031079D01*
X041554Y031084D01*
X041617Y031085D01*
X041679Y031082D01*
X041741Y031075D01*
X041803Y031064D01*
X041863Y031049D01*
X041923Y031031D01*
X041981Y031009D01*
X042038Y030983D01*
X042093Y030953D01*
X042146Y030920D01*
X042197Y030884D01*
X042245Y030845D01*
X042291Y030802D01*
X042334Y030757D01*
X042374Y030709D01*
X042411Y030659D01*
X042445Y030606D01*
X042476Y030552D01*
X042502Y030496D01*
X042526Y030438D01*
X042545Y030378D01*
X042561Y030318D01*
X042573Y030256D01*
X042581Y030195D01*
X042585Y030132D01*
X042585Y030070D01*
X042581Y030007D01*
X042573Y029946D01*
X042561Y029884D01*
X042545Y029824D01*
X042526Y029764D01*
X042502Y029706D01*
X042476Y029650D01*
X042445Y029596D01*
X042411Y029543D01*
X042374Y029493D01*
X042334Y029445D01*
X042291Y029400D01*
X042245Y029357D01*
X042197Y029318D01*
X042146Y029282D01*
X042093Y029249D01*
X042038Y029219D01*
X041981Y029193D01*
X041923Y029171D01*
X041863Y029153D01*
X041803Y029138D01*
X041741Y029127D01*
X041679Y029120D01*
X041617Y029117D01*
X041554Y029118D01*
X041492Y029123D01*
X041430Y029132D01*
X041369Y029145D01*
X041309Y029161D01*
X041250Y029182D01*
X041192Y029206D01*
X041136Y029234D01*
X041082Y029265D01*
X041030Y029299D01*
X040981Y029337D01*
X040933Y029378D01*
X040889Y029422D01*
X040847Y029468D01*
X040809Y029518D01*
X040773Y029569D01*
X040741Y029623D01*
X040713Y029678D01*
X040687Y029735D01*
X040666Y029794D01*
X040649Y029854D01*
X040635Y029915D01*
X040625Y029976D01*
X040619Y030039D01*
X040617Y030101D01*
X035351Y033101D02*
X035351Y035101D01*
X035101Y035101D02*
X035101Y033101D01*
X034601Y033101D01*
X034101Y033101D01*
X033601Y033101D01*
X033101Y033101D01*
X032601Y033101D01*
X032101Y033101D01*
X032101Y035101D01*
X035101Y035101D01*
X046491Y025239D02*
X047987Y025239D01*
X046351Y016101D02*
X044851Y016101D01*
X044851Y012101D01*
X044601Y012101D01*
X044601Y016101D01*
X044851Y016101D01*
X046351Y016101D02*
X046351Y012101D01*
X044851Y012101D01*
X044483Y008872D02*
X044207Y008872D01*
X044207Y008046D01*
X046333Y008872D02*
X048420Y008872D01*
X048420Y005329D01*
X044207Y005329D01*
X044207Y006156D01*
X039617Y011601D02*
X039619Y011663D01*
X039625Y011726D01*
X039635Y011787D01*
X039649Y011848D01*
X039666Y011908D01*
X039687Y011967D01*
X039713Y012024D01*
X039741Y012079D01*
X039773Y012133D01*
X039809Y012184D01*
X039847Y012234D01*
X039889Y012280D01*
X039933Y012324D01*
X039981Y012365D01*
X040030Y012403D01*
X040082Y012437D01*
X040136Y012468D01*
X040192Y012496D01*
X040250Y012520D01*
X040309Y012541D01*
X040369Y012557D01*
X040430Y012570D01*
X040492Y012579D01*
X040554Y012584D01*
X040617Y012585D01*
X040679Y012582D01*
X040741Y012575D01*
X040803Y012564D01*
X040863Y012549D01*
X040923Y012531D01*
X040981Y012509D01*
X041038Y012483D01*
X041093Y012453D01*
X041146Y012420D01*
X041197Y012384D01*
X041245Y012345D01*
X041291Y012302D01*
X041334Y012257D01*
X041374Y012209D01*
X041411Y012159D01*
X041445Y012106D01*
X041476Y012052D01*
X041502Y011996D01*
X041526Y011938D01*
X041545Y011878D01*
X041561Y011818D01*
X041573Y011756D01*
X041581Y011695D01*
X041585Y011632D01*
X041585Y011570D01*
X041581Y011507D01*
X041573Y011446D01*
X041561Y011384D01*
X041545Y011324D01*
X041526Y011264D01*
X041502Y011206D01*
X041476Y011150D01*
X041445Y011096D01*
X041411Y011043D01*
X041374Y010993D01*
X041334Y010945D01*
X041291Y010900D01*
X041245Y010857D01*
X041197Y010818D01*
X041146Y010782D01*
X041093Y010749D01*
X041038Y010719D01*
X040981Y010693D01*
X040923Y010671D01*
X040863Y010653D01*
X040803Y010638D01*
X040741Y010627D01*
X040679Y010620D01*
X040617Y010617D01*
X040554Y010618D01*
X040492Y010623D01*
X040430Y010632D01*
X040369Y010645D01*
X040309Y010661D01*
X040250Y010682D01*
X040192Y010706D01*
X040136Y010734D01*
X040082Y010765D01*
X040030Y010799D01*
X039981Y010837D01*
X039933Y010878D01*
X039889Y010922D01*
X039847Y010968D01*
X039809Y011018D01*
X039773Y011069D01*
X039741Y011123D01*
X039713Y011178D01*
X039687Y011235D01*
X039666Y011294D01*
X039649Y011354D01*
X039635Y011415D01*
X039625Y011476D01*
X039619Y011539D01*
X039617Y011601D01*
X040963Y011855D02*
X040963Y012355D01*
X040239Y013347D02*
X040239Y013847D01*
X039617Y014101D02*
X039619Y014163D01*
X039625Y014226D01*
X039635Y014287D01*
X039649Y014348D01*
X039666Y014408D01*
X039687Y014467D01*
X039713Y014524D01*
X039741Y014579D01*
X039773Y014633D01*
X039809Y014684D01*
X039847Y014734D01*
X039889Y014780D01*
X039933Y014824D01*
X039981Y014865D01*
X040030Y014903D01*
X040082Y014937D01*
X040136Y014968D01*
X040192Y014996D01*
X040250Y015020D01*
X040309Y015041D01*
X040369Y015057D01*
X040430Y015070D01*
X040492Y015079D01*
X040554Y015084D01*
X040617Y015085D01*
X040679Y015082D01*
X040741Y015075D01*
X040803Y015064D01*
X040863Y015049D01*
X040923Y015031D01*
X040981Y015009D01*
X041038Y014983D01*
X041093Y014953D01*
X041146Y014920D01*
X041197Y014884D01*
X041245Y014845D01*
X041291Y014802D01*
X041334Y014757D01*
X041374Y014709D01*
X041411Y014659D01*
X041445Y014606D01*
X041476Y014552D01*
X041502Y014496D01*
X041526Y014438D01*
X041545Y014378D01*
X041561Y014318D01*
X041573Y014256D01*
X041581Y014195D01*
X041585Y014132D01*
X041585Y014070D01*
X041581Y014007D01*
X041573Y013946D01*
X041561Y013884D01*
X041545Y013824D01*
X041526Y013764D01*
X041502Y013706D01*
X041476Y013650D01*
X041445Y013596D01*
X041411Y013543D01*
X041374Y013493D01*
X041334Y013445D01*
X041291Y013400D01*
X041245Y013357D01*
X041197Y013318D01*
X041146Y013282D01*
X041093Y013249D01*
X041038Y013219D01*
X040981Y013193D01*
X040923Y013171D01*
X040863Y013153D01*
X040803Y013138D01*
X040741Y013127D01*
X040679Y013120D01*
X040617Y013117D01*
X040554Y013118D01*
X040492Y013123D01*
X040430Y013132D01*
X040369Y013145D01*
X040309Y013161D01*
X040250Y013182D01*
X040192Y013206D01*
X040136Y013234D01*
X040082Y013265D01*
X040030Y013299D01*
X039981Y013337D01*
X039933Y013378D01*
X039889Y013422D01*
X039847Y013468D01*
X039809Y013518D01*
X039773Y013569D01*
X039741Y013623D01*
X039713Y013678D01*
X039687Y013735D01*
X039666Y013794D01*
X039649Y013854D01*
X039635Y013915D01*
X039625Y013976D01*
X039619Y014039D01*
X039617Y014101D01*
D15*
X034233Y010419D02*
X029329Y010419D01*
X029326Y010410D02*
X029326Y000410D01*
X029326Y000413D02*
X029326Y000385D01*
X029326Y000413D02*
X034229Y000413D01*
X034228Y000410D02*
X034228Y010410D01*
X029326Y005719D02*
X022625Y005719D01*
X022625Y005101D02*
X029326Y005101D01*
X026726Y005101D02*
X026726Y005719D01*
X025476Y005719D02*
X025476Y005101D01*
X022625Y000410D02*
X022625Y010410D01*
X022625Y010404D02*
X022625Y010394D01*
X022625Y010404D02*
X017732Y010404D01*
X017724Y010410D02*
X017724Y000410D01*
X017722Y000404D02*
X017722Y000394D01*
X017722Y000404D02*
X022616Y000404D01*
X041926Y006093D02*
X042276Y006093D01*
X042276Y006209D02*
X042276Y005976D01*
X042042Y005976D02*
X041926Y006093D01*
X041926Y006344D02*
X042276Y006578D01*
X041926Y006578D01*
X042101Y006712D02*
X041926Y006888D01*
X042276Y006888D01*
X042101Y006946D02*
X042101Y006712D01*
X042217Y007081D02*
X041984Y007081D01*
X041926Y007139D01*
X041926Y007256D01*
X041984Y007314D01*
X042217Y007081D01*
X042276Y007139D01*
X042276Y007256D01*
X042217Y007314D01*
X041984Y007314D01*
X041984Y007449D02*
X041926Y007507D01*
X041926Y007624D01*
X041984Y007683D01*
X042217Y007449D01*
X042276Y007507D01*
X042276Y007624D01*
X042217Y007683D01*
X041984Y007683D01*
X042042Y007817D02*
X041926Y007934D01*
X042276Y007934D01*
X042276Y007817D02*
X042276Y008051D01*
X042217Y007449D02*
X041984Y007449D01*
X041926Y006344D02*
X042276Y006344D01*
X036601Y032601D02*
X035101Y032601D01*
X035101Y033101D01*
X034601Y033101D02*
X034601Y032601D01*
X034101Y032601D01*
X034101Y033101D01*
X033601Y033101D02*
X033601Y032601D01*
X033101Y032601D01*
X033101Y033101D01*
X032601Y033101D02*
X032601Y032601D01*
X032101Y032601D01*
X032101Y033101D01*
X032101Y032601D02*
X030601Y032601D01*
X030601Y035601D01*
X036601Y035601D01*
X036601Y032601D01*
X035101Y032601D02*
X034601Y032601D01*
X034101Y032601D02*
X033601Y032601D01*
X033101Y032601D02*
X032601Y032601D01*
X014401Y034301D02*
X014401Y036901D01*
X011801Y036901D01*
X011801Y034301D01*
X014401Y034301D01*
X008201Y028101D02*
X007001Y028101D01*
X007001Y025101D01*
X008201Y025101D01*
X008201Y028101D01*
D16*
X035620Y034814D02*
X036081Y034814D01*
X036081Y034967D02*
X036081Y034660D01*
X035774Y034660D02*
X035620Y034814D01*
D17*
X035456Y022434D02*
X035401Y022477D01*
X035437Y022526D01*
X035471Y022577D01*
X035500Y022631D01*
X035527Y022686D01*
X035551Y022742D01*
X035570Y022800D01*
X035587Y022859D01*
X035600Y022919D01*
X035609Y022979D01*
X035614Y023040D01*
X035616Y023102D01*
X035614Y023163D01*
X035609Y023224D01*
X035599Y023284D01*
X035586Y023344D01*
X035570Y023403D01*
X035550Y023461D01*
X035527Y023517D01*
X035500Y023572D01*
X035470Y023626D01*
X035437Y023677D01*
X035401Y023726D01*
X035361Y023773D01*
X035320Y023818D01*
X035275Y023860D01*
X035228Y023899D01*
X035179Y023935D01*
X035128Y023969D01*
X035074Y023999D01*
X035019Y024026D01*
X034963Y024049D01*
X034905Y024069D01*
X034925Y024136D01*
X034926Y024136D01*
X034987Y024115D01*
X035048Y024090D01*
X035107Y024061D01*
X035164Y024029D01*
X035218Y023993D01*
X035271Y023954D01*
X035321Y023912D01*
X035369Y023867D01*
X035414Y023820D01*
X035456Y023770D01*
X035494Y023717D01*
X035530Y023662D01*
X035562Y023605D01*
X035591Y023546D01*
X035616Y023486D01*
X035637Y023424D01*
X035654Y023361D01*
X035668Y023297D01*
X035678Y023232D01*
X035684Y023167D01*
X035686Y023101D01*
X035684Y023036D01*
X035678Y022971D01*
X035668Y022906D01*
X035655Y022842D01*
X035637Y022779D01*
X035616Y022717D01*
X035591Y022657D01*
X035562Y022598D01*
X035530Y022541D01*
X035495Y022486D01*
X035456Y022433D01*
X035449Y022439D01*
X035487Y022491D01*
X035523Y022546D01*
X035554Y022602D01*
X035583Y022661D01*
X035608Y022721D01*
X035629Y022782D01*
X035646Y022844D01*
X035660Y022908D01*
X035669Y022972D01*
X035675Y023037D01*
X035677Y023101D01*
X035675Y023166D01*
X035669Y023231D01*
X035659Y023295D01*
X035646Y023359D01*
X035628Y023421D01*
X035607Y023482D01*
X035582Y023542D01*
X035554Y023601D01*
X035522Y023657D01*
X035487Y023712D01*
X035449Y023764D01*
X035407Y023814D01*
X035363Y023861D01*
X035315Y023906D01*
X035266Y023947D01*
X035213Y023986D01*
X035159Y024021D01*
X035102Y024053D01*
X035044Y024081D01*
X034984Y024106D01*
X034923Y024128D01*
X034920Y024119D01*
X034981Y024098D01*
X035041Y024073D01*
X035098Y024045D01*
X035154Y024013D01*
X035208Y023978D01*
X035260Y023940D01*
X035309Y023899D01*
X035356Y023855D01*
X035400Y023808D01*
X035441Y023758D01*
X035480Y023707D01*
X035514Y023653D01*
X035546Y023596D01*
X035574Y023539D01*
X035599Y023479D01*
X035620Y023418D01*
X035637Y023356D01*
X035650Y023293D01*
X035660Y023230D01*
X035666Y023166D01*
X035668Y023102D01*
X035666Y023037D01*
X035660Y022973D01*
X035651Y022910D01*
X035637Y022847D01*
X035620Y022785D01*
X035599Y022724D01*
X035575Y022664D01*
X035546Y022606D01*
X035515Y022550D01*
X035480Y022496D01*
X035442Y022444D01*
X035435Y022450D01*
X035473Y022501D01*
X035507Y022555D01*
X035539Y022611D01*
X035566Y022668D01*
X035591Y022727D01*
X035611Y022787D01*
X035628Y022849D01*
X035642Y022911D01*
X035651Y022974D01*
X035657Y023038D01*
X035659Y023102D01*
X035657Y023165D01*
X035651Y023229D01*
X035642Y023292D01*
X035628Y023354D01*
X035611Y023416D01*
X035590Y023476D01*
X035566Y023535D01*
X035538Y023592D01*
X035507Y023648D01*
X035472Y023701D01*
X035434Y023753D01*
X035394Y023802D01*
X035350Y023848D01*
X035303Y023892D01*
X035255Y023933D01*
X035203Y023971D01*
X035150Y024006D01*
X035094Y024037D01*
X035037Y024065D01*
X034978Y024090D01*
X034918Y024110D01*
X034915Y024102D01*
X034975Y024081D01*
X035033Y024057D01*
X035090Y024029D01*
X035145Y023998D01*
X035198Y023963D01*
X035249Y023926D01*
X035298Y023885D01*
X035344Y023842D01*
X035387Y023796D01*
X035427Y023747D01*
X035465Y023696D01*
X035499Y023643D01*
X035530Y023588D01*
X035558Y023531D01*
X035582Y023473D01*
X035603Y023413D01*
X035620Y023352D01*
X035633Y023290D01*
X035642Y023228D01*
X035648Y023165D01*
X035650Y023102D01*
X035648Y023038D01*
X035642Y022975D01*
X035633Y022913D01*
X035620Y022851D01*
X035603Y022790D01*
X035582Y022730D01*
X035558Y022672D01*
X035531Y022615D01*
X035500Y022560D01*
X035465Y022507D01*
X035428Y022456D01*
X035421Y022461D01*
X035458Y022512D01*
X035492Y022564D01*
X035523Y022619D01*
X035550Y022675D01*
X035574Y022733D01*
X035594Y022793D01*
X035611Y022853D01*
X035624Y022914D01*
X035634Y022976D01*
X035639Y023039D01*
X035641Y023102D01*
X035639Y023164D01*
X035633Y023227D01*
X035624Y023289D01*
X035611Y023350D01*
X035594Y023410D01*
X035573Y023470D01*
X035550Y023528D01*
X035522Y023584D01*
X035491Y023639D01*
X035457Y023691D01*
X035420Y023742D01*
X035380Y023790D01*
X035337Y023836D01*
X035292Y023879D01*
X035243Y023919D01*
X035193Y023956D01*
X035140Y023990D01*
X035086Y024021D01*
X035030Y024049D01*
X034972Y024073D01*
X034912Y024093D01*
X034910Y024085D01*
X034968Y024064D01*
X035026Y024040D01*
X035082Y024013D01*
X035136Y023982D01*
X035188Y023949D01*
X035238Y023912D01*
X035286Y023872D01*
X035331Y023829D01*
X035373Y023784D01*
X035413Y023736D01*
X035450Y023686D01*
X035484Y023634D01*
X035514Y023580D01*
X035541Y023524D01*
X035565Y023466D01*
X035585Y023408D01*
X035602Y023348D01*
X035615Y023287D01*
X035624Y023226D01*
X035630Y023164D01*
X035632Y023102D01*
X035630Y023039D01*
X035625Y022978D01*
X035615Y022916D01*
X035602Y022855D01*
X035586Y022795D01*
X035565Y022737D01*
X035542Y022679D01*
X035515Y022623D01*
X035484Y022569D01*
X035451Y022517D01*
X035414Y022467D01*
X035407Y022472D01*
X035443Y022522D01*
X035476Y022574D01*
X035507Y022627D01*
X035534Y022683D01*
X035557Y022740D01*
X035577Y022798D01*
X035594Y022857D01*
X035606Y022918D01*
X035616Y022979D01*
X035621Y023040D01*
X035623Y023102D01*
X035621Y023163D01*
X035616Y023224D01*
X035606Y023285D01*
X035593Y023346D01*
X035577Y023405D01*
X035557Y023463D01*
X035533Y023520D01*
X035506Y023576D01*
X035476Y023629D01*
X035443Y023681D01*
X035406Y023731D01*
X035367Y023778D01*
X035324Y023823D01*
X035280Y023865D01*
X035232Y023905D01*
X035183Y023941D01*
X035131Y023975D01*
X035078Y024005D01*
X035022Y024032D01*
X034965Y024056D01*
X034907Y024076D01*
X034277Y024136D02*
X034297Y024069D01*
X034239Y024049D01*
X034183Y024026D01*
X034128Y023999D01*
X034075Y023969D01*
X034023Y023935D01*
X033974Y023899D01*
X033927Y023860D01*
X033883Y023818D01*
X033841Y023773D01*
X033801Y023726D01*
X033765Y023677D01*
X033732Y023626D01*
X033702Y023572D01*
X033675Y023517D01*
X033652Y023461D01*
X033632Y023403D01*
X033616Y023344D01*
X033603Y023284D01*
X033593Y023224D01*
X033588Y023163D01*
X033586Y023102D01*
X033588Y023040D01*
X033593Y022979D01*
X033602Y022919D01*
X033615Y022859D01*
X033632Y022800D01*
X033651Y022742D01*
X033675Y022686D01*
X033702Y022631D01*
X033731Y022577D01*
X033765Y022526D01*
X033801Y022477D01*
X033746Y022434D01*
X033746Y022433D01*
X033707Y022486D01*
X033672Y022541D01*
X033640Y022598D01*
X033611Y022657D01*
X033586Y022717D01*
X033565Y022779D01*
X033547Y022842D01*
X033534Y022906D01*
X033524Y022971D01*
X033518Y023036D01*
X033516Y023102D01*
X033518Y023167D01*
X033524Y023232D01*
X033534Y023297D01*
X033548Y023361D01*
X033565Y023424D01*
X033586Y023486D01*
X033611Y023546D01*
X033640Y023605D01*
X033672Y023662D01*
X033708Y023717D01*
X033746Y023770D01*
X033788Y023820D01*
X033833Y023867D01*
X033881Y023912D01*
X033931Y023954D01*
X033984Y023993D01*
X034038Y024029D01*
X034095Y024061D01*
X034154Y024090D01*
X034215Y024115D01*
X034276Y024136D01*
X034279Y024128D01*
X034218Y024106D01*
X034158Y024081D01*
X034100Y024053D01*
X034043Y024021D01*
X033989Y023986D01*
X033936Y023947D01*
X033887Y023906D01*
X033839Y023861D01*
X033795Y023814D01*
X033754Y023764D01*
X033715Y023712D01*
X033680Y023657D01*
X033648Y023601D01*
X033620Y023542D01*
X033595Y023482D01*
X033574Y023421D01*
X033556Y023359D01*
X033543Y023295D01*
X033533Y023231D01*
X033527Y023166D01*
X033525Y023102D01*
X033527Y023037D01*
X033533Y022972D01*
X033542Y022908D01*
X033556Y022844D01*
X033573Y022782D01*
X033594Y022721D01*
X033619Y022661D01*
X033648Y022602D01*
X033679Y022546D01*
X033714Y022491D01*
X033753Y022439D01*
X033760Y022444D01*
X033722Y022496D01*
X033687Y022550D01*
X033656Y022606D01*
X033627Y022664D01*
X033603Y022724D01*
X033582Y022785D01*
X033565Y022847D01*
X033551Y022910D01*
X033542Y022973D01*
X033536Y023037D01*
X033534Y023102D01*
X033536Y023166D01*
X033542Y023230D01*
X033552Y023293D01*
X033565Y023356D01*
X033582Y023418D01*
X033603Y023479D01*
X033628Y023539D01*
X033656Y023596D01*
X033688Y023653D01*
X033722Y023707D01*
X033761Y023758D01*
X033802Y023808D01*
X033846Y023855D01*
X033893Y023899D01*
X033942Y023940D01*
X033994Y023978D01*
X034048Y024013D01*
X034104Y024045D01*
X034161Y024073D01*
X034221Y024098D01*
X034282Y024119D01*
X034284Y024110D01*
X034224Y024090D01*
X034165Y024065D01*
X034108Y024037D01*
X034052Y024006D01*
X033999Y023971D01*
X033947Y023933D01*
X033899Y023892D01*
X033852Y023848D01*
X033808Y023802D01*
X033768Y023753D01*
X033730Y023701D01*
X033695Y023648D01*
X033664Y023592D01*
X033636Y023535D01*
X033612Y023476D01*
X033591Y023416D01*
X033574Y023354D01*
X033560Y023292D01*
X033551Y023229D01*
X033545Y023165D01*
X033543Y023102D01*
X033545Y023038D01*
X033551Y022974D01*
X033560Y022911D01*
X033573Y022849D01*
X033591Y022787D01*
X033611Y022727D01*
X033636Y022668D01*
X033663Y022611D01*
X033695Y022555D01*
X033729Y022501D01*
X033767Y022450D01*
X033774Y022456D01*
X033737Y022507D01*
X033702Y022560D01*
X033671Y022615D01*
X033644Y022672D01*
X033620Y022730D01*
X033599Y022790D01*
X033582Y022851D01*
X033569Y022913D01*
X033560Y022975D01*
X033554Y023038D01*
X033552Y023102D01*
X033554Y023165D01*
X033560Y023228D01*
X033569Y023290D01*
X033582Y023352D01*
X033599Y023413D01*
X033620Y023473D01*
X033644Y023531D01*
X033672Y023588D01*
X033703Y023643D01*
X033737Y023696D01*
X033775Y023747D01*
X033815Y023796D01*
X033858Y023842D01*
X033904Y023885D01*
X033953Y023926D01*
X034004Y023963D01*
X034057Y023998D01*
X034112Y024029D01*
X034169Y024057D01*
X034227Y024081D01*
X034287Y024102D01*
X034290Y024093D01*
X034230Y024073D01*
X034173Y024049D01*
X034116Y024021D01*
X034062Y023990D01*
X034009Y023956D01*
X033959Y023919D01*
X033910Y023879D01*
X033865Y023836D01*
X033822Y023790D01*
X033782Y023742D01*
X033745Y023691D01*
X033711Y023639D01*
X033680Y023584D01*
X033652Y023528D01*
X033629Y023470D01*
X033608Y023410D01*
X033591Y023350D01*
X033578Y023289D01*
X033569Y023227D01*
X033563Y023164D01*
X033561Y023102D01*
X033563Y023039D01*
X033568Y022976D01*
X033578Y022914D01*
X033591Y022853D01*
X033608Y022793D01*
X033628Y022733D01*
X033652Y022675D01*
X033679Y022619D01*
X033710Y022564D01*
X033744Y022512D01*
X033781Y022461D01*
X033788Y022467D01*
X033751Y022517D01*
X033718Y022569D01*
X033687Y022623D01*
X033660Y022679D01*
X033637Y022737D01*
X033616Y022795D01*
X033600Y022855D01*
X033587Y022916D01*
X033577Y022978D01*
X033572Y023039D01*
X033570Y023102D01*
X033572Y023164D01*
X033578Y023226D01*
X033587Y023287D01*
X033600Y023348D01*
X033617Y023408D01*
X033637Y023466D01*
X033661Y023524D01*
X033688Y023580D01*
X033718Y023634D01*
X033752Y023686D01*
X033789Y023736D01*
X033829Y023784D01*
X033871Y023829D01*
X033916Y023872D01*
X033964Y023912D01*
X034014Y023949D01*
X034066Y023982D01*
X034120Y024013D01*
X034176Y024040D01*
X034234Y024064D01*
X034292Y024085D01*
X034295Y024076D01*
X034237Y024056D01*
X034180Y024032D01*
X034125Y024005D01*
X034071Y023975D01*
X034019Y023941D01*
X033970Y023905D01*
X033922Y023865D01*
X033878Y023823D01*
X033835Y023778D01*
X033796Y023731D01*
X033760Y023681D01*
X033726Y023629D01*
X033696Y023576D01*
X033669Y023520D01*
X033645Y023463D01*
X033625Y023405D01*
X033609Y023346D01*
X033596Y023285D01*
X033586Y023225D01*
X033581Y023163D01*
X033579Y023102D01*
X033581Y023040D01*
X033586Y022979D01*
X033596Y022918D01*
X033608Y022857D01*
X033625Y022798D01*
X033645Y022740D01*
X033668Y022683D01*
X033695Y022627D01*
X033725Y022574D01*
X033759Y022522D01*
X033795Y022472D01*
X012564Y019506D02*
X012564Y019381D01*
X012539Y019356D01*
X012514Y019356D01*
X012489Y019406D02*
X012564Y019406D01*
X012489Y019406D02*
X012464Y019431D01*
X012464Y019506D01*
X012416Y019506D02*
X012341Y019456D01*
X012416Y019406D01*
X012341Y019406D02*
X012341Y019556D01*
X012293Y019506D02*
X012243Y019506D01*
X012268Y019531D02*
X012268Y019431D01*
X012293Y019406D01*
X012195Y019406D02*
X012170Y019431D01*
X012170Y019531D01*
X012145Y019506D02*
X012195Y019506D01*
X012098Y019481D02*
X012073Y019506D01*
X012023Y019506D01*
X011998Y019481D01*
X011998Y019431D01*
X012023Y019406D01*
X012073Y019406D01*
X012098Y019431D01*
X012098Y019481D01*
X011951Y019481D02*
X011951Y019406D01*
X011951Y019481D02*
X011925Y019506D01*
X011875Y019506D01*
X011850Y019481D01*
X011803Y019506D02*
X011728Y019506D01*
X011703Y019481D01*
X011703Y019431D01*
X011728Y019406D01*
X011803Y019406D01*
X011850Y019406D02*
X011850Y019556D01*
X011656Y019531D02*
X011631Y019556D01*
X011581Y019556D01*
X011556Y019531D01*
X011556Y019506D01*
X011581Y019481D01*
X011631Y019481D01*
X011656Y019456D01*
X011656Y019431D01*
X011631Y019406D01*
X011581Y019406D01*
X011556Y019431D01*
X008609Y019646D02*
X008609Y019796D01*
X008609Y019721D02*
X008508Y019721D01*
X008508Y019646D02*
X008508Y019796D01*
X008461Y019796D02*
X008361Y019796D01*
X008411Y019796D02*
X008411Y019646D01*
X008314Y019721D02*
X008289Y019696D01*
X008214Y019696D01*
X008214Y019646D02*
X008214Y019796D01*
X008289Y019796D01*
X008314Y019771D01*
X008314Y019721D01*
X008167Y019721D02*
X008141Y019696D01*
X008066Y019696D01*
X008066Y019646D02*
X008066Y019796D01*
X008141Y019796D01*
X008167Y019771D01*
X008167Y019721D01*
X008116Y019696D02*
X008167Y019646D01*
X008019Y019646D02*
X007919Y019646D01*
X007919Y019796D01*
X008019Y019796D01*
X007969Y019721D02*
X007919Y019721D01*
X007872Y019646D02*
X007872Y019796D01*
X007772Y019796D02*
X007872Y019646D01*
X007772Y019646D02*
X007772Y019796D01*
X007725Y019796D02*
X007624Y019796D01*
X007624Y019646D01*
X007725Y019646D01*
X007675Y019721D02*
X007624Y019721D01*
X007577Y019771D02*
X007477Y019671D01*
X007477Y019646D01*
X007577Y019646D01*
X007577Y019771D02*
X007577Y019796D01*
X007477Y019796D01*
X007430Y019721D02*
X007330Y019721D01*
X007283Y019796D02*
X007183Y019796D01*
X007183Y019646D01*
X007283Y019646D01*
X007233Y019721D02*
X007183Y019721D01*
X007135Y019771D02*
X007110Y019796D01*
X007035Y019796D01*
X007035Y019646D01*
X007110Y019646D01*
X007135Y019671D01*
X007135Y019771D01*
X006988Y019771D02*
X006963Y019796D01*
X006913Y019796D01*
X006888Y019771D01*
X006888Y019671D01*
X006913Y019646D01*
X006963Y019646D01*
X006988Y019671D01*
X006988Y019771D01*
X006840Y019796D02*
X006790Y019796D01*
X006815Y019796D02*
X006815Y019646D01*
X006790Y019646D02*
X006840Y019646D01*
X006742Y019671D02*
X006742Y019771D01*
X006717Y019796D01*
X006642Y019796D01*
X006642Y019646D01*
X006717Y019646D01*
X006742Y019671D01*
X010125Y014796D02*
X010100Y014771D01*
X010100Y014746D01*
X010125Y014721D01*
X010175Y014721D01*
X010200Y014696D01*
X010200Y014671D01*
X010175Y014646D01*
X010125Y014646D01*
X010100Y014671D01*
X010125Y014796D02*
X010175Y014796D01*
X010200Y014771D01*
X010247Y014721D02*
X010247Y014671D01*
X010272Y014646D01*
X010347Y014646D01*
X010395Y014646D02*
X010395Y014796D01*
X010420Y014746D02*
X010470Y014746D01*
X010495Y014721D01*
X010495Y014646D01*
X010542Y014671D02*
X010542Y014721D01*
X010567Y014746D01*
X010617Y014746D01*
X010642Y014721D01*
X010642Y014671D01*
X010617Y014646D01*
X010567Y014646D01*
X010542Y014671D01*
X010420Y014746D02*
X010395Y014721D01*
X010347Y014746D02*
X010272Y014746D01*
X010247Y014721D01*
X010689Y014746D02*
X010739Y014746D01*
X010714Y014771D02*
X010714Y014671D01*
X010739Y014646D01*
X010812Y014671D02*
X010837Y014646D01*
X010812Y014671D02*
X010812Y014771D01*
X010787Y014746D02*
X010837Y014746D01*
X010886Y014796D02*
X010886Y014646D01*
X010886Y014696D02*
X010961Y014746D01*
X011008Y014746D02*
X011008Y014671D01*
X011033Y014646D01*
X011108Y014646D01*
X011108Y014621D02*
X011083Y014596D01*
X011058Y014596D01*
X011108Y014621D02*
X011108Y014746D01*
X010961Y014646D02*
X010886Y014696D01*
X010906Y012609D02*
X011056Y012609D01*
X010981Y012609D02*
X010981Y012508D01*
X011056Y012508D02*
X010906Y012508D01*
X010906Y012461D02*
X010906Y012361D01*
X010906Y012411D02*
X011056Y012411D01*
X010981Y012314D02*
X011006Y012289D01*
X011006Y012214D01*
X011056Y012214D02*
X010906Y012214D01*
X010906Y012289D01*
X010931Y012314D01*
X010981Y012314D01*
X010981Y012167D02*
X011006Y012141D01*
X011006Y012066D01*
X011056Y012066D02*
X010906Y012066D01*
X010906Y012141D01*
X010931Y012167D01*
X010981Y012167D01*
X011006Y012116D02*
X011056Y012167D01*
X011056Y012019D02*
X011056Y011919D01*
X010906Y011919D01*
X010906Y012019D01*
X010981Y011969D02*
X010981Y011919D01*
X011056Y011872D02*
X010906Y011872D01*
X010906Y011772D02*
X011056Y011872D01*
X011056Y011772D02*
X010906Y011772D01*
X010906Y011725D02*
X010906Y011624D01*
X011056Y011624D01*
X011056Y011725D01*
X010981Y011675D02*
X010981Y011624D01*
X010931Y011577D02*
X011031Y011477D01*
X011056Y011477D01*
X011056Y011577D01*
X010931Y011577D02*
X010906Y011577D01*
X010906Y011477D01*
X010981Y011430D02*
X010981Y011330D01*
X011056Y011283D02*
X011056Y011183D01*
X010906Y011183D01*
X010906Y011283D01*
X010981Y011233D02*
X010981Y011183D01*
X011031Y011135D02*
X010931Y011135D01*
X010906Y011110D01*
X010906Y011035D01*
X011056Y011035D01*
X011056Y011110D01*
X011031Y011135D01*
X011031Y010988D02*
X010931Y010988D01*
X010906Y010963D01*
X010906Y010913D01*
X010931Y010888D01*
X011031Y010888D01*
X011056Y010913D01*
X011056Y010963D01*
X011031Y010988D01*
X011056Y010840D02*
X011056Y010790D01*
X011056Y010815D02*
X010906Y010815D01*
X010906Y010790D02*
X010906Y010840D01*
X010931Y010742D02*
X010906Y010717D01*
X010906Y010642D01*
X011056Y010642D01*
X011056Y010717D01*
X011031Y010742D01*
X010931Y010742D01*
D18*
X031357Y020991D03*
D19*
X024331Y003641D03*
D20*
X026101Y004951D03*
D21*
X027826Y004701D03*
X024376Y004701D03*
D22*
X025601Y004701D03*
X026601Y004701D03*
D23*
X027101Y011826D03*
X029101Y011826D03*
X031101Y011826D03*
X033101Y011826D03*
X035101Y011826D03*
X035101Y016376D03*
X033101Y016376D03*
X031101Y016376D03*
X029101Y016376D03*
X027101Y016376D03*
X025101Y016376D03*
X023101Y016376D03*
X021101Y016376D03*
X019101Y016376D03*
X017101Y016376D03*
X017101Y011826D03*
X019101Y011826D03*
X021101Y011826D03*
X023101Y011826D03*
X025101Y011826D03*
M02*
