G75*
G70*
%OFA0B0*%
%FSLAX24Y24*%
%IPPOS*%
%LPD*%
%AMOC8*
5,1,8,0,0,1.08239X$1,22.5*
%
%ADD10R,0.0671X0.0277*%
%ADD11R,0.0277X0.0671*%
%ADD12R,0.0789X0.0710*%
%ADD13R,0.0820X0.0820*%
%ADD14C,0.0820*%
%ADD15R,0.0710X0.0789*%
%ADD16C,0.0860*%
%ADD17R,0.0730X0.0730*%
%ADD18C,0.0730*%
%ADD19C,0.0674*%
%ADD20R,0.0316X0.0946*%
%ADD21R,0.0218X0.0552*%
%ADD22C,0.0720*%
%ADD23C,0.1280*%
%ADD24R,0.0320X0.0950*%
%ADD25R,0.0630X0.0217*%
%ADD26R,0.0474X0.0789*%
%ADD27R,0.0552X0.0631*%
%ADD28OC8,0.0820*%
%ADD29C,0.1480*%
%ADD30C,0.0740*%
%ADD31C,0.1380*%
%ADD32C,0.1660*%
%ADD33OC8,0.1330*%
%ADD34C,0.0635*%
%ADD35OC8,0.0680*%
%ADD36OC8,0.0720*%
%ADD37R,0.0330X0.0580*%
D10*
X025317Y027526D03*
X025317Y027841D03*
X025317Y028156D03*
X025317Y028471D03*
X025317Y028786D03*
X025317Y029101D03*
X025317Y029416D03*
X025317Y029731D03*
X025317Y030046D03*
X025317Y030361D03*
X025317Y030676D03*
X029884Y030676D03*
X029884Y030361D03*
X029884Y030046D03*
X029884Y029731D03*
X029884Y029416D03*
X029884Y029101D03*
X029884Y028786D03*
X029884Y028471D03*
X029884Y028156D03*
X029884Y027841D03*
X029884Y027526D03*
D11*
X029176Y026817D03*
X028861Y026817D03*
X028546Y026817D03*
X028231Y026817D03*
X027916Y026817D03*
X027601Y026817D03*
X027286Y026817D03*
X026971Y026817D03*
X026656Y026817D03*
X026341Y026817D03*
X026026Y026817D03*
X026026Y031384D03*
X026341Y031384D03*
X026656Y031384D03*
X026971Y031384D03*
X027286Y031384D03*
X027601Y031384D03*
X027916Y031384D03*
X028231Y031384D03*
X028546Y031384D03*
X028861Y031384D03*
X029176Y031384D03*
D12*
X031851Y030152D03*
X031851Y029050D03*
X032601Y026152D03*
X032601Y025050D03*
X032601Y024152D03*
X032601Y023050D03*
X034101Y021652D03*
X035101Y021652D03*
X035101Y020550D03*
X034101Y020550D03*
X029601Y020152D03*
X028601Y020152D03*
X028601Y019050D03*
X029601Y019050D03*
X036851Y014652D03*
X036851Y013550D03*
X042801Y013550D03*
X042801Y014652D03*
X023101Y028550D03*
X023101Y029652D03*
X015351Y025652D03*
X014351Y025652D03*
X014351Y024550D03*
X015351Y024550D03*
X002101Y030050D03*
X002101Y031152D03*
X008101Y008652D03*
X008101Y007550D03*
X037601Y033550D03*
X037601Y034652D03*
D13*
X034601Y034601D03*
X045601Y013101D03*
D14*
X045601Y014101D03*
X045601Y015101D03*
X035101Y023101D03*
X034601Y023851D03*
X034101Y023101D03*
X034601Y033601D03*
X033601Y033601D03*
X032601Y033601D03*
X032601Y034601D03*
X033601Y034601D03*
X020601Y029101D03*
X020601Y028101D03*
X020601Y027101D03*
X020601Y026101D03*
X014851Y026851D03*
X004101Y016601D03*
X004101Y015601D03*
X004101Y014601D03*
X004101Y008601D03*
X004101Y007601D03*
X004101Y006601D03*
X004101Y005601D03*
X015101Y014101D03*
D15*
X009652Y013101D03*
X008550Y013101D03*
X008550Y011601D03*
X009652Y011601D03*
X008152Y014601D03*
X007050Y014601D03*
X007050Y016601D03*
X008152Y016601D03*
X008652Y020851D03*
X009550Y020851D03*
X010652Y020851D03*
X007550Y020851D03*
X011300Y023851D03*
X012402Y023851D03*
X027050Y025101D03*
X028152Y025101D03*
X037050Y025351D03*
X038152Y025351D03*
X041050Y028101D03*
X042152Y028101D03*
X046550Y031601D03*
X047652Y031601D03*
X047652Y023601D03*
X046550Y023601D03*
X028152Y033601D03*
X027050Y033601D03*
D16*
X042101Y009101D03*
X042101Y005101D03*
D17*
X040601Y011101D03*
X040601Y014601D03*
X041101Y030101D03*
D18*
X042101Y030101D03*
X040601Y013601D03*
X040601Y012101D03*
D19*
X013501Y019601D03*
X010701Y019601D03*
X009501Y019601D03*
X006701Y019601D03*
X009201Y014601D03*
X011101Y013501D03*
X012001Y014601D03*
X011101Y010701D03*
D20*
X024601Y018577D03*
X025101Y018577D03*
X025601Y018577D03*
X026101Y018577D03*
X026601Y018577D03*
X027101Y018577D03*
X027601Y018577D03*
X027601Y020624D03*
X027101Y020624D03*
X026601Y020624D03*
X026101Y020624D03*
X025601Y020624D03*
X025101Y020624D03*
X024601Y020624D03*
D21*
X030717Y021502D03*
X030973Y021502D03*
X031229Y021502D03*
X031485Y021502D03*
X031485Y019199D03*
X031229Y019199D03*
X030973Y019199D03*
X030717Y019199D03*
D22*
X027101Y004421D02*
X027101Y003781D01*
X026101Y003781D02*
X026101Y004421D01*
X025101Y004421D02*
X025101Y003781D01*
D23*
X020956Y005410D03*
X030995Y005410D03*
D24*
X012851Y025071D03*
X012351Y025071D03*
X011851Y025071D03*
X011351Y025071D03*
X011351Y027131D03*
X011851Y027131D03*
X012351Y027131D03*
X012851Y027131D03*
D25*
X035661Y027205D03*
X035661Y026949D03*
X035661Y026693D03*
X035661Y026437D03*
X035661Y027461D03*
X035661Y027717D03*
X035661Y027973D03*
X035661Y028229D03*
X035661Y028485D03*
X035661Y028741D03*
X035661Y028996D03*
X035661Y029252D03*
X035661Y029508D03*
X035661Y029764D03*
X038540Y029764D03*
X038540Y029508D03*
X038540Y029252D03*
X038540Y028996D03*
X038540Y028741D03*
X038540Y028485D03*
X038540Y028229D03*
X038540Y027973D03*
X038540Y027717D03*
X038540Y027461D03*
X038540Y027205D03*
X038540Y026949D03*
X038540Y026693D03*
X038540Y026437D03*
D26*
X041050Y027101D03*
X042152Y027101D03*
D27*
X044010Y023601D03*
X045191Y023601D03*
X045191Y031601D03*
X044010Y031601D03*
D28*
X005601Y031101D03*
X005601Y032101D03*
X004601Y032101D03*
X004601Y031101D03*
X004601Y030101D03*
X005601Y030101D03*
X005601Y033101D03*
X005601Y034101D03*
X004601Y034101D03*
X004601Y033101D03*
X004601Y035101D03*
X004601Y036101D03*
X005601Y036101D03*
X005601Y035101D03*
X005601Y037101D03*
X004601Y037101D03*
D29*
X002311Y002381D03*
X037331Y002381D03*
X037331Y037351D03*
X002311Y037351D03*
D30*
X043821Y028093D03*
X044601Y028093D03*
X044601Y027109D03*
X043821Y027109D03*
D31*
X045671Y025231D03*
X045671Y029971D03*
D32*
X045388Y008951D03*
X044207Y007101D03*
X046569Y007101D03*
D33*
X004601Y022601D03*
X004601Y025601D03*
X004101Y012601D03*
X004101Y010601D03*
D34*
X007601Y025601D03*
X007601Y027601D03*
X013101Y035601D03*
X013811Y036311D03*
X012391Y036311D03*
D35*
X017101Y017101D03*
X019101Y017101D03*
X021101Y017101D03*
X023101Y017101D03*
X025101Y017101D03*
X027101Y017101D03*
X029101Y017101D03*
X031101Y017101D03*
X033101Y017101D03*
X035101Y017101D03*
X035101Y011101D03*
X033101Y011101D03*
X031101Y011101D03*
X029101Y011101D03*
X027101Y011101D03*
X025101Y011101D03*
X023101Y011101D03*
X021101Y011101D03*
X019101Y011101D03*
X017101Y011101D03*
D36*
X009601Y022601D03*
X009601Y029601D03*
D37*
X011751Y028601D03*
X012101Y028601D03*
X012451Y028601D03*
M02*
