G75*
G70*
%OFA0B0*%
%FSLAX24Y24*%
%IPPOS*%
%LPD*%
%AMOC8*
5,1,8,0,0,1.08239X$1,22.5*
%
%ADD10R,0.0820X0.0820*%
%ADD11C,0.0820*%
%ADD12C,0.0860*%
%ADD13R,0.0730X0.0730*%
%ADD14C,0.0730*%
%ADD15C,0.0674*%
%ADD16C,0.0720*%
%ADD17C,0.1280*%
%ADD18OC8,0.0820*%
%ADD19C,0.1480*%
%ADD20C,0.0740*%
%ADD21C,0.1380*%
%ADD22C,0.1660*%
%ADD23OC8,0.1330*%
%ADD24C,0.0635*%
%ADD25OC8,0.0680*%
%ADD26OC8,0.0720*%
D10*
X034601Y034601D03*
X045601Y013101D03*
D11*
X045601Y014101D03*
X045601Y015101D03*
X035101Y023101D03*
X034601Y023851D03*
X034101Y023101D03*
X034601Y033601D03*
X033601Y033601D03*
X032601Y033601D03*
X032601Y034601D03*
X033601Y034601D03*
X020601Y029101D03*
X020601Y028101D03*
X020601Y027101D03*
X020601Y026101D03*
X014851Y026851D03*
X004101Y016601D03*
X004101Y015601D03*
X004101Y014601D03*
X004101Y008601D03*
X004101Y007601D03*
X004101Y006601D03*
X004101Y005601D03*
X015101Y014101D03*
D12*
X042101Y009101D03*
X042101Y005101D03*
D13*
X040601Y011101D03*
X040601Y014601D03*
X041101Y030101D03*
D14*
X042101Y030101D03*
X040601Y013601D03*
X040601Y012101D03*
D15*
X013501Y019601D03*
X010701Y019601D03*
X009501Y019601D03*
X006701Y019601D03*
X009201Y014601D03*
X011101Y013501D03*
X012001Y014601D03*
X011101Y010701D03*
D16*
X025101Y004421D02*
X025101Y003781D01*
X026101Y003781D02*
X026101Y004421D01*
X027101Y004421D02*
X027101Y003781D01*
D17*
X030995Y005410D03*
X020956Y005410D03*
D18*
X005601Y030101D03*
X004601Y030101D03*
X004601Y031101D03*
X004601Y032101D03*
X005601Y032101D03*
X005601Y031101D03*
X005601Y033101D03*
X005601Y034101D03*
X004601Y034101D03*
X004601Y033101D03*
X004601Y035101D03*
X004601Y036101D03*
X005601Y036101D03*
X005601Y035101D03*
X005601Y037101D03*
X004601Y037101D03*
D19*
X002311Y002381D03*
X037331Y002381D03*
X037331Y037351D03*
X002311Y037351D03*
D20*
X043821Y028093D03*
X044601Y028093D03*
X044601Y027109D03*
X043821Y027109D03*
D21*
X045671Y025231D03*
X045671Y029971D03*
D22*
X045388Y008951D03*
X044207Y007101D03*
X046569Y007101D03*
D23*
X004601Y022601D03*
X004601Y025601D03*
X004101Y012601D03*
X004101Y010601D03*
D24*
X007601Y025601D03*
X007601Y027601D03*
X013101Y035601D03*
X013811Y036311D03*
X012391Y036311D03*
D25*
X017101Y017101D03*
X019101Y017101D03*
X021101Y017101D03*
X023101Y017101D03*
X025101Y017101D03*
X027101Y017101D03*
X029101Y017101D03*
X031101Y017101D03*
X033101Y017101D03*
X035101Y017101D03*
X035101Y011101D03*
X033101Y011101D03*
X031101Y011101D03*
X029101Y011101D03*
X027101Y011101D03*
X025101Y011101D03*
X023101Y011101D03*
X021101Y011101D03*
X019101Y011101D03*
X017101Y011101D03*
D26*
X009601Y022601D03*
X009601Y029601D03*
M02*
