%
M48
M72
T01C0.0200
T02C0.0276
T03C0.0315
T04C0.0320
T05C0.0354
T06C0.0360
T07C0.0394
T08C0.0400
T09C0.0520
T10C0.0800
T11C0.0900
T12C0.1180
T13C0.1400
%
T01
X13101Y8601
X13101Y10601
X7851Y12851
X11101Y21601
X14351Y23851
X15351Y23851
X16101Y22601
X16101Y21601
X20601Y22601
X21601Y21601
X21101Y21101
X22101Y22601
X23101Y21601
X21601Y23601
X23101Y23851
X25101Y26601
X23101Y27851
X26851Y28601
X28101Y29601
X31101Y29351
X32601Y30351
X33101Y30351
X33601Y30351
X33601Y31601
X34101Y31601
X33101Y31601
X32601Y31601
X36601Y30101
X37601Y29101
X39101Y29101
X39601Y28101
X39601Y27101
X34601Y28101
X33101Y28101
X31101Y27101
X31601Y26351
X31351Y25601
X30351Y25601
X28101Y24351
X27601Y23601
X27601Y22851
X26101Y21351
X23101Y19101
X28601Y18351
X30601Y18601
X31351Y18601
X39101Y18601
X39101Y17601
X26351Y33601
X11601Y29601
T02
X40601Y14601
X40601Y13601
X40601Y12101
X40601Y11101
X41101Y30101
X42101Y30101
T03
X13811Y36311
X13101Y35601
X12391Y36311
X7601Y27601
X7601Y25601
T04
X34101Y23101
X34601Y23851
X35101Y23101
T05
X13501Y19601
X10701Y19601
X9501Y19601
X6701Y19601
X9201Y14601
X11101Y13501
X12001Y14601
X11101Y10701
T06
X17101Y11101
X19101Y11101
X21101Y11101
X23101Y11101
X25101Y11101
X27101Y11101
X29101Y11101
X31101Y11101
X33101Y11101
X35101Y11101
X35101Y17101
X33101Y17101
X31101Y17101
X29101Y17101
X27101Y17101
X25101Y17101
X23101Y17101
X21101Y17101
X19101Y17101
X17101Y17101
X43821Y27109
X44601Y27109
X44601Y28093
X43821Y28093
T07
X45601Y15101
X45601Y14101
X45601Y13101
X42101Y9101
X42101Y5101
T08
X27101Y4101
X26101Y4101
X25101Y4101
X15101Y14101
X9601Y22601
X14851Y26851
X9601Y29601
X5601Y30101
X4601Y30101
X4601Y31101
X4601Y32101
X5601Y32101
X5601Y31101
X5601Y33101
X5601Y34101
X4601Y34101
X4601Y33101
X4601Y35101
X4601Y36101
X5601Y36101
X5601Y35101
X5601Y37101
X4601Y37101
X20601Y29101
X20601Y28101
X20601Y27101
X20601Y26101
X32601Y33601
X33601Y33601
X34601Y33601
X34601Y34601
X33601Y34601
X32601Y34601
X4101Y16601
X4101Y15601
X4101Y14601
X4101Y8601
X4101Y7601
X4101Y6601
X4101Y5601
T09
X4101Y10601
X4101Y12601
X4601Y22601
X4601Y25601
T10
X20956Y5410
X30995Y5410
T11
X45671Y25231
X45671Y29971
T12
X45388Y8951
X44207Y7101
X46569Y7101
T13
X2311Y2381
X37331Y2381
X37331Y37351
X2311Y37351
M30
